<?xml version="1.0" standalone="no"?>
<!DOCTYPE svg PUBLIC "-//W3C//DTD SVG 20010904//EN"
 "http://www.w3.org/TR/2001/REC-SVG-20010904/DTD/svg10.dtd">
<svg version="1.0" xmlns="http://www.w3.org/2000/svg"
 width="260.000000pt" height="260.000000pt" viewBox="0 0 260.000000 260.000000"
 preserveAspectRatio="xMidYMid meet">
<metadata>
Created by potrace 1.11, written by Peter Selinger 2001-2013
</metadata>
<g transform="translate(0.000000,260.000000) scale(0.100000,-0.100000)"
fill="#000000" stroke="none">
<path d="M1155 2149 c-180 -34 -333 -118 -466 -255 -150 -157 -225 -332 -236
-554 -12 -258 87 -499 277 -672 390 -356 1015 -273 1292 172 322 517 38 1183
-554 1304 -83 17 -233 19 -313 5z m268 -80 c40 -6 108 -24 152 -40 88 -33 220
-116 220 -139 0 -8 -16 -23 -35 -32 -29 -15 -62 -18 -185 -18 -82 0 -167 -5
-188 -11 -75 -20 -156 -120 -157 -191 0 -26 3 -28 44 -28 42 0 44 2 50 33 7
38 47 80 89 96 16 6 95 11 176 11 158 0 195 7 250 48 l34 26 35 -40 c47 -54
98 -148 127 -234 91 -268 27 -568 -167 -775 -107 -115 -232 -189 -380 -227
-116 -29 -308 -22 -423 15 -199 65 -377 227 -465 421 -154 338 -40 744 266
956 165 114 360 159 557 129z"/>
<path d="M868 1565 c-142 -52 -240 -208 -224 -359 12 -124 89 -231 205 -284
102 -48 246 -31 333 38 33 27 44 30 108 30 60 0 76 -4 104 -25 100 -76 231
-92 342 -41 76 34 134 93 171 171 24 51 28 73 28 145 0 76 -4 93 -33 152 -39
80 -102 139 -178 168 -52 19 -76 20 -437 19 -298 0 -390 -3 -419 -14z m840
-101 c160 -80 190 -296 56 -414 -51 -44 -98 -62 -164 -62 -68 0 -115 19 -168
66 l-39 36 -105 0 c-104 0 -104 0 -134 -31 -94 -101 -266 -94 -359 14 -106
123 -69 314 74 389 l53 28 367 0 367 0 52 -26z"/>
<path d="M932 1398 c-7 -7 -12 -31 -12 -54 l0 -43 -47 -3 -48 -3 0 -45 0 -45
47 -3 47 -3 3 -47 3 -47 48 -3 47 -3 0 50 0 51 50 0 c44 0 50 3 56 24 3 13 4
35 2 47 -3 21 -10 25 -53 29 l-50 5 -3 45 c-2 24 -9 48 -15 52 -18 12 -62 9
-75 -4z"/>
<path d="M1570 1402 c-43 -13 -52 -64 -15 -88 29 -19 63 -11 74 19 14 37 -23
81 -59 69z"/>
<path d="M1440 1279 c-26 -47 25 -100 69 -72 20 13 26 60 10 79 -18 22 -66 18
-79 -7z"/>
<path d="M1644 1275 c-15 -23 -15 -27 0 -51 23 -33 64 -30 85 8 14 24 14 28
-3 47 -26 29 -62 27 -82 -4z"/>
<path d="M1545 1176 c-21 -32 -12 -64 21 -72 49 -12 82 24 61 67 -18 35 -61
38 -82 5z"/>
</g>
</svg>
