<svg width="485" height="408" viewBox="0 0 485 408" fill="none" xmlns="http://www.w3.org/2000/svg">
<rect width="485" height="408" fill="#1F2B2F"/>
<path d="M147.786 265.867C147.767 265.924 147.814 265.981 147.928 266.038C148.023 266.076 148.185 266.114 148.413 266.152C148.66 266.19 149.03 266.209 149.524 266.209C150.74 266.209 151.7 265.971 152.403 265.496C153.125 265.021 153.676 264.423 154.056 263.701C154.436 262.979 154.683 262.181 154.797 261.307C154.911 260.414 154.968 259.568 154.968 258.77C154.968 257.441 154.806 256.291 154.483 255.322C154.16 254.353 153.742 253.565 153.229 252.957C152.735 252.33 152.194 251.874 151.605 251.589C151.016 251.285 150.465 251.133 149.952 251.133C149.496 251.133 149.144 251.171 148.897 251.247C148.65 251.323 148.46 251.408 148.327 251.503C148.175 251.598 148.09 251.712 148.071 251.845C147.995 252.966 147.938 254.135 147.9 255.351C147.862 256.567 147.833 257.782 147.814 258.998C147.795 260.195 147.786 261.383 147.786 262.561C147.786 263.72 147.786 264.822 147.786 265.867ZM145.021 263.9C145.021 263.064 145.002 262.181 144.964 261.25C144.926 260.3 144.879 259.359 144.822 258.428C144.765 257.478 144.698 256.567 144.622 255.693C144.546 254.819 144.461 254.049 144.366 253.384C144.271 252.719 144.176 252.187 144.081 251.788C143.986 251.37 143.9 251.152 143.824 251.133C143.634 251.095 143.435 251.066 143.226 251.047C143.036 251.009 142.846 250.971 142.656 250.933C142.447 250.895 142.228 250.857 142 250.819V250.563C142.342 250.62 142.713 250.667 143.112 250.705C143.454 250.743 143.843 250.772 144.28 250.791C144.736 250.81 145.211 250.819 145.705 250.819C146.18 250.819 146.608 250.81 146.988 250.791C147.387 250.753 147.795 250.724 148.213 250.705C148.631 250.667 149.097 250.639 149.61 250.62C150.142 250.582 150.778 250.563 151.519 250.563C152.678 250.563 153.723 250.791 154.654 251.247C155.585 251.684 156.374 252.263 157.02 252.985C157.685 253.688 158.188 254.477 158.53 255.351C158.872 256.206 159.043 257.061 159.043 257.915C159.043 258.713 158.948 259.445 158.758 260.11C158.568 260.756 158.321 261.345 158.017 261.877C157.713 262.39 157.362 262.855 156.963 263.273C156.564 263.672 156.165 264.024 155.766 264.328C154.797 265.05 153.704 265.591 152.488 265.952C153.495 265.952 154.369 266.266 155.11 266.893C155.87 267.52 156.545 268.308 157.134 269.258C157.723 270.189 158.264 271.215 158.758 272.336C159.271 273.438 159.775 274.474 160.269 275.443C160.782 276.412 161.323 277.238 161.893 277.922C162.482 278.587 163.166 278.957 163.945 279.033C162.71 279.033 161.656 278.948 160.782 278.777C159.927 278.587 159.195 278.33 158.587 278.007C157.998 277.665 157.495 277.267 157.077 276.811C156.678 276.336 156.317 275.823 155.994 275.272C155.671 274.702 155.357 274.103 155.053 273.476C154.749 272.83 154.388 272.165 153.97 271.481C153.305 270.379 152.783 269.496 152.403 268.831C152.023 268.166 151.643 267.662 151.263 267.32C150.902 266.978 150.465 266.76 149.952 266.665C149.439 266.551 148.717 266.494 147.786 266.494C147.786 267.691 147.833 268.992 147.928 270.398C148.023 271.804 148.128 273.106 148.242 274.303C148.375 275.709 148.536 277.105 148.726 278.492L150.664 278.748V279.033L149.524 278.891C149.182 278.853 148.774 278.824 148.299 278.805C147.843 278.767 147.358 278.748 146.845 278.748C146.161 278.748 145.563 278.767 145.05 278.805C144.537 278.824 144.109 278.853 143.767 278.891C143.368 278.948 143.036 278.995 142.77 279.033V278.834C142.941 278.796 143.121 278.758 143.311 278.72C143.463 278.682 143.634 278.644 143.824 278.606C144.014 278.568 144.214 278.53 144.423 278.492C144.727 278.454 144.898 277.257 144.936 274.901C144.993 272.545 145.021 268.878 145.021 263.9ZM167.391 270.199C167.391 270.769 167.496 271.405 167.705 272.108C167.933 272.792 168.303 273.438 168.816 274.046C169.329 274.635 169.994 275.139 170.811 275.557C171.647 275.956 172.664 276.155 173.861 276.155C174.488 276.155 174.982 276.07 175.343 275.899C175.704 275.728 175.97 275.519 176.141 275.272C176.312 275.006 176.416 274.73 176.454 274.445C176.511 274.16 176.54 273.894 176.54 273.647C176.54 272.83 176.378 272.023 176.055 271.225C175.751 270.427 175.324 269.714 174.773 269.087C174.222 268.46 173.566 267.957 172.806 267.577C172.065 267.197 171.258 267.007 170.384 267.007C169.814 267.007 169.339 267.121 168.959 267.349C168.579 267.558 168.265 267.833 168.018 268.175C167.79 268.498 167.629 268.85 167.534 269.23C167.439 269.591 167.391 269.914 167.391 270.199ZM173.661 264.784C174.231 264.784 174.839 264.907 175.485 265.154C176.15 265.401 176.758 265.772 177.309 266.266C177.879 266.76 178.345 267.396 178.706 268.175C179.067 268.935 179.247 269.828 179.247 270.854C179.247 271.443 179.105 272.051 178.82 272.678C178.554 273.305 178.193 273.923 177.737 274.531C177.3 275.139 176.787 275.718 176.198 276.269C175.628 276.801 175.029 277.276 174.402 277.694C173.794 278.093 173.177 278.416 172.55 278.663C171.942 278.91 171.381 279.033 170.868 279.033C170.089 279.033 169.339 278.872 168.617 278.549C167.914 278.226 167.287 277.789 166.736 277.238C166.185 276.687 165.738 276.06 165.396 275.357C165.073 274.635 164.912 273.875 164.912 273.077C164.912 271.994 165.206 270.959 165.795 269.971C166.384 268.964 167.116 268.08 167.99 267.32C168.864 266.541 169.804 265.924 170.811 265.468C171.837 265.012 172.787 264.784 173.661 264.784ZM191.432 265.867C192.04 265.867 192.648 265.971 193.256 266.18C193.864 266.389 194.406 266.712 194.881 267.149C195.375 267.586 195.774 268.147 196.078 268.831C196.382 269.515 196.534 270.322 196.534 271.253C196.534 272.526 196.344 273.638 195.964 274.588C195.584 275.538 195.175 276.336 194.738 276.982C194.206 277.742 193.608 278.378 192.943 278.891C193.152 278.587 193.351 278.197 193.541 277.722C193.693 277.324 193.826 276.83 193.94 276.241C194.073 275.652 194.14 274.939 194.14 274.103C194.14 273.02 193.95 272.089 193.57 271.31C193.209 270.531 192.743 269.895 192.173 269.401C191.603 268.888 190.976 268.517 190.292 268.289C189.608 268.061 188.953 267.947 188.326 267.947C187.718 267.947 187.271 268.213 186.986 268.745C186.72 269.258 186.54 269.961 186.445 270.854C186.35 271.728 186.312 272.745 186.331 273.904C186.35 275.063 186.359 276.279 186.359 277.552C185.979 277.704 185.58 277.941 185.162 278.264C184.744 278.568 184.345 278.824 183.965 279.033C184.022 278.292 184.051 277.381 184.051 276.298C184.051 275.215 184.041 274.046 184.022 272.792C184.022 271.519 184.013 270.199 183.994 268.831C183.975 267.463 183.965 266.123 183.965 264.812C183.965 262.171 183.946 259.654 183.908 257.26C183.87 254.866 183.737 252.662 183.509 250.648C184.63 250.648 185.58 250.496 186.359 250.192C187.157 249.869 187.86 249.518 188.468 249.138C188.145 249.442 187.908 249.736 187.756 250.021C187.604 250.306 187.49 250.563 187.414 250.791C187.224 251.399 187.081 252.225 186.986 253.27C186.891 254.296 186.815 255.455 186.758 256.747C186.72 258.02 186.692 259.359 186.673 260.765C186.673 262.152 186.673 263.501 186.673 264.812V267.947C187.091 267.567 187.547 267.225 188.041 266.921C188.478 266.655 188.981 266.418 189.551 266.209C190.14 265.981 190.767 265.867 191.432 265.867ZM213.367 269.914C213.519 270.275 213.738 270.807 214.023 271.51C214.308 272.213 214.602 272.925 214.907 273.647C215.23 274.369 215.543 275.006 215.847 275.557C216.151 276.108 216.408 276.402 216.617 276.44C216.047 276.763 215.448 277.153 214.821 277.608C214.213 278.064 213.681 278.539 213.225 279.033C213.13 278.615 212.959 278.036 212.712 277.295C212.465 276.535 212.132 275.709 211.714 274.816C211.353 275.177 210.897 275.604 210.346 276.098C209.795 276.573 209.206 277.029 208.579 277.466C207.952 277.903 207.297 278.273 206.613 278.577C205.948 278.881 205.311 279.033 204.703 279.033C204.266 279.033 203.81 278.976 203.335 278.862C202.879 278.729 202.461 278.549 202.081 278.321C201.701 278.074 201.388 277.779 201.141 277.438C200.913 277.096 200.799 276.706 200.799 276.269C200.799 275.737 201.074 275.167 201.625 274.559C202.176 273.951 202.86 273.353 203.677 272.764C204.494 272.156 205.378 271.567 206.328 270.997C207.278 270.427 208.152 269.895 208.95 269.401C208.361 268.66 207.8 268.128 207.268 267.805C206.755 267.463 206.185 267.292 205.558 267.292C205.292 267.292 204.941 267.368 204.504 267.52C204.086 267.672 203.677 267.843 203.278 268.033C202.784 268.242 202.29 268.479 201.796 268.745C202.86 268.023 203.886 267.368 204.874 266.779C205.292 266.532 205.72 266.294 206.157 266.066C206.594 265.838 207.012 265.629 207.411 265.439C207.829 265.249 208.209 265.097 208.551 264.983C208.912 264.869 209.216 264.812 209.463 264.812C209.938 264.812 210.375 265.021 210.774 265.439C211.192 265.838 211.562 266.323 211.885 266.893C212.227 267.444 212.512 268.004 212.74 268.574C212.987 269.144 213.196 269.591 213.367 269.914ZM207.781 276.269C208.237 276.269 208.674 276.203 209.092 276.07C209.51 275.937 209.871 275.747 210.175 275.5C210.498 275.253 210.755 274.958 210.945 274.616C211.135 274.274 211.23 273.904 211.23 273.505C211.078 273.258 210.916 272.992 210.745 272.707C210.574 272.403 210.413 272.118 210.261 271.852C210.109 271.51 209.947 271.187 209.776 270.883C209.624 270.56 209.463 270.294 209.292 270.085C208.874 270.237 208.361 270.455 207.753 270.74C207.164 271.006 206.594 271.329 206.043 271.709C205.492 272.07 205.017 272.469 204.618 272.906C204.238 273.343 204.048 273.799 204.048 274.274C204.048 274.54 204.143 274.797 204.333 275.044C204.542 275.272 204.808 275.481 205.131 275.671C205.473 275.842 205.872 275.984 206.328 276.098C206.784 276.212 207.268 276.269 207.781 276.269ZM235.976 270.911C235.976 272.26 235.748 273.448 235.292 274.474C234.855 275.481 234.371 276.326 233.839 277.01C233.212 277.808 232.499 278.492 231.701 279.062C232.005 278.587 232.281 278.064 232.528 277.495C232.737 277.001 232.927 276.44 233.098 275.813C233.269 275.186 233.354 274.521 233.354 273.818C233.354 272.963 233.183 272.137 232.841 271.339C232.499 270.541 232.043 269.838 231.473 269.23C230.903 268.603 230.238 268.099 229.478 267.719C228.737 267.339 227.958 267.149 227.141 267.149C226.742 267.149 226.353 267.197 225.972 267.292C225.592 267.387 225.279 267.558 225.032 267.805C225.032 268.204 225.013 268.745 224.975 269.429C224.956 270.094 224.946 270.864 224.946 271.738C224.946 272.612 224.965 273.562 225.003 274.588C225.06 275.614 225.174 276.678 225.345 277.779C224.68 277.779 224.015 277.912 223.35 278.178C222.704 278.444 222.182 278.739 221.783 279.062C221.802 278.701 221.83 278.178 221.868 277.495C221.906 276.792 221.935 276.022 221.954 275.186C221.973 274.331 221.973 273.457 221.954 272.564C221.954 271.671 221.916 270.854 221.84 270.113C221.764 269.353 221.65 268.717 221.498 268.204C221.365 267.691 221.175 267.396 220.928 267.32C220.605 267.187 220.282 267.121 219.959 267.121C219.788 267.121 219.626 267.13 219.474 267.149C220.12 266.731 220.738 266.351 221.327 266.009C221.821 265.724 222.324 265.468 222.837 265.24C223.35 264.993 223.749 264.869 224.034 264.869C224.281 264.869 224.471 264.888 224.604 264.926C224.737 264.964 224.832 265.059 224.889 265.211C224.965 265.363 225.003 265.591 225.003 265.895C225.022 266.199 225.032 266.617 225.032 267.149C225.849 266.408 226.714 265.848 227.626 265.468C228.557 265.069 229.431 264.869 230.248 264.869C231.103 264.869 231.882 265.04 232.585 265.382C233.288 265.724 233.886 266.18 234.38 266.75C234.893 267.301 235.283 267.938 235.549 268.66C235.834 269.382 235.976 270.132 235.976 270.911Z" fill="#F5DFBE"/>
<path d="M246.502 250.79V250.534C246.73 250.591 247.005 250.638 247.328 250.676C247.594 250.714 247.936 250.743 248.354 250.762C248.772 250.781 249.257 250.79 249.808 250.79C250.454 250.79 251.014 250.781 251.489 250.762C251.983 250.743 252.392 250.714 252.715 250.676C253.095 250.638 253.427 250.591 253.712 250.534V250.79L252.373 251.075C252.335 251.36 252.354 251.845 252.43 252.529C252.525 253.194 252.658 253.992 252.829 254.923C253.019 255.854 253.237 256.889 253.484 258.029C253.75 259.169 254.026 260.347 254.311 261.563C254.615 262.76 254.928 263.976 255.251 265.211C255.593 266.427 255.926 267.595 256.249 268.716C256.572 269.837 256.885 270.873 257.189 271.823C257.493 272.773 257.778 273.571 258.044 274.217C258.367 273.267 258.709 272.127 259.07 270.797C259.431 269.448 259.773 268.032 260.096 266.55C260.438 265.049 260.761 263.52 261.065 261.962C261.369 260.404 261.626 258.931 261.835 257.545C262.063 256.158 262.234 254.904 262.348 253.783C262.481 252.643 262.538 251.74 262.519 251.075L261.037 250.79V250.534C261.322 250.591 261.635 250.638 261.977 250.676C262.262 250.714 262.585 250.743 262.946 250.762C263.307 250.781 263.678 250.79 264.058 250.79C264.609 250.79 265.074 250.781 265.454 250.762C265.834 250.743 266.157 250.714 266.423 250.676C266.727 250.638 266.974 250.591 267.164 250.534V250.79L266.252 251.075C264.922 255.293 263.659 259.245 262.462 262.931C261.949 264.508 261.426 266.104 260.894 267.719C260.362 269.334 259.84 270.863 259.327 272.307C258.833 273.751 258.367 275.062 257.93 276.24C257.512 277.418 257.151 278.359 256.847 279.062C256.543 278.435 256.201 277.57 255.821 276.468C255.441 275.366 255.033 274.122 254.596 272.735C254.178 271.348 253.741 269.866 253.285 268.289C252.829 266.712 252.373 265.144 251.917 263.586C251.461 262.028 251.014 260.527 250.577 259.083C250.159 257.64 249.76 256.348 249.38 255.208C249.019 254.068 248.696 253.127 248.411 252.386C248.126 251.645 247.889 251.208 247.699 251.075L246.502 250.79ZM277.162 275.955C277.713 275.955 278.226 275.889 278.701 275.756C279.195 275.604 279.623 275.433 279.984 275.243C280.402 275.034 280.791 274.796 281.152 274.53C280.639 275.385 280.022 276.145 279.3 276.81C278.692 277.38 277.922 277.903 276.991 278.378C276.079 278.834 275.015 279.062 273.799 279.062C272.925 279.062 272.089 278.91 271.291 278.606C270.493 278.302 269.781 277.865 269.154 277.295C268.546 276.725 268.061 276.031 267.7 275.214C267.339 274.378 267.159 273.447 267.159 272.421C267.159 271.49 267.301 270.673 267.586 269.97C267.89 269.248 268.28 268.621 268.755 268.089C269.23 267.557 269.762 267.12 270.351 266.778C270.94 266.417 271.519 266.123 272.089 265.895C273.913 265.154 275.158 264.783 275.823 264.783C276.526 264.783 277.134 264.907 277.647 265.154C278.179 265.382 278.635 265.638 279.015 265.923C279.433 266.265 279.803 266.645 280.126 267.063L270.721 270.854C270.854 271.652 271.044 272.364 271.291 272.991C271.538 273.618 271.899 274.15 272.374 274.587C272.849 275.024 273.467 275.366 274.227 275.613C274.987 275.841 275.965 275.955 277.162 275.955ZM272.545 266.436C272.279 266.436 272.023 266.512 271.776 266.664C271.529 266.797 271.301 266.978 271.092 267.206C270.902 267.434 270.75 267.69 270.636 267.975C270.541 268.26 270.503 268.545 270.522 268.83C270.522 269.134 270.522 269.429 270.522 269.714C270.541 269.999 270.579 270.284 270.636 270.569L275.424 268.374C275.234 268.013 274.996 267.69 274.711 267.405C274.464 267.158 274.16 266.94 273.799 266.75C273.438 266.541 273.02 266.436 272.545 266.436ZM294.058 264.897C294.343 264.897 294.647 264.907 294.97 264.926C295.293 264.945 295.559 265.002 295.768 265.097C295.559 265.382 295.359 265.743 295.169 266.18C294.979 266.617 294.808 267.035 294.656 267.434C294.466 267.928 294.295 268.422 294.143 268.916C294.01 268.84 293.839 268.764 293.63 268.688C293.459 268.631 293.241 268.574 292.975 268.517C292.728 268.46 292.424 268.431 292.063 268.431C291.493 268.431 291.018 268.593 290.638 268.916C290.277 269.22 289.982 269.628 289.754 270.141C289.526 270.635 289.346 271.186 289.213 271.794C289.099 272.402 289.013 272.991 288.956 273.561C288.956 274.663 288.966 275.518 288.985 276.126C289.023 276.734 289.042 277.228 289.042 277.608C288.795 277.665 288.519 277.751 288.215 277.865C287.93 277.96 287.636 278.083 287.332 278.235C287.028 278.368 286.724 278.511 286.42 278.663C286.135 278.796 285.878 278.929 285.65 279.062C285.745 278.207 285.821 277.323 285.878 276.411C285.954 275.499 286.002 274.606 286.021 273.732C286.059 272.858 286.059 272.032 286.021 271.253C286.002 270.455 285.945 269.761 285.85 269.172C285.774 268.564 285.669 268.08 285.536 267.719C285.403 267.339 285.242 267.13 285.052 267.092C284.957 267.073 284.852 267.063 284.738 267.063C284.624 267.063 284.51 267.063 284.396 267.063C284.263 267.063 284.13 267.073 283.997 267.092C284.51 266.921 285.023 266.721 285.536 266.493C285.973 266.284 286.458 266.047 286.99 265.781C287.522 265.496 288.035 265.173 288.529 264.812C288.586 265.059 288.633 265.401 288.671 265.838C288.709 266.256 288.747 266.74 288.785 267.291C288.823 267.823 288.852 268.393 288.871 269.001C288.89 269.609 288.918 270.208 288.956 270.797C289.241 270.151 289.574 269.486 289.954 268.802C290.334 268.099 290.742 267.462 291.179 266.892C291.616 266.303 292.082 265.828 292.576 265.467C293.07 265.087 293.564 264.897 294.058 264.897ZM317.403 264.783C318.22 264.783 318.961 264.954 319.626 265.296C320.31 265.619 320.889 266.066 321.364 266.636C321.858 267.206 322.238 267.861 322.504 268.602C322.77 269.343 322.903 270.122 322.903 270.939C322.903 272.25 322.685 273.409 322.248 274.416C321.811 275.404 321.326 276.24 320.794 276.924C320.167 277.722 319.474 278.425 318.714 279.033C319.018 278.558 319.284 278.036 319.512 277.466C319.721 276.972 319.901 276.402 320.053 275.756C320.224 275.11 320.31 274.426 320.31 273.704C320.31 272.849 320.139 272.022 319.797 271.224C319.474 270.426 319.027 269.723 318.457 269.115C317.887 268.488 317.232 267.994 316.491 267.633C315.75 267.253 314.971 267.063 314.154 267.063C313.831 267.063 313.517 267.101 313.213 267.177C312.909 267.253 312.634 267.377 312.387 267.548C313.052 268.536 313.384 269.666 313.384 270.939C313.384 272.25 313.166 273.409 312.729 274.416C312.292 275.404 311.807 276.24 311.275 276.924C310.648 277.722 309.945 278.425 309.166 279.033C309.47 278.558 309.736 278.036 309.964 277.466C310.173 276.972 310.363 276.402 310.534 275.756C310.705 275.11 310.791 274.426 310.791 273.704C310.791 272.849 310.62 272.022 310.278 271.224C309.955 270.426 309.508 269.723 308.938 269.115C308.368 268.488 307.713 267.994 306.972 267.633C306.231 267.253 305.451 267.063 304.634 267.063C304.235 267.063 303.846 267.12 303.466 267.234C303.086 267.329 302.772 267.538 302.525 267.861C302.525 268.222 302.506 268.735 302.468 269.4C302.449 270.065 302.44 270.825 302.44 271.68C302.44 272.535 302.459 273.476 302.497 274.502C302.554 275.509 302.668 276.535 302.839 277.58C302.554 277.618 302.25 277.684 301.927 277.779C301.604 277.874 301.281 277.988 300.958 278.121C300.635 278.254 300.321 278.397 300.017 278.549C299.732 278.701 299.485 278.862 299.276 279.033C299.295 278.653 299.324 278.112 299.362 277.409C299.419 276.706 299.466 275.936 299.504 275.1C299.542 274.264 299.561 273.4 299.561 272.507C299.561 271.614 299.523 270.797 299.447 270.056C299.371 269.315 299.257 268.688 299.105 268.175C298.953 267.643 298.744 267.32 298.478 267.206C298.155 267.073 297.861 267.006 297.595 267.006C297.462 267.006 297.329 267.025 297.196 267.063C297.842 266.645 298.45 266.265 299.02 265.923C299.514 265.638 299.998 265.382 300.473 265.154C300.948 264.907 301.309 264.783 301.556 264.783C301.803 264.783 301.993 264.802 302.126 264.84C302.259 264.878 302.354 264.973 302.411 265.125C302.468 265.277 302.497 265.505 302.497 265.809C302.516 266.113 302.525 266.531 302.525 267.063C303.342 266.398 304.207 265.857 305.119 265.439C306.05 265.002 306.972 264.783 307.884 264.783C308.777 264.783 309.584 265.002 310.306 265.439C311.028 265.857 311.674 266.398 312.244 267.063C312.966 266.398 313.774 265.857 314.667 265.439C315.579 265.002 316.491 264.783 317.403 264.783ZM339.751 269.913C339.903 270.274 340.121 270.806 340.406 271.509C340.691 272.212 340.986 272.925 341.29 273.647C341.613 274.369 341.926 275.005 342.231 275.556C342.535 276.107 342.791 276.402 343 276.44C342.43 276.763 341.831 277.152 341.204 277.608C340.596 278.064 340.064 278.539 339.608 279.033C339.513 278.615 339.342 278.036 339.095 277.295C338.848 276.535 338.516 275.708 338.098 274.815C337.737 275.176 337.281 275.604 336.73 276.098C336.179 276.573 335.59 277.029 334.963 277.466C334.336 277.903 333.68 278.273 332.996 278.577C332.331 278.881 331.695 279.033 331.087 279.033C330.65 279.033 330.194 278.976 329.719 278.862C329.263 278.729 328.845 278.549 328.465 278.321C328.085 278.074 327.771 277.779 327.524 277.437C327.296 277.095 327.182 276.706 327.182 276.269C327.182 275.737 327.458 275.167 328.009 274.559C328.56 273.951 329.244 273.352 330.061 272.763C330.878 272.155 331.761 271.566 332.711 270.996C333.661 270.426 334.535 269.894 335.333 269.4C334.744 268.659 334.184 268.127 333.652 267.804C333.139 267.462 332.569 267.291 331.942 267.291C331.676 267.291 331.324 267.367 330.887 267.519C330.469 267.671 330.061 267.842 329.662 268.032C329.168 268.241 328.674 268.479 328.18 268.745C329.244 268.023 330.27 267.367 331.258 266.778C331.676 266.531 332.103 266.294 332.54 266.066C332.977 265.838 333.395 265.629 333.794 265.439C334.212 265.249 334.592 265.097 334.934 264.983C335.295 264.869 335.599 264.812 335.846 264.812C336.321 264.812 336.758 265.021 337.157 265.439C337.575 265.838 337.946 266.322 338.269 266.892C338.611 267.443 338.896 268.004 339.124 268.574C339.371 269.144 339.58 269.59 339.751 269.913ZM334.165 276.269C334.621 276.269 335.058 276.202 335.476 276.069C335.894 275.936 336.255 275.746 336.559 275.499C336.882 275.252 337.138 274.958 337.328 274.616C337.518 274.274 337.613 273.903 337.613 273.504C337.461 273.257 337.3 272.991 337.129 272.706C336.958 272.402 336.796 272.117 336.644 271.851C336.492 271.509 336.331 271.186 336.16 270.882C336.008 270.559 335.846 270.293 335.675 270.084C335.257 270.236 334.744 270.455 334.136 270.74C333.547 271.006 332.977 271.329 332.426 271.709C331.875 272.07 331.4 272.469 331.001 272.906C330.621 273.343 330.431 273.799 330.431 274.274C330.431 274.54 330.526 274.796 330.716 275.043C330.925 275.271 331.191 275.48 331.514 275.67C331.856 275.841 332.255 275.984 332.711 276.098C333.167 276.212 333.652 276.269 334.165 276.269Z" fill="#F5DFBE"/>
<path d="M175.289 295.094C175.289 295.272 175.332 295.493 175.417 295.757C175.502 296.02 175.556 296.194 175.579 296.28C175.664 296.535 175.753 296.803 175.846 297.081L177.459 301.974L178.98 297.209C178.554 295.97 178.256 295.241 178.086 295.024C178.017 294.947 177.92 294.873 177.796 294.804C177.68 294.726 177.568 294.684 177.459 294.676C177.351 294.66 177.2 294.653 177.007 294.653L176.984 294.513H180.106L180.082 294.653C179.781 294.653 179.572 294.684 179.456 294.746C179.34 294.8 179.282 294.943 179.282 295.176C179.282 295.4 179.46 296.036 179.815 297.081L181.452 301.974L182.984 297.081C183.286 296.105 183.437 295.443 183.437 295.094C183.437 294.916 183.363 294.8 183.216 294.746C183.077 294.684 182.856 294.653 182.555 294.653L182.531 294.513H185.352L185.34 294.653C184.953 294.653 184.667 294.703 184.481 294.804C184.295 294.897 184.117 295.106 183.947 295.431C183.777 295.757 183.568 296.307 183.321 297.081L181.545 302.706H180.802L179.119 297.686L177.564 302.706H176.833L174.952 297.081C174.744 296.454 174.585 296.005 174.477 295.733C174.376 295.454 174.248 295.222 174.094 295.036C173.947 294.842 173.803 294.73 173.664 294.699C173.525 294.668 173.312 294.653 173.026 294.653L173.003 294.513H176.125L176.101 294.653C175.8 294.653 175.587 294.68 175.463 294.734C175.347 294.788 175.289 294.908 175.289 295.094ZM189.953 299.708H186.146V299.905C186.146 300.727 186.32 301.354 186.669 301.788C187.017 302.214 187.45 302.427 187.968 302.427C188.742 302.427 189.299 302.117 189.64 301.498L189.814 301.591C189.411 302.373 188.738 302.764 187.794 302.764C187.098 302.764 186.502 302.513 186.007 302.009C185.512 301.505 185.264 300.827 185.264 299.975C185.264 299.115 185.481 298.41 185.914 297.86C186.355 297.31 186.939 297.035 187.667 297.035C188.402 297.035 188.967 297.287 189.361 297.79C189.756 298.286 189.953 298.925 189.953 299.708ZM187.701 297.267C187.253 297.267 186.897 297.461 186.634 297.848C186.378 298.228 186.224 298.736 186.169 299.371H189.059C189.005 297.969 188.553 297.267 187.701 297.267ZM194.934 297.035C195.437 297.035 195.858 297.186 196.199 297.488C196.802 298.023 197.104 298.832 197.104 299.917C197.104 300.746 196.841 301.428 196.315 301.963C195.797 302.497 195.092 302.764 194.203 302.764C193.839 302.764 193.502 302.737 193.193 302.683C192.883 302.629 192.663 302.578 192.531 302.532L192.346 302.451V296.163C192.346 295.319 192.299 294.808 192.206 294.629C192.175 294.575 192.117 294.525 192.032 294.478C191.947 294.424 191.858 294.393 191.765 294.385C191.672 294.378 191.541 294.374 191.371 294.374L191.347 294.246C191.905 294.153 192.508 294.106 193.158 294.106V298.557C193.483 297.542 194.075 297.035 194.934 297.035ZM193.158 302.079C193.452 302.311 193.804 302.427 194.214 302.427C194.632 302.427 194.972 302.346 195.236 302.183C195.499 302.021 195.696 301.811 195.827 301.556C195.967 301.292 196.067 301.025 196.129 300.754C196.191 300.475 196.222 300.196 196.222 299.917C196.222 299.638 196.199 299.367 196.152 299.104C196.114 298.84 196.044 298.573 195.944 298.302C195.851 298.031 195.7 297.814 195.491 297.651C195.282 297.48 195.015 297.395 194.69 297.395C194.365 297.395 194.075 297.566 193.82 297.907C193.564 298.247 193.39 298.604 193.297 298.976C193.204 299.34 193.158 299.661 193.158 299.94V302.079ZM204.551 294.513C205.882 294.513 206.88 294.629 207.546 294.862C207.848 294.97 208.169 295.125 208.509 295.327C208.85 295.528 209.124 295.768 209.333 296.047C209.55 296.326 209.728 296.682 209.867 297.116C210.014 297.55 210.087 298.038 210.087 298.581C210.087 299.115 210.014 299.599 209.867 300.033C209.728 300.459 209.55 300.812 209.333 301.091C209.124 301.37 208.861 301.614 208.544 301.823C208.234 302.024 207.94 302.176 207.662 302.276C207.383 302.377 207.074 302.458 206.733 302.52C206.277 302.606 205.809 302.648 205.329 302.648H202.207L202.23 302.509C202.617 302.509 202.899 302.435 203.077 302.288C203.271 302.125 203.368 301.37 203.368 300.022V297.14C203.368 296.311 203.34 295.745 203.286 295.443C203.24 295.133 203.17 294.939 203.077 294.862C202.899 294.715 202.617 294.641 202.23 294.641L202.207 294.513H204.551ZM204.609 302.369C204.702 302.377 204.892 302.381 205.178 302.381C205.472 302.381 205.789 302.35 206.13 302.288C206.478 302.226 206.834 302.11 207.198 301.939C207.569 301.761 207.886 301.536 208.149 301.265C208.42 300.994 208.641 300.63 208.811 300.173C208.989 299.708 209.078 299.181 209.078 298.592C209.078 297.996 208.993 297.469 208.822 297.012C208.652 296.555 208.432 296.19 208.161 295.919C207.89 295.64 207.573 295.412 207.209 295.234C206.567 294.931 205.859 294.78 205.085 294.78C204.737 294.78 204.435 294.804 204.18 294.85V300.161C204.18 300.998 204.203 301.552 204.25 301.823C204.296 302.094 204.416 302.276 204.609 302.369ZM216.223 299.708H212.417V299.905C212.417 300.727 212.591 301.354 212.939 301.788C213.287 302.214 213.72 302.427 214.239 302.427C215.012 302.427 215.57 302.117 215.91 301.498L216.084 301.591C215.682 302.373 215.009 302.764 214.065 302.764C213.368 302.764 212.772 302.513 212.277 302.009C211.782 301.505 211.534 300.827 211.534 299.975C211.534 299.115 211.751 298.41 212.184 297.86C212.625 297.31 213.21 297.035 213.937 297.035C214.672 297.035 215.237 297.287 215.631 297.79C216.026 298.286 216.223 298.925 216.223 299.708ZM213.972 297.267C213.523 297.267 213.167 297.461 212.904 297.848C212.649 298.228 212.494 298.736 212.44 299.371H215.33C215.276 297.969 214.823 297.267 213.972 297.267ZM219.231 297.814C219.231 298.17 219.413 298.805 219.776 299.72L220.67 301.974L221.575 299.185C221.753 298.627 221.842 298.205 221.842 297.918C221.842 297.5 221.572 297.291 221.03 297.291L221.007 297.151H223.189L223.166 297.291C222.848 297.291 222.624 297.395 222.492 297.604C222.368 297.806 222.132 298.437 221.784 299.499L220.74 302.683H220.055L218.546 298.825C218.291 298.174 218.059 297.756 217.85 297.57C217.649 297.384 217.405 297.291 217.119 297.291L217.095 297.151H219.974L219.951 297.291C219.68 297.291 219.49 297.333 219.382 297.418C219.281 297.504 219.231 297.635 219.231 297.814ZM228.809 299.708H225.002V299.905C225.002 300.727 225.176 301.354 225.524 301.788C225.873 302.214 226.306 302.427 226.824 302.427C227.598 302.427 228.155 302.117 228.496 301.498L228.67 301.591C228.267 302.373 227.594 302.764 226.65 302.764C225.954 302.764 225.358 302.513 224.863 302.009C224.368 301.505 224.12 300.827 224.12 299.975C224.12 299.115 224.337 298.41 224.77 297.86C225.211 297.31 225.795 297.035 226.523 297.035C227.258 297.035 227.822 297.287 228.217 297.79C228.612 298.286 228.809 298.925 228.809 299.708ZM226.557 297.267C226.109 297.267 225.753 297.461 225.49 297.848C225.234 298.228 225.079 298.736 225.025 299.371H227.915C227.861 297.969 227.408 297.267 226.557 297.267ZM232.095 294.095V300.626C232.095 301.486 232.145 302.017 232.246 302.218C232.346 302.412 232.625 302.509 233.081 302.509L233.105 302.648H230.261L230.284 302.509C230.748 302.509 231.031 302.412 231.131 302.218C231.232 302.024 231.282 301.494 231.282 300.626V296.187C231.282 295.327 231.236 294.808 231.143 294.629C231.112 294.575 231.054 294.521 230.969 294.467C230.884 294.412 230.791 294.381 230.69 294.374C230.598 294.366 230.462 294.362 230.284 294.362L230.261 294.234C230.841 294.141 231.453 294.095 232.095 294.095ZM234.495 299.905C234.495 299.092 234.727 298.41 235.192 297.86C235.656 297.31 236.287 297.035 237.083 297.035C237.88 297.035 238.523 297.31 239.01 297.86C239.498 298.41 239.741 299.092 239.741 299.905C239.741 300.719 239.505 301.401 239.033 301.951C238.569 302.493 237.938 302.764 237.142 302.764C236.345 302.764 235.702 302.489 235.215 301.939C234.735 301.389 234.495 300.711 234.495 299.905ZM235.83 301.788C236.14 302.284 236.577 302.532 237.142 302.532C237.706 302.532 238.132 302.288 238.418 301.8C238.712 301.312 238.859 300.684 238.859 299.917C238.859 299.142 238.704 298.507 238.395 298.011C238.085 297.515 237.648 297.267 237.083 297.267C236.526 297.267 236.101 297.515 235.807 298.011C235.521 298.499 235.377 299.127 235.377 299.894C235.377 300.661 235.528 301.292 235.83 301.788ZM242.878 298.557C243.009 298.131 243.218 297.771 243.504 297.477C243.798 297.182 244.189 297.035 244.676 297.035C245.172 297.035 245.586 297.186 245.918 297.488C246.522 298.023 246.824 298.832 246.824 299.917C246.824 300.731 246.576 301.409 246.081 301.951C245.586 302.493 244.959 302.764 244.201 302.764C243.651 302.764 243.21 302.66 242.878 302.451V303.822C242.878 304.287 242.881 304.624 242.889 304.833C242.905 305.042 242.947 305.22 243.017 305.368C243.094 305.523 243.191 305.616 243.307 305.647C243.431 305.678 243.616 305.693 243.864 305.693L243.887 305.832H241.079L241.102 305.693C241.551 305.693 241.821 305.592 241.914 305.391C242.015 305.197 242.065 304.674 242.065 303.822V298.918C242.065 298.499 242.057 298.201 242.042 298.023C242.034 297.845 241.992 297.69 241.914 297.558C241.845 297.426 241.752 297.353 241.636 297.337C241.527 297.314 241.349 297.302 241.102 297.302L241.079 297.174C241.628 297.081 242.228 297.035 242.878 297.035V298.557ZM244.05 302.427C244.762 302.427 245.261 302.16 245.547 301.625C245.81 301.137 245.942 300.568 245.942 299.917C245.942 299.336 245.856 298.798 245.686 298.302C245.586 298.031 245.431 297.814 245.222 297.651C245.013 297.48 244.762 297.395 244.468 297.395C244.181 297.395 243.926 297.5 243.702 297.709C243.477 297.91 243.311 298.162 243.203 298.464C242.986 299.069 242.878 299.58 242.878 299.998V301.811C243.117 302.222 243.508 302.427 244.05 302.427ZM253.016 299.708H249.209V299.905C249.209 300.727 249.383 301.354 249.732 301.788C250.08 302.214 250.513 302.427 251.032 302.427C251.805 302.427 252.362 302.117 252.703 301.498L252.877 301.591C252.475 302.373 251.801 302.764 250.857 302.764C250.161 302.764 249.565 302.513 249.07 302.009C248.575 301.505 248.327 300.827 248.327 299.975C248.327 299.115 248.544 298.41 248.977 297.86C249.418 297.31 250.002 297.035 250.73 297.035C251.465 297.035 252.03 297.287 252.424 297.79C252.819 298.286 253.016 298.925 253.016 299.708ZM250.765 297.267C250.316 297.267 249.96 297.461 249.697 297.848C249.441 298.228 249.287 298.736 249.233 299.371H252.122C252.068 297.969 251.616 297.267 250.765 297.267ZM258.218 296.977C258.411 296.977 258.581 297.019 258.728 297.105C258.875 297.19 258.949 297.306 258.949 297.453C258.949 297.601 258.902 297.717 258.81 297.802C258.717 297.887 258.612 297.93 258.496 297.93C258.38 297.93 258.233 297.879 258.055 297.779C257.885 297.678 257.703 297.628 257.51 297.628C257.208 297.628 256.96 297.907 256.767 298.464C256.581 299.022 256.488 299.669 256.488 300.405C256.488 301.397 256.539 301.997 256.639 302.207C256.67 302.276 256.728 302.342 256.813 302.404C256.898 302.458 256.987 302.489 257.08 302.497C257.173 302.505 257.305 302.509 257.475 302.509L257.498 302.648H254.678L254.701 302.509C254.949 302.509 255.127 302.497 255.235 302.474C255.351 302.443 255.448 302.346 255.525 302.183C255.602 302.021 255.645 301.819 255.653 301.579C255.668 301.331 255.676 300.94 255.676 300.405V299.731C255.676 298.654 255.645 298.042 255.583 297.895C255.529 297.748 255.479 297.632 255.432 297.546C255.386 297.461 255.316 297.403 255.223 297.372C255.053 297.326 254.829 297.302 254.55 297.302L254.527 297.174C255.185 297.081 255.838 297.035 256.488 297.035V298.743C256.573 298.193 256.763 297.763 257.057 297.453C257.359 297.136 257.746 296.977 258.218 296.977ZM259.705 303.636L262.165 294.862H262.873L260.413 303.636H259.705ZM266.855 294.513C268.186 294.513 269.184 294.629 269.85 294.862C270.151 294.97 270.472 295.125 270.813 295.327C271.153 295.528 271.428 295.768 271.637 296.047C271.854 296.326 272.032 296.682 272.171 297.116C272.318 297.55 272.391 298.038 272.391 298.581C272.391 299.115 272.318 299.599 272.171 300.033C272.032 300.459 271.854 300.812 271.637 301.091C271.428 301.37 271.165 301.614 270.848 301.823C270.538 302.024 270.244 302.176 269.966 302.276C269.687 302.377 269.378 302.458 269.037 302.52C268.581 302.606 268.113 302.648 267.633 302.648H264.511L264.534 302.509C264.921 302.509 265.203 302.435 265.381 302.288C265.575 302.125 265.671 301.37 265.671 300.022V297.14C265.671 296.311 265.644 295.745 265.59 295.443C265.544 295.133 265.474 294.939 265.381 294.862C265.203 294.715 264.921 294.641 264.534 294.641L264.511 294.513H266.855ZM266.913 302.369C267.006 302.377 267.196 302.381 267.482 302.381C267.776 302.381 268.093 302.35 268.434 302.288C268.782 302.226 269.138 302.11 269.501 301.939C269.873 301.761 270.19 301.536 270.453 301.265C270.724 300.994 270.944 300.63 271.115 300.173C271.293 299.708 271.382 299.181 271.382 298.592C271.382 297.996 271.297 297.469 271.126 297.012C270.956 296.555 270.736 296.19 270.465 295.919C270.194 295.64 269.877 295.412 269.513 295.234C268.871 294.931 268.163 294.78 267.389 294.78C267.041 294.78 266.739 294.804 266.484 294.85V300.161C266.484 300.998 266.507 301.552 266.553 301.823C266.6 302.094 266.72 302.276 266.913 302.369ZM278.527 299.708H274.72V299.905C274.72 300.727 274.894 301.354 275.243 301.788C275.591 302.214 276.024 302.427 276.542 302.427C277.316 302.427 277.873 302.117 278.214 301.498L278.388 301.591C277.986 302.373 277.312 302.764 276.368 302.764C275.672 302.764 275.076 302.513 274.581 302.009C274.086 301.505 273.838 300.827 273.838 299.975C273.838 299.115 274.055 298.41 274.488 297.86C274.929 297.31 275.513 297.035 276.241 297.035C276.976 297.035 277.541 297.287 277.935 297.79C278.33 298.286 278.527 298.925 278.527 299.708ZM276.276 297.267C275.827 297.267 275.471 297.461 275.208 297.848C274.952 298.228 274.798 298.736 274.744 299.371H277.633C277.579 297.969 277.127 297.267 276.276 297.267ZM280.525 300.917C280.525 301.42 280.66 301.8 280.931 302.055C281.202 302.303 281.523 302.427 281.894 302.427C282.273 302.427 282.579 302.342 282.811 302.172C283.043 302.001 283.159 301.773 283.159 301.486C283.159 301.192 283.059 300.951 282.858 300.765C282.664 300.58 282.428 300.428 282.15 300.312C281.871 300.196 281.589 300.076 281.302 299.952C281.024 299.828 280.784 299.646 280.583 299.406C280.389 299.166 280.293 298.844 280.293 298.441C280.293 298.038 280.471 297.705 280.826 297.442C281.19 297.171 281.608 297.035 282.08 297.035C282.753 297.035 283.279 297.143 283.658 297.36C283.658 297.717 283.612 298.213 283.519 298.848L283.38 298.813C283.38 298.302 283.264 297.93 283.032 297.697C282.8 297.465 282.517 297.349 282.184 297.349C281.859 297.349 281.596 297.434 281.395 297.604C281.202 297.775 281.105 298.007 281.105 298.302C281.105 298.588 281.202 298.821 281.395 298.999C281.596 299.169 281.836 299.313 282.115 299.429C282.393 299.545 282.672 299.669 282.95 299.801C283.237 299.925 283.477 300.107 283.67 300.347C283.871 300.58 283.972 300.866 283.972 301.207C283.972 301.703 283.778 302.086 283.391 302.358C283.005 302.629 282.494 302.764 281.859 302.764C281.233 302.764 280.703 302.598 280.269 302.265C280.269 301.877 280.308 301.42 280.385 300.893L280.525 300.917ZM286.469 295.64C286.337 295.509 286.272 295.354 286.272 295.176C286.272 294.997 286.337 294.842 286.469 294.711C286.601 294.579 286.755 294.513 286.933 294.513C287.111 294.513 287.266 294.579 287.397 294.711C287.529 294.842 287.595 294.997 287.595 295.176C287.595 295.354 287.529 295.509 287.397 295.64C287.266 295.772 287.111 295.838 286.933 295.838C286.755 295.838 286.601 295.772 286.469 295.64ZM287.374 297.035V300.731C287.374 301.544 287.421 302.044 287.514 302.23C287.614 302.416 287.893 302.509 288.349 302.509L288.372 302.648H285.54L285.564 302.509C286.028 302.509 286.31 302.416 286.411 302.23C286.512 302.036 286.562 301.529 286.562 300.707V299.894C286.562 298.995 286.535 298.402 286.481 298.116C286.434 297.821 286.365 297.632 286.272 297.546C286.086 297.376 285.8 297.291 285.413 297.291L285.39 297.163C286.063 297.078 286.724 297.035 287.374 297.035ZM293.878 296.907L293.809 296.314C293.809 296.167 293.851 296.051 293.936 295.966C294.029 295.881 294.134 295.838 294.25 295.838C294.366 295.838 294.466 295.881 294.551 295.966C294.644 296.051 294.691 296.167 294.691 296.314C294.691 296.748 294.37 297.217 293.727 297.721C294.068 298.1 294.238 298.557 294.238 299.092C294.238 299.619 294.029 300.084 293.611 300.487C293.193 300.889 292.683 301.091 292.079 301.091C291.654 301.091 291.275 300.99 290.942 300.789C290.617 301.083 290.454 301.397 290.454 301.73C290.454 301.955 290.536 302.137 290.698 302.276C290.868 302.408 291.124 302.474 291.464 302.474C291.812 302.474 292.102 302.478 292.335 302.485C292.567 302.493 292.841 302.509 293.159 302.532C293.476 302.555 293.72 302.598 293.89 302.66C294.068 302.722 294.246 302.803 294.424 302.904C294.749 303.09 294.911 303.411 294.911 303.868C294.911 304.426 294.621 304.91 294.041 305.321C293.468 305.74 292.725 305.949 291.812 305.949C291.116 305.949 290.551 305.817 290.118 305.554C289.685 305.298 289.468 304.957 289.468 304.531C289.468 304.229 289.568 303.938 289.77 303.659C289.971 303.388 290.23 303.202 290.547 303.101C290.098 302.923 289.874 302.575 289.874 302.055C289.874 301.808 289.955 301.556 290.118 301.3C290.28 301.037 290.489 300.824 290.745 300.661C290.195 300.243 289.921 299.723 289.921 299.104C289.921 298.476 290.129 297.976 290.547 297.604C290.965 297.225 291.472 297.035 292.068 297.035C292.671 297.035 293.178 297.217 293.588 297.581C293.782 297.387 293.878 297.163 293.878 296.907ZM290.28 304.415C290.28 304.802 290.431 305.112 290.733 305.344C291.042 305.577 291.464 305.693 291.998 305.693C292.54 305.693 293.023 305.542 293.449 305.24C293.882 304.938 294.099 304.577 294.099 304.159C294.099 303.748 293.882 303.481 293.449 303.357C293.023 303.233 292.168 303.171 290.884 303.171C290.737 303.256 290.598 303.415 290.466 303.648C290.342 303.888 290.28 304.143 290.28 304.415ZM291.104 300.301C291.329 300.626 291.654 300.789 292.079 300.789C292.505 300.789 292.83 300.626 293.054 300.301C293.279 299.967 293.391 299.545 293.391 299.034C293.391 298.515 293.279 298.1 293.054 297.79C292.83 297.48 292.505 297.326 292.079 297.326C291.654 297.326 291.329 297.48 291.104 297.79C290.88 298.1 290.768 298.515 290.768 299.034C290.768 299.545 290.88 299.967 291.104 300.301ZM297.999 297.035V299.115C298.069 298.557 298.262 298.073 298.579 297.663C298.897 297.244 299.318 297.035 299.844 297.035C301.028 297.035 301.62 297.655 301.62 298.894V300.731C301.62 301.536 301.67 302.036 301.771 302.23C301.879 302.416 302.158 302.509 302.607 302.509L302.63 302.648H299.81L299.833 302.509C300.297 302.509 300.576 302.412 300.668 302.218C300.761 302.024 300.808 301.494 300.808 300.626V299.011C300.808 298.476 300.723 298.073 300.552 297.802C300.39 297.531 300.127 297.395 299.763 297.395C299.407 297.395 299.109 297.519 298.87 297.767C298.63 298.007 298.452 298.313 298.336 298.685C298.111 299.406 297.999 300.13 297.999 300.858C297.999 301.587 298.045 302.044 298.138 302.23C298.239 302.416 298.517 302.509 298.974 302.509L298.997 302.648H296.165L296.188 302.509C296.653 302.509 296.935 302.416 297.036 302.23C297.136 302.036 297.187 301.529 297.187 300.707V299.778C297.187 298.616 297.129 297.914 297.013 297.674C296.974 297.589 296.904 297.511 296.804 297.442C296.711 297.372 296.606 297.329 296.49 297.314C296.382 297.298 296.231 297.291 296.038 297.291L296.014 297.163C296.688 297.078 297.349 297.035 297.999 297.035ZM308.71 299.708H304.903V299.905C304.903 300.727 305.078 301.354 305.426 301.788C305.774 302.214 306.207 302.427 306.726 302.427C307.499 302.427 308.056 302.117 308.397 301.498L308.571 301.591C308.169 302.373 307.495 302.764 306.552 302.764C305.855 302.764 305.259 302.513 304.764 302.009C304.269 301.505 304.021 300.827 304.021 299.975C304.021 299.115 304.238 298.41 304.671 297.86C305.112 297.31 305.697 297.035 306.424 297.035C307.159 297.035 307.724 297.287 308.118 297.79C308.513 298.286 308.71 298.925 308.71 299.708ZM306.459 297.267C306.01 297.267 305.654 297.461 305.391 297.848C305.136 298.228 304.981 298.736 304.927 299.371H307.817C307.762 297.969 307.31 297.267 306.459 297.267ZM313.911 296.977C314.105 296.977 314.275 297.019 314.422 297.105C314.569 297.19 314.642 297.306 314.642 297.453C314.642 297.601 314.596 297.717 314.503 297.802C314.41 297.887 314.306 297.93 314.19 297.93C314.074 297.93 313.927 297.879 313.749 297.779C313.578 297.678 313.397 297.628 313.203 297.628C312.901 297.628 312.654 297.907 312.46 298.464C312.275 299.022 312.182 299.669 312.182 300.405C312.182 301.397 312.232 301.997 312.333 302.207C312.364 302.276 312.422 302.342 312.507 302.404C312.592 302.458 312.681 302.489 312.774 302.497C312.867 302.505 312.998 302.509 313.168 302.509L313.192 302.648H310.371L310.394 302.509C310.642 302.509 310.82 302.497 310.928 302.474C311.044 302.443 311.141 302.346 311.218 302.183C311.296 302.021 311.338 301.819 311.346 301.579C311.362 301.331 311.369 300.94 311.369 300.405V299.731C311.369 298.654 311.338 298.042 311.277 297.895C311.222 297.748 311.172 297.632 311.126 297.546C311.079 297.461 311.01 297.403 310.917 297.372C310.746 297.326 310.522 297.302 310.244 297.302L310.22 297.174C310.878 297.081 311.532 297.035 312.182 297.035V298.743C312.267 298.193 312.456 297.763 312.75 297.453C313.052 297.136 313.439 296.977 313.911 296.977Z" fill="#F5DFBE"/>
<path d="M245.042 235.317C245.042 235.317 249.938 223.183 250.482 216.188C251.148 207.482 244.005 202.604 236.359 199.558C224.483 194.832 215.882 189.799 213.054 176.762C211.166 168.034 211.727 158.957 209.592 150.277C206.85 139.046 200.895 128.857 192.455 120.959C207.192 127.15 223.458 138.232 236.177 151.885C235.707 154.524 234.992 157.114 234.041 159.62C232.315 164.145 229.835 168.47 229.207 173.275C228.831 176.689 229.362 180.141 230.744 183.285C232.128 186.428 234.316 189.151 237.086 191.179C246.572 198.082 256.296 203.041 253.05 216.172C251.169 223.762 245.044 235.312 245.042 235.317Z" fill="#F5DFBE"/>
<path d="M245.042 235.317C245.042 235.317 249.938 223.183 250.482 216.188C251.148 207.482 244.005 202.604 236.359 199.558C224.483 194.832 215.882 189.799 213.054 176.762C211.166 168.034 211.727 158.957 209.592 150.277C206.85 139.046 200.895 128.857 192.455 120.959C207.192 127.15 223.458 138.232 236.177 151.885C235.707 154.524 234.992 157.114 234.041 159.62C232.315 164.145 229.835 168.47 229.207 173.275C228.831 176.689 229.362 180.141 230.744 183.285C232.128 186.428 234.316 189.151 237.086 191.179C246.572 198.082 256.296 203.041 253.05 216.172C251.169 223.762 245.044 235.312 245.042 235.317Z" fill="#F5DFBE"/>
<path opacity="0.3" d="M245.042 235.317C245.042 235.317 249.938 223.183 250.482 216.188C251.148 207.482 244.005 202.604 236.359 199.558C224.483 194.832 215.882 189.799 213.054 176.762C211.166 168.034 211.727 158.957 209.592 150.277C206.85 139.046 200.895 128.857 192.455 120.959C207.192 127.15 223.458 138.232 236.177 151.885C235.707 154.524 234.992 157.114 234.041 159.62C232.315 164.145 229.835 168.47 229.207 173.275C228.831 176.689 229.362 180.141 230.744 183.285C232.128 186.428 234.316 189.151 237.086 191.179C246.572 198.082 256.296 203.041 253.05 216.172C251.169 223.762 245.044 235.312 245.042 235.317Z" fill="url(#paint0_linear)"/>
<path d="M293.512 179.537C291.725 176.883 290.184 174.073 288.904 171.141C287.474 167.402 286.629 163.464 286.4 159.467C286.287 158.245 286.287 157.016 286.4 155.795C286.502 154.848 286.584 152.988 287.177 152.129C283.022 157.03 279.627 164.71 280.8 171.007C279.484 170.188 278.046 169.581 276.541 169.208C273.126 168.406 269.779 169.177 266.614 170.631C261.059 150.894 246.448 132.791 230.06 119.702C235.981 129.373 238.161 140.877 236.19 152.045C249.772 166.609 259.313 184.104 258.636 201.708C258.161 213.96 252.546 225.881 245.059 235.476C251.403 229.278 257.307 223.208 261.55 215.324C264.848 209.184 266.972 202.586 269.92 196.309C271.637 192.651 275.011 184.085 280.645 185.362C282.929 185.877 284.44 188.165 284.739 190.417C285.036 192.668 284.371 194.907 283.718 197.067C286.149 195.252 287.93 192.7 288.793 189.792C290.893 189.21 293.13 188.531 294.547 186.951C296.586 184.671 294.902 181.682 293.512 179.537ZM284.524 183.154C284.113 182.54 283.837 181.845 283.713 181.117C283.591 180.388 283.624 179.641 283.811 178.926C284.917 179.702 285.768 180.788 286.257 182.048C286.747 183.307 286.852 184.684 286.559 186.003C286.574 185.165 285.557 184.373 285.064 183.817C284.871 183.599 284.689 183.379 284.524 183.154Z" fill="#F5DFBE"/>
<path d="M245.943 234.184C245.588 234.515 245.285 234.897 245.042 235.318C245.042 235.311 251.169 223.763 253.051 216.172C256.298 203.043 246.573 198.083 237.087 191.18C234.317 189.152 232.129 186.429 230.745 183.286C229.362 180.143 228.832 176.69 229.208 173.276C229.836 168.471 232.316 164.146 234.042 159.621C234.994 157.115 235.708 154.525 236.178 151.886C249.76 166.45 259.299 183.945 258.623 201.549C258.145 213.801 253.432 224.588 245.943 234.184Z" fill="#F5DFBE"/>
<path opacity="0.3" d="M245.943 234.184C245.544 234.763 245.285 234.897 245.042 235.318C245.042 235.311 251.169 223.763 253.051 216.172C256.298 203.043 246.573 198.083 237.087 191.18C234.317 189.152 232.129 186.429 230.745 183.286C229.362 180.143 228.832 176.69 229.208 173.276C229.836 168.471 232.316 164.146 234.042 159.621C234.994 157.115 235.708 154.525 236.178 151.886C249.76 166.45 259.299 183.945 258.623 201.549C258.145 213.801 253.432 224.588 245.943 234.184Z" fill="url(#paint1_linear)"/>
<path d="M217.716 123.601C217.684 123.016 216.365 122.059 215.975 121.686C213.857 119.683 211.47 118.007 209.22 116.165C206.424 113.961 204.098 111.219 202.378 108.101C202.304 107.96 202.232 107.817 202.16 107.674C201.288 105.879 200.68 103.968 200.354 102C206.301 104.66 217.251 115.044 217.716 123.601Z" fill="#F5DFBE"/>
<path d="M238.088 243.614C238.067 243.234 237.21 242.612 236.953 242.369C235.58 241.067 234.022 239.977 232.564 238.781C230.746 237.349 229.235 235.567 228.116 233.542C228.068 233.45 228.025 233.358 227.975 233.267C227.407 232.1 227.011 230.858 226.8 229.578C230.669 231.302 237.786 238.051 238.088 243.614Z" fill="#F5DFBE"/>
<path opacity="0.3" d="M238.088 243.614C238.067 243.234 237.21 242.612 236.953 242.369C235.58 241.067 234.022 239.977 232.564 238.781C230.746 237.349 229.235 235.567 228.116 233.542C228.068 233.45 228.025 233.358 227.975 233.267C227.407 232.1 227.011 230.858 226.8 229.578C230.669 231.302 237.786 238.051 238.088 243.614Z" fill="url(#paint2_linear)"/>
<path d="M241.093 239.016C243.725 224.976 240.387 214.527 238.274 211.573C232.971 204.161 224.357 206.157 216.063 206.283C208.56 206.396 203.034 203.528 199.525 200.051C200.745 201.261 201.306 203.021 202.266 204.423C203.897 206.773 206.048 208.715 208.552 210.098C211.055 211.481 213.844 212.267 216.701 212.396C223.056 212.844 228.519 212.933 232.805 218.303C237.448 224.122 239.442 231.901 241.093 239.016Z" fill="#F5DFBE"/>
<path opacity="0.3" d="M241.093 239.016C243.725 224.976 240.387 214.527 238.274 211.573C232.971 204.161 224.357 206.157 216.063 206.283C208.56 206.396 203.034 203.528 199.525 200.051C200.745 201.261 201.306 203.021 202.266 204.423C203.897 206.773 206.048 208.715 208.552 210.098C211.055 211.481 213.844 212.267 216.701 212.396C223.056 212.844 228.519 212.933 232.805 218.303C237.448 224.122 239.442 231.901 241.093 239.016Z" fill="url(#paint3_linear)"/>
<defs>
<linearGradient id="paint0_linear" x1="197.048" y1="122.903" x2="250.648" y2="147.821" gradientUnits="userSpaceOnUse">
<stop stop-color="white"/>
<stop offset="0.236" stop-color="#FCFCFC"/>
<stop offset="0.373" stop-color="#F4F4F4"/>
<stop offset="0.484" stop-color="#E6E6E6"/>
<stop offset="0.582" stop-color="#D2D2D2"/>
<stop offset="0.67" stop-color="#B8B8B8"/>
<stop offset="0.753" stop-color="#989898"/>
<stop offset="0.83" stop-color="#727272"/>
<stop offset="0.904" stop-color="#464646"/>
<stop offset="0.972" stop-color="#161616"/>
<stop offset="1"/>
</linearGradient>
<linearGradient id="paint1_linear" x1="230.953" y1="165.736" x2="265.607" y2="175.362" gradientUnits="userSpaceOnUse">
<stop stop-color="white"/>
<stop offset="0.11" stop-color="#D5D5D5"/>
<stop offset="0.295" stop-color="#959595"/>
<stop offset="0.472" stop-color="#606060"/>
<stop offset="0.636" stop-color="#363636"/>
<stop offset="0.783" stop-color="#181818"/>
<stop offset="0.91" stop-color="#060606"/>
<stop offset="1"/>
</linearGradient>
<linearGradient id="paint2_linear" x1="226.8" y1="236.596" x2="238.088" y2="236.596" gradientUnits="userSpaceOnUse">
<stop stop-color="white"/>
<stop offset="0.11" stop-color="#D5D5D5"/>
<stop offset="0.295" stop-color="#959595"/>
<stop offset="0.472" stop-color="#606060"/>
<stop offset="0.636" stop-color="#363636"/>
<stop offset="0.783" stop-color="#181818"/>
<stop offset="0.91" stop-color="#060606"/>
<stop offset="1"/>
</linearGradient>
<linearGradient id="paint3_linear" x1="199.525" y1="219.534" x2="242.062" y2="219.534" gradientUnits="userSpaceOnUse">
<stop stop-color="white"/>
<stop offset="0.11" stop-color="#D5D5D5"/>
<stop offset="0.295" stop-color="#959595"/>
<stop offset="0.472" stop-color="#606060"/>
<stop offset="0.636" stop-color="#363636"/>
<stop offset="0.783" stop-color="#181818"/>
<stop offset="0.91" stop-color="#060606"/>
<stop offset="1"/>
</linearGradient>
</defs>
</svg>
