<svg width="627" height="379" viewBox="0 0 627 379" fill="none" xmlns="http://www.w3.org/2000/svg">
<rect width="626.482" height="379" fill="#03212B"/>
<path d="M190.362 268.707C190.338 268.78 190.398 268.852 190.544 268.925C190.665 268.974 190.871 269.022 191.162 269.07C191.477 269.119 191.949 269.143 192.579 269.143C194.13 269.143 195.354 268.84 196.251 268.234C197.172 267.629 197.875 266.865 198.359 265.944C198.844 265.024 199.159 264.006 199.304 262.891C199.45 261.752 199.522 260.674 199.522 259.656C199.522 257.96 199.316 256.493 198.904 255.258C198.493 254.022 197.959 253.016 197.305 252.241C196.675 251.441 195.984 250.859 195.233 250.496C194.482 250.108 193.779 249.914 193.125 249.914C192.543 249.914 192.095 249.963 191.78 250.06C191.465 250.156 191.222 250.266 191.053 250.387C190.859 250.508 190.75 250.653 190.725 250.823C190.629 252.253 190.556 253.743 190.507 255.294C190.459 256.845 190.423 258.396 190.398 259.947C190.374 261.473 190.362 262.988 190.362 264.49C190.362 265.969 190.362 267.374 190.362 268.707ZM186.836 266.199C186.836 265.133 186.812 264.006 186.763 262.818C186.715 261.607 186.654 260.407 186.581 259.22C186.509 258.008 186.424 256.845 186.327 255.73C186.23 254.615 186.121 253.634 186 252.786C185.879 251.938 185.757 251.259 185.636 250.75C185.515 250.217 185.406 249.938 185.309 249.914C185.067 249.866 184.812 249.829 184.546 249.805C184.303 249.757 184.061 249.708 183.819 249.66C183.552 249.611 183.273 249.563 182.983 249.514V249.187C183.419 249.26 183.891 249.32 184.4 249.369C184.837 249.417 185.333 249.454 185.891 249.478C186.472 249.502 187.078 249.514 187.708 249.514C188.314 249.514 188.859 249.502 189.344 249.478C189.853 249.429 190.374 249.393 190.907 249.369C191.44 249.32 192.034 249.284 192.688 249.26C193.367 249.211 194.179 249.187 195.124 249.187C196.602 249.187 197.935 249.478 199.123 250.06C200.31 250.617 201.316 251.356 202.14 252.277C202.988 253.173 203.63 254.179 204.066 255.294C204.503 256.384 204.721 257.475 204.721 258.565C204.721 259.583 204.6 260.516 204.357 261.364C204.115 262.188 203.8 262.939 203.412 263.618C203.024 264.272 202.576 264.866 202.067 265.399C201.558 265.908 201.049 266.356 200.54 266.744C199.304 267.665 197.911 268.356 196.36 268.816C197.644 268.816 198.759 269.216 199.704 270.016C200.674 270.815 201.534 271.821 202.285 273.033C203.036 274.22 203.727 275.529 204.357 276.958C205.012 278.364 205.654 279.685 206.284 280.921C206.938 282.156 207.629 283.211 208.356 284.083C209.107 284.931 209.98 285.404 210.973 285.501C209.398 285.501 208.053 285.392 206.938 285.173C205.848 284.931 204.915 284.604 204.139 284.192C203.388 283.756 202.746 283.247 202.212 282.665C201.704 282.059 201.243 281.405 200.831 280.702C200.419 279.975 200.019 279.212 199.632 278.412C199.244 277.588 198.783 276.74 198.25 275.868C197.402 274.462 196.736 273.336 196.251 272.487C195.766 271.639 195.281 270.997 194.797 270.561C194.336 270.125 193.779 269.846 193.125 269.725C192.47 269.579 191.549 269.507 190.362 269.507C190.362 271.033 190.423 272.693 190.544 274.487C190.665 276.28 190.798 277.94 190.944 279.467C191.113 281.26 191.319 283.041 191.562 284.81L194.033 285.137V285.501L192.579 285.319C192.143 285.27 191.622 285.234 191.016 285.21C190.435 285.161 189.817 285.137 189.162 285.137C188.29 285.137 187.527 285.161 186.872 285.21C186.218 285.234 185.673 285.27 185.236 285.319C184.728 285.392 184.303 285.452 183.964 285.501V285.246C184.182 285.198 184.412 285.149 184.655 285.101C184.849 285.052 185.067 285.004 185.309 284.955C185.551 284.907 185.806 284.858 186.073 284.81C186.46 284.761 186.678 283.235 186.727 280.23C186.8 277.225 186.836 272.548 186.836 266.199ZM215.368 274.232C215.368 274.959 215.501 275.771 215.768 276.668C216.059 277.54 216.531 278.364 217.186 279.139C217.84 279.891 218.688 280.533 219.73 281.066C220.797 281.575 222.093 281.829 223.62 281.829C224.42 281.829 225.05 281.72 225.51 281.502C225.971 281.284 226.31 281.017 226.528 280.702C226.746 280.363 226.879 280.012 226.928 279.648C227.001 279.285 227.037 278.945 227.037 278.63C227.037 277.588 226.831 276.559 226.419 275.541C226.031 274.523 225.486 273.614 224.783 272.815C224.08 272.015 223.244 271.373 222.275 270.888C221.33 270.403 220.3 270.161 219.185 270.161C218.458 270.161 217.852 270.306 217.367 270.597C216.883 270.864 216.483 271.215 216.168 271.651C215.877 272.063 215.671 272.512 215.55 272.996C215.429 273.457 215.368 273.869 215.368 274.232ZM223.365 267.326C224.092 267.326 224.868 267.483 225.692 267.798C226.54 268.113 227.316 268.586 228.018 269.216C228.745 269.846 229.339 270.658 229.8 271.651C230.26 272.621 230.49 273.76 230.49 275.068C230.49 275.819 230.309 276.595 229.945 277.395C229.606 278.194 229.145 278.982 228.564 279.757C228.006 280.533 227.352 281.272 226.601 281.975C225.874 282.653 225.11 283.259 224.311 283.792C223.535 284.301 222.747 284.713 221.948 285.028C221.172 285.343 220.457 285.501 219.803 285.501C218.809 285.501 217.852 285.295 216.931 284.883C216.035 284.471 215.235 283.913 214.532 283.211C213.829 282.508 213.26 281.708 212.824 280.811C212.412 279.891 212.206 278.921 212.206 277.903C212.206 276.522 212.581 275.201 213.333 273.941C214.084 272.657 215.017 271.53 216.132 270.561C217.246 269.567 218.446 268.78 219.73 268.198C221.039 267.616 222.251 267.326 223.365 267.326ZM246.032 268.707C246.807 268.707 247.583 268.84 248.358 269.107C249.134 269.373 249.824 269.785 250.43 270.343C251.06 270.9 251.569 271.615 251.957 272.487C252.345 273.36 252.539 274.39 252.539 275.577C252.539 277.201 252.296 278.618 251.812 279.83C251.327 281.042 250.806 282.059 250.249 282.883C249.57 283.853 248.807 284.665 247.958 285.319C248.225 284.931 248.479 284.434 248.722 283.828C248.916 283.32 249.085 282.69 249.231 281.938C249.4 281.187 249.485 280.278 249.485 279.212C249.485 277.831 249.243 276.643 248.758 275.65C248.298 274.656 247.704 273.844 246.977 273.214C246.25 272.56 245.45 272.087 244.578 271.797C243.705 271.506 242.869 271.361 242.07 271.361C241.294 271.361 240.725 271.7 240.361 272.378C240.022 273.033 239.792 273.929 239.67 275.068C239.549 276.183 239.501 277.479 239.525 278.958C239.549 280.436 239.561 281.987 239.561 283.61C239.077 283.804 238.568 284.107 238.035 284.519C237.501 284.907 236.992 285.234 236.508 285.501C236.581 284.555 236.617 283.392 236.617 282.011C236.617 280.63 236.605 279.139 236.581 277.54C236.581 275.916 236.568 274.232 236.544 272.487C236.52 270.743 236.508 269.034 236.508 267.362C236.508 263.994 236.484 260.783 236.435 257.729C236.387 254.676 236.217 251.865 235.926 249.296C237.356 249.296 238.568 249.102 239.561 248.715C240.579 248.303 241.476 247.854 242.251 247.37C241.839 247.757 241.536 248.133 241.343 248.496C241.149 248.86 241.003 249.187 240.906 249.478C240.664 250.253 240.482 251.308 240.361 252.64C240.24 253.949 240.143 255.427 240.07 257.075C240.022 258.699 239.985 260.407 239.961 262.2C239.961 263.969 239.961 265.69 239.961 267.362V271.361C240.494 270.876 241.076 270.44 241.706 270.052C242.263 269.713 242.906 269.41 243.633 269.143C244.384 268.852 245.184 268.707 246.032 268.707ZM274.009 273.869C274.203 274.329 274.482 275.008 274.845 275.904C275.209 276.801 275.584 277.71 275.972 278.63C276.384 279.551 276.784 280.363 277.172 281.066C277.56 281.769 277.887 282.144 278.153 282.193C277.426 282.605 276.663 283.101 275.863 283.683C275.088 284.265 274.409 284.871 273.827 285.501C273.706 284.967 273.488 284.228 273.173 283.283C272.858 282.314 272.434 281.26 271.901 280.121C271.44 280.581 270.859 281.126 270.156 281.757C269.453 282.362 268.702 282.944 267.902 283.501C267.103 284.059 266.266 284.531 265.394 284.919C264.546 285.307 263.734 285.501 262.958 285.501C262.401 285.501 261.819 285.428 261.214 285.282C260.632 285.113 260.099 284.883 259.614 284.592C259.129 284.277 258.73 283.901 258.415 283.465C258.124 283.029 257.978 282.532 257.978 281.975C257.978 281.296 258.33 280.569 259.033 279.794C259.735 279.018 260.608 278.255 261.65 277.504C262.692 276.728 263.819 275.977 265.03 275.25C266.242 274.523 267.357 273.844 268.375 273.214C267.624 272.269 266.909 271.591 266.23 271.179C265.576 270.743 264.849 270.524 264.049 270.524C263.71 270.524 263.261 270.621 262.704 270.815C262.171 271.009 261.65 271.227 261.141 271.47C260.511 271.736 259.881 272.039 259.251 272.378C260.608 271.457 261.916 270.621 263.177 269.87C263.71 269.555 264.255 269.252 264.812 268.961C265.37 268.671 265.903 268.404 266.412 268.162C266.945 267.919 267.43 267.726 267.866 267.58C268.326 267.435 268.714 267.362 269.029 267.362C269.635 267.362 270.192 267.629 270.701 268.162C271.234 268.671 271.707 269.289 272.119 270.016C272.555 270.718 272.919 271.433 273.21 272.16C273.525 272.887 273.791 273.457 274.009 273.869ZM266.884 281.975C267.466 281.975 268.023 281.89 268.557 281.72C269.09 281.551 269.55 281.308 269.938 280.993C270.35 280.678 270.677 280.303 270.919 279.866C271.162 279.43 271.283 278.958 271.283 278.449C271.089 278.134 270.883 277.794 270.665 277.431C270.447 277.043 270.241 276.68 270.047 276.34C269.853 275.904 269.647 275.492 269.429 275.105C269.235 274.693 269.029 274.353 268.811 274.087C268.278 274.281 267.624 274.559 266.848 274.923C266.097 275.262 265.37 275.674 264.667 276.159C263.964 276.619 263.358 277.128 262.849 277.685C262.365 278.243 262.122 278.824 262.122 279.43C262.122 279.769 262.244 280.097 262.486 280.412C262.752 280.702 263.092 280.969 263.504 281.211C263.94 281.429 264.449 281.611 265.03 281.757C265.612 281.902 266.23 281.975 266.884 281.975ZM302.846 275.141C302.846 276.861 302.555 278.376 301.973 279.685C301.416 280.969 300.798 282.047 300.119 282.92C299.32 283.938 298.411 284.81 297.393 285.537C297.781 284.931 298.132 284.265 298.447 283.538C298.714 282.908 298.956 282.193 299.174 281.393C299.392 280.593 299.501 279.745 299.501 278.849C299.501 277.758 299.283 276.704 298.847 275.686C298.411 274.668 297.829 273.772 297.102 272.996C296.375 272.197 295.527 271.554 294.558 271.07C293.613 270.585 292.619 270.343 291.577 270.343C291.068 270.343 290.571 270.403 290.086 270.524C289.602 270.646 289.202 270.864 288.887 271.179C288.887 271.688 288.863 272.378 288.814 273.251C288.79 274.099 288.778 275.08 288.778 276.195C288.778 277.31 288.802 278.521 288.851 279.83C288.923 281.139 289.069 282.496 289.287 283.901C288.439 283.901 287.59 284.071 286.742 284.41C285.918 284.749 285.252 285.125 284.743 285.537C284.767 285.076 284.803 284.41 284.852 283.538C284.9 282.641 284.937 281.66 284.961 280.593C284.985 279.503 284.985 278.388 284.961 277.249C284.961 276.11 284.912 275.068 284.816 274.123C284.719 273.154 284.573 272.342 284.379 271.688C284.21 271.033 283.967 270.658 283.652 270.561C283.24 270.391 282.828 270.306 282.416 270.306C282.198 270.306 281.992 270.318 281.798 270.343C282.622 269.81 283.41 269.325 284.161 268.889C284.791 268.525 285.434 268.198 286.088 267.907C286.742 267.592 287.251 267.435 287.615 267.435C287.93 267.435 288.172 267.459 288.342 267.507C288.511 267.556 288.632 267.677 288.705 267.871C288.802 268.065 288.851 268.356 288.851 268.743C288.875 269.131 288.887 269.664 288.887 270.343C289.929 269.398 291.032 268.683 292.195 268.198C293.382 267.689 294.497 267.435 295.539 267.435C296.63 267.435 297.623 267.653 298.52 268.089C299.417 268.525 300.18 269.107 300.81 269.834C301.464 270.537 301.961 271.348 302.3 272.269C302.664 273.19 302.846 274.147 302.846 275.141Z" fill="#F5DFBE"/>
<path d="M316.27 249.478V249.15C316.561 249.223 316.913 249.284 317.325 249.332C317.664 249.381 318.1 249.417 318.633 249.441C319.166 249.465 319.784 249.478 320.487 249.478C321.311 249.478 322.026 249.465 322.632 249.441C323.262 249.417 323.783 249.381 324.195 249.332C324.68 249.284 325.104 249.223 325.467 249.15V249.478L323.759 249.841C323.71 250.205 323.735 250.822 323.832 251.695C323.953 252.543 324.122 253.561 324.34 254.748C324.583 255.936 324.861 257.256 325.177 258.71C325.516 260.164 325.867 261.667 326.231 263.218C326.618 264.744 327.018 266.295 327.43 267.871C327.867 269.421 328.291 270.912 328.703 272.342C329.115 273.771 329.514 275.092 329.902 276.304C330.29 277.515 330.653 278.533 330.993 279.357C331.405 278.145 331.841 276.691 332.301 274.995C332.762 273.275 333.198 271.469 333.61 269.579C334.046 267.665 334.458 265.714 334.846 263.727C335.234 261.74 335.561 259.861 335.827 258.092C336.118 256.323 336.336 254.724 336.482 253.294C336.651 251.84 336.724 250.689 336.7 249.841L334.81 249.478V249.15C335.173 249.223 335.573 249.284 336.009 249.332C336.373 249.381 336.785 249.417 337.245 249.441C337.706 249.465 338.178 249.478 338.663 249.478C339.366 249.478 339.959 249.465 340.444 249.441C340.929 249.417 341.341 249.381 341.68 249.332C342.068 249.284 342.383 249.223 342.625 249.15V249.478L341.462 249.841C339.765 255.221 338.154 260.261 336.627 264.963C335.973 266.974 335.306 269.01 334.628 271.069C333.949 273.129 333.283 275.08 332.629 276.922C331.998 278.763 331.405 280.435 330.847 281.938C330.314 283.44 329.854 284.64 329.466 285.537C329.078 284.737 328.642 283.634 328.157 282.229C327.673 280.823 327.152 279.236 326.594 277.467C326.061 275.698 325.504 273.808 324.922 271.796C324.34 269.785 323.759 267.786 323.177 265.799C322.596 263.811 322.026 261.897 321.469 260.055C320.936 258.214 320.427 256.566 319.942 255.112C319.482 253.658 319.07 252.458 318.706 251.513C318.343 250.568 318.04 250.011 317.797 249.841L316.27 249.478ZM355.377 281.574C356.08 281.574 356.734 281.49 357.34 281.32C357.97 281.126 358.516 280.908 358.976 280.666C359.509 280.399 360.006 280.096 360.467 279.757C359.812 280.847 359.025 281.817 358.104 282.665C357.328 283.392 356.347 284.058 355.159 284.664C353.996 285.246 352.639 285.537 351.088 285.537C349.973 285.537 348.907 285.343 347.889 284.955C346.871 284.567 345.962 284.01 345.163 283.283C344.387 282.556 343.769 281.671 343.309 280.629C342.848 279.563 342.618 278.376 342.618 277.067C342.618 275.88 342.8 274.838 343.163 273.941C343.551 273.02 344.048 272.22 344.654 271.542C345.26 270.863 345.938 270.306 346.689 269.87C347.441 269.409 348.18 269.034 348.907 268.743C351.233 267.798 352.821 267.325 353.669 267.325C354.566 267.325 355.341 267.483 355.995 267.798C356.674 268.089 357.255 268.416 357.74 268.779C358.273 269.215 358.746 269.7 359.158 270.233L347.162 275.068C347.332 276.086 347.574 276.994 347.889 277.794C348.204 278.594 348.664 279.272 349.27 279.83C349.876 280.387 350.664 280.823 351.633 281.138C352.603 281.429 353.851 281.574 355.377 281.574ZM349.488 269.434C349.149 269.434 348.822 269.531 348.507 269.724C348.192 269.894 347.901 270.124 347.635 270.415C347.392 270.706 347.198 271.033 347.053 271.396C346.932 271.76 346.883 272.123 346.908 272.487C346.908 272.875 346.908 273.25 346.908 273.614C346.932 273.977 346.98 274.341 347.053 274.704L353.16 271.905C352.918 271.445 352.615 271.033 352.251 270.669C351.936 270.354 351.548 270.076 351.088 269.833C350.627 269.567 350.094 269.434 349.488 269.434ZM376.927 267.471C377.29 267.471 377.678 267.483 378.09 267.507C378.502 267.531 378.841 267.604 379.108 267.725C378.841 268.089 378.587 268.549 378.344 269.106C378.102 269.664 377.884 270.197 377.69 270.706C377.448 271.336 377.229 271.966 377.036 272.596C376.866 272.499 376.648 272.402 376.381 272.305C376.163 272.233 375.884 272.16 375.545 272.087C375.23 272.014 374.842 271.978 374.382 271.978C373.655 271.978 373.049 272.184 372.564 272.596C372.104 272.984 371.728 273.505 371.438 274.159C371.147 274.789 370.916 275.492 370.747 276.267C370.601 277.043 370.492 277.794 370.42 278.521C370.42 279.927 370.432 281.017 370.456 281.793C370.505 282.568 370.529 283.198 370.529 283.683C370.214 283.755 369.862 283.864 369.475 284.01C369.111 284.131 368.735 284.289 368.348 284.482C367.96 284.652 367.572 284.834 367.184 285.028C366.821 285.197 366.494 285.367 366.203 285.537C366.324 284.446 366.421 283.319 366.494 282.156C366.591 280.993 366.651 279.854 366.676 278.739C366.724 277.624 366.724 276.57 366.676 275.577C366.651 274.559 366.579 273.674 366.457 272.923C366.36 272.148 366.227 271.53 366.058 271.069C365.888 270.585 365.682 270.318 365.44 270.27C365.318 270.245 365.185 270.233 365.04 270.233C364.894 270.233 364.749 270.233 364.603 270.233C364.434 270.233 364.264 270.245 364.095 270.27C364.749 270.052 365.403 269.797 366.058 269.506C366.615 269.24 367.233 268.937 367.911 268.598C368.59 268.234 369.244 267.822 369.874 267.362C369.947 267.677 370.008 268.113 370.056 268.67C370.105 269.203 370.153 269.821 370.202 270.524C370.25 271.203 370.286 271.93 370.311 272.705C370.335 273.481 370.371 274.244 370.42 274.995C370.783 274.171 371.207 273.323 371.692 272.451C372.177 271.554 372.698 270.742 373.255 270.015C373.812 269.264 374.406 268.658 375.036 268.198C375.666 267.713 376.296 267.471 376.927 267.471ZM406.702 267.325C407.744 267.325 408.689 267.543 409.538 267.98C410.41 268.392 411.149 268.961 411.755 269.688C412.385 270.415 412.87 271.251 413.209 272.196C413.548 273.141 413.718 274.135 413.718 275.177C413.718 276.849 413.439 278.327 412.882 279.612C412.325 280.872 411.707 281.938 411.028 282.81C410.228 283.828 409.344 284.725 408.374 285.5C408.762 284.894 409.101 284.228 409.392 283.501C409.659 282.871 409.889 282.144 410.083 281.32C410.301 280.496 410.41 279.624 410.41 278.703C410.41 277.612 410.192 276.558 409.756 275.54C409.344 274.523 408.774 273.626 408.047 272.85C407.32 272.051 406.484 271.421 405.539 270.96C404.594 270.476 403.6 270.233 402.558 270.233C402.146 270.233 401.746 270.282 401.359 270.379C400.971 270.476 400.619 270.633 400.304 270.851C401.153 272.111 401.577 273.553 401.577 275.177C401.577 276.849 401.298 278.327 400.741 279.612C400.183 280.872 399.565 281.938 398.887 282.81C398.087 283.828 397.19 284.725 396.197 285.5C396.585 284.894 396.924 284.228 397.215 283.501C397.481 282.871 397.724 282.144 397.942 281.32C398.16 280.496 398.269 279.624 398.269 278.703C398.269 277.612 398.051 276.558 397.614 275.54C397.202 274.523 396.633 273.626 395.906 272.85C395.179 272.051 394.343 271.421 393.398 270.96C392.453 270.476 391.459 270.233 390.417 270.233C389.908 270.233 389.411 270.306 388.927 270.451C388.442 270.573 388.042 270.839 387.727 271.251C387.727 271.712 387.703 272.366 387.654 273.214C387.63 274.062 387.618 275.031 387.618 276.122C387.618 277.212 387.642 278.412 387.691 279.721C387.763 281.005 387.909 282.314 388.127 283.646C387.763 283.695 387.376 283.78 386.964 283.901C386.552 284.022 386.14 284.167 385.728 284.337C385.316 284.507 384.916 284.688 384.528 284.882C384.165 285.076 383.849 285.282 383.583 285.5C383.607 285.016 383.643 284.325 383.692 283.428C383.765 282.532 383.825 281.55 383.874 280.484C383.922 279.418 383.946 278.315 383.946 277.176C383.946 276.037 383.898 274.995 383.801 274.05C383.704 273.105 383.559 272.305 383.365 271.651C383.171 270.972 382.904 270.56 382.565 270.415C382.153 270.245 381.777 270.161 381.438 270.161C381.269 270.161 381.099 270.185 380.929 270.233C381.753 269.7 382.529 269.215 383.256 268.779C383.886 268.416 384.504 268.089 385.11 267.798C385.715 267.483 386.176 267.325 386.491 267.325C386.806 267.325 387.048 267.35 387.218 267.398C387.388 267.446 387.509 267.568 387.582 267.762C387.654 267.955 387.691 268.246 387.691 268.634C387.715 269.022 387.727 269.555 387.727 270.233C388.769 269.385 389.872 268.694 391.035 268.161C392.222 267.604 393.398 267.325 394.561 267.325C395.7 267.325 396.73 267.604 397.651 268.161C398.572 268.694 399.396 269.385 400.123 270.233C401.044 269.385 402.074 268.694 403.213 268.161C404.376 267.604 405.539 267.325 406.702 267.325ZM435.207 273.868C435.401 274.329 435.679 275.007 436.043 275.904C436.406 276.8 436.782 277.709 437.17 278.63C437.582 279.551 437.982 280.363 438.369 281.066C438.757 281.768 439.084 282.144 439.351 282.192C438.624 282.604 437.86 283.101 437.061 283.683C436.285 284.264 435.607 284.87 435.025 285.5C434.904 284.967 434.686 284.228 434.371 283.283C434.056 282.314 433.631 281.259 433.098 280.12C432.638 280.581 432.056 281.126 431.353 281.756C430.651 282.362 429.899 282.944 429.1 283.501C428.3 284.058 427.464 284.531 426.591 284.919C425.743 285.306 424.931 285.5 424.156 285.5C423.599 285.5 423.017 285.428 422.411 285.282C421.829 285.112 421.296 284.882 420.812 284.591C420.327 284.276 419.927 283.901 419.612 283.465C419.321 283.028 419.176 282.532 419.176 281.974C419.176 281.296 419.527 280.569 420.23 279.793C420.933 279.018 421.805 278.254 422.847 277.503C423.889 276.728 425.016 275.977 426.228 275.25C427.44 274.523 428.554 273.844 429.572 273.214C428.821 272.269 428.106 271.59 427.428 271.178C426.773 270.742 426.046 270.524 425.246 270.524C424.907 270.524 424.459 270.621 423.901 270.815C423.368 271.009 422.847 271.227 422.338 271.469C421.708 271.736 421.078 272.039 420.448 272.378C421.805 271.457 423.114 270.621 424.374 269.87C424.907 269.555 425.452 269.252 426.01 268.961C426.567 268.67 427.1 268.404 427.609 268.161C428.142 267.919 428.627 267.725 429.063 267.58C429.524 267.434 429.912 267.362 430.227 267.362C430.832 267.362 431.39 267.628 431.899 268.161C432.432 268.67 432.904 269.288 433.316 270.015C433.753 270.718 434.116 271.433 434.407 272.16C434.722 272.887 434.989 273.456 435.207 273.868ZM428.082 281.974C428.663 281.974 429.221 281.889 429.754 281.72C430.287 281.55 430.748 281.308 431.135 280.993C431.547 280.678 431.874 280.302 432.117 279.866C432.359 279.43 432.48 278.957 432.48 278.448C432.286 278.133 432.08 277.794 431.862 277.431C431.644 277.043 431.438 276.679 431.244 276.34C431.051 275.904 430.845 275.492 430.626 275.104C430.433 274.692 430.227 274.353 430.008 274.086C429.475 274.28 428.821 274.559 428.046 274.922C427.294 275.262 426.567 275.674 425.864 276.158C425.162 276.619 424.556 277.128 424.047 277.685C423.562 278.242 423.32 278.824 423.32 279.43C423.32 279.769 423.441 280.096 423.683 280.411C423.95 280.702 424.289 280.969 424.701 281.211C425.137 281.429 425.646 281.611 426.228 281.756C426.81 281.902 427.428 281.974 428.082 281.974Z" fill="#F5DFBE"/>
<path d="M225.442 305.986C225.442 306.213 225.496 306.495 225.604 306.831C225.713 307.167 225.782 307.389 225.812 307.498C225.92 307.824 226.034 308.165 226.152 308.52L228.21 314.761L230.149 308.683C229.606 307.102 229.226 306.173 229.009 305.897C228.92 305.798 228.797 305.704 228.639 305.615C228.491 305.516 228.348 305.462 228.21 305.452C228.072 305.432 227.879 305.422 227.633 305.422L227.603 305.245H231.585L231.555 305.422C231.17 305.422 230.904 305.462 230.756 305.541C230.608 305.61 230.534 305.793 230.534 306.089C230.534 306.376 230.761 307.186 231.215 308.52L233.302 314.761L235.256 308.52C235.641 307.275 235.833 306.43 235.833 305.986C235.833 305.758 235.74 305.61 235.552 305.541C235.375 305.462 235.093 305.422 234.708 305.422L234.679 305.245H238.276L238.261 305.422C237.768 305.422 237.403 305.487 237.166 305.615C236.929 305.734 236.702 306.001 236.485 306.416C236.268 306.831 236.001 307.532 235.685 308.52L233.421 315.695H232.473L230.327 309.291L228.343 315.695H227.41L225.012 308.52C224.746 307.72 224.544 307.147 224.405 306.801C224.277 306.445 224.114 306.149 223.917 305.912C223.729 305.665 223.547 305.521 223.369 305.482C223.192 305.442 222.92 305.422 222.555 305.422L222.525 305.245H226.507L226.478 305.422C226.093 305.422 225.822 305.457 225.664 305.526C225.516 305.595 225.442 305.749 225.442 305.986ZM244.145 311.87H239.29V312.122C239.29 313.17 239.512 313.97 239.956 314.524C240.4 315.067 240.952 315.339 241.614 315.339C242.601 315.339 243.311 314.944 243.745 314.153L243.967 314.272C243.454 315.27 242.596 315.769 241.392 315.769C240.503 315.769 239.744 315.448 239.112 314.805C238.48 314.163 238.165 313.298 238.165 312.211C238.165 311.114 238.441 310.215 238.993 309.514C239.556 308.812 240.301 308.461 241.229 308.461C242.166 308.461 242.887 308.782 243.39 309.425C243.893 310.057 244.145 310.872 244.145 311.87ZM241.273 308.758C240.701 308.758 240.247 309.005 239.911 309.499C239.586 309.983 239.388 310.63 239.319 311.441H243.005C242.936 309.652 242.359 308.758 241.273 308.758ZM250.498 308.461C251.139 308.461 251.677 308.654 252.111 309.039C252.881 309.721 253.266 310.754 253.266 312.137C253.266 313.195 252.93 314.064 252.259 314.746C251.598 315.428 250.7 315.769 249.565 315.769C249.101 315.769 248.672 315.734 248.277 315.665C247.882 315.596 247.601 315.532 247.433 315.472L247.197 315.369V307.349C247.197 306.272 247.137 305.62 247.019 305.393C246.979 305.324 246.905 305.259 246.797 305.2C246.688 305.131 246.575 305.091 246.456 305.082C246.338 305.072 246.17 305.067 245.953 305.067L245.924 304.904C246.634 304.785 247.404 304.726 248.233 304.726V310.403C248.647 309.108 249.402 308.461 250.498 308.461ZM248.233 314.894C248.608 315.191 249.057 315.339 249.58 315.339C250.113 315.339 250.547 315.235 250.883 315.028C251.218 314.82 251.47 314.553 251.638 314.227C251.815 313.891 251.944 313.55 252.022 313.204C252.101 312.849 252.141 312.493 252.141 312.137C252.141 311.781 252.111 311.436 252.052 311.1C252.003 310.764 251.914 310.423 251.786 310.077C251.667 309.731 251.475 309.454 251.208 309.247C250.942 309.029 250.601 308.921 250.187 308.921C249.772 308.921 249.402 309.138 249.077 309.573C248.751 310.008 248.529 310.462 248.41 310.937C248.292 311.401 248.233 311.811 248.233 312.167V314.894ZM262.765 305.245C264.462 305.245 265.735 305.393 266.584 305.689C266.969 305.828 267.378 306.025 267.812 306.282C268.247 306.539 268.597 306.845 268.864 307.201C269.14 307.557 269.367 308.011 269.544 308.565C269.732 309.118 269.826 309.741 269.826 310.433C269.826 311.114 269.732 311.732 269.544 312.285C269.367 312.829 269.14 313.279 268.864 313.634C268.597 313.99 268.262 314.301 267.857 314.568C267.462 314.825 267.087 315.018 266.732 315.146C266.377 315.275 265.982 315.378 265.548 315.457C264.965 315.566 264.368 315.621 263.756 315.621H259.774L259.804 315.443C260.297 315.443 260.658 315.349 260.885 315.161C261.131 314.954 261.255 313.99 261.255 312.271V308.595C261.255 307.537 261.22 306.816 261.151 306.43C261.092 306.035 261.003 305.788 260.885 305.689C260.658 305.501 260.297 305.408 259.804 305.408L259.774 305.245H262.765ZM262.839 315.265C262.957 315.275 263.199 315.28 263.564 315.28C263.939 315.28 264.344 315.24 264.778 315.161C265.222 315.082 265.676 314.934 266.14 314.716C266.613 314.489 267.018 314.202 267.354 313.857C267.699 313.511 267.98 313.046 268.197 312.463C268.424 311.87 268.538 311.198 268.538 310.447C268.538 309.686 268.429 309.015 268.212 308.431C267.995 307.848 267.714 307.384 267.368 307.038C267.023 306.682 266.618 306.391 266.155 306.164C265.335 305.778 264.432 305.585 263.446 305.585C263.001 305.585 262.617 305.615 262.291 305.674V312.448C262.291 313.516 262.32 314.222 262.38 314.568C262.439 314.914 262.592 315.146 262.839 315.265ZM277.652 311.87H272.796V312.122C272.796 313.17 273.018 313.97 273.462 314.524C273.907 315.067 274.459 315.339 275.12 315.339C276.107 315.339 276.818 314.944 277.252 314.153L277.474 314.272C276.961 315.27 276.102 315.769 274.898 315.769C274.01 315.769 273.25 315.448 272.619 314.805C271.987 314.163 271.671 313.298 271.671 312.211C271.671 311.114 271.948 310.215 272.5 309.514C273.063 308.812 273.808 308.461 274.736 308.461C275.673 308.461 276.394 308.782 276.897 309.425C277.4 310.057 277.652 310.872 277.652 311.87ZM274.78 308.758C274.208 308.758 273.754 309.005 273.418 309.499C273.092 309.983 272.895 310.63 272.826 311.441H276.512C276.443 309.652 275.866 308.758 274.78 308.758ZM281.488 309.454C281.488 309.909 281.72 310.719 282.184 311.885L283.323 314.761L284.478 311.203C284.705 310.492 284.819 309.953 284.819 309.588C284.819 309.054 284.473 308.787 283.782 308.787L283.753 308.609H286.536L286.507 308.787C286.102 308.787 285.815 308.921 285.648 309.187C285.49 309.444 285.189 310.25 284.745 311.604L283.412 315.665H282.539L280.614 310.744C280.289 309.914 279.993 309.38 279.726 309.143C279.47 308.906 279.159 308.787 278.794 308.787L278.764 308.609H282.435L282.406 308.787C282.06 308.787 281.818 308.842 281.68 308.95C281.552 309.059 281.488 309.227 281.488 309.454ZM293.704 311.87H288.849V312.122C288.849 313.17 289.071 313.97 289.515 314.524C289.959 315.067 290.512 315.339 291.173 315.339C292.16 315.339 292.87 314.944 293.305 314.153L293.527 314.272C293.013 315.27 292.155 315.769 290.951 315.769C290.063 315.769 289.303 315.448 288.671 314.805C288.04 314.163 287.724 313.298 287.724 312.211C287.724 311.114 288 310.215 288.553 309.514C289.115 308.812 289.86 308.461 290.788 308.461C291.726 308.461 292.446 308.782 292.949 309.425C293.453 310.057 293.704 310.872 293.704 311.87ZM290.832 308.758C290.26 308.758 289.806 309.005 289.471 309.499C289.145 309.983 288.947 310.63 288.878 311.441H292.564C292.495 309.652 291.918 308.758 290.832 308.758ZM297.895 304.711V313.041C297.895 314.138 297.959 314.815 298.088 315.072C298.216 315.319 298.571 315.443 299.153 315.443L299.183 315.621H295.556L295.586 315.443C296.178 315.443 296.538 315.319 296.667 315.072C296.795 314.825 296.859 314.148 296.859 313.041V307.379C296.859 306.282 296.8 305.62 296.681 305.393C296.642 305.324 296.568 305.254 296.459 305.185C296.351 305.116 296.232 305.077 296.104 305.067C295.986 305.057 295.813 305.052 295.586 305.052L295.556 304.889C296.296 304.77 297.076 304.711 297.895 304.711ZM300.957 312.122C300.957 311.085 301.253 310.215 301.845 309.514C302.437 308.812 303.242 308.461 304.258 308.461C305.275 308.461 306.094 308.812 306.715 309.514C307.337 310.215 307.648 311.085 307.648 312.122C307.648 313.16 307.347 314.03 306.745 314.731C306.153 315.423 305.349 315.769 304.332 315.769C303.316 315.769 302.497 315.418 301.875 314.716C301.263 314.015 300.957 313.15 300.957 312.122ZM302.659 314.524C303.054 315.156 303.612 315.472 304.332 315.472C305.053 315.472 305.595 315.161 305.96 314.538C306.336 313.916 306.523 313.115 306.523 312.137C306.523 311.149 306.326 310.339 305.931 309.706C305.536 309.074 304.979 308.758 304.258 308.758C303.548 308.758 303.005 309.074 302.63 309.706C302.265 310.329 302.082 311.129 302.082 312.108C302.082 313.086 302.274 313.891 302.659 314.524ZM311.648 310.403C311.816 309.859 312.082 309.4 312.448 309.024C312.823 308.649 313.321 308.461 313.943 308.461C314.574 308.461 315.102 308.654 315.527 309.039C316.296 309.721 316.681 310.754 316.681 312.137C316.681 313.175 316.366 314.039 315.734 314.731C315.102 315.423 314.303 315.769 313.336 315.769C312.635 315.769 312.073 315.635 311.648 315.369V317.118C311.648 317.711 311.653 318.14 311.663 318.407C311.683 318.674 311.737 318.901 311.826 319.089C311.925 319.287 312.048 319.405 312.196 319.445C312.354 319.484 312.591 319.504 312.906 319.504L312.936 319.682H309.354L309.383 319.504C309.956 319.504 310.301 319.376 310.42 319.119C310.548 318.872 310.612 318.205 310.612 317.118V310.862C310.612 310.329 310.602 309.948 310.582 309.721C310.573 309.494 310.518 309.296 310.42 309.128C310.331 308.96 310.212 308.866 310.064 308.847C309.926 308.817 309.699 308.802 309.383 308.802L309.354 308.639C310.054 308.52 310.819 308.461 311.648 308.461V310.403ZM313.143 315.339C314.051 315.339 314.688 314.998 315.053 314.316C315.389 313.694 315.556 312.967 315.556 312.137C315.556 311.396 315.448 310.709 315.231 310.077C315.102 309.731 314.905 309.454 314.638 309.247C314.372 309.029 314.051 308.921 313.676 308.921C313.311 308.921 312.985 309.054 312.699 309.321C312.413 309.578 312.201 309.899 312.063 310.284C311.786 311.055 311.648 311.707 311.648 312.241V314.553C311.954 315.077 312.453 315.339 313.143 315.339ZM324.58 311.87H319.724V312.122C319.724 313.17 319.946 313.97 320.39 314.524C320.834 315.067 321.387 315.339 322.048 315.339C323.035 315.339 323.746 314.944 324.18 314.153L324.402 314.272C323.889 315.27 323.03 315.769 321.826 315.769C320.938 315.769 320.178 315.448 319.547 314.805C318.915 314.163 318.599 313.298 318.599 312.211C318.599 311.114 318.875 310.215 319.428 309.514C319.991 308.812 320.736 308.461 321.663 308.461C322.601 308.461 323.321 308.782 323.825 309.425C324.328 310.057 324.58 310.872 324.58 311.87ZM321.708 308.758C321.135 308.758 320.681 309.005 320.346 309.499C320.02 309.983 319.823 310.63 319.754 311.441H323.44C323.371 309.652 322.793 308.758 321.708 308.758ZM331.214 308.387C331.461 308.387 331.678 308.441 331.865 308.55C332.053 308.659 332.147 308.807 332.147 308.995C332.147 309.182 332.087 309.331 331.969 309.439C331.851 309.548 331.717 309.602 331.569 309.602C331.421 309.602 331.234 309.538 331.007 309.41C330.79 309.281 330.558 309.217 330.311 309.217C329.926 309.217 329.61 309.573 329.364 310.284C329.127 310.996 329.008 311.821 329.008 312.76C329.008 314.025 329.072 314.79 329.201 315.057C329.24 315.146 329.314 315.23 329.423 315.309C329.531 315.378 329.645 315.418 329.763 315.428C329.882 315.438 330.049 315.443 330.267 315.443L330.296 315.621H326.699L326.729 315.443C327.044 315.443 327.271 315.428 327.41 315.398C327.558 315.359 327.681 315.235 327.78 315.028C327.878 314.82 327.933 314.563 327.942 314.257C327.962 313.941 327.972 313.442 327.972 312.76V311.9C327.972 310.526 327.933 309.746 327.854 309.558C327.785 309.37 327.72 309.222 327.661 309.113C327.602 309.005 327.513 308.931 327.395 308.891C327.178 308.832 326.891 308.802 326.536 308.802L326.507 308.639C327.345 308.52 328.179 308.461 329.008 308.461V310.64C329.117 309.938 329.359 309.39 329.734 308.995C330.119 308.59 330.612 308.387 331.214 308.387ZM333.11 316.88L336.249 305.689H337.152L334.013 316.88H333.11ZM342.231 305.245C343.928 305.245 345.201 305.393 346.05 305.689C346.435 305.828 346.845 306.025 347.279 306.282C347.713 306.539 348.063 306.845 348.33 307.201C348.606 307.557 348.833 308.011 349.011 308.565C349.198 309.118 349.292 309.741 349.292 310.433C349.292 311.114 349.198 311.732 349.011 312.285C348.833 312.829 348.606 313.279 348.33 313.634C348.063 313.99 347.728 314.301 347.323 314.568C346.928 314.825 346.553 315.018 346.198 315.146C345.843 315.275 345.448 315.378 345.014 315.457C344.432 315.566 343.835 315.621 343.223 315.621H339.241L339.27 315.443C339.764 315.443 340.124 315.349 340.351 315.161C340.598 314.954 340.721 313.99 340.721 312.271V308.595C340.721 307.537 340.686 306.816 340.617 306.43C340.558 306.035 340.469 305.788 340.351 305.689C340.124 305.501 339.764 305.408 339.27 305.408L339.241 305.245H342.231ZM342.305 315.265C342.423 315.275 342.665 315.28 343.03 315.28C343.405 315.28 343.81 315.24 344.244 315.161C344.688 315.082 345.142 314.934 345.606 314.716C346.08 314.489 346.484 314.202 346.82 313.857C347.165 313.511 347.447 313.046 347.664 312.463C347.891 311.87 348.004 311.198 348.004 310.447C348.004 309.686 347.896 309.015 347.678 308.431C347.461 307.848 347.18 307.384 346.835 307.038C346.489 306.682 346.085 306.391 345.621 306.164C344.802 305.778 343.899 305.585 342.912 305.585C342.468 305.585 342.083 305.615 341.757 305.674V312.448C341.757 313.516 341.787 314.222 341.846 314.568C341.905 314.914 342.058 315.146 342.305 315.265ZM357.118 311.87H352.263V312.122C352.263 313.17 352.485 313.97 352.929 314.524C353.373 315.067 353.925 315.339 354.587 315.339C355.574 315.339 356.284 314.944 356.718 314.153L356.94 314.272C356.427 315.27 355.569 315.769 354.365 315.769C353.476 315.769 352.716 315.448 352.085 314.805C351.453 314.163 351.137 313.298 351.137 312.211C351.137 311.114 351.414 310.215 351.966 309.514C352.529 308.812 353.274 308.461 354.202 308.461C355.139 308.461 355.86 308.782 356.363 309.425C356.866 310.057 357.118 310.872 357.118 311.87ZM354.246 308.758C353.674 308.758 353.22 309.005 352.884 309.499C352.559 309.983 352.361 310.63 352.292 311.441H355.978C355.909 309.652 355.332 308.758 354.246 308.758ZM359.666 313.412C359.666 314.054 359.838 314.538 360.184 314.865C360.529 315.181 360.939 315.339 361.413 315.339C361.896 315.339 362.286 315.23 362.582 315.013C362.878 314.795 363.026 314.504 363.026 314.138C363.026 313.763 362.898 313.456 362.641 313.219C362.395 312.982 362.094 312.789 361.738 312.641C361.383 312.493 361.023 312.34 360.658 312.182C360.302 312.024 359.996 311.791 359.74 311.485C359.493 311.179 359.37 310.769 359.37 310.255C359.37 309.741 359.597 309.316 360.051 308.98C360.514 308.634 361.047 308.461 361.649 308.461C362.508 308.461 363.179 308.599 363.663 308.876C363.663 309.331 363.603 309.963 363.485 310.773L363.307 310.729C363.307 310.077 363.159 309.602 362.863 309.306C362.567 309.01 362.207 308.861 361.783 308.861C361.368 308.861 361.033 308.97 360.776 309.187C360.529 309.405 360.406 309.701 360.406 310.077C360.406 310.442 360.529 310.739 360.776 310.966C361.033 311.184 361.339 311.366 361.694 311.515C362.049 311.663 362.404 311.821 362.76 311.989C363.125 312.147 363.431 312.379 363.677 312.686C363.934 312.982 364.062 313.348 364.062 313.783C364.062 314.415 363.816 314.904 363.322 315.25C362.829 315.596 362.177 315.769 361.368 315.769C360.569 315.769 359.893 315.556 359.34 315.131C359.34 314.637 359.389 314.054 359.488 313.382L359.666 313.412ZM367.248 306.682C367.08 306.514 366.996 306.317 366.996 306.089C366.996 305.862 367.08 305.665 367.248 305.497C367.415 305.329 367.613 305.245 367.84 305.245C368.067 305.245 368.264 305.329 368.432 305.497C368.6 305.665 368.683 305.862 368.683 306.089C368.683 306.317 368.6 306.514 368.432 306.682C368.264 306.85 368.067 306.934 367.84 306.934C367.613 306.934 367.415 306.85 367.248 306.682ZM368.402 308.461V313.175C368.402 314.212 368.461 314.85 368.58 315.087C368.708 315.324 369.063 315.443 369.646 315.443L369.675 315.621H366.063L366.093 315.443C366.685 315.443 367.045 315.324 367.173 315.087C367.302 314.84 367.366 314.193 367.366 313.145V312.108C367.366 310.961 367.331 310.205 367.262 309.84C367.203 309.464 367.114 309.222 366.996 309.113C366.759 308.896 366.394 308.787 365.9 308.787L365.871 308.624C366.729 308.515 367.573 308.461 368.402 308.461ZM376.698 308.298L376.609 307.542C376.609 307.354 376.663 307.206 376.772 307.097C376.89 306.989 377.023 306.934 377.171 306.934C377.319 306.934 377.448 306.989 377.556 307.097C377.675 307.206 377.734 307.354 377.734 307.542C377.734 308.095 377.324 308.693 376.505 309.336C376.939 309.82 377.157 310.403 377.157 311.085C377.157 311.757 376.89 312.35 376.357 312.863C375.824 313.377 375.173 313.634 374.403 313.634C373.86 313.634 373.377 313.506 372.952 313.249C372.538 313.624 372.331 314.025 372.331 314.45C372.331 314.736 372.434 314.968 372.642 315.146C372.859 315.314 373.184 315.398 373.619 315.398C374.063 315.398 374.433 315.403 374.729 315.413C375.025 315.423 375.375 315.443 375.78 315.472C376.185 315.502 376.495 315.556 376.713 315.635C376.939 315.714 377.166 315.818 377.393 315.947C377.808 316.184 378.015 316.594 378.015 317.177C378.015 317.888 377.645 318.506 376.905 319.03C376.175 319.563 375.227 319.83 374.063 319.83C373.175 319.83 372.454 319.662 371.901 319.326C371.349 319 371.072 318.565 371.072 318.022C371.072 317.636 371.201 317.266 371.457 316.91C371.714 316.564 372.045 316.327 372.449 316.199C371.877 315.971 371.591 315.527 371.591 314.865C371.591 314.548 371.694 314.227 371.901 313.901C372.109 313.565 372.375 313.293 372.701 313.086C372 312.552 371.65 311.89 371.65 311.1C371.65 310.299 371.916 309.662 372.449 309.187C372.982 308.703 373.629 308.461 374.388 308.461C375.158 308.461 375.805 308.693 376.328 309.158C376.574 308.911 376.698 308.624 376.698 308.298ZM372.109 317.874C372.109 318.368 372.301 318.763 372.686 319.059C373.081 319.356 373.619 319.504 374.3 319.504C374.99 319.504 375.607 319.311 376.15 318.926C376.703 318.541 376.979 318.081 376.979 317.548C376.979 317.024 376.703 316.683 376.15 316.525C375.607 316.367 374.517 316.288 372.878 316.288C372.691 316.396 372.513 316.599 372.346 316.895C372.188 317.202 372.109 317.528 372.109 317.874ZM373.16 312.626C373.446 313.041 373.86 313.249 374.403 313.249C374.946 313.249 375.36 313.041 375.647 312.626C375.933 312.201 376.076 311.663 376.076 311.011C376.076 310.349 375.933 309.82 375.647 309.425C375.36 309.029 374.946 308.832 374.403 308.832C373.86 308.832 373.446 309.029 373.16 309.425C372.874 309.82 372.73 310.349 372.73 311.011C372.73 311.663 372.874 312.201 373.16 312.626ZM381.954 308.461V311.114C382.042 310.403 382.289 309.785 382.694 309.262C383.098 308.728 383.636 308.461 384.307 308.461C385.817 308.461 386.572 309.252 386.572 310.833V313.175C386.572 314.202 386.636 314.84 386.765 315.087C386.903 315.324 387.258 315.443 387.831 315.443L387.86 315.621H384.263L384.293 315.443C384.885 315.443 385.24 315.319 385.358 315.072C385.477 314.825 385.536 314.148 385.536 313.041V310.981C385.536 310.299 385.428 309.785 385.21 309.439C385.003 309.094 384.668 308.921 384.204 308.921C383.75 308.921 383.37 309.079 383.064 309.395C382.758 309.701 382.531 310.092 382.383 310.566C382.097 311.485 381.954 312.409 381.954 313.338C381.954 314.267 382.013 314.85 382.131 315.087C382.26 315.324 382.615 315.443 383.197 315.443L383.227 315.621H379.615L379.644 315.443C380.237 315.443 380.597 315.324 380.725 315.087C380.853 314.84 380.917 314.193 380.917 313.145V311.959C380.917 310.477 380.843 309.583 380.695 309.276C380.646 309.168 380.557 309.069 380.429 308.98C380.311 308.891 380.177 308.837 380.029 308.817C379.891 308.797 379.699 308.787 379.452 308.787L379.422 308.624C380.281 308.515 381.125 308.461 381.954 308.461ZM395.615 311.87H390.76V312.122C390.76 313.17 390.982 313.97 391.426 314.524C391.87 315.067 392.423 315.339 393.084 315.339C394.071 315.339 394.782 314.944 395.216 314.153L395.438 314.272C394.925 315.27 394.066 315.769 392.862 315.769C391.974 315.769 391.214 315.448 390.582 314.805C389.951 314.163 389.635 313.298 389.635 312.211C389.635 311.114 389.911 310.215 390.464 309.514C391.026 308.812 391.772 308.461 392.699 308.461C393.637 308.461 394.357 308.782 394.86 309.425C395.364 310.057 395.615 310.872 395.615 311.87ZM392.744 308.758C392.171 308.758 391.717 309.005 391.382 309.499C391.056 309.983 390.859 310.63 390.79 311.441H394.476C394.406 309.652 393.829 308.758 392.744 308.758ZM402.249 308.387C402.496 308.387 402.713 308.441 402.9 308.55C403.088 308.659 403.182 308.807 403.182 308.995C403.182 309.182 403.122 309.331 403.004 309.439C402.885 309.548 402.752 309.602 402.604 309.602C402.456 309.602 402.269 309.538 402.042 309.41C401.825 309.281 401.593 309.217 401.346 309.217C400.961 309.217 400.645 309.573 400.398 310.284C400.162 310.996 400.043 311.821 400.043 312.76C400.043 314.025 400.107 314.79 400.236 315.057C400.275 315.146 400.349 315.23 400.458 315.309C400.566 315.378 400.68 315.418 400.798 315.428C400.917 315.438 401.084 315.443 401.301 315.443L401.331 315.621H397.734L397.764 315.443C398.079 315.443 398.306 315.428 398.444 315.398C398.593 315.359 398.716 315.235 398.815 315.028C398.913 314.82 398.968 314.563 398.977 314.257C398.997 313.941 399.007 313.442 399.007 312.76V311.9C399.007 310.526 398.968 309.746 398.889 309.558C398.819 309.37 398.755 309.222 398.696 309.113C398.637 309.005 398.548 308.931 398.43 308.891C398.213 308.832 397.926 308.802 397.571 308.802L397.541 308.639C398.38 308.52 399.214 308.461 400.043 308.461V310.64C400.152 309.938 400.394 309.39 400.769 308.995C401.153 308.59 401.647 308.387 402.249 308.387Z" fill="#F5DFBE"/>
<path d="M314.408 229.742C314.408 229.742 320.653 214.265 321.347 205.344C322.197 194.239 313.087 188.018 303.335 184.133C288.187 178.105 277.216 171.686 273.609 155.057C271.201 143.925 271.917 132.348 269.194 121.277C265.697 106.952 258.101 93.9569 247.337 83.8828C266.132 91.7786 286.879 105.914 303.102 123.328C302.502 126.694 301.591 129.997 300.378 133.193C298.176 138.965 295.013 144.481 294.212 150.61C293.732 154.964 294.409 159.368 296.173 163.377C297.937 167.386 300.728 170.86 304.261 173.446C316.361 182.25 328.763 188.576 324.623 205.323C322.224 215.005 314.411 229.735 314.408 229.742Z" fill="#F5DFBE"/>
<path d="M314.408 229.742C314.408 229.742 320.653 214.265 321.347 205.344C322.197 194.239 313.087 188.018 303.335 184.133C288.187 178.105 277.216 171.686 273.609 155.057C271.201 143.925 271.917 132.348 269.194 121.277C265.697 106.952 258.101 93.9569 247.337 83.8828C266.132 91.7786 286.879 105.914 303.102 123.328C302.502 126.694 301.591 129.997 300.378 133.193C298.176 138.965 295.013 144.481 294.212 150.61C293.732 154.964 294.409 159.368 296.173 163.377C297.937 167.386 300.728 170.86 304.261 173.446C316.361 182.25 328.763 188.576 324.623 205.323C322.224 215.005 314.411 229.735 314.408 229.742Z" fill="#F5DFBE"/>
<path opacity="0.3" d="M314.408 229.742C314.408 229.742 320.653 214.265 321.347 205.344C322.197 194.239 313.087 188.018 303.335 184.133C288.187 178.105 277.216 171.686 273.609 155.057C271.201 143.925 271.917 132.348 269.194 121.277C265.697 106.952 258.101 93.9569 247.337 83.8828C266.132 91.7786 286.879 105.914 303.102 123.328C302.502 126.694 301.591 129.997 300.378 133.193C298.176 138.965 295.013 144.481 294.212 150.61C293.732 154.964 294.409 159.368 296.173 163.377C297.937 167.386 300.728 170.86 304.261 173.446C316.361 182.25 328.763 188.576 324.623 205.323C322.224 215.005 314.411 229.735 314.408 229.742Z" fill="url(#paint0_linear)"/>
<path d="M376.23 158.596C373.952 155.211 371.985 151.627 370.353 147.888C368.529 143.118 367.451 138.095 367.159 132.997C367.016 131.439 367.016 129.871 367.159 128.314C367.289 127.106 367.394 124.734 368.151 123.638C362.851 129.889 358.52 139.684 360.017 147.717C358.338 146.672 356.505 145.897 354.585 145.421C350.228 144.399 345.96 145.383 341.924 147.237C334.838 122.063 316.203 98.9734 295.299 82.2783C302.852 94.6139 305.633 109.287 303.119 123.532C320.442 142.107 332.61 164.421 331.747 186.874C331.142 202.502 323.98 217.706 314.431 229.944C322.523 222.038 330.053 214.297 335.464 204.241C339.671 196.41 342.379 187.994 346.14 179.989C348.33 175.322 352.634 164.397 359.82 166.025C362.733 166.682 364.66 169.601 365.041 172.473C365.42 175.345 364.572 178.2 363.739 180.955C366.839 178.64 369.11 175.386 370.212 171.675C372.89 170.933 375.743 170.068 377.55 168.052C380.152 165.144 378.003 161.332 376.23 158.596ZM364.767 163.209C364.242 162.426 363.891 161.54 363.733 160.611C363.576 159.681 363.619 158.729 363.857 157.817C365.268 158.807 366.354 160.192 366.977 161.799C367.602 163.405 367.736 165.161 367.363 166.843C367.381 165.775 366.084 164.764 365.455 164.056C365.21 163.777 364.977 163.497 364.767 163.209Z" fill="#F5DFBE"/>
<path d="M315.558 228.296C315.105 228.72 314.719 229.207 314.409 229.743C314.409 229.734 322.224 215.005 324.625 205.323C328.765 188.577 316.362 182.251 304.263 173.447C300.729 170.861 297.939 167.388 296.174 163.378C294.409 159.369 293.734 154.965 294.213 150.611C295.015 144.482 298.177 138.966 300.379 133.195C301.593 129.998 302.504 126.695 303.103 123.329C320.426 141.905 332.594 164.219 331.732 186.672C331.121 202.299 325.11 216.058 315.558 228.296Z" fill="#F5DFBE"/>
<path opacity="0.3" d="M315.558 228.296C315.049 229.036 314.719 229.207 314.409 229.743C314.409 229.734 322.224 215.005 324.625 205.323C328.765 188.577 316.362 182.251 304.263 173.447C300.729 170.861 297.939 167.388 296.174 163.378C294.409 159.369 293.734 154.965 294.213 150.611C295.015 144.482 298.177 138.966 300.379 133.195C301.593 129.998 302.504 126.695 303.103 123.329C320.426 141.905 332.594 164.219 331.732 186.672C331.121 202.299 325.11 216.058 315.558 228.296Z" fill="url(#paint1_linear)"/>
<path d="M279.555 87.2529C279.514 86.506 277.833 85.2856 277.335 84.8099C274.633 82.2547 271.589 80.118 268.719 77.7686C265.154 74.9567 262.186 71.4592 259.993 67.4824C259.899 67.3024 259.806 67.1208 259.715 66.9377C258.603 64.649 257.826 62.2117 257.41 59.7012C264.997 63.0944 278.963 76.3379 279.555 87.2529Z" fill="#F5DFBE"/>
<path d="M305.54 240.325C305.513 239.841 304.419 239.046 304.092 238.737C302.34 237.076 300.354 235.686 298.493 234.161C296.175 232.334 294.247 230.062 292.821 227.478C292.759 227.361 292.704 227.244 292.64 227.128C291.917 225.639 291.412 224.055 291.142 222.422C296.077 224.622 305.154 233.23 305.54 240.325Z" fill="#F5DFBE"/>
<path opacity="0.3" d="M305.54 240.325C305.513 239.841 304.419 239.046 304.092 238.737C302.34 237.076 300.354 235.686 298.493 234.161C296.175 232.334 294.247 230.062 292.821 227.478C292.759 227.361 292.704 227.244 292.64 227.128C291.917 225.639 291.412 224.055 291.142 222.422C296.077 224.622 305.154 233.23 305.54 240.325Z" fill="url(#paint2_linear)"/>
<path d="M309.372 234.46C312.73 216.553 308.472 203.225 305.776 199.457C299.012 190.004 288.026 192.55 277.447 192.711C267.878 192.854 260.829 189.197 256.354 184.762C257.91 186.305 258.625 188.549 259.85 190.338C261.93 193.335 264.673 195.812 267.867 197.576C271.06 199.34 274.617 200.343 278.261 200.507C286.367 201.079 293.334 201.192 298.801 208.041C304.723 215.464 307.266 225.386 309.372 234.46Z" fill="#F5DFBE"/>
<path opacity="0.3" d="M309.372 234.46C312.73 216.553 308.472 203.225 305.776 199.457C299.012 190.004 288.026 192.55 277.447 192.711C267.878 192.854 260.829 189.197 256.354 184.762C257.91 186.305 258.625 188.549 259.85 190.338C261.93 193.335 264.673 195.812 267.867 197.576C271.06 199.34 274.617 200.343 278.261 200.507C286.367 201.079 293.334 201.192 298.801 208.041C304.723 215.464 307.266 225.386 309.372 234.46Z" fill="url(#paint3_linear)"/>
<defs>
<linearGradient id="paint0_linear" x1="253.194" y1="86.3624" x2="321.56" y2="118.144" gradientUnits="userSpaceOnUse">
<stop stop-color="white"/>
<stop offset="0.236" stop-color="#FCFCFC"/>
<stop offset="0.373" stop-color="#F4F4F4"/>
<stop offset="0.484" stop-color="#E6E6E6"/>
<stop offset="0.582" stop-color="#D2D2D2"/>
<stop offset="0.67" stop-color="#B8B8B8"/>
<stop offset="0.753" stop-color="#989898"/>
<stop offset="0.83" stop-color="#727272"/>
<stop offset="0.904" stop-color="#464646"/>
<stop offset="0.972" stop-color="#161616"/>
<stop offset="1"/>
</linearGradient>
<linearGradient id="paint1_linear" x1="296.439" y1="140.994" x2="340.639" y2="153.272" gradientUnits="userSpaceOnUse">
<stop stop-color="white"/>
<stop offset="0.11" stop-color="#D5D5D5"/>
<stop offset="0.295" stop-color="#959595"/>
<stop offset="0.472" stop-color="#606060"/>
<stop offset="0.636" stop-color="#363636"/>
<stop offset="0.783" stop-color="#181818"/>
<stop offset="0.91" stop-color="#060606"/>
<stop offset="1"/>
</linearGradient>
<linearGradient id="paint2_linear" x1="291.142" y1="231.374" x2="305.54" y2="231.374" gradientUnits="userSpaceOnUse">
<stop stop-color="white"/>
<stop offset="0.11" stop-color="#D5D5D5"/>
<stop offset="0.295" stop-color="#959595"/>
<stop offset="0.472" stop-color="#606060"/>
<stop offset="0.636" stop-color="#363636"/>
<stop offset="0.783" stop-color="#181818"/>
<stop offset="0.91" stop-color="#060606"/>
<stop offset="1"/>
</linearGradient>
<linearGradient id="paint3_linear" x1="256.354" y1="209.612" x2="310.608" y2="209.612" gradientUnits="userSpaceOnUse">
<stop stop-color="white"/>
<stop offset="0.11" stop-color="#D5D5D5"/>
<stop offset="0.295" stop-color="#959595"/>
<stop offset="0.472" stop-color="#606060"/>
<stop offset="0.636" stop-color="#363636"/>
<stop offset="0.783" stop-color="#181818"/>
<stop offset="0.91" stop-color="#060606"/>
<stop offset="1"/>
</linearGradient>
</defs>
</svg>
