<svg width="436" height="436" viewBox="0 0 436 436" fill="none" xmlns="http://www.w3.org/2000/svg">
<circle cx="218" cy="218" r="218" fill="#1F2B2F"/>
<path d="M122.786 279.867C122.767 279.924 122.814 279.981 122.928 280.038C123.023 280.076 123.185 280.114 123.413 280.152C123.66 280.19 124.03 280.209 124.524 280.209C125.74 280.209 126.7 279.971 127.403 279.496C128.125 279.021 128.676 278.423 129.056 277.701C129.436 276.979 129.683 276.181 129.797 275.307C129.911 274.414 129.968 273.568 129.968 272.77C129.968 271.441 129.806 270.291 129.483 269.322C129.16 268.353 128.742 267.565 128.229 266.957C127.735 266.33 127.194 265.874 126.605 265.589C126.016 265.285 125.465 265.133 124.952 265.133C124.496 265.133 124.144 265.171 123.897 265.247C123.65 265.323 123.46 265.408 123.327 265.503C123.175 265.598 123.09 265.712 123.071 265.845C122.995 266.966 122.938 268.135 122.9 269.351C122.862 270.567 122.833 271.782 122.814 272.998C122.795 274.195 122.786 275.383 122.786 276.561C122.786 277.72 122.786 278.822 122.786 279.867ZM120.021 277.9C120.021 277.064 120.002 276.181 119.964 275.25C119.926 274.3 119.879 273.359 119.822 272.428C119.765 271.478 119.698 270.567 119.622 269.693C119.546 268.819 119.461 268.049 119.366 267.384C119.271 266.719 119.176 266.187 119.081 265.788C118.986 265.37 118.9 265.152 118.824 265.133C118.634 265.095 118.435 265.066 118.226 265.047C118.036 265.009 117.846 264.971 117.656 264.933C117.447 264.895 117.228 264.857 117 264.819V264.563C117.342 264.62 117.713 264.667 118.112 264.705C118.454 264.743 118.843 264.772 119.28 264.791C119.736 264.81 120.211 264.819 120.705 264.819C121.18 264.819 121.608 264.81 121.988 264.791C122.387 264.753 122.795 264.724 123.213 264.705C123.631 264.667 124.097 264.639 124.61 264.62C125.142 264.582 125.778 264.563 126.519 264.563C127.678 264.563 128.723 264.791 129.654 265.247C130.585 265.684 131.374 266.263 132.02 266.985C132.685 267.688 133.188 268.477 133.53 269.351C133.872 270.206 134.043 271.061 134.043 271.915C134.043 272.713 133.948 273.445 133.758 274.11C133.568 274.756 133.321 275.345 133.017 275.877C132.713 276.39 132.362 276.855 131.963 277.273C131.564 277.672 131.165 278.024 130.766 278.328C129.797 279.05 128.704 279.591 127.488 279.952C128.495 279.952 129.369 280.266 130.11 280.893C130.87 281.52 131.545 282.308 132.134 283.258C132.723 284.189 133.264 285.215 133.758 286.336C134.271 287.438 134.775 288.474 135.269 289.443C135.782 290.412 136.323 291.238 136.893 291.922C137.482 292.587 138.166 292.957 138.945 293.033C137.71 293.033 136.656 292.948 135.782 292.777C134.927 292.587 134.195 292.33 133.587 292.007C132.998 291.665 132.495 291.267 132.077 290.811C131.678 290.336 131.317 289.823 130.994 289.272C130.671 288.702 130.357 288.103 130.053 287.476C129.749 286.83 129.388 286.165 128.97 285.481C128.305 284.379 127.783 283.496 127.403 282.831C127.023 282.166 126.643 281.662 126.263 281.32C125.902 280.978 125.465 280.76 124.952 280.665C124.439 280.551 123.717 280.494 122.786 280.494C122.786 281.691 122.833 282.992 122.928 284.398C123.023 285.804 123.128 287.106 123.242 288.303C123.375 289.709 123.536 291.105 123.726 292.492L125.664 292.748V293.033L124.524 292.891C124.182 292.853 123.774 292.824 123.299 292.805C122.843 292.767 122.358 292.748 121.845 292.748C121.161 292.748 120.563 292.767 120.05 292.805C119.537 292.824 119.109 292.853 118.767 292.891C118.368 292.948 118.036 292.995 117.77 293.033V292.834C117.941 292.796 118.121 292.758 118.311 292.72C118.463 292.682 118.634 292.644 118.824 292.606C119.014 292.568 119.214 292.53 119.423 292.492C119.727 292.454 119.898 291.257 119.936 288.901C119.993 286.545 120.021 282.878 120.021 277.9ZM142.391 284.199C142.391 284.769 142.496 285.405 142.705 286.108C142.933 286.792 143.303 287.438 143.816 288.046C144.329 288.635 144.994 289.139 145.811 289.557C146.647 289.956 147.664 290.155 148.861 290.155C149.488 290.155 149.982 290.07 150.343 289.899C150.704 289.728 150.97 289.519 151.141 289.272C151.312 289.006 151.416 288.73 151.454 288.445C151.511 288.16 151.54 287.894 151.54 287.647C151.54 286.83 151.378 286.023 151.055 285.225C150.751 284.427 150.324 283.714 149.773 283.087C149.222 282.46 148.566 281.957 147.806 281.577C147.065 281.197 146.258 281.007 145.384 281.007C144.814 281.007 144.339 281.121 143.959 281.349C143.579 281.558 143.265 281.833 143.018 282.175C142.79 282.498 142.629 282.85 142.534 283.23C142.439 283.591 142.391 283.914 142.391 284.199ZM148.661 278.784C149.231 278.784 149.839 278.907 150.485 279.154C151.15 279.401 151.758 279.772 152.309 280.266C152.879 280.76 153.345 281.396 153.706 282.175C154.067 282.935 154.247 283.828 154.247 284.854C154.247 285.443 154.105 286.051 153.82 286.678C153.554 287.305 153.193 287.923 152.737 288.531C152.3 289.139 151.787 289.718 151.198 290.269C150.628 290.801 150.029 291.276 149.402 291.694C148.794 292.093 148.177 292.416 147.55 292.663C146.942 292.91 146.381 293.033 145.868 293.033C145.089 293.033 144.339 292.872 143.617 292.549C142.914 292.226 142.287 291.789 141.736 291.238C141.185 290.687 140.738 290.06 140.396 289.357C140.073 288.635 139.912 287.875 139.912 287.077C139.912 285.994 140.206 284.959 140.795 283.971C141.384 282.964 142.116 282.08 142.99 281.32C143.864 280.541 144.804 279.924 145.811 279.468C146.837 279.012 147.787 278.784 148.661 278.784ZM166.432 279.867C167.04 279.867 167.648 279.971 168.256 280.18C168.864 280.389 169.406 280.712 169.881 281.149C170.375 281.586 170.774 282.147 171.078 282.831C171.382 283.515 171.534 284.322 171.534 285.253C171.534 286.526 171.344 287.638 170.964 288.588C170.584 289.538 170.175 290.336 169.738 290.982C169.206 291.742 168.608 292.378 167.943 292.891C168.152 292.587 168.351 292.197 168.541 291.722C168.693 291.324 168.826 290.83 168.94 290.241C169.073 289.652 169.14 288.939 169.14 288.103C169.14 287.02 168.95 286.089 168.57 285.31C168.209 284.531 167.743 283.895 167.173 283.401C166.603 282.888 165.976 282.517 165.292 282.289C164.608 282.061 163.953 281.947 163.326 281.947C162.718 281.947 162.271 282.213 161.986 282.745C161.72 283.258 161.54 283.961 161.445 284.854C161.35 285.728 161.312 286.745 161.331 287.904C161.35 289.063 161.359 290.279 161.359 291.552C160.979 291.704 160.58 291.941 160.162 292.264C159.744 292.568 159.345 292.824 158.965 293.033C159.022 292.292 159.051 291.381 159.051 290.298C159.051 289.215 159.041 288.046 159.022 286.792C159.022 285.519 159.013 284.199 158.994 282.831C158.975 281.463 158.965 280.123 158.965 278.812C158.965 276.171 158.946 273.654 158.908 271.26C158.87 268.866 158.737 266.662 158.509 264.648C159.63 264.648 160.58 264.496 161.359 264.192C162.157 263.869 162.86 263.518 163.468 263.138C163.145 263.442 162.908 263.736 162.756 264.021C162.604 264.306 162.49 264.563 162.414 264.791C162.224 265.399 162.081 266.225 161.986 267.27C161.891 268.296 161.815 269.455 161.758 270.747C161.72 272.02 161.692 273.359 161.673 274.765C161.673 276.152 161.673 277.501 161.673 278.812V281.947C162.091 281.567 162.547 281.225 163.041 280.921C163.478 280.655 163.981 280.418 164.551 280.209C165.14 279.981 165.767 279.867 166.432 279.867ZM188.367 283.914C188.519 284.275 188.738 284.807 189.023 285.51C189.308 286.213 189.602 286.925 189.907 287.647C190.23 288.369 190.543 289.006 190.847 289.557C191.151 290.108 191.408 290.402 191.617 290.44C191.047 290.763 190.448 291.153 189.821 291.608C189.213 292.064 188.681 292.539 188.225 293.033C188.13 292.615 187.959 292.036 187.712 291.295C187.465 290.535 187.132 289.709 186.714 288.816C186.353 289.177 185.897 289.604 185.346 290.098C184.795 290.573 184.206 291.029 183.579 291.466C182.952 291.903 182.297 292.273 181.613 292.577C180.948 292.881 180.311 293.033 179.703 293.033C179.266 293.033 178.81 292.976 178.335 292.862C177.879 292.729 177.461 292.549 177.081 292.321C176.701 292.074 176.388 291.779 176.141 291.438C175.913 291.096 175.799 290.706 175.799 290.269C175.799 289.737 176.074 289.167 176.625 288.559C177.176 287.951 177.86 287.353 178.677 286.764C179.494 286.156 180.378 285.567 181.328 284.997C182.278 284.427 183.152 283.895 183.95 283.401C183.361 282.66 182.8 282.128 182.268 281.805C181.755 281.463 181.185 281.292 180.558 281.292C180.292 281.292 179.941 281.368 179.504 281.52C179.086 281.672 178.677 281.843 178.278 282.033C177.784 282.242 177.29 282.479 176.796 282.745C177.86 282.023 178.886 281.368 179.874 280.779C180.292 280.532 180.72 280.294 181.157 280.066C181.594 279.838 182.012 279.629 182.411 279.439C182.829 279.249 183.209 279.097 183.551 278.983C183.912 278.869 184.216 278.812 184.463 278.812C184.938 278.812 185.375 279.021 185.774 279.439C186.192 279.838 186.562 280.323 186.885 280.893C187.227 281.444 187.512 282.004 187.74 282.574C187.987 283.144 188.196 283.591 188.367 283.914ZM182.781 290.269C183.237 290.269 183.674 290.203 184.092 290.07C184.51 289.937 184.871 289.747 185.175 289.5C185.498 289.253 185.755 288.958 185.945 288.616C186.135 288.274 186.23 287.904 186.23 287.505C186.078 287.258 185.916 286.992 185.745 286.707C185.574 286.403 185.413 286.118 185.261 285.852C185.109 285.51 184.947 285.187 184.776 284.883C184.624 284.56 184.463 284.294 184.292 284.085C183.874 284.237 183.361 284.455 182.753 284.74C182.164 285.006 181.594 285.329 181.043 285.709C180.492 286.07 180.017 286.469 179.618 286.906C179.238 287.343 179.048 287.799 179.048 288.274C179.048 288.54 179.143 288.797 179.333 289.044C179.542 289.272 179.808 289.481 180.131 289.671C180.473 289.842 180.872 289.984 181.328 290.098C181.784 290.212 182.268 290.269 182.781 290.269ZM210.976 284.911C210.976 286.26 210.748 287.448 210.292 288.474C209.855 289.481 209.371 290.326 208.839 291.01C208.212 291.808 207.499 292.492 206.701 293.062C207.005 292.587 207.281 292.064 207.528 291.495C207.737 291.001 207.927 290.44 208.098 289.813C208.269 289.186 208.354 288.521 208.354 287.818C208.354 286.963 208.183 286.137 207.841 285.339C207.499 284.541 207.043 283.838 206.473 283.23C205.903 282.603 205.238 282.099 204.478 281.719C203.737 281.339 202.958 281.149 202.141 281.149C201.742 281.149 201.353 281.197 200.972 281.292C200.592 281.387 200.279 281.558 200.032 281.805C200.032 282.204 200.013 282.745 199.975 283.429C199.956 284.094 199.946 284.864 199.946 285.738C199.946 286.612 199.965 287.562 200.003 288.588C200.06 289.614 200.174 290.678 200.345 291.779C199.68 291.779 199.015 291.912 198.35 292.178C197.704 292.444 197.182 292.739 196.783 293.062C196.802 292.701 196.83 292.178 196.868 291.495C196.906 290.792 196.935 290.022 196.954 289.186C196.973 288.331 196.973 287.457 196.954 286.564C196.954 285.671 196.916 284.854 196.84 284.113C196.764 283.353 196.65 282.717 196.498 282.204C196.365 281.691 196.175 281.396 195.928 281.32C195.605 281.187 195.282 281.121 194.959 281.121C194.788 281.121 194.626 281.13 194.474 281.149C195.12 280.731 195.738 280.351 196.327 280.009C196.821 279.724 197.324 279.468 197.837 279.24C198.35 278.993 198.749 278.869 199.034 278.869C199.281 278.869 199.471 278.888 199.604 278.926C199.737 278.964 199.832 279.059 199.889 279.211C199.965 279.363 200.003 279.591 200.003 279.895C200.022 280.199 200.032 280.617 200.032 281.149C200.849 280.408 201.714 279.848 202.626 279.468C203.557 279.069 204.431 278.869 205.248 278.869C206.103 278.869 206.882 279.04 207.585 279.382C208.288 279.724 208.886 280.18 209.38 280.75C209.893 281.301 210.283 281.938 210.549 282.66C210.834 283.382 210.976 284.132 210.976 284.911Z" fill="#F5DFBE"/>
<path d="M221.501 264.79V264.534C221.729 264.591 222.005 264.638 222.328 264.676C222.594 264.714 222.936 264.743 223.354 264.762C223.772 264.781 224.257 264.79 224.808 264.79C225.454 264.79 226.014 264.781 226.489 264.762C226.983 264.743 227.392 264.714 227.715 264.676C228.095 264.638 228.427 264.591 228.712 264.534V264.79L227.373 265.075C227.335 265.36 227.354 265.845 227.43 266.529C227.525 267.194 227.658 267.992 227.829 268.923C228.019 269.854 228.237 270.889 228.484 272.029C228.75 273.169 229.026 274.347 229.311 275.563C229.615 276.76 229.928 277.976 230.251 279.211C230.593 280.427 230.926 281.595 231.249 282.716C231.572 283.837 231.885 284.873 232.189 285.823C232.493 286.773 232.778 287.571 233.044 288.217C233.367 287.267 233.709 286.127 234.07 284.797C234.431 283.448 234.773 282.032 235.096 280.55C235.438 279.049 235.761 277.52 236.065 275.962C236.369 274.404 236.626 272.931 236.835 271.545C237.063 270.158 237.234 268.904 237.348 267.783C237.481 266.643 237.538 265.74 237.519 265.075L236.037 264.79V264.534C236.322 264.591 236.635 264.638 236.977 264.676C237.262 264.714 237.585 264.743 237.946 264.762C238.307 264.781 238.678 264.79 239.058 264.79C239.609 264.79 240.074 264.781 240.454 264.762C240.834 264.743 241.157 264.714 241.423 264.676C241.727 264.638 241.974 264.591 242.164 264.534V264.79L241.252 265.075C239.922 269.293 238.659 273.245 237.462 276.931C236.949 278.508 236.426 280.104 235.894 281.719C235.362 283.334 234.84 284.863 234.327 286.307C233.833 287.751 233.367 289.062 232.93 290.24C232.512 291.418 232.151 292.359 231.847 293.062C231.543 292.435 231.201 291.57 230.821 290.468C230.441 289.366 230.033 288.122 229.596 286.735C229.178 285.348 228.741 283.866 228.285 282.289C227.829 280.712 227.373 279.144 226.917 277.586C226.461 276.028 226.014 274.527 225.577 273.083C225.159 271.64 224.76 270.348 224.38 269.208C224.019 268.068 223.696 267.127 223.411 266.386C223.126 265.645 222.888 265.208 222.698 265.075L221.501 264.79ZM252.162 289.955C252.713 289.955 253.226 289.889 253.701 289.756C254.195 289.604 254.623 289.433 254.984 289.243C255.402 289.034 255.791 288.796 256.152 288.53C255.639 289.385 255.022 290.145 254.3 290.81C253.692 291.38 252.922 291.903 251.991 292.378C251.079 292.834 250.015 293.062 248.799 293.062C247.925 293.062 247.089 292.91 246.291 292.606C245.493 292.302 244.781 291.865 244.154 291.295C243.546 290.725 243.061 290.031 242.7 289.214C242.339 288.378 242.159 287.447 242.159 286.421C242.159 285.49 242.301 284.673 242.586 283.97C242.89 283.248 243.28 282.621 243.755 282.089C244.23 281.557 244.762 281.12 245.351 280.778C245.94 280.417 246.519 280.123 247.089 279.895C248.913 279.154 250.158 278.783 250.823 278.783C251.526 278.783 252.134 278.907 252.647 279.154C253.179 279.382 253.635 279.638 254.015 279.923C254.433 280.265 254.803 280.645 255.126 281.063L245.721 284.854C245.854 285.652 246.044 286.364 246.291 286.991C246.538 287.618 246.899 288.15 247.374 288.587C247.849 289.024 248.467 289.366 249.227 289.613C249.987 289.841 250.965 289.955 252.162 289.955ZM247.545 280.436C247.279 280.436 247.023 280.512 246.776 280.664C246.529 280.797 246.301 280.978 246.092 281.206C245.902 281.434 245.75 281.69 245.636 281.975C245.541 282.26 245.503 282.545 245.522 282.83C245.522 283.134 245.522 283.429 245.522 283.714C245.541 283.999 245.579 284.284 245.636 284.569L250.424 282.374C250.234 282.013 249.996 281.69 249.711 281.405C249.464 281.158 249.16 280.94 248.799 280.75C248.438 280.541 248.02 280.436 247.545 280.436ZM269.058 278.897C269.343 278.897 269.647 278.907 269.97 278.926C270.293 278.945 270.559 279.002 270.768 279.097C270.559 279.382 270.359 279.743 270.169 280.18C269.979 280.617 269.808 281.035 269.656 281.434C269.466 281.928 269.295 282.422 269.143 282.916C269.01 282.84 268.839 282.764 268.63 282.688C268.459 282.631 268.241 282.574 267.975 282.517C267.728 282.46 267.424 282.431 267.063 282.431C266.493 282.431 266.018 282.593 265.638 282.916C265.277 283.22 264.982 283.628 264.754 284.141C264.526 284.635 264.346 285.186 264.213 285.794C264.099 286.402 264.013 286.991 263.956 287.561C263.956 288.663 263.966 289.518 263.985 290.126C264.023 290.734 264.042 291.228 264.042 291.608C263.795 291.665 263.519 291.751 263.215 291.865C262.93 291.96 262.635 292.083 262.331 292.235C262.027 292.368 261.723 292.511 261.419 292.663C261.134 292.796 260.878 292.929 260.65 293.062C260.745 292.207 260.821 291.323 260.878 290.411C260.954 289.499 261.001 288.606 261.02 287.732C261.058 286.858 261.058 286.032 261.02 285.253C261.001 284.455 260.944 283.761 260.849 283.172C260.773 282.564 260.669 282.08 260.536 281.719C260.403 281.339 260.241 281.13 260.051 281.092C259.956 281.073 259.852 281.063 259.738 281.063C259.624 281.063 259.51 281.063 259.396 281.063C259.263 281.063 259.13 281.073 258.997 281.092C259.51 280.921 260.023 280.721 260.536 280.493C260.973 280.284 261.457 280.047 261.989 279.781C262.521 279.496 263.034 279.173 263.529 278.812C263.586 279.059 263.633 279.401 263.671 279.838C263.709 280.256 263.747 280.74 263.785 281.291C263.823 281.823 263.852 282.393 263.871 283.001C263.89 283.609 263.918 284.208 263.956 284.797C264.241 284.151 264.574 283.486 264.954 282.802C265.334 282.099 265.742 281.462 266.179 280.892C266.616 280.303 267.082 279.828 267.576 279.467C268.07 279.087 268.564 278.897 269.058 278.897ZM292.403 278.783C293.22 278.783 293.961 278.954 294.626 279.296C295.31 279.619 295.889 280.066 296.364 280.636C296.858 281.206 297.238 281.861 297.504 282.602C297.77 283.343 297.903 284.122 297.903 284.939C297.903 286.25 297.685 287.409 297.248 288.416C296.811 289.404 296.326 290.24 295.794 290.924C295.167 291.722 294.474 292.425 293.714 293.033C294.018 292.558 294.284 292.036 294.512 291.466C294.721 290.972 294.901 290.402 295.053 289.756C295.224 289.11 295.31 288.426 295.31 287.704C295.31 286.849 295.139 286.022 294.797 285.224C294.474 284.426 294.027 283.723 293.457 283.115C292.887 282.488 292.232 281.994 291.491 281.633C290.75 281.253 289.971 281.063 289.154 281.063C288.831 281.063 288.517 281.101 288.213 281.177C287.909 281.253 287.634 281.377 287.387 281.548C288.052 282.536 288.384 283.666 288.384 284.939C288.384 286.25 288.166 287.409 287.729 288.416C287.292 289.404 286.807 290.24 286.275 290.924C285.648 291.722 284.945 292.425 284.166 293.033C284.47 292.558 284.736 292.036 284.964 291.466C285.173 290.972 285.363 290.402 285.534 289.756C285.705 289.11 285.791 288.426 285.791 287.704C285.791 286.849 285.62 286.022 285.277 285.224C284.954 284.426 284.508 283.723 283.938 283.115C283.368 282.488 282.712 281.994 281.971 281.633C281.23 281.253 280.451 281.063 279.634 281.063C279.235 281.063 278.846 281.12 278.466 281.234C278.086 281.329 277.772 281.538 277.525 281.861C277.525 282.222 277.506 282.735 277.468 283.4C277.449 284.065 277.44 284.825 277.44 285.68C277.44 286.535 277.459 287.476 277.497 288.502C277.554 289.509 277.668 290.535 277.839 291.58C277.554 291.618 277.25 291.684 276.927 291.779C276.604 291.874 276.281 291.988 275.958 292.121C275.635 292.254 275.321 292.397 275.017 292.549C274.732 292.701 274.485 292.862 274.276 293.033C274.295 292.653 274.324 292.112 274.362 291.409C274.419 290.706 274.466 289.936 274.504 289.1C274.542 288.264 274.561 287.4 274.561 286.507C274.561 285.614 274.523 284.797 274.447 284.056C274.371 283.315 274.257 282.688 274.105 282.175C273.953 281.643 273.744 281.32 273.478 281.206C273.155 281.073 272.861 281.006 272.595 281.006C272.462 281.006 272.329 281.025 272.196 281.063C272.842 280.645 273.45 280.265 274.02 279.923C274.514 279.638 274.998 279.382 275.473 279.154C275.948 278.907 276.309 278.783 276.556 278.783C276.803 278.783 276.993 278.802 277.126 278.84C277.259 278.878 277.354 278.973 277.411 279.125C277.468 279.277 277.497 279.505 277.497 279.809C277.516 280.113 277.525 280.531 277.525 281.063C278.342 280.398 279.207 279.857 280.119 279.439C281.05 279.002 281.971 278.783 282.883 278.783C283.776 278.783 284.584 279.002 285.306 279.439C286.028 279.857 286.674 280.398 287.244 281.063C287.966 280.398 288.774 279.857 289.667 279.439C290.579 279.002 291.491 278.783 292.403 278.783ZM314.751 283.913C314.903 284.274 315.121 284.806 315.406 285.509C315.691 286.212 315.986 286.925 316.29 287.647C316.613 288.369 316.926 289.005 317.23 289.556C317.534 290.107 317.791 290.402 318 290.44C317.43 290.763 316.831 291.152 316.204 291.608C315.596 292.064 315.064 292.539 314.608 293.033C314.513 292.615 314.342 292.036 314.095 291.295C313.848 290.535 313.516 289.708 313.098 288.815C312.737 289.176 312.281 289.604 311.73 290.098C311.179 290.573 310.59 291.029 309.963 291.466C309.336 291.903 308.68 292.273 307.996 292.577C307.331 292.881 306.695 293.033 306.087 293.033C305.65 293.033 305.194 292.976 304.719 292.862C304.263 292.729 303.845 292.549 303.465 292.321C303.085 292.074 302.771 291.779 302.524 291.437C302.296 291.095 302.182 290.706 302.182 290.269C302.182 289.737 302.458 289.167 303.009 288.559C303.56 287.951 304.244 287.352 305.061 286.763C305.878 286.155 306.761 285.566 307.711 284.996C308.661 284.426 309.535 283.894 310.333 283.4C309.744 282.659 309.184 282.127 308.652 281.804C308.139 281.462 307.569 281.291 306.942 281.291C306.676 281.291 306.324 281.367 305.887 281.519C305.469 281.671 305.061 281.842 304.662 282.032C304.168 282.241 303.674 282.479 303.18 282.745C304.244 282.023 305.27 281.367 306.258 280.778C306.676 280.531 307.103 280.294 307.54 280.066C307.977 279.838 308.395 279.629 308.794 279.439C309.212 279.249 309.592 279.097 309.934 278.983C310.295 278.869 310.599 278.812 310.846 278.812C311.321 278.812 311.758 279.021 312.157 279.439C312.575 279.838 312.946 280.322 313.269 280.892C313.611 281.443 313.896 282.004 314.124 282.574C314.371 283.144 314.58 283.59 314.751 283.913ZM309.165 290.269C309.621 290.269 310.058 290.202 310.476 290.069C310.894 289.936 311.255 289.746 311.559 289.499C311.882 289.252 312.138 288.958 312.328 288.616C312.518 288.274 312.613 287.903 312.613 287.504C312.461 287.257 312.3 286.991 312.129 286.706C311.958 286.402 311.796 286.117 311.644 285.851C311.492 285.509 311.331 285.186 311.16 284.882C311.008 284.559 310.846 284.293 310.675 284.084C310.257 284.236 309.744 284.455 309.136 284.74C308.547 285.006 307.977 285.329 307.426 285.709C306.875 286.07 306.4 286.469 306.001 286.906C305.621 287.343 305.431 287.799 305.431 288.274C305.431 288.54 305.526 288.796 305.716 289.043C305.925 289.271 306.191 289.48 306.514 289.67C306.856 289.841 307.255 289.984 307.711 290.098C308.167 290.212 308.652 290.269 309.165 290.269Z" fill="#F5DFBE"/>
<path d="M150.289 309.094C150.289 309.272 150.332 309.493 150.417 309.757C150.502 310.02 150.556 310.194 150.579 310.28C150.664 310.535 150.753 310.803 150.846 311.081L152.459 315.974L153.98 311.209C153.554 309.97 153.256 309.241 153.086 309.024C153.017 308.947 152.92 308.873 152.796 308.804C152.68 308.726 152.568 308.684 152.459 308.676C152.351 308.66 152.2 308.653 152.007 308.653L151.984 308.513H155.106L155.082 308.653C154.781 308.653 154.572 308.684 154.456 308.746C154.34 308.8 154.282 308.943 154.282 309.176C154.282 309.4 154.46 310.036 154.816 311.081L156.452 315.974L157.984 311.081C158.286 310.105 158.437 309.443 158.437 309.094C158.437 308.916 158.363 308.8 158.216 308.746C158.077 308.684 157.856 308.653 157.555 308.653L157.531 308.513H160.352L160.34 308.653C159.953 308.653 159.667 308.703 159.481 308.804C159.295 308.897 159.118 309.106 158.947 309.431C158.777 309.757 158.568 310.307 158.321 311.081L156.545 316.706H155.802L154.119 311.686L152.564 316.706H151.833L149.953 311.081C149.744 310.454 149.585 310.005 149.477 309.733C149.376 309.454 149.248 309.222 149.094 309.036C148.947 308.842 148.804 308.73 148.664 308.699C148.525 308.668 148.312 308.653 148.026 308.653L148.003 308.513H151.125L151.102 308.653C150.8 308.653 150.587 308.68 150.463 308.734C150.347 308.788 150.289 308.908 150.289 309.094ZM164.953 313.708H161.146V313.905C161.146 314.727 161.32 315.354 161.669 315.788C162.017 316.214 162.45 316.427 162.968 316.427C163.742 316.427 164.299 316.117 164.64 315.498L164.814 315.591C164.411 316.373 163.738 316.764 162.794 316.764C162.098 316.764 161.502 316.513 161.007 316.009C160.512 315.505 160.264 314.827 160.264 313.975C160.264 313.115 160.481 312.41 160.914 311.86C161.355 311.31 161.939 311.035 162.667 311.035C163.402 311.035 163.967 311.287 164.361 311.79C164.756 312.286 164.953 312.925 164.953 313.708ZM162.701 311.267C162.253 311.267 161.897 311.461 161.634 311.848C161.378 312.228 161.224 312.736 161.169 313.371H164.059C164.005 311.969 163.553 311.267 162.701 311.267ZM169.934 311.035C170.437 311.035 170.858 311.186 171.199 311.488C171.802 312.023 172.104 312.832 172.104 313.917C172.104 314.746 171.841 315.428 171.315 315.963C170.797 316.497 170.092 316.764 169.203 316.764C168.839 316.764 168.502 316.737 168.193 316.683C167.883 316.629 167.663 316.578 167.531 316.532L167.346 316.451V310.163C167.346 309.319 167.299 308.808 167.206 308.629C167.175 308.575 167.117 308.525 167.032 308.478C166.947 308.424 166.858 308.393 166.765 308.385C166.672 308.378 166.541 308.374 166.371 308.374L166.348 308.246C166.905 308.153 167.508 308.106 168.158 308.106V312.557C168.483 311.542 169.075 311.035 169.934 311.035ZM168.158 316.079C168.452 316.311 168.804 316.427 169.214 316.427C169.632 316.427 169.973 316.346 170.236 316.183C170.499 316.021 170.696 315.811 170.827 315.556C170.967 315.292 171.067 315.025 171.129 314.754C171.191 314.475 171.222 314.196 171.222 313.917C171.222 313.638 171.199 313.367 171.152 313.104C171.114 312.84 171.044 312.573 170.944 312.302C170.851 312.031 170.7 311.814 170.491 311.651C170.282 311.48 170.015 311.395 169.69 311.395C169.365 311.395 169.075 311.566 168.82 311.907C168.564 312.247 168.39 312.604 168.297 312.976C168.204 313.34 168.158 313.661 168.158 313.94V316.079ZM179.551 308.513C180.882 308.513 181.88 308.629 182.546 308.862C182.848 308.97 183.169 309.125 183.509 309.327C183.85 309.528 184.124 309.768 184.333 310.047C184.55 310.326 184.728 310.682 184.867 311.116C185.014 311.55 185.088 312.038 185.088 312.581C185.088 313.115 185.014 313.599 184.867 314.033C184.728 314.459 184.55 314.812 184.333 315.091C184.124 315.37 183.861 315.614 183.544 315.823C183.234 316.024 182.94 316.176 182.662 316.276C182.383 316.377 182.074 316.458 181.733 316.52C181.277 316.606 180.809 316.648 180.329 316.648H177.207L177.23 316.509C177.617 316.509 177.899 316.435 178.077 316.288C178.271 316.125 178.368 315.37 178.368 314.022V311.14C178.368 310.311 178.34 309.745 178.286 309.443C178.24 309.133 178.17 308.939 178.077 308.862C177.899 308.715 177.617 308.641 177.23 308.641L177.207 308.513H179.551ZM179.609 316.369C179.702 316.377 179.892 316.381 180.178 316.381C180.472 316.381 180.789 316.35 181.13 316.288C181.478 316.226 181.834 316.11 182.198 315.939C182.569 315.761 182.886 315.536 183.149 315.265C183.42 314.994 183.641 314.63 183.811 314.173C183.989 313.708 184.078 313.181 184.078 312.592C184.078 311.996 183.993 311.469 183.822 311.012C183.652 310.555 183.432 310.19 183.161 309.919C182.89 309.64 182.573 309.412 182.209 309.234C181.567 308.931 180.859 308.78 180.085 308.78C179.737 308.78 179.435 308.804 179.18 308.85V314.161C179.18 314.998 179.203 315.552 179.25 315.823C179.296 316.094 179.416 316.276 179.609 316.369ZM191.223 313.708H187.417V313.905C187.417 314.727 187.591 315.354 187.939 315.788C188.287 316.214 188.72 316.427 189.239 316.427C190.012 316.427 190.57 316.117 190.91 315.498L191.084 315.591C190.682 316.373 190.009 316.764 189.065 316.764C188.368 316.764 187.772 316.513 187.277 316.009C186.782 315.505 186.534 314.827 186.534 313.975C186.534 313.115 186.751 312.41 187.184 311.86C187.625 311.31 188.21 311.035 188.937 311.035C189.672 311.035 190.237 311.287 190.631 311.79C191.026 312.286 191.223 312.925 191.223 313.708ZM188.972 311.267C188.523 311.267 188.167 311.461 187.904 311.848C187.649 312.228 187.494 312.736 187.44 313.371H190.33C190.276 311.969 189.823 311.267 188.972 311.267ZM194.231 311.814C194.231 312.17 194.413 312.805 194.776 313.72L195.67 315.974L196.575 313.185C196.753 312.627 196.842 312.205 196.842 311.918C196.842 311.5 196.572 311.291 196.03 311.291L196.007 311.151H198.189L198.166 311.291C197.848 311.291 197.624 311.395 197.492 311.604C197.369 311.806 197.133 312.437 196.784 313.499L195.74 316.683H195.055L193.546 312.825C193.291 312.174 193.059 311.756 192.85 311.57C192.649 311.384 192.405 311.291 192.119 311.291L192.095 311.151H194.974L194.951 311.291C194.68 311.291 194.49 311.333 194.382 311.418C194.281 311.504 194.231 311.635 194.231 311.814ZM203.809 313.708H200.002V313.905C200.002 314.727 200.176 315.354 200.524 315.788C200.873 316.214 201.306 316.427 201.824 316.427C202.598 316.427 203.155 316.117 203.496 315.498L203.67 315.591C203.267 316.373 202.594 316.764 201.65 316.764C200.954 316.764 200.358 316.513 199.863 316.009C199.368 315.505 199.12 314.827 199.12 313.975C199.12 313.115 199.337 312.41 199.77 311.86C200.211 311.31 200.795 311.035 201.523 311.035C202.258 311.035 202.822 311.287 203.217 311.79C203.612 312.286 203.809 312.925 203.809 313.708ZM201.557 311.267C201.109 311.267 200.753 311.461 200.49 311.848C200.234 312.228 200.08 312.736 200.025 313.371H202.915C202.861 311.969 202.408 311.267 201.557 311.267ZM207.095 308.095V314.626C207.095 315.486 207.145 316.017 207.246 316.218C207.346 316.412 207.625 316.509 208.081 316.509L208.105 316.648H205.261L205.284 316.509C205.748 316.509 206.031 316.412 206.131 316.218C206.232 316.024 206.282 315.494 206.282 314.626V310.187C206.282 309.327 206.236 308.808 206.143 308.629C206.112 308.575 206.054 308.521 205.969 308.467C205.884 308.412 205.791 308.381 205.69 308.374C205.598 308.366 205.462 308.362 205.284 308.362L205.261 308.234C205.841 308.141 206.453 308.095 207.095 308.095ZM209.495 313.905C209.495 313.092 209.727 312.41 210.192 311.86C210.656 311.31 211.287 311.035 212.084 311.035C212.88 311.035 213.523 311.31 214.01 311.86C214.498 312.41 214.741 313.092 214.741 313.905C214.741 314.719 214.505 315.401 214.033 315.951C213.569 316.493 212.939 316.764 212.142 316.764C211.345 316.764 210.702 316.489 210.215 315.939C209.735 315.389 209.495 314.711 209.495 313.905ZM210.83 315.788C211.14 316.284 211.577 316.532 212.142 316.532C212.706 316.532 213.132 316.288 213.418 315.8C213.712 315.312 213.859 314.684 213.859 313.917C213.859 313.142 213.705 312.507 213.395 312.011C213.086 311.515 212.648 311.267 212.084 311.267C211.526 311.267 211.101 311.515 210.807 312.011C210.521 312.499 210.377 313.127 210.377 313.894C210.377 314.661 210.528 315.292 210.83 315.788ZM217.878 312.557C218.009 312.131 218.218 311.771 218.504 311.477C218.798 311.182 219.189 311.035 219.677 311.035C220.172 311.035 220.586 311.186 220.918 311.488C221.522 312.023 221.824 312.832 221.824 313.917C221.824 314.731 221.576 315.409 221.081 315.951C220.586 316.493 219.959 316.764 219.201 316.764C218.651 316.764 218.21 316.66 217.878 316.451V317.822C217.878 318.287 217.881 318.624 217.889 318.833C217.905 319.042 217.947 319.22 218.017 319.368C218.094 319.523 218.191 319.616 218.307 319.647C218.431 319.678 218.616 319.693 218.864 319.693L218.887 319.832H216.079L216.102 319.693C216.551 319.693 216.821 319.592 216.914 319.391C217.015 319.197 217.065 318.674 217.065 317.822V312.918C217.065 312.499 217.057 312.201 217.042 312.023C217.034 311.845 216.992 311.69 216.914 311.558C216.845 311.426 216.752 311.353 216.636 311.337C216.527 311.314 216.349 311.302 216.102 311.302L216.079 311.174C216.628 311.081 217.228 311.035 217.878 311.035V312.557ZM219.05 316.427C219.762 316.427 220.261 316.16 220.547 315.625C220.81 315.137 220.942 314.568 220.942 313.917C220.942 313.336 220.856 312.798 220.686 312.302C220.586 312.031 220.431 311.814 220.222 311.651C220.013 311.48 219.762 311.395 219.468 311.395C219.181 311.395 218.926 311.5 218.702 311.709C218.477 311.91 218.311 312.162 218.203 312.464C217.986 313.069 217.878 313.58 217.878 313.998V315.811C218.117 316.222 218.508 316.427 219.05 316.427ZM228.016 313.708H224.209V313.905C224.209 314.727 224.383 315.354 224.732 315.788C225.08 316.214 225.513 316.427 226.032 316.427C226.805 316.427 227.362 316.117 227.703 315.498L227.877 315.591C227.475 316.373 226.801 316.764 225.857 316.764C225.161 316.764 224.565 316.513 224.07 316.009C223.575 315.505 223.327 314.827 223.327 313.975C223.327 313.115 223.544 312.41 223.977 311.86C224.418 311.31 225.002 311.035 225.73 311.035C226.465 311.035 227.03 311.287 227.424 311.79C227.819 312.286 228.016 312.925 228.016 313.708ZM225.765 311.267C225.316 311.267 224.96 311.461 224.697 311.848C224.442 312.228 224.287 312.736 224.233 313.371H227.123C227.068 311.969 226.616 311.267 225.765 311.267ZM233.218 310.977C233.411 310.977 233.581 311.019 233.728 311.105C233.875 311.19 233.949 311.306 233.949 311.453C233.949 311.601 233.902 311.717 233.81 311.802C233.717 311.887 233.612 311.93 233.496 311.93C233.38 311.93 233.233 311.879 233.055 311.779C232.885 311.678 232.703 311.628 232.51 311.628C232.208 311.628 231.96 311.907 231.767 312.464C231.581 313.022 231.488 313.669 231.488 314.405C231.488 315.397 231.539 315.997 231.639 316.207C231.67 316.276 231.728 316.342 231.813 316.404C231.898 316.458 231.987 316.489 232.08 316.497C232.173 316.505 232.305 316.509 232.475 316.509L232.498 316.648H229.678L229.701 316.509C229.949 316.509 230.127 316.497 230.235 316.474C230.351 316.443 230.448 316.346 230.525 316.183C230.602 316.021 230.645 315.819 230.653 315.579C230.668 315.331 230.676 314.94 230.676 314.405V313.731C230.676 312.654 230.645 312.042 230.583 311.895C230.529 311.748 230.479 311.632 230.432 311.546C230.386 311.461 230.316 311.403 230.223 311.372C230.053 311.326 229.829 311.302 229.55 311.302L229.527 311.174C230.185 311.081 230.838 311.035 231.488 311.035V312.743C231.573 312.193 231.763 311.763 232.057 311.453C232.359 311.136 232.746 310.977 233.218 310.977ZM234.705 317.636L237.165 308.862H237.873L235.413 317.636H234.705ZM241.855 308.513C243.186 308.513 244.184 308.629 244.85 308.862C245.151 308.97 245.472 309.125 245.813 309.327C246.153 309.528 246.428 309.768 246.637 310.047C246.854 310.326 247.032 310.682 247.171 311.116C247.318 311.55 247.391 312.038 247.391 312.581C247.391 313.115 247.318 313.599 247.171 314.033C247.032 314.459 246.854 314.812 246.637 315.091C246.428 315.37 246.165 315.614 245.848 315.823C245.538 316.024 245.244 316.176 244.966 316.276C244.687 316.377 244.378 316.458 244.037 316.52C243.581 316.606 243.113 316.648 242.633 316.648H239.511L239.534 316.509C239.921 316.509 240.203 316.435 240.381 316.288C240.575 316.125 240.671 315.37 240.671 314.022V311.14C240.671 310.311 240.644 309.745 240.59 309.443C240.544 309.133 240.474 308.939 240.381 308.862C240.203 308.715 239.921 308.641 239.534 308.641L239.511 308.513H241.855ZM241.913 316.369C242.006 316.377 242.196 316.381 242.482 316.381C242.776 316.381 243.093 316.35 243.434 316.288C243.782 316.226 244.138 316.11 244.501 315.939C244.873 315.761 245.19 315.536 245.453 315.265C245.724 314.994 245.944 314.63 246.115 314.173C246.293 313.708 246.382 313.181 246.382 312.592C246.382 311.996 246.297 311.469 246.126 311.012C245.956 310.555 245.736 310.19 245.465 309.919C245.194 309.64 244.877 309.412 244.513 309.234C243.871 308.931 243.163 308.78 242.389 308.78C242.041 308.78 241.739 308.804 241.484 308.85V314.161C241.484 314.998 241.507 315.552 241.553 315.823C241.6 316.094 241.72 316.276 241.913 316.369ZM253.527 313.708H249.72V313.905C249.72 314.727 249.894 315.354 250.243 315.788C250.591 316.214 251.024 316.427 251.543 316.427C252.316 316.427 252.873 316.117 253.214 315.498L253.388 315.591C252.986 316.373 252.312 316.764 251.368 316.764C250.672 316.764 250.076 316.513 249.581 316.009C249.086 315.505 248.838 314.827 248.838 313.975C248.838 313.115 249.055 312.41 249.488 311.86C249.929 311.31 250.513 311.035 251.241 311.035C251.976 311.035 252.541 311.287 252.935 311.79C253.33 312.286 253.527 312.925 253.527 313.708ZM251.276 311.267C250.827 311.267 250.471 311.461 250.208 311.848C249.952 312.228 249.798 312.736 249.744 313.371H252.634C252.579 311.969 252.127 311.267 251.276 311.267ZM255.525 314.917C255.525 315.42 255.66 315.8 255.931 316.055C256.202 316.303 256.523 316.427 256.894 316.427C257.273 316.427 257.579 316.342 257.811 316.172C258.043 316.001 258.159 315.773 258.159 315.486C258.159 315.192 258.059 314.951 257.858 314.765C257.664 314.58 257.428 314.428 257.15 314.312C256.871 314.196 256.589 314.076 256.302 313.952C256.024 313.828 255.784 313.646 255.583 313.406C255.389 313.166 255.293 312.844 255.293 312.441C255.293 312.038 255.471 311.705 255.826 311.442C256.19 311.171 256.608 311.035 257.08 311.035C257.753 311.035 258.279 311.143 258.658 311.36C258.658 311.717 258.612 312.213 258.519 312.848L258.38 312.813C258.38 312.302 258.264 311.93 258.032 311.697C257.8 311.465 257.517 311.349 257.184 311.349C256.859 311.349 256.596 311.434 256.395 311.604C256.202 311.775 256.105 312.007 256.105 312.302C256.105 312.588 256.202 312.821 256.395 312.999C256.596 313.169 256.836 313.313 257.115 313.429C257.393 313.545 257.672 313.669 257.95 313.801C258.237 313.925 258.477 314.107 258.67 314.347C258.871 314.58 258.972 314.866 258.972 315.207C258.972 315.703 258.778 316.086 258.391 316.358C258.005 316.629 257.494 316.764 256.859 316.764C256.233 316.764 255.703 316.598 255.269 316.265C255.269 315.877 255.308 315.42 255.385 314.893L255.525 314.917ZM261.469 309.64C261.337 309.509 261.272 309.354 261.272 309.176C261.272 308.997 261.337 308.842 261.469 308.711C261.601 308.579 261.755 308.513 261.933 308.513C262.111 308.513 262.266 308.579 262.398 308.711C262.529 308.842 262.595 308.997 262.595 309.176C262.595 309.354 262.529 309.509 262.398 309.64C262.266 309.772 262.111 309.838 261.933 309.838C261.755 309.838 261.601 309.772 261.469 309.64ZM262.374 311.035V314.731C262.374 315.544 262.421 316.044 262.514 316.23C262.614 316.416 262.893 316.509 263.349 316.509L263.372 316.648H260.541L260.564 316.509C261.028 316.509 261.31 316.416 261.411 316.23C261.512 316.036 261.562 315.529 261.562 314.707V313.894C261.562 312.995 261.535 312.402 261.481 312.116C261.434 311.821 261.365 311.632 261.272 311.546C261.086 311.376 260.8 311.291 260.413 311.291L260.39 311.163C261.063 311.078 261.724 311.035 262.374 311.035ZM268.878 310.907L268.809 310.314C268.809 310.167 268.851 310.051 268.936 309.966C269.029 309.881 269.134 309.838 269.25 309.838C269.366 309.838 269.466 309.881 269.551 309.966C269.644 310.051 269.691 310.167 269.691 310.314C269.691 310.748 269.37 311.217 268.727 311.721C269.068 312.1 269.238 312.557 269.238 313.092C269.238 313.619 269.029 314.084 268.611 314.487C268.193 314.889 267.683 315.091 267.079 315.091C266.654 315.091 266.275 314.99 265.942 314.789C265.617 315.083 265.454 315.397 265.454 315.73C265.454 315.955 265.536 316.137 265.698 316.276C265.868 316.408 266.124 316.474 266.464 316.474C266.812 316.474 267.103 316.478 267.335 316.485C267.567 316.493 267.841 316.509 268.159 316.532C268.476 316.555 268.72 316.598 268.89 316.66C269.068 316.722 269.246 316.803 269.424 316.904C269.749 317.09 269.911 317.411 269.911 317.868C269.911 318.426 269.621 318.91 269.041 319.321C268.468 319.74 267.725 319.949 266.812 319.949C266.116 319.949 265.551 319.817 265.118 319.554C264.685 319.298 264.468 318.957 264.468 318.531C264.468 318.229 264.568 317.938 264.77 317.659C264.971 317.388 265.23 317.202 265.547 317.101C265.099 316.923 264.874 316.575 264.874 316.055C264.874 315.808 264.955 315.556 265.118 315.3C265.28 315.037 265.489 314.824 265.745 314.661C265.195 314.243 264.921 313.723 264.921 313.104C264.921 312.476 265.129 311.976 265.547 311.604C265.965 311.225 266.472 311.035 267.068 311.035C267.671 311.035 268.178 311.217 268.588 311.581C268.782 311.387 268.878 311.163 268.878 310.907ZM265.28 318.415C265.28 318.802 265.431 319.112 265.733 319.344C266.042 319.577 266.464 319.693 266.998 319.693C267.54 319.693 268.023 319.542 268.449 319.24C268.882 318.938 269.099 318.577 269.099 318.159C269.099 317.748 268.882 317.481 268.449 317.357C268.023 317.233 267.168 317.171 265.884 317.171C265.737 317.256 265.598 317.415 265.466 317.648C265.342 317.888 265.28 318.143 265.28 318.415ZM266.104 314.301C266.329 314.626 266.654 314.789 267.079 314.789C267.505 314.789 267.83 314.626 268.054 314.301C268.279 313.967 268.391 313.545 268.391 313.034C268.391 312.515 268.279 312.1 268.054 311.79C267.83 311.48 267.505 311.326 267.079 311.326C266.654 311.326 266.329 311.48 266.104 311.79C265.88 312.1 265.768 312.515 265.768 313.034C265.768 313.545 265.88 313.967 266.104 314.301ZM272.999 311.035V313.115C273.069 312.557 273.262 312.073 273.579 311.663C273.897 311.244 274.318 311.035 274.844 311.035C276.028 311.035 276.62 311.655 276.62 312.894V314.731C276.62 315.536 276.67 316.036 276.771 316.23C276.879 316.416 277.158 316.509 277.607 316.509L277.63 316.648H274.81L274.833 316.509C275.297 316.509 275.576 316.412 275.668 316.218C275.761 316.024 275.808 315.494 275.808 314.626V313.011C275.808 312.476 275.723 312.073 275.552 311.802C275.39 311.531 275.127 311.395 274.763 311.395C274.407 311.395 274.109 311.519 273.87 311.767C273.63 312.007 273.452 312.313 273.336 312.685C273.111 313.406 272.999 314.13 272.999 314.858C272.999 315.587 273.046 316.044 273.138 316.23C273.239 316.416 273.517 316.509 273.974 316.509L273.997 316.648H271.165L271.189 316.509C271.653 316.509 271.935 316.416 272.036 316.23C272.136 316.036 272.187 315.529 272.187 314.707V313.778C272.187 312.616 272.129 311.914 272.013 311.674C271.974 311.589 271.904 311.511 271.804 311.442C271.711 311.372 271.606 311.329 271.49 311.314C271.382 311.298 271.231 311.291 271.038 311.291L271.014 311.163C271.688 311.078 272.349 311.035 272.999 311.035ZM283.71 313.708H279.903V313.905C279.903 314.727 280.078 315.354 280.426 315.788C280.774 316.214 281.207 316.427 281.726 316.427C282.499 316.427 283.056 316.117 283.397 315.498L283.571 315.591C283.169 316.373 282.496 316.764 281.552 316.764C280.855 316.764 280.259 316.513 279.764 316.009C279.269 315.505 279.021 314.827 279.021 313.975C279.021 313.115 279.238 312.41 279.671 311.86C280.112 311.31 280.697 311.035 281.424 311.035C282.159 311.035 282.724 311.287 283.118 311.79C283.513 312.286 283.71 312.925 283.71 313.708ZM281.459 311.267C281.01 311.267 280.654 311.461 280.391 311.848C280.136 312.228 279.981 312.736 279.927 313.371H282.817C282.762 311.969 282.31 311.267 281.459 311.267ZM288.911 310.977C289.105 310.977 289.275 311.019 289.422 311.105C289.569 311.19 289.642 311.306 289.642 311.453C289.642 311.601 289.596 311.717 289.503 311.802C289.41 311.887 289.306 311.93 289.19 311.93C289.074 311.93 288.927 311.879 288.749 311.779C288.578 311.678 288.397 311.628 288.203 311.628C287.901 311.628 287.654 311.907 287.46 312.464C287.275 313.022 287.182 313.669 287.182 314.405C287.182 315.397 287.232 315.997 287.333 316.207C287.364 316.276 287.422 316.342 287.507 316.404C287.592 316.458 287.681 316.489 287.774 316.497C287.867 316.505 287.998 316.509 288.168 316.509L288.192 316.648H285.371L285.394 316.509C285.642 316.509 285.82 316.497 285.928 316.474C286.044 316.443 286.141 316.346 286.219 316.183C286.296 316.021 286.338 315.819 286.346 315.579C286.362 315.331 286.369 314.94 286.369 314.405V313.731C286.369 312.654 286.338 312.042 286.277 311.895C286.222 311.748 286.172 311.632 286.126 311.546C286.079 311.461 286.01 311.403 285.917 311.372C285.747 311.326 285.522 311.302 285.244 311.302L285.22 311.174C285.878 311.081 286.532 311.035 287.182 311.035V312.743C287.267 312.193 287.456 311.763 287.751 311.453C288.052 311.136 288.439 310.977 288.911 310.977Z" fill="#F5DFBE"/>
<path d="M220.042 249.317C220.042 249.317 224.938 237.183 225.482 230.188C226.148 221.482 219.005 216.604 211.359 213.558C199.483 208.832 190.882 203.799 188.054 190.762C186.166 182.034 186.727 172.957 184.592 164.277C181.85 153.046 175.895 142.857 167.455 134.959C182.192 141.15 198.458 152.232 211.177 165.885C210.707 168.524 209.992 171.114 209.041 173.62C207.315 178.145 204.835 182.47 204.207 187.275C203.831 190.689 204.362 194.141 205.744 197.285C207.128 200.428 209.316 203.151 212.086 205.179C221.572 212.082 231.296 217.041 228.05 230.172C226.169 237.762 220.044 249.312 220.042 249.317Z" fill="#F5DFBE"/>
<path d="M220.042 249.317C220.042 249.317 224.938 237.183 225.482 230.188C226.148 221.482 219.005 216.604 211.359 213.558C199.483 208.832 190.882 203.799 188.054 190.762C186.166 182.034 186.727 172.957 184.592 164.277C181.85 153.046 175.895 142.857 167.455 134.959C182.192 141.15 198.458 152.232 211.177 165.885C210.707 168.524 209.992 171.114 209.041 173.62C207.315 178.145 204.835 182.47 204.207 187.275C203.831 190.689 204.362 194.141 205.744 197.285C207.128 200.428 209.316 203.151 212.086 205.179C221.572 212.082 231.296 217.041 228.05 230.172C226.169 237.762 220.044 249.312 220.042 249.317Z" fill="#F5DFBE"/>
<path opacity="0.3" d="M220.042 249.317C220.042 249.317 224.938 237.183 225.482 230.188C226.148 221.482 219.005 216.604 211.359 213.558C199.483 208.832 190.882 203.799 188.054 190.762C186.166 182.034 186.727 172.957 184.592 164.277C181.85 153.046 175.895 142.857 167.455 134.959C182.192 141.15 198.458 152.232 211.177 165.885C210.707 168.524 209.992 171.114 209.041 173.62C207.315 178.145 204.835 182.47 204.207 187.275C203.831 190.689 204.362 194.141 205.744 197.285C207.128 200.428 209.316 203.151 212.086 205.179C221.572 212.082 231.296 217.041 228.05 230.172C226.169 237.762 220.044 249.312 220.042 249.317Z" fill="url(#paint0_linear)"/>
<path d="M268.512 193.537C266.725 190.883 265.184 188.073 263.904 185.141C262.474 181.402 261.629 177.464 261.4 173.467C261.287 172.245 261.287 171.016 261.4 169.795C261.502 168.848 261.584 166.988 262.177 166.129C258.022 171.03 254.627 178.71 255.8 185.007C254.484 184.188 253.046 183.581 251.541 183.208C248.126 182.406 244.779 183.177 241.614 184.631C236.059 164.894 221.448 146.791 205.06 133.702C210.981 143.373 213.161 154.877 211.19 166.045C224.772 180.609 234.313 198.104 233.636 215.708C233.161 227.96 227.546 239.881 220.059 249.476C226.403 243.278 232.307 237.208 236.55 229.324C239.848 223.184 241.972 216.586 244.92 210.309C246.637 206.651 250.011 198.085 255.645 199.362C257.929 199.877 259.44 202.165 259.739 204.417C260.036 206.668 259.371 208.907 258.718 211.067C261.149 209.252 262.93 206.7 263.793 203.792C265.893 203.21 268.13 202.531 269.547 200.951C271.586 198.671 269.902 195.682 268.512 193.537ZM259.524 197.154C259.113 196.54 258.837 195.845 258.713 195.117C258.591 194.388 258.624 193.641 258.811 192.926C259.917 193.702 260.768 194.788 261.257 196.048C261.747 197.307 261.852 198.684 261.559 200.003C261.574 199.165 260.557 198.373 260.064 197.817C259.871 197.599 259.689 197.379 259.524 197.154Z" fill="#F5DFBE"/>
<path d="M220.943 248.184C220.588 248.515 220.285 248.897 220.042 249.318C220.042 249.311 226.169 237.763 228.051 230.172C231.298 217.043 221.573 212.083 212.087 205.18C209.317 203.152 207.129 200.429 205.745 197.286C204.362 194.143 203.832 190.69 204.208 187.276C204.836 182.471 207.316 178.146 209.042 173.621C209.994 171.115 210.708 168.525 211.178 165.886C224.76 180.45 234.299 197.945 233.623 215.549C233.145 227.801 228.432 238.588 220.943 248.184Z" fill="#F5DFBE"/>
<path opacity="0.3" d="M220.943 248.184C220.544 248.763 220.285 248.897 220.042 249.318C220.042 249.311 226.169 237.763 228.051 230.172C231.298 217.043 221.573 212.083 212.087 205.18C209.317 203.152 207.129 200.429 205.745 197.286C204.362 194.143 203.832 190.69 204.208 187.276C204.836 182.471 207.316 178.146 209.042 173.621C209.994 171.115 210.708 168.525 211.178 165.886C224.76 180.45 234.299 197.945 233.623 215.549C233.145 227.801 228.432 238.588 220.943 248.184Z" fill="url(#paint1_linear)"/>
<path d="M192.716 137.601C192.683 137.016 191.365 136.059 190.975 135.686C188.857 133.683 186.47 132.007 184.22 130.165C181.424 127.961 179.098 125.219 177.378 122.101C177.304 121.96 177.232 121.817 177.16 121.674C176.288 119.879 175.68 117.968 175.354 116C181.301 118.66 192.251 129.044 192.716 137.601Z" fill="#F5DFBE"/>
<path d="M213.088 257.614C213.067 257.234 212.21 256.612 211.953 256.369C210.58 255.067 209.022 253.977 207.564 252.781C205.746 251.349 204.235 249.567 203.116 247.542C203.068 247.45 203.025 247.358 202.975 247.267C202.407 246.1 202.011 244.858 201.8 243.578C205.669 245.302 212.786 252.051 213.088 257.614Z" fill="#F5DFBE"/>
<path opacity="0.3" d="M213.088 257.614C213.067 257.234 212.21 256.612 211.953 256.369C210.58 255.067 209.022 253.977 207.564 252.781C205.746 251.349 204.235 249.567 203.116 247.542C203.068 247.45 203.025 247.358 202.975 247.267C202.407 246.1 202.011 244.858 201.8 243.578C205.669 245.302 212.786 252.051 213.088 257.614Z" fill="url(#paint2_linear)"/>
<path d="M216.093 253.016C218.725 238.976 215.388 228.527 213.274 225.573C207.971 218.161 199.357 220.157 191.063 220.283C183.56 220.396 178.034 217.528 174.525 214.051C175.746 215.261 176.306 217.021 177.266 218.423C178.897 220.773 181.048 222.715 183.552 224.098C186.055 225.481 188.844 226.267 191.701 226.396C198.056 226.844 203.519 226.933 207.805 232.303C212.448 238.122 214.442 245.901 216.093 253.016Z" fill="#F5DFBE"/>
<path opacity="0.3" d="M216.093 253.016C218.725 238.976 215.388 228.527 213.274 225.573C207.971 218.161 199.357 220.157 191.063 220.283C183.56 220.396 178.034 217.528 174.525 214.051C175.746 215.261 176.306 217.021 177.266 218.423C178.897 220.773 181.048 222.715 183.552 224.098C186.055 225.481 188.844 226.267 191.701 226.396C198.056 226.844 203.519 226.933 207.805 232.303C212.448 238.122 214.442 245.901 216.093 253.016Z" fill="url(#paint3_linear)"/>
<defs>
<linearGradient id="paint0_linear" x1="172.048" y1="136.903" x2="225.648" y2="161.821" gradientUnits="userSpaceOnUse">
<stop stop-color="white"/>
<stop offset="0.236" stop-color="#FCFCFC"/>
<stop offset="0.373" stop-color="#F4F4F4"/>
<stop offset="0.484" stop-color="#E6E6E6"/>
<stop offset="0.582" stop-color="#D2D2D2"/>
<stop offset="0.67" stop-color="#B8B8B8"/>
<stop offset="0.753" stop-color="#989898"/>
<stop offset="0.83" stop-color="#727272"/>
<stop offset="0.904" stop-color="#464646"/>
<stop offset="0.972" stop-color="#161616"/>
<stop offset="1"/>
</linearGradient>
<linearGradient id="paint1_linear" x1="205.953" y1="179.736" x2="240.607" y2="189.362" gradientUnits="userSpaceOnUse">
<stop stop-color="white"/>
<stop offset="0.11" stop-color="#D5D5D5"/>
<stop offset="0.295" stop-color="#959595"/>
<stop offset="0.472" stop-color="#606060"/>
<stop offset="0.636" stop-color="#363636"/>
<stop offset="0.783" stop-color="#181818"/>
<stop offset="0.91" stop-color="#060606"/>
<stop offset="1"/>
</linearGradient>
<linearGradient id="paint2_linear" x1="201.8" y1="250.596" x2="213.088" y2="250.596" gradientUnits="userSpaceOnUse">
<stop stop-color="white"/>
<stop offset="0.11" stop-color="#D5D5D5"/>
<stop offset="0.295" stop-color="#959595"/>
<stop offset="0.472" stop-color="#606060"/>
<stop offset="0.636" stop-color="#363636"/>
<stop offset="0.783" stop-color="#181818"/>
<stop offset="0.91" stop-color="#060606"/>
<stop offset="1"/>
</linearGradient>
<linearGradient id="paint3_linear" x1="174.525" y1="233.534" x2="217.062" y2="233.534" gradientUnits="userSpaceOnUse">
<stop stop-color="white"/>
<stop offset="0.11" stop-color="#D5D5D5"/>
<stop offset="0.295" stop-color="#959595"/>
<stop offset="0.472" stop-color="#606060"/>
<stop offset="0.636" stop-color="#363636"/>
<stop offset="0.783" stop-color="#181818"/>
<stop offset="0.91" stop-color="#060606"/>
<stop offset="1"/>
</linearGradient>
</defs>
</svg>
