<svg width="195" height="13" viewBox="0 0 195 13" fill="none" xmlns="http://www.w3.org/2000/svg">
<path fill-rule="evenodd" clip-rule="evenodd" d="M71.8289 9.73461C70.7663 9.73461 69.775 9.78306 68.8595 10.0502C68.4217 10.1778 67.79 10.2243 67.2283 10.2566C64.8118 10.3933 62.3773 10.4827 59.973 10.6466C58.5648 10.7427 57.0971 10.803 55.8523 11.1528C55.62 11.2178 55.1406 11.2253 54.8762 11.1749C53.9263 10.9944 53.1772 11.1626 52.4317 11.3509C51.5798 11.566 50.7047 11.711 49.6596 11.7086C49.0822 11.7075 48.5439 11.7626 48.0663 11.8642C41.5356 11.7803 34.7941 11.8883 28.5891 12.675C27.0665 12.7282 25.5468 12.8018 24.0317 12.9015C23.9552 12.8881 23.8747 12.8684 23.7988 12.857C23.8069 12.6797 23.3422 12.5044 22.8611 12.5438C21.2246 12.6765 19.5502 12.7155 17.8799 12.7274C17.8501 12.6517 17.8051 12.5725 17.71 12.4827C17.6171 12.3961 17.2879 12.3204 17.0549 12.3326C16.3607 12.3689 14.9496 12.519 14.8965 12.5993C14.9806 12.4749 14.8206 12.2464 14.7844 12.1534C14.7435 12.0486 14.4872 11.9722 14.2549 11.9426C13.4305 11.839 12.6009 11.7413 11.7718 11.644C12.1963 11.5964 12.6236 11.5538 13.0668 11.5322C13.5975 11.5062 14.0324 11.2922 13.7107 11.0815C11.3573 9.53725 7.692 8.66428 4.24856 7.58607C5.17568 7.4864 6.0923 7.37098 7.06846 7.32804C7.72761 7.29928 8.03704 7.0251 7.59683 6.8167C6.62183 6.35501 5.8973 5.82397 5.05308 5.32643H6.56812C7.35688 5.32643 7.52386 4.93013 6.94353 4.76703C4.83998 4.17416 2.58055 3.68488 0.352058 3.17355C0.825546 3.01519 1.30779 2.87967 1.80872 2.75637C2.07261 2.81861 2.41824 2.83122 2.71658 2.73706C3.03535 2.63661 3.32435 2.52552 3.59933 2.40813C3.81769 2.37583 4.02845 2.34115 4.26198 2.31318C4.74773 2.2537 4.86216 2.06658 4.7343 1.91767C5.07234 1.77349 5.41038 1.62931 5.74025 1.48158C8.31495 1.48434 10.8786 1.2984 13.4498 1.27358C14.9012 1.26019 16.3491 1.20149 17.7981 1.16407C17.9143 1.16131 18.0363 1.16682 18.1455 1.15461C19.8842 0.958823 21.5335 0.760674 23.4742 0.882401C25.2513 0.994674 27.1599 0.782734 29.0089 0.709066C30.8573 0.635006 32.704 0.551094 34.5547 0.480185C35.0737 0.460093 35.6009 0.459702 36.1223 0.469551C39.1547 0.525885 42.1585 0.47034 45.1005 0.13431C45.4881 0.0897942 45.9295 0.0275497 46.295 0.0610352C50.0327 0.405732 53.8165 0.164247 57.5729 0.193398C62.0398 0.228852 66.5137 0.112644 70.9847 0.0767956C72.3193 0.0665531 73.6551 0.118943 74.9909 0.122883C79.5191 0.135489 84.0468 0.131156 88.5744 0.149277C91.1304 0.159913 93.6841 0.203638 96.2401 0.229638C100.48 0.27376 104.719 0.319459 108.959 0.357277C112.384 0.38761 115.81 0.410063 119.236 0.426608C120.047 0.430942 120.863 0.408885 121.672 0.380522C122.846 0.339552 123.979 0.346642 125.074 0.568823C125.455 0.645641 126.025 0.688973 126.399 0.632246C128.492 0.315912 130.575 0.367517 132.692 0.567639C133.252 0.620427 133.847 0.621219 134.427 0.626734C136.919 0.651946 139.451 0.566855 141.893 0.718522C144.733 0.894219 147.564 0.885159 150.402 0.941099C151.441 0.961584 152.488 0.920219 153.527 0.947008C156.708 1.03092 159.885 1.13176 163.063 1.23458C163.268 1.2401 163.459 1.31494 163.74 1.376C163.558 1.56037 163.397 1.72425 163.211 1.91295C163.419 1.97085 163.59 2.05791 163.783 2.06658C165.167 2.12843 166.556 2.17176 167.941 2.22573C168.981 2.2667 170.025 2.30176 171.058 2.36519C171.608 2.39907 172.299 2.42191 172.291 2.74652C172.282 3.04276 172.031 3.30986 171.257 3.40913C170.826 3.46467 170.346 3.45601 169.891 3.48201C169.293 3.51549 168.697 3.55449 168.099 3.59112C168.108 3.64549 168.115 3.70025 168.123 3.75461C169.018 3.78061 169.912 3.81094 170.807 3.83222C171.808 3.85546 172.709 3.94883 173.59 4.17573C174.178 4.3278 174.999 4.35222 175.729 4.39279C176.517 4.43613 177.354 4.38492 178.066 4.68667C177.357 5.01955 176.442 4.90176 175.652 4.89901C173.855 4.89231 172.06 4.82888 170.262 4.8214C165.793 4.80328 161.323 4.81431 156.854 4.79028C155.171 4.78161 153.491 4.67131 151.81 4.67564C149.145 4.68195 146.48 4.75955 143.815 4.78043C141.318 4.79934 138.82 4.78279 136.324 4.78555C135.869 4.78634 135.414 4.80643 134.923 4.93958C135.905 4.98449 136.887 5.06013 137.872 5.07037C142.343 5.11528 146.816 5.13104 151.286 5.18264C152.374 5.19564 153.455 5.35637 154.542 5.35991C159.536 5.37843 164.531 5.34928 169.524 5.36976C173.183 5.38512 176.84 5.44658 180.499 5.49819C181.045 5.50607 181.585 5.57224 182.455 5.63449C180.995 6.13834 179.415 5.56989 178.241 6.02489C178.596 6.44955 179.601 6.52676 180.489 6.63667C183.056 6.95222 185.702 7.08537 188.368 7.18858C190.33 7.26461 192.276 7.39618 194.227 7.51003C194.378 7.5187 194.509 7.57858 194.92 7.68415C194.325 7.71764 193.977 7.75979 193.633 7.75152C189.342 7.64949 185.054 7.48719 180.757 7.44582C175.84 7.39894 170.915 7.4407 165.993 7.47813C162.921 7.50176 159.85 7.58449 156.779 7.6491C156.203 7.66131 155.633 7.7204 155.056 7.74207C154.139 7.77673 153.221 7.79958 152.301 7.82243C152.071 7.82834 151.834 7.80313 151.607 7.81416C145.941 8.08755 140.246 7.96622 134.566 8.01546C132.253 8.03594 129.938 8.01901 127.622 8.01901C127.614 8.06982 127.605 8.12103 127.597 8.17146C128.082 8.20337 128.569 8.25694 129.056 8.26325C134.342 8.32391 139.625 8.42082 144.909 8.42043C149.375 8.41925 153.84 8.29949 158.307 8.2408C159.261 8.2278 160.253 8.16319 161.184 8.50473C160.429 8.55989 159.676 8.64458 158.913 8.66546C155.382 8.75921 151.85 8.85022 148.315 8.91404C144.541 8.98219 140.764 9.03694 136.989 9.06294C134.434 9.08067 131.872 9.0007 129.32 9.03143C123.744 9.09879 118.176 9.23352 112.6 9.29537C106.737 9.35958 100.868 9.40646 95.0012 9.39543C88.0758 9.38204 81.1708 9.50889 74.2687 9.70113C73.4578 9.72398 72.6416 9.73461 71.8289 9.73461Z" fill="white"/>
</svg>
