<svg width="134" height="13" viewBox="0 0 134 13" fill="none" xmlns="http://www.w3.org/2000/svg">
<path fill-rule="evenodd" clip-rule="evenodd" d="M49.3593 9.73464C48.6292 9.73464 47.9479 9.78309 47.3189 10.0502C47.018 10.1778 46.5839 10.2243 46.1979 10.2566C44.5373 10.3933 42.8644 10.4827 41.2122 10.6466C40.2445 10.7427 39.2359 10.803 38.3806 11.1528C38.2209 11.2178 37.8915 11.2253 37.7098 11.1749C37.057 10.9945 36.5423 11.1627 36.03 11.351C35.4446 11.5661 34.8432 11.711 34.1251 11.7087C33.7283 11.7075 33.3584 11.7626 33.0302 11.8643C28.5424 11.7804 23.9098 11.8883 19.6458 12.675C18.5995 12.7282 17.5552 12.8018 16.5141 12.9015C16.4615 12.8881 16.4062 12.8684 16.354 12.857C16.3596 12.6797 16.0403 12.5044 15.7097 12.5438C14.5851 12.6766 13.4345 12.7156 12.2867 12.7274C12.2662 12.6518 12.2353 12.5726 12.1699 12.4828C12.1061 12.3961 11.8799 12.3205 11.7198 12.3327C11.2428 12.3689 10.2731 12.519 10.2366 12.5994C10.2943 12.4749 10.1844 12.2464 10.1595 12.1534C10.1314 12.0486 9.95532 11.9722 9.79565 11.9427C9.22915 11.8391 8.65905 11.7414 8.08935 11.6441C8.38102 11.5964 8.6747 11.5539 8.97921 11.5322C9.3439 11.5062 9.64279 11.2923 9.42173 11.0815C7.8045 9.53728 5.28578 8.66431 2.91952 7.58609C3.55662 7.48643 4.1865 7.371 4.8573 7.32806C5.31026 7.29931 5.52289 7.02512 5.22039 6.81673C4.55039 6.35503 4.0525 5.824 3.47237 5.32645H4.51348C5.0555 5.32645 5.17024 4.93015 4.77145 4.76706C3.32593 4.17418 1.7733 3.68491 0.241928 3.17358C0.567299 3.01521 0.898688 2.8797 1.24292 2.75639C1.42426 2.81863 1.66177 2.83124 1.86678 2.73709C2.08583 2.63664 2.28443 2.52555 2.47339 2.40816C2.62344 2.37585 2.76827 2.34118 2.92875 2.31321C3.26254 2.25373 3.34118 2.06661 3.25332 1.9177C3.48561 1.77351 3.7179 1.62934 3.94458 1.48161C5.71386 1.48437 7.47552 1.29843 9.2424 1.27361C10.2398 1.26021 11.2347 1.20152 12.2305 1.16409C12.3104 1.16133 12.3942 1.16685 12.4692 1.15464C13.664 0.95885 14.7974 0.7607 16.131 0.882428C17.3522 0.9947 18.6637 0.782761 19.9343 0.709093C21.2045 0.635033 22.4735 0.551121 23.7453 0.480211C24.1019 0.46012 24.4642 0.459729 24.8225 0.469578C26.9063 0.525911 28.9705 0.470366 30.9921 0.134336C31.2585 0.0898209 31.5618 0.0275764 31.813 0.0610619C34.3814 0.405759 36.9816 0.164273 39.5629 0.193424C42.6325 0.228879 45.7068 0.112671 48.7792 0.0768223C49.6964 0.0665798 50.6143 0.11897 51.5322 0.12291C54.6439 0.135515 57.7552 0.131183 60.8665 0.149303C62.6229 0.15994 64.3778 0.203665 66.1342 0.229665C69.0477 0.273787 71.9604 0.319486 74.8747 0.357304C77.2277 0.387637 79.5824 0.410089 81.9362 0.426635C82.4939 0.430968 83.0543 0.408912 83.6108 0.380548C84.4172 0.339579 85.1959 0.346668 85.9486 0.56885C86.2102 0.645668 86.6017 0.689 86.8585 0.632273C88.2972 0.315939 89.7283 0.367544 91.1834 0.567666C91.5677 0.620454 91.9766 0.621245 92.3753 0.62676C94.0881 0.651973 95.8277 0.566882 97.5063 0.718549C99.4573 0.894246 101.403 0.885186 103.353 0.941126C104.067 0.961611 104.787 0.920246 105.501 0.947035C107.686 1.03094 109.87 1.13179 112.054 1.23461C112.195 1.24012 112.326 1.31497 112.519 1.37603C112.394 1.56039 112.283 1.72428 112.155 1.91297C112.298 1.97088 112.416 2.05794 112.548 2.06661C113.5 2.12846 114.454 2.17179 115.406 2.22576C116.12 2.26673 116.838 2.30179 117.547 2.36521C117.926 2.39909 118.401 2.42194 118.395 2.74655C118.389 3.04279 118.216 3.30988 117.684 3.40916C117.388 3.4647 117.058 3.45603 116.745 3.48203C116.335 3.51552 115.925 3.55451 115.514 3.59115C115.52 3.64552 115.525 3.70028 115.53 3.75464C116.146 3.78064 116.76 3.81097 117.375 3.83224C118.063 3.85548 118.682 3.94885 119.287 4.17576C119.692 4.32782 120.255 4.35224 120.758 4.39282C121.299 4.43615 121.874 4.38494 122.363 4.6867C121.876 5.01958 121.248 4.90179 120.705 4.89903C119.469 4.89234 118.236 4.82891 117 4.82142C113.93 4.8033 110.858 4.81434 107.787 4.79031C106.63 4.78164 105.476 4.67134 104.321 4.67567C102.489 4.68197 100.658 4.75957 98.8266 4.78045C97.1107 4.79936 95.394 4.78282 93.6792 4.78557C93.3663 4.78636 93.0538 4.80646 92.7164 4.93961C93.3912 4.98452 94.0656 5.06015 94.7428 5.0704C97.8152 5.1153 100.889 5.13106 103.961 5.18267C104.709 5.19567 105.451 5.3564 106.198 5.35994C109.63 5.37846 113.062 5.3493 116.493 5.36979C119.008 5.38515 121.521 5.44661 124.035 5.49821C124.411 5.50609 124.782 5.57227 125.379 5.63451C124.376 6.13836 123.29 5.56991 122.484 6.02491C122.728 6.44958 123.418 6.52679 124.028 6.6367C125.792 6.95224 127.611 7.0854 129.443 7.18861C130.791 7.26464 132.128 7.39621 133.469 7.51006C133.572 7.51873 133.663 7.57861 133.945 7.68418C133.536 7.71767 133.297 7.75982 133.061 7.75155C130.112 7.64952 127.166 7.48721 124.213 7.44585C120.834 7.39897 117.449 7.44073 114.067 7.47815C111.956 7.50179 109.845 7.58452 107.736 7.64913C107.339 7.66134 106.948 7.72043 106.551 7.74209C105.921 7.77676 105.29 7.7996 104.658 7.82245C104.5 7.82836 104.337 7.80315 104.181 7.81418C100.287 8.08758 96.3741 7.96624 92.4708 8.01549C90.8813 8.03597 89.2905 8.01903 87.6994 8.01903C87.6934 8.06985 87.6873 8.12106 87.6817 8.17148C88.0155 8.20339 88.3497 8.25697 88.6847 8.26327C92.3168 8.32394 95.9476 8.42085 99.5785 8.42046C102.648 8.41927 105.716 8.29952 108.785 8.24082C109.441 8.22782 110.123 8.16322 110.763 8.50476C110.243 8.55991 109.726 8.6446 109.202 8.66548C106.776 8.75924 104.348 8.85025 101.919 8.91406C99.3257 8.98222 96.7303 9.03697 94.1358 9.06297C92.3802 9.0807 90.6197 9.00073 88.8661 9.03145C85.0346 9.09882 81.208 9.23354 77.3766 9.29539C73.3477 9.3596 69.3141 9.40649 65.2829 9.39546C60.5239 9.38206 55.7789 9.50891 51.0359 9.70116C50.4787 9.724 49.9178 9.73464 49.3593 9.73464Z" fill="#F8C3D0"/>
</svg>
