<svg width="108" height="13" viewBox="0 0 108 13" fill="none" xmlns="http://www.w3.org/2000/svg">
<path fill-rule="evenodd" clip-rule="evenodd" d="M39.7821 9.73464C39.1936 9.73464 38.6446 9.78309 38.1375 10.0502C37.895 10.1778 37.5452 10.2243 37.2341 10.2566C35.8957 10.3933 34.5474 10.4827 33.2158 10.6466C32.4359 10.7427 31.6229 10.803 30.9336 11.1528C30.8049 11.2178 30.5394 11.2253 30.3929 11.1749C29.8668 10.9945 29.452 11.1627 29.039 11.351C28.5673 11.5661 28.0826 11.711 27.5037 11.7087C27.184 11.7075 26.8858 11.7626 26.6213 11.8643C23.0043 11.7804 19.2705 11.8883 15.8339 12.675C14.9906 12.7282 14.1489 12.8019 13.3098 12.9015C13.2675 12.8881 13.2228 12.8684 13.1808 12.857C13.1853 12.6797 12.928 12.5044 12.6615 12.5438C11.7551 12.6766 10.8278 12.7156 9.90266 12.7274C9.88617 12.6518 9.86127 12.5726 9.80856 12.4828C9.75715 12.3961 9.57478 12.3205 9.44576 12.3327C9.06129 12.3689 8.27975 12.519 8.25032 12.5994C8.29689 12.4749 8.20829 12.2464 8.18824 12.1534C8.1656 12.0486 8.02365 11.9722 7.89496 11.9427C7.43838 11.8391 6.9789 11.7414 6.51974 11.6441C6.75482 11.5964 6.99151 11.5539 7.23693 11.5322C7.53086 11.5062 7.77176 11.2923 7.59359 11.0815C6.29016 9.53728 4.26014 8.66431 2.35301 7.5861C2.86649 7.48643 3.37416 7.37101 3.9148 7.32807C4.27987 7.29931 4.45125 7.02513 4.20744 6.81673C3.66744 6.35504 3.26616 5.824 2.79859 5.32646H3.63769C4.07454 5.32646 4.16702 4.93016 3.84561 4.76707C2.68056 4.17419 1.42919 3.68491 0.194946 3.17358C0.457186 3.01522 0.724275 2.8797 1.00171 2.7564C1.14787 2.81864 1.33929 2.83125 1.50453 2.73709C1.68108 2.63664 1.84114 2.52555 1.99344 2.40816C2.11437 2.37586 2.2311 2.34118 2.36044 2.31322C2.62947 2.25373 2.69285 2.06661 2.62204 1.9177C2.80926 1.77352 2.99648 1.62934 3.17917 1.48161C4.60516 1.48437 6.02501 1.29843 7.44905 1.27361C8.25291 1.26022 9.05483 1.20152 9.85739 1.1641C9.92174 1.16134 9.98932 1.16685 10.0498 1.15464C11.0127 0.958854 11.9262 0.760704 13.001 0.882432C13.9853 0.994704 15.0424 0.782764 16.0664 0.709097C17.0902 0.635036 18.1129 0.551125 19.138 0.480215C19.4254 0.460124 19.7174 0.459733 20.0062 0.469582C21.6857 0.525915 23.3493 0.47037 24.9787 0.13434C25.1934 0.0898247 25.4378 0.0275803 25.6403 0.0610657C27.7104 0.405763 29.806 0.164277 31.8865 0.193428C34.3605 0.228883 36.8383 0.112675 39.3146 0.0768261C40.0537 0.0665836 40.7936 0.118974 41.5334 0.122913C44.0413 0.135519 46.5489 0.131186 49.0565 0.149307C50.4722 0.159944 51.8865 0.203669 53.3022 0.229669C55.6504 0.27379 57.9979 0.319489 60.3467 0.357307C62.2432 0.387641 64.141 0.410093 66.0381 0.426639C66.4875 0.430972 66.9393 0.408916 67.3878 0.380552C68.0377 0.339582 68.6653 0.346672 69.2719 0.568853C69.4828 0.645672 69.7984 0.689004 70.0053 0.632277C71.1648 0.315943 72.3183 0.367548 73.4911 0.56767C73.8008 0.620458 74.1303 0.621249 74.4517 0.626764C75.8321 0.651977 77.2342 0.566886 78.5871 0.718553C80.1596 0.89425 81.7278 0.88519 83.2993 0.94113C83.8752 0.961615 84.455 0.92025 85.0302 0.947039C86.7919 1.03095 88.5519 1.13179 90.3119 1.23461C90.4254 1.24013 90.5311 1.31497 90.6867 1.37603C90.5861 1.5604 90.4968 1.72428 90.3937 1.91298C90.5088 1.97089 90.6039 2.05795 90.7103 2.06661C91.4773 2.12846 92.2465 2.17179 93.0135 2.22576C93.5894 2.26673 94.1676 2.30179 94.7396 2.36522C95.0445 2.3991 95.4273 2.42194 95.4225 2.74655C95.4176 3.04279 95.2789 3.30989 94.8498 3.40916C94.6115 3.4647 94.3454 3.45604 94.0932 3.48204C93.7624 3.51552 93.4319 3.55452 93.1011 3.59116C93.106 3.64552 93.1099 3.70028 93.1141 3.75464C93.6098 3.78064 94.1052 3.81097 94.6009 3.83225C95.1551 3.85549 95.6543 3.94886 96.142 4.17577C96.4679 4.32783 96.9222 4.35225 97.327 4.39282C97.7633 4.43616 98.2269 4.38495 98.6211 4.6867C98.2285 5.01958 97.7219 4.90179 97.2844 4.89904C96.2887 4.89234 95.2944 4.82891 94.2988 4.82143C91.8239 4.80331 89.3483 4.81434 86.873 4.79031C85.9408 4.78164 85.0105 4.67134 84.0796 4.67567C82.6031 4.68198 81.1274 4.75958 79.6513 4.78046C78.2683 4.79937 76.8846 4.78282 75.5026 4.78558C75.2504 4.78637 74.9985 4.80646 74.7266 4.93961C75.2705 4.98452 75.814 5.06016 76.3598 5.0704C78.8361 5.11531 81.3133 5.13107 83.7892 5.18267C84.3919 5.19567 84.9905 5.3564 85.5922 5.35995C88.3582 5.37846 91.1248 5.34931 93.8901 5.36979C95.9166 5.38516 97.9424 5.44661 99.9685 5.49822C100.271 5.5061 100.57 5.57228 101.052 5.63452C100.243 6.13837 99.3684 5.56992 98.7181 6.02492C98.9147 6.44958 99.4712 6.52679 99.963 6.6367C101.385 6.95225 102.85 7.0854 104.327 7.18861C105.413 7.26464 106.492 7.39621 107.572 7.51006C107.655 7.51873 107.728 7.57861 107.956 7.68419C107.626 7.71767 107.433 7.75982 107.243 7.75155C104.866 7.64952 102.492 7.48722 100.112 7.44585C97.3885 7.39897 94.6603 7.44073 91.9348 7.47816C90.2333 7.50179 88.5322 7.58452 86.8316 7.64913C86.5122 7.66134 86.1966 7.72043 85.8771 7.7421C85.3694 7.77676 84.8608 7.79961 84.3515 7.82246C84.2238 7.82837 84.0925 7.80316 83.9671 7.81419C80.8286 8.08758 77.6746 7.96625 74.5287 8.01549C73.2476 8.03597 71.9655 8.01904 70.6831 8.01904C70.6782 8.06985 70.6733 8.12106 70.6688 8.17149C70.9379 8.2034 71.2072 8.25697 71.4772 8.26328C74.4045 8.32394 77.3309 8.42085 80.2572 8.42046C82.7309 8.41928 85.2036 8.29952 87.6775 8.24083C88.2062 8.22783 88.7556 8.16322 89.2713 8.50476C88.8529 8.55992 88.4358 8.64461 88.0135 8.66549C86.0579 8.75924 84.1016 8.85025 82.1437 8.91407C80.0535 8.98222 77.9617 9.03697 75.8706 9.06297C74.4556 9.0807 73.0368 9.00073 71.6234 9.03146C68.5353 9.09882 65.4512 9.23355 62.3632 9.2954C59.1161 9.35961 55.8651 9.40649 52.616 9.39546C48.7804 9.38207 44.9561 9.50892 41.1334 9.70116C40.6843 9.72401 40.2322 9.73464 39.7821 9.73464Z" fill="#DAF8FF"/>
</svg>
