<svg width="125" height="23" viewBox="0 0 125 23" fill="none" xmlns="http://www.w3.org/2000/svg">
<g clip-path="url(#clip0)">
<path d="M0 -0.000854492H11.6557V11.3984H0V-0.000854492Z" fill="#FCE3DD"/>
<path d="M23.3113 -0.000854492H34.967V11.3984H23.3113V-0.000854492Z" fill="#F8C1B2"/>
<path d="M0 11.3984H11.6557V22.7977H0V11.3984Z" fill="#A21F25"/>
<path d="M11.6558 -0.000854492C18.122 -0.000854492 23.3114 5.11473 23.3114 11.3984H11.6558V-0.000854492Z" fill="#F6B0A1"/>
<path d="M11.6558 22.7977C18.122 22.7977 23.3114 17.7224 23.3114 11.3984H11.6558V22.7977Z" fill="#E9443A"/>
<path d="M34.967 22.7977C28.5419 22.7977 23.3113 17.6822 23.3113 11.3984H34.967V22.7977Z" fill="#F0836E"/>
<path d="M46.0462 9.26359C45.8403 9.50528 45.1401 9.98864 44.0693 9.98864C41.9688 9.98864 40.4861 8.41771 40.4861 6.24258C40.4861 4.02717 41.804 2.49652 43.9457 2.49652C45.0577 2.49652 45.7579 3.06044 45.8815 3.22156V-0.000854492H48.1879V9.82752H46.005V9.26359H46.0462ZM44.3988 4.51053C43.4515 4.51053 42.8337 5.23557 42.8337 6.28286C42.8337 7.33014 43.4927 8.01491 44.3988 8.01491C45.3872 8.01491 45.9638 7.2093 45.9638 6.28286C45.9638 5.15501 45.3049 4.51053 44.3988 4.51053ZM51.5652 6.84678C51.6063 7.49127 52.2653 8.01491 53.1302 8.01491C53.9951 8.01491 54.5306 7.45098 54.6541 7.24958L56.178 8.41771C55.9721 8.82051 54.9836 9.98864 53.0891 9.98864C50.7003 9.98864 49.2176 8.37743 49.2176 6.24258C49.2176 4.14801 50.6591 2.45624 52.8007 2.45624C55.1072 2.45624 56.3839 3.90633 56.3839 6.36342V6.8065H51.5652V6.84678ZM51.6475 5.39669H53.9952C53.954 4.83277 53.5421 4.34941 52.8007 4.34941C52.0594 4.34941 51.6887 4.91333 51.6475 5.39669Z" fill="#453E43"/>
<path d="M60.5436 7.4107L61.9439 2.69792H64.3327L61.9028 9.82752H59.1845L56.6721 2.69792H59.1845L60.5436 7.4107ZM67.0922 6.84678C67.1334 7.49126 67.7924 8.01491 68.6161 8.01491C69.481 8.01491 70.0164 7.45098 70.14 7.24958L71.6639 8.41771C71.4579 8.82051 70.4695 9.98864 68.5749 9.98864C66.1861 9.98864 64.7034 8.37743 64.7034 6.24258C64.7034 4.14801 66.1449 2.45624 68.2866 2.45624C70.593 2.45624 71.8698 3.90633 71.8698 6.36342V6.8065H67.0922V6.84678ZM67.1746 5.39669H69.5222C69.481 4.83277 69.0691 4.34941 68.3278 4.34941C67.5864 4.34941 67.2158 4.91333 67.1746 5.39669Z" fill="#453E43"/>
<path d="M72.8171 -0.000854492H75.1236V9.82752H72.8171V-0.000854492ZM80.0659 2.5368C82.4135 2.5368 84.061 4.10773 84.061 6.28286C84.061 8.41771 82.3723 10.0289 80.0659 10.0289C77.7595 10.0289 76.112 8.45799 76.112 6.28286C76.112 4.10773 77.8007 2.5368 80.0659 2.5368ZM80.0659 8.01491C81.0132 8.01491 81.7545 7.28986 81.7545 6.24258C81.7545 5.19529 81.0132 4.51053 80.0659 4.51053C79.1186 4.51053 78.4185 5.23557 78.4185 6.28286C78.4185 7.33014 79.1186 8.01491 80.0659 8.01491ZM87.2323 3.26184C87.4382 3.02016 88.1384 2.5368 89.2092 2.5368C91.3097 2.5368 92.7924 4.10773 92.7924 6.28286C92.7924 8.49827 91.4745 10.0289 89.3328 10.0289C88.2208 10.0289 87.5206 9.465 87.397 9.30387V12.4055H85.0906V2.69792H87.2735V3.26184H87.2323ZM88.8797 8.01491C89.827 8.01491 90.4448 7.28986 90.4448 6.24258C90.4448 5.19529 89.7858 4.51053 88.8797 4.51053C87.8913 4.51053 87.3147 5.31613 87.3147 6.24258C87.3147 7.37042 87.9325 8.01491 88.8797 8.01491Z" fill="#453E43"/>
<path d="M100.165 9.82752H97.8584V5.59809C97.8584 4.95361 97.5289 4.59109 96.9935 4.59109C96.4581 4.59109 96.0874 4.95361 96.0874 5.59809V9.8678H93.781V2.69792H96.0462V3.42296C96.2934 2.97988 96.87 2.49652 97.8584 2.49652C98.7233 2.49652 99.3411 2.85904 99.753 3.42296C100.206 2.85904 100.865 2.49652 101.812 2.49652C103.501 2.49652 104.283 3.5438 104.283 5.07445V9.82752H101.977V5.59809C101.977 4.95361 101.648 4.59109 101.071 4.59109C100.536 4.59109 100.165 4.99389 100.165 5.59809V9.82752ZM107.537 6.84678C107.578 7.49126 108.237 8.01491 109.102 8.01491C109.967 8.01491 110.503 7.45098 110.626 7.24958L112.15 8.41771C111.944 8.82051 110.956 9.98864 109.061 9.98864C106.672 9.98864 105.19 8.37743 105.19 6.24258C105.19 4.14801 106.631 2.45624 108.773 2.45624C111.079 2.45624 112.356 3.90633 112.356 6.36342V6.8065H107.537V6.84678ZM107.62 5.39669H109.967C109.926 4.83277 109.514 4.34941 108.773 4.34941C108.031 4.34941 107.661 4.91333 107.62 5.39669Z" fill="#453E43"/>
<path d="M117.586 5.59812C117.586 4.91336 117.175 4.59111 116.639 4.59111C115.98 4.59111 115.651 5.0342 115.651 5.59812V9.86782H113.344V2.69795H115.609V3.42299C115.898 3.02019 116.516 2.49654 117.463 2.49654C119.728 2.49654 119.975 4.38971 119.975 5.8398V9.78726H117.669V5.59812H117.586ZM123.682 2.69795H124.918V4.55083H123.682V7.16905C123.682 7.81353 124.094 7.93437 124.588 7.93437H124.959V9.86782C124.959 9.86782 124.67 9.94838 124.053 9.94838C122.323 9.94838 121.334 9.18306 121.334 7.04821V4.55083H120.675V2.69795H121.376V1.1673H123.682V2.69795Z" fill="#453E43"/>
<path d="M40.6919 14.0166C40.6919 13.2916 41.2685 12.7679 41.9687 12.7679C42.71 12.7679 43.2866 13.2916 43.2866 14.0166C43.2866 14.7417 42.71 15.225 41.9687 15.225C41.2685 15.225 40.6919 14.7014 40.6919 14.0166ZM43.2043 22.7977H40.8978V15.6681H43.2043V22.7977ZM48.5996 18.5683C48.5996 17.8835 48.1878 17.5613 47.6524 17.5613C46.9934 17.5613 46.6639 18.0044 46.6639 18.5683V22.838H44.3575V15.6681H46.6227V16.3932C46.911 15.9904 47.5288 15.4667 48.4761 15.4667C50.7413 15.4667 50.9884 17.3599 50.9884 18.81V22.7574H48.5996V18.5683ZM51.8945 14.0166C51.8945 13.2916 52.4711 12.7679 53.1713 12.7679C53.9127 12.7679 54.4893 13.2916 54.4893 14.0166C54.4893 14.7417 53.9127 15.225 53.1713 15.225C52.43 15.225 51.8945 14.7014 51.8945 14.0166ZM54.3657 22.7977H52.0593V15.6681H54.3657V22.7977ZM58.5255 15.6681H59.7611V17.521H58.5255V20.1392C58.5255 20.7837 58.9374 20.9045 59.4316 20.9045H59.8023V22.838C59.8023 22.838 59.514 22.9186 58.8962 22.9186C57.1664 22.9186 56.1779 22.1532 56.1779 20.0184V17.521H55.4777V15.6681H56.1779V14.1375H58.4843V15.6681H58.5255ZM61.079 14.0166C61.079 13.2916 61.6556 12.7679 62.3558 12.7679C63.0972 12.7679 63.6738 13.2916 63.6738 14.0166C63.6738 14.7417 63.0972 15.225 62.3558 15.225C61.6145 15.225 61.079 14.7014 61.079 14.0166ZM63.5502 22.7977H61.2438V15.6681H63.5502V22.7977ZM67.2982 18.2058C67.9571 18.2058 68.4514 18.3669 68.6985 18.4475V18.2058C68.6985 17.7627 68.3278 17.4404 67.5865 17.4404C66.9275 17.4404 66.3097 17.6016 65.7331 17.8835L64.8682 16.3529C65.6507 15.8695 66.6392 15.4667 67.8336 15.4667C70.3459 15.4667 71.0049 16.7154 71.0049 18.3669V22.7977H68.9456L68.822 22.3949C68.4514 22.7574 67.916 22.9588 67.1746 22.9588C65.7331 22.9588 64.4563 22.113 64.4563 20.5823C64.4563 19.1725 65.5683 18.2058 67.2982 18.2058ZM67.7512 21.2268C68.3278 21.2268 68.7397 20.9851 68.7397 20.5017C68.7397 20.0184 68.3278 19.7364 67.7512 19.7364C67.1746 19.7364 66.7627 20.0184 66.7627 20.5017C66.7627 20.9851 67.2158 21.2268 67.7512 21.2268Z" fill="#453E43"/>
<path d="M74.8764 15.6681H76.112V17.521H74.8764V20.1392C74.8764 20.7837 75.2883 20.9046 75.7825 20.9046H76.1532V22.838C76.1532 22.838 75.8649 22.9186 75.2471 22.9186C73.5172 22.9186 72.5288 22.1532 72.5288 20.0184V17.521H71.8286V15.6681H72.5288V14.1375H74.8352V15.6681H74.8764ZM77.3887 14.0166C77.3887 13.2916 77.9654 12.7679 78.6655 12.7679C79.4069 12.7679 79.9835 13.2916 79.9835 14.0166C79.9835 14.7417 79.4069 15.225 78.6655 15.225C77.9242 15.225 77.3887 14.7014 77.3887 14.0166ZM79.8599 22.7977H77.5535V15.6681H79.8599V22.7977ZM84.5963 20.3809L85.9555 15.6681H88.3855L85.9143 22.7977H83.196L80.7248 15.6681H83.196L84.5963 20.3809ZM90.8566 19.817C90.8978 20.4615 91.5568 20.9851 92.4217 20.9851C93.2866 20.9851 93.822 20.4212 93.9456 20.2198L95.4695 21.3879C95.2635 21.7907 94.2751 22.9588 92.3805 22.9588C89.9917 22.9588 88.509 21.3476 88.509 19.2128C88.509 17.1182 89.9505 15.4264 92.0922 15.4264C94.3986 15.4264 95.6754 16.8765 95.6754 19.3336V19.7767H90.8566V19.817ZM90.8978 18.3669H93.2454C93.2042 17.803 92.7924 17.3196 92.051 17.3196C91.3097 17.3196 90.9802 17.8835 90.8978 18.3669ZM96.252 21.7504L97.57 20.5017C97.9406 20.824 98.4349 21.1462 99.1762 21.1462C99.6293 21.1462 99.8352 21.0254 99.8352 20.7434C99.8352 19.9378 96.4991 20.3003 96.4991 17.6821C96.4991 16.3126 97.7347 15.4667 99.2998 15.4667C100.7 15.4667 101.483 16.1112 101.936 16.6751L100.453 17.8433C100.247 17.6419 99.794 17.2793 99.2586 17.2793C98.9291 17.2793 98.7232 17.4002 98.7232 17.6419C98.7232 18.528 102.1 18.0044 102.1 20.6226C102.1 22.0727 100.782 22.9588 99.135 22.9588C97.6523 22.9991 96.6639 22.3144 96.252 21.7504Z" fill="#453E43"/>
</g>
<defs>
<clipPath id="clip0">
<rect y="-0.000854492" width="125" height="23" fill="white"/>
</clipPath>
</defs>
</svg>
