<svg width="86" height="86" viewBox="0 0 86 86" fill="none" xmlns="http://www.w3.org/2000/svg">
<path d="M43 86C66.7482 86 86 66.7482 86 43C86 19.2518 66.7482 0 43 0C19.2518 0 0 19.2518 0 43C0 66.7482 19.2518 86 43 86Z" fill="white"/>
<path d="M43 8.07004C25.535 8.07004 10.9608 20.958 8.4314 37.8207H77.4482C75.0392 20.958 60.465 8.07004 43 8.07004Z" fill="#A0ADBB"/>
<path d="M8.07007 43C8.07007 62.2717 23.7283 77.93 43 77.93C62.2717 77.93 77.93 62.2717 77.93 43C77.93 42.0364 77.93 41.1933 77.8096 40.2297H8.19052C8.19052 41.1933 8.07007 42.0364 8.07007 43Z" fill="#DE5D09"/>
<path d="M43 83.2297C20.8375 83.2297 2.77026 65.1625 2.77026 43C2.77026 20.8375 20.8375 2.77029 43 2.77029C65.1624 2.77029 83.2296 20.8375 83.2296 43C83.2296 65.1625 65.1624 83.2297 43 83.2297ZM43 4.69747C21.9215 4.69747 4.69743 21.9216 4.69743 43C4.69743 64.0784 21.8011 81.1821 42.8795 81.1821C63.9579 81.1821 81.0616 64.0784 81.0616 43C81.182 21.9216 64.0784 4.69747 43 4.69747Z" fill="#475C6D"/>
<path d="M24.3305 34.8095C23.126 35.4118 21.8011 35.6527 20.3557 35.6527C17.4649 35.6527 15.2969 33.7255 15.2969 30.7143C15.2969 27.7031 17.4649 25.7759 20.3557 25.7759C21.8011 25.7759 23.126 26.1373 24.0896 26.9804L22.6442 28.5462C22.042 27.944 21.4397 27.7031 20.3557 27.7031C18.549 27.7031 17.4649 29.028 17.4649 30.7143C17.4649 32.4006 18.6694 33.7255 20.3557 33.7255C21.1988 33.7255 21.9215 33.4846 22.2829 33.2437V31.6779H20.5966V29.7507H24.21V34.8095H24.3305Z" fill="white"/>
<path d="M26.8599 26.1373H28.9075V33.6051H32.7618V35.5322H26.8599V26.1373Z" fill="white"/>
<path d="M39.0251 25.8964C41.9159 25.8964 44.084 27.8235 44.084 30.8347C44.084 33.8459 41.9159 35.7731 39.0251 35.7731C36.1344 35.7731 33.9663 33.8459 33.9663 30.8347C33.9663 27.8235 36.0139 25.8964 39.0251 25.8964ZM39.0251 33.8459C40.8319 33.8459 41.9159 32.521 41.9159 30.8347C41.9159 29.1485 40.7114 27.8235 39.0251 27.8235C37.2184 27.8235 36.1344 29.1485 36.1344 30.8347C36.1344 32.521 37.2184 33.8459 39.0251 33.8459Z" fill="white"/>
<path d="M46.1316 26.1373H49.6246C51.3109 26.1373 52.9971 26.4986 52.9971 28.5462C52.9971 29.6303 52.3949 30.353 51.4313 30.5938C52.6358 30.7143 53.4789 31.6779 53.4789 32.8824C53.4789 34.8095 51.6722 35.5322 49.9859 35.5322H46.1316V26.1373ZM48.1792 29.8712H49.6246C50.2268 29.8712 50.9495 29.6303 50.9495 28.9076C50.9495 28.1849 50.2268 27.944 49.5041 27.944H48.1792V29.8712ZM48.1792 33.7255H49.9859C50.5882 33.7255 51.3109 33.4846 51.3109 32.6415C51.3109 31.7983 50.3473 31.5574 49.6246 31.5574H48.1792V33.7255Z" fill="white"/>
<path d="M58.5378 26.1373H60.2241L64.3193 35.5322H62.0308L61.1876 33.4846H57.5742L56.8515 35.5322H54.563L58.5378 26.1373ZM59.2605 28.9076L58.1764 31.7983H60.465L59.2605 28.9076Z" fill="white"/>
<path d="M66.0056 26.1373H68.0532V33.6051H71.9076V35.5322H66.0056V26.1373Z" fill="white"/>
<path d="M12.5266 44.8067H13.8515L18.0672 51.07V44.8067H19.1513V52.5154H17.8263L13.6106 46.2521V52.5154H12.5266V44.8067Z" fill="white"/>
<path d="M22.6443 44.8067V49.5042C22.6443 50.4678 23.1261 51.6723 24.5715 51.6723C26.0169 51.6723 26.4987 50.4678 26.4987 49.5042V44.8067H27.5827V49.6247C27.5827 51.4314 26.2578 52.6359 24.5715 52.6359C22.8852 52.6359 21.5603 51.4314 21.5603 49.6247V44.8067H22.6443Z" fill="white"/>
<path d="M31.4371 45.7703H28.9077V44.8067H34.9301V45.7703H32.5212V52.5154H31.4371V45.7703Z" fill="white"/>
<path d="M36.6164 44.8067H39.2662C41.1934 44.8067 41.6752 46.0112 41.6752 46.9748C41.6752 47.9384 40.9525 48.902 39.748 49.0224L41.9161 52.5154H40.5912L38.664 49.1429H37.4595V52.5154H36.3755V44.8067H36.6164ZM37.7004 48.1793H39.0253C39.8685 48.1793 40.7116 47.9384 40.7116 46.9748C40.7116 46.0112 39.8685 45.7703 39.0253 45.7703H37.7004V48.1793Z" fill="white"/>
<path d="M43.8433 44.8067H44.9273V52.5154H43.8433V44.8067Z" fill="white"/>
<path d="M48.902 45.7703H46.3726V44.8067H52.395V45.7703H49.8656V52.5154H48.7815V45.7703H48.902Z" fill="white"/>
<path d="M54.0813 44.8067H55.1653V52.5154H54.0813V44.8067Z" fill="white"/>
<path d="M57.2129 48.6611C57.2129 46.3726 58.8992 44.6863 61.1877 44.6863C63.4762 44.6863 65.1625 46.493 65.1625 48.6611C65.1625 50.8291 63.4762 52.6359 61.1877 52.6359C58.8992 52.6359 57.2129 50.9496 57.2129 48.6611ZM64.0784 48.6611C64.0784 46.9748 62.9944 45.6499 61.1877 45.6499C59.381 45.6499 58.2969 46.9748 58.2969 48.6611C58.2969 50.3473 59.381 51.6723 61.1877 51.6723C62.9944 51.6723 64.0784 50.3473 64.0784 48.6611Z" fill="white"/>
<path d="M67.21 44.8067H68.6553L72.871 51.07V44.8067H73.9551V52.5154H72.6301L68.4144 46.2521V52.5154H67.3304V44.8067H67.21Z" fill="white"/>
<path d="M22.1625 55.7675H24.8124C26.7396 55.7675 27.2214 56.972 27.2214 57.9356C27.2214 58.8992 26.4987 59.8628 25.2942 59.9832L27.4622 63.4762H26.1373L24.2101 60.1037H23.0057V63.4762H21.9216V55.7675H22.1625ZM23.2466 59.1401H24.5715C25.4146 59.1401 26.2578 58.8992 26.2578 57.9356C26.2578 56.972 25.4146 56.7311 24.5715 56.7311H23.2466V59.1401Z" fill="white"/>
<path d="M29.3894 55.7675H34.3278V56.7311H30.4734V59.0196H34.0869V59.9832H30.4734V62.3922H34.5687V63.3557H29.3894V55.7675Z" fill="white"/>
<path d="M36.4959 55.7675H39.1458C41.073 55.7675 41.5548 56.972 41.5548 57.9356C41.5548 58.8992 41.073 60.1037 39.1458 60.1037H37.4595V63.4762H36.3755V55.7675H36.4959ZM37.58 59.1401H38.9049C39.748 59.1401 40.5912 58.8992 40.5912 57.9356C40.5912 56.972 39.748 56.7311 38.9049 56.7311H37.58V59.1401Z" fill="white"/>
<path d="M43 59.6219C43 57.3334 44.6863 55.6471 46.9748 55.6471C49.2633 55.6471 50.9496 57.4538 50.9496 59.6219C50.9496 61.79 49.3838 63.7171 46.9748 63.7171C44.5658 63.7171 43 61.9104 43 59.6219ZM49.8655 59.6219C49.8655 57.9356 48.7815 56.6107 46.9748 56.6107C45.1681 56.6107 44.084 57.9356 44.084 59.6219C44.084 61.3082 45.2885 62.6331 46.9748 62.6331C48.6611 62.6331 49.8655 61.3082 49.8655 59.6219Z" fill="white"/>
<path d="M52.9973 55.7675H55.6472C57.5744 55.7675 58.0561 56.972 58.0561 57.9356C58.0561 58.8992 57.3335 59.8628 56.129 59.9832L58.297 63.4762H56.9721L55.0449 60.1037H53.8405V63.4762H52.9973V55.7675ZM54.0814 59.1401H55.4063C56.2494 59.1401 57.0926 58.8992 57.0926 57.9356C57.0926 56.972 56.2494 56.7311 55.4063 56.7311H54.0814V59.1401Z" fill="white"/>
<path d="M61.5489 56.7311H59.0195V55.7675H65.0419V56.7311H62.633V63.4762H61.5489V56.7311Z" fill="white"/>
</svg>
