<svg width="1616" height="978" viewBox="0 0 1616 978" fill="none" xmlns="http://www.w3.org/2000/svg">
<rect width="1616" height="977.624" fill="#03212B"/>
<path d="M491.035 693.126C490.972 693.314 491.129 693.501 491.504 693.689C491.816 693.814 492.348 693.939 493.098 694.064C493.91 694.189 495.129 694.251 496.755 694.251C500.755 694.251 503.912 693.47 506.225 691.907C508.601 690.345 510.413 688.376 511.664 686C512.914 683.625 513.727 680.999 514.102 678.124C514.477 675.186 514.664 672.404 514.664 669.779C514.664 665.403 514.133 661.622 513.07 658.434C512.007 655.246 510.632 652.652 508.944 650.651C507.319 648.588 505.537 647.088 503.6 646.151C501.662 645.15 499.849 644.65 498.161 644.65C496.661 644.65 495.504 644.775 494.692 645.025C493.879 645.275 493.254 645.557 492.816 645.869C492.316 646.182 492.035 646.557 491.972 646.994C491.722 650.683 491.535 654.527 491.41 658.527C491.285 662.528 491.191 666.529 491.129 670.529C491.066 674.467 491.035 678.374 491.035 682.25C491.035 686.063 491.035 689.688 491.035 693.126ZM481.939 686.657C481.939 683.906 481.877 680.999 481.752 677.936C481.627 674.811 481.471 671.717 481.283 668.654C481.095 665.528 480.877 662.528 480.627 659.653C480.377 656.777 480.095 654.246 479.783 652.058C479.47 649.87 479.158 648.12 478.845 646.807C478.532 645.432 478.251 644.713 478.001 644.65C477.376 644.525 476.72 644.432 476.032 644.369C475.407 644.244 474.782 644.119 474.157 643.994C473.469 643.869 472.75 643.744 472 643.619V642.775C473.125 642.963 474.344 643.119 475.657 643.244C476.782 643.369 478.064 643.463 479.501 643.525C481.002 643.588 482.564 643.619 484.19 643.619C485.753 643.619 487.159 643.588 488.409 643.525C489.722 643.4 491.066 643.306 492.441 643.244C493.817 643.119 495.348 643.025 497.036 642.963C498.786 642.838 500.88 642.775 503.318 642.775C507.132 642.775 510.57 643.525 513.633 645.025C516.696 646.463 519.29 648.37 521.415 650.745C523.603 653.058 525.26 655.652 526.385 658.527C527.51 661.34 528.073 664.153 528.073 666.966C528.073 669.592 527.76 671.998 527.135 674.186C526.51 676.311 525.697 678.249 524.697 679.999C523.697 681.687 522.541 683.218 521.228 684.594C519.915 685.906 518.602 687.063 517.29 688.063C514.102 690.438 510.507 692.22 506.506 693.407C509.82 693.407 512.695 694.439 515.133 696.502C517.633 698.564 519.853 701.159 521.791 704.284C523.728 707.347 525.51 710.722 527.135 714.411C528.823 718.036 530.48 721.443 532.105 724.631C533.793 727.819 535.574 730.538 537.45 732.788C539.388 734.976 541.638 736.195 544.201 736.445C540.138 736.445 536.668 736.164 533.793 735.601C530.98 734.976 528.573 734.132 526.573 733.069C524.635 731.944 522.978 730.632 521.603 729.131C520.29 727.569 519.103 725.881 518.04 724.068C516.977 722.193 515.946 720.224 514.945 718.161C513.945 716.036 512.758 713.848 511.382 711.598C509.194 707.972 507.475 705.065 506.225 702.878C504.975 700.69 503.725 699.033 502.474 697.908C501.287 696.783 499.849 696.064 498.161 695.752C496.473 695.377 494.098 695.189 491.035 695.189C491.035 699.127 491.191 703.409 491.504 708.035C491.816 712.66 492.16 716.942 492.535 720.88C492.973 725.506 493.504 730.1 494.129 734.663L500.505 735.507V736.445L496.755 735.976C495.629 735.851 494.285 735.757 492.723 735.695C491.222 735.57 489.628 735.507 487.94 735.507C485.69 735.507 483.721 735.57 482.033 735.695C480.345 735.757 478.939 735.851 477.814 735.976C476.501 736.164 475.407 736.32 474.532 736.445V735.789C475.094 735.664 475.688 735.539 476.313 735.414C476.813 735.289 477.376 735.164 478.001 735.039C478.626 734.914 479.283 734.788 479.97 734.663C480.97 734.538 481.533 730.6 481.658 722.849C481.846 715.098 481.939 703.034 481.939 686.657ZM555.538 707.378C555.538 709.254 555.882 711.348 556.569 713.66C557.32 715.911 558.538 718.036 560.226 720.036C561.914 721.974 564.102 723.631 566.79 725.006C569.541 726.319 572.885 726.975 576.823 726.975C578.886 726.975 580.511 726.694 581.699 726.131C582.887 725.568 583.762 724.881 584.325 724.068C584.887 723.193 585.231 722.287 585.356 721.349C585.543 720.411 585.637 719.536 585.637 718.724C585.637 716.036 585.106 713.379 584.043 710.754C583.043 708.128 581.637 705.784 579.824 703.722C578.011 701.659 575.854 700.002 573.354 698.752C570.916 697.502 568.259 696.877 565.384 696.877C563.508 696.877 561.945 697.252 560.695 698.002C559.445 698.69 558.413 699.596 557.601 700.721C556.851 701.784 556.319 702.94 556.007 704.19C555.694 705.378 555.538 706.441 555.538 707.378ZM576.167 689.563C578.042 689.563 580.042 689.969 582.168 690.782C584.356 691.595 586.356 692.814 588.169 694.439C590.044 696.064 591.576 698.158 592.764 700.721C593.951 703.221 594.545 706.159 594.545 709.535C594.545 711.473 594.076 713.473 593.139 715.536C592.263 717.599 591.076 719.63 589.575 721.63C588.138 723.631 586.45 725.537 584.512 727.35C582.637 729.1 580.668 730.663 578.605 732.038C576.604 733.351 574.573 734.413 572.51 735.226C570.509 736.039 568.665 736.445 566.978 736.445C564.415 736.445 561.945 735.914 559.57 734.851C557.257 733.788 555.194 732.351 553.381 730.538C551.568 728.725 550.099 726.662 548.974 724.349C547.912 721.974 547.38 719.474 547.38 716.848C547.38 713.285 548.349 709.879 550.287 706.628C552.225 703.315 554.632 700.408 557.507 697.908C560.383 695.345 563.477 693.314 566.79 691.814C570.166 690.313 573.291 689.563 576.167 689.563ZM634.634 693.126C636.635 693.126 638.635 693.47 640.636 694.158C642.636 694.845 644.417 695.908 645.98 697.346C647.606 698.783 648.918 700.627 649.918 702.878C650.919 705.128 651.419 707.785 651.419 710.848C651.419 715.036 650.794 718.692 649.543 721.818C648.293 724.943 646.949 727.569 645.511 729.694C643.761 732.194 641.792 734.288 639.604 735.976C640.292 734.976 640.948 733.695 641.573 732.132C642.073 730.819 642.511 729.194 642.886 727.256C643.324 725.318 643.542 722.974 643.542 720.224C643.542 716.661 642.917 713.598 641.667 711.035C640.479 708.472 638.948 706.378 637.072 704.753C635.197 703.065 633.134 701.846 630.884 701.096C628.633 700.346 626.477 699.971 624.414 699.971C622.413 699.971 620.944 700.846 620.007 702.596C619.132 704.284 618.538 706.597 618.225 709.535C617.913 712.41 617.788 715.755 617.85 719.568C617.913 723.381 617.944 727.381 617.944 731.569C616.694 732.069 615.381 732.851 614.006 733.913C612.63 734.914 611.318 735.757 610.067 736.445C610.255 734.007 610.349 731.007 610.349 727.444C610.349 723.881 610.317 720.036 610.255 715.911C610.255 711.723 610.224 707.378 610.161 702.878C610.099 698.377 610.067 693.97 610.067 689.657C610.067 680.968 610.005 672.686 609.88 664.81C609.755 656.933 609.317 649.682 608.567 643.056C612.255 643.056 615.381 642.556 617.944 641.556C620.569 640.494 622.882 639.337 624.883 638.087C623.82 639.087 623.038 640.056 622.538 640.994C622.038 641.931 621.663 642.775 621.413 643.525C620.788 645.526 620.319 648.245 620.007 651.683C619.694 655.058 619.444 658.871 619.257 663.122C619.132 667.31 619.038 671.717 618.975 676.342C618.975 680.906 618.975 685.344 618.975 689.657V699.971C620.35 698.721 621.851 697.596 623.476 696.595C624.914 695.72 626.57 694.939 628.446 694.251C630.384 693.501 632.446 693.126 634.634 693.126ZM706.802 706.441C707.302 707.628 708.021 709.379 708.958 711.691C709.896 714.004 710.865 716.348 711.865 718.724C712.928 721.099 713.959 723.193 714.959 725.006C715.96 726.819 716.804 727.787 717.491 727.913C715.616 728.975 713.647 730.257 711.584 731.757C709.583 733.257 707.833 734.82 706.333 736.445C706.02 735.07 705.458 733.163 704.645 730.725C703.832 728.225 702.738 725.506 701.363 722.568C700.175 723.756 698.675 725.162 696.862 726.787C695.05 728.35 693.112 729.85 691.049 731.288C688.986 732.726 686.829 733.945 684.579 734.945C682.391 735.945 680.297 736.445 678.296 736.445C676.859 736.445 675.358 736.257 673.796 735.882C672.295 735.445 670.92 734.851 669.67 734.101C668.42 733.288 667.388 732.319 666.575 731.194C665.825 730.069 665.45 728.788 665.45 727.35C665.45 725.6 666.357 723.724 668.17 721.724C669.982 719.724 672.233 717.755 674.921 715.817C677.609 713.817 680.516 711.879 683.641 710.004C686.767 708.128 689.642 706.378 692.268 704.753C690.33 702.315 688.486 700.565 686.735 699.502C685.048 698.377 683.172 697.814 681.109 697.814C680.234 697.814 679.078 698.064 677.64 698.564C676.265 699.065 674.921 699.627 673.608 700.252C671.983 700.94 670.357 701.721 668.732 702.596C672.233 700.221 675.608 698.064 678.859 696.127C680.234 695.314 681.641 694.533 683.079 693.783C684.516 693.032 685.892 692.345 687.204 691.72C688.58 691.095 689.83 690.595 690.955 690.22C692.143 689.844 693.143 689.657 693.956 689.657C695.518 689.657 696.956 690.345 698.269 691.72C699.644 693.032 700.863 694.626 701.926 696.502C703.051 698.314 703.989 700.158 704.739 702.034C705.551 703.909 706.239 705.378 706.802 706.441ZM688.423 727.35C689.924 727.35 691.361 727.131 692.737 726.694C694.112 726.256 695.3 725.631 696.3 724.818C697.362 724.006 698.206 723.037 698.831 721.912C699.457 720.786 699.769 719.568 699.769 718.255C699.269 717.442 698.738 716.567 698.175 715.629C697.612 714.629 697.081 713.692 696.581 712.817C696.081 711.691 695.55 710.629 694.987 709.629C694.487 708.566 693.956 707.691 693.393 707.003C692.018 707.503 690.33 708.222 688.33 709.16C686.392 710.035 684.516 711.098 682.703 712.348C680.891 713.535 679.328 714.848 678.015 716.286C676.765 717.724 676.14 719.224 676.14 720.786C676.14 721.662 676.452 722.505 677.077 723.318C677.765 724.068 678.64 724.756 679.703 725.381C680.828 725.943 682.141 726.412 683.641 726.787C685.141 727.162 686.735 727.35 688.423 727.35ZM781.185 709.722C781.185 714.161 780.435 718.067 778.935 721.443C777.497 724.756 775.903 727.537 774.153 729.788C772.09 732.413 769.745 734.663 767.12 736.539C768.12 734.976 769.027 733.257 769.839 731.382C770.527 729.757 771.152 727.913 771.715 725.85C772.277 723.787 772.558 721.599 772.558 719.286C772.558 716.473 771.996 713.754 770.871 711.129C769.745 708.503 768.245 706.191 766.37 704.19C764.494 702.127 762.307 700.471 759.806 699.221C757.368 697.971 754.805 697.346 752.117 697.346C750.804 697.346 749.523 697.502 748.273 697.814C747.022 698.127 745.991 698.689 745.178 699.502C745.178 700.815 745.116 702.596 744.991 704.847C744.928 707.034 744.897 709.566 744.897 712.441C744.897 715.317 744.96 718.442 745.085 721.818C745.272 725.193 745.647 728.694 746.21 732.319C744.022 732.319 741.834 732.757 739.646 733.632C737.521 734.507 735.802 735.476 734.489 736.539C734.551 735.351 734.645 733.632 734.77 731.382C734.895 729.069 734.989 726.537 735.051 723.787C735.114 720.974 735.114 718.099 735.051 715.161C735.051 712.223 734.926 709.535 734.676 707.097C734.426 704.597 734.051 702.503 733.551 700.815C733.114 699.127 732.489 698.158 731.676 697.908C730.613 697.471 729.55 697.252 728.488 697.252C727.925 697.252 727.394 697.283 726.893 697.346C729.019 695.97 731.05 694.72 732.989 693.595C734.614 692.657 736.27 691.814 737.958 691.063C739.646 690.251 740.959 689.844 741.897 689.844C742.709 689.844 743.334 689.907 743.772 690.032C744.209 690.157 744.522 690.47 744.71 690.97C744.96 691.47 745.085 692.22 745.085 693.22C745.147 694.22 745.178 695.595 745.178 697.346C747.866 694.908 750.711 693.064 753.711 691.814C756.774 690.501 759.65 689.844 762.338 689.844C765.151 689.844 767.714 690.407 770.027 691.532C772.34 692.657 774.309 694.158 775.934 696.033C777.622 697.846 778.903 699.94 779.779 702.315C780.716 704.69 781.185 707.16 781.185 709.722Z" fill="#F5DFBE"/>
<path d="M815.814 643.526V642.682C816.564 642.869 817.471 643.025 818.533 643.15C819.408 643.275 820.534 643.369 821.909 643.432C823.284 643.494 824.878 643.526 826.691 643.526C828.816 643.526 830.66 643.494 832.223 643.432C833.849 643.369 835.193 643.275 836.255 643.15C837.506 643.025 838.599 642.869 839.537 642.682V643.526L835.13 644.463C835.005 645.401 835.068 646.995 835.318 649.245C835.63 651.433 836.068 654.058 836.63 657.121C837.255 660.184 837.974 663.591 838.787 667.341C839.662 671.092 840.569 674.968 841.506 678.968C842.506 682.906 843.538 686.907 844.601 690.97C845.726 694.97 846.82 698.815 847.882 702.503C848.945 706.191 849.977 709.598 850.977 712.723C851.977 715.849 852.915 718.474 853.79 720.599C854.852 717.474 855.978 713.723 857.165 709.348C858.353 704.909 859.478 700.253 860.541 695.377C861.666 690.439 862.729 685.407 863.729 680.281C864.729 675.155 865.573 670.311 866.261 665.748C867.011 661.184 867.574 657.059 867.949 653.371C868.386 649.62 868.574 646.651 868.511 644.463L863.635 643.526V642.682C864.573 642.869 865.604 643.025 866.73 643.15C867.667 643.275 868.73 643.369 869.918 643.432C871.106 643.494 872.324 643.526 873.575 643.526C875.388 643.526 876.919 643.494 878.169 643.432C879.42 643.369 880.482 643.275 881.357 643.15C882.358 643.025 883.17 642.869 883.795 642.682V643.526L880.795 644.463C876.419 658.34 872.262 671.342 868.324 683.469C866.636 688.657 864.917 693.908 863.167 699.221C861.416 704.534 859.697 709.566 858.009 714.317C856.384 719.068 854.852 723.381 853.415 727.256C852.039 731.132 850.852 734.226 849.852 736.539C848.851 734.476 847.726 731.632 846.476 728.007C845.226 724.381 843.882 720.287 842.444 715.724C841.069 711.16 839.631 706.285 838.131 701.096C836.63 695.908 835.13 690.751 833.63 685.625C832.129 680.5 830.66 675.561 829.223 670.811C827.847 666.06 826.535 661.809 825.284 658.059C824.097 654.308 823.034 651.214 822.096 648.776C821.159 646.338 820.377 644.901 819.752 644.463L815.814 643.526ZM916.689 726.319C918.502 726.319 920.19 726.1 921.753 725.662C923.378 725.162 924.785 724.6 925.972 723.975C927.348 723.287 928.629 722.506 929.817 721.631C928.129 724.444 926.097 726.944 923.722 729.132C921.722 731.007 919.19 732.726 916.127 734.289C913.126 735.789 909.626 736.539 905.625 736.539C902.749 736.539 899.999 736.039 897.373 735.039C894.748 734.039 892.404 732.601 890.341 730.726C888.34 728.85 886.746 726.569 885.559 723.881C884.371 721.131 883.777 718.068 883.777 714.692C883.777 711.629 884.246 708.941 885.184 706.628C886.184 704.253 887.465 702.19 889.028 700.44C890.591 698.69 892.341 697.252 894.279 696.127C896.217 694.939 898.124 693.97 899.999 693.22C906 690.782 910.095 689.563 912.282 689.563C914.595 689.563 916.596 689.97 918.284 690.782C920.034 691.533 921.534 692.376 922.784 693.314C924.16 694.439 925.379 695.689 926.441 697.065L895.498 709.535C895.936 712.161 896.561 714.505 897.373 716.567C898.186 718.63 899.374 720.38 900.937 721.818C902.499 723.256 904.531 724.381 907.031 725.194C909.532 725.944 912.751 726.319 916.689 726.319ZM901.499 695.002C900.624 695.002 899.78 695.252 898.967 695.752C898.155 696.189 897.405 696.783 896.717 697.533C896.092 698.283 895.592 699.127 895.217 700.065C894.904 701.003 894.779 701.94 894.842 702.878C894.842 703.878 894.842 704.847 894.842 705.785C894.904 706.722 895.029 707.66 895.217 708.597L910.97 701.378C910.345 700.19 909.563 699.127 908.625 698.19C907.813 697.377 906.813 696.658 905.625 696.033C904.437 695.346 903.062 695.002 901.499 695.002ZM972.275 689.939C973.213 689.939 974.213 689.97 975.276 690.032C976.339 690.095 977.214 690.282 977.901 690.595C977.214 691.532 976.557 692.72 975.932 694.158C975.307 695.596 974.745 696.971 974.244 698.283C973.619 699.909 973.057 701.534 972.557 703.159C972.119 702.909 971.556 702.659 970.869 702.409C970.306 702.222 969.587 702.034 968.712 701.847C967.9 701.659 966.899 701.565 965.712 701.565C963.836 701.565 962.273 702.097 961.023 703.159C959.836 704.159 958.867 705.503 958.116 707.191C957.366 708.816 956.772 710.629 956.335 712.629C955.96 714.63 955.679 716.567 955.491 718.443C955.491 722.068 955.522 724.881 955.585 726.881C955.71 728.882 955.772 730.507 955.772 731.757C954.96 731.945 954.053 732.226 953.053 732.601C952.115 732.914 951.146 733.32 950.146 733.82C949.146 734.257 948.146 734.726 947.146 735.226C946.208 735.664 945.364 736.101 944.614 736.539C944.927 733.726 945.177 730.819 945.364 727.819C945.614 724.819 945.77 721.881 945.833 719.005C945.958 716.13 945.958 713.411 945.833 710.848C945.77 708.222 945.583 705.941 945.27 704.003C945.02 702.003 944.676 700.409 944.239 699.221C943.801 697.971 943.27 697.283 942.645 697.158C942.332 697.096 941.988 697.065 941.613 697.065C941.238 697.065 940.863 697.065 940.488 697.065C940.051 697.065 939.613 697.096 939.175 697.158C940.863 696.596 942.551 695.939 944.239 695.189C945.677 694.502 947.271 693.72 949.021 692.845C950.771 691.908 952.459 690.845 954.084 689.657C954.272 690.47 954.428 691.595 954.553 693.033C954.678 694.408 954.803 696.002 954.928 697.815C955.053 699.565 955.147 701.44 955.21 703.44C955.272 705.441 955.366 707.41 955.491 709.348C956.429 707.222 957.523 705.034 958.773 702.784C960.023 700.471 961.367 698.377 962.805 696.502C964.243 694.564 965.774 693.001 967.399 691.814C969.025 690.564 970.65 689.939 972.275 689.939ZM1049.08 689.563C1051.77 689.563 1054.21 690.126 1056.4 691.251C1058.65 692.314 1060.55 693.783 1062.11 695.658C1063.74 697.533 1064.99 699.69 1065.87 702.128C1066.74 704.566 1067.18 707.129 1067.18 709.816C1067.18 714.13 1066.46 717.943 1065.02 721.256C1063.58 724.506 1061.99 727.256 1060.24 729.507C1058.18 732.132 1055.9 734.445 1053.39 736.445C1054.39 734.883 1055.27 733.164 1056.02 731.288C1056.71 729.663 1057.3 727.788 1057.8 725.662C1058.36 723.537 1058.65 721.287 1058.65 718.911C1058.65 716.099 1058.08 713.379 1056.96 710.754C1055.9 708.129 1054.43 705.816 1052.55 703.816C1050.68 701.753 1048.52 700.128 1046.08 698.94C1043.64 697.69 1041.08 697.065 1038.39 697.065C1037.33 697.065 1036.3 697.19 1035.3 697.44C1034.3 697.69 1033.39 698.096 1032.58 698.659C1034.77 701.909 1035.86 705.628 1035.86 709.816C1035.86 714.13 1035.14 717.943 1033.7 721.256C1032.27 724.506 1030.67 727.256 1028.92 729.507C1026.86 732.132 1024.55 734.445 1021.98 736.445C1022.98 734.883 1023.86 733.164 1024.61 731.288C1025.3 729.663 1025.92 727.788 1026.48 725.662C1027.05 723.537 1027.33 721.287 1027.33 718.911C1027.33 716.099 1026.76 713.379 1025.64 710.754C1024.58 708.129 1023.11 705.816 1021.23 703.816C1019.36 701.753 1017.2 700.128 1014.76 698.94C1012.32 697.69 1009.76 697.065 1007.07 697.065C1005.76 697.065 1004.48 697.252 1003.23 697.627C1001.98 697.94 1000.95 698.627 1000.13 699.69C1000.13 700.878 1000.07 702.565 999.947 704.753C999.885 706.941 999.853 709.441 999.853 712.254C999.853 715.067 999.916 718.161 1000.04 721.537C1000.23 724.85 1000.6 728.225 1001.17 731.663C1000.23 731.788 999.228 732.007 998.166 732.32C997.103 732.632 996.04 733.007 994.977 733.445C993.915 733.882 992.883 734.351 991.883 734.851C990.946 735.351 990.133 735.883 989.445 736.445C989.508 735.195 989.601 733.414 989.727 731.101C989.914 728.788 990.07 726.256 990.195 723.506C990.32 720.755 990.383 717.911 990.383 714.973C990.383 712.035 990.258 709.348 990.008 706.91C989.758 704.472 989.383 702.409 988.883 700.721C988.383 698.971 987.695 697.908 986.82 697.533C985.757 697.096 984.788 696.877 983.913 696.877C983.475 696.877 983.038 696.94 982.6 697.065C984.726 695.689 986.726 694.439 988.601 693.314C990.227 692.376 991.821 691.533 993.383 690.782C994.946 689.97 996.134 689.563 996.947 689.563C997.759 689.563 998.384 689.626 998.822 689.751C999.26 689.876 999.572 690.189 999.76 690.689C999.947 691.189 1000.04 691.939 1000.04 692.939C1000.1 693.939 1000.13 695.314 1000.13 697.065C1002.82 694.877 1005.67 693.095 1008.67 691.72C1011.73 690.282 1014.76 689.563 1017.76 689.563C1020.7 689.563 1023.36 690.282 1025.73 691.72C1028.11 693.095 1030.23 694.877 1032.11 697.065C1034.48 694.877 1037.14 693.095 1040.08 691.72C1043.08 690.282 1046.08 689.563 1049.08 689.563ZM1122.61 706.441C1123.11 707.629 1123.83 709.379 1124.76 711.692C1125.7 714.005 1126.67 716.349 1127.67 718.724C1128.73 721.099 1129.77 723.193 1130.77 725.006C1131.77 726.819 1132.61 727.788 1133.3 727.913C1131.42 728.975 1129.45 730.257 1127.39 731.757C1125.39 733.257 1123.64 734.82 1122.14 736.445C1121.83 735.07 1121.26 733.164 1120.45 730.726C1119.64 728.225 1118.54 725.506 1117.17 722.568C1115.98 723.756 1114.48 725.162 1112.67 726.788C1110.86 728.35 1108.92 729.851 1106.86 731.288C1104.79 732.726 1102.64 733.945 1100.39 734.945C1098.2 735.945 1096.1 736.445 1094.1 736.445C1092.66 736.445 1091.16 736.258 1089.6 735.883C1088.1 735.445 1086.73 734.851 1085.48 734.101C1084.23 733.289 1083.19 732.32 1082.38 731.195C1081.63 730.069 1081.26 728.788 1081.26 727.35C1081.26 725.6 1082.16 723.725 1083.98 721.724C1085.79 719.724 1088.04 717.755 1090.73 715.817C1093.42 713.817 1096.32 711.879 1099.45 710.004C1102.57 708.129 1105.45 706.378 1108.07 704.753C1106.14 702.315 1104.29 700.565 1102.54 699.502C1100.85 698.377 1098.98 697.815 1096.92 697.815C1096.04 697.815 1094.88 698.065 1093.45 698.565C1092.07 699.065 1090.73 699.627 1089.41 700.253C1087.79 700.94 1086.16 701.721 1084.54 702.597C1088.04 700.221 1091.41 698.065 1094.67 696.127C1096.04 695.314 1097.45 694.533 1098.88 693.783C1100.32 693.033 1101.7 692.345 1103.01 691.72C1104.39 691.095 1105.64 690.595 1106.76 690.22C1107.95 689.845 1108.95 689.657 1109.76 689.657C1111.32 689.657 1112.76 690.345 1114.08 691.72C1115.45 693.033 1116.67 694.627 1117.73 696.502C1118.86 698.315 1119.79 700.159 1120.55 702.034C1121.36 703.909 1122.05 705.378 1122.61 706.441ZM1104.23 727.35C1105.73 727.35 1107.17 727.131 1108.54 726.694C1109.92 726.256 1111.11 725.631 1112.11 724.819C1113.17 724.006 1114.01 723.037 1114.64 721.912C1115.26 720.787 1115.58 719.568 1115.58 718.255C1115.08 717.443 1114.54 716.567 1113.98 715.63C1113.42 714.63 1112.89 713.692 1112.39 712.817C1111.89 711.692 1111.36 710.629 1110.79 709.629C1110.29 708.566 1109.76 707.691 1109.2 707.003C1107.82 707.504 1106.14 708.222 1104.14 709.16C1102.2 710.035 1100.32 711.098 1098.51 712.348C1096.7 713.536 1095.13 714.848 1093.82 716.286C1092.57 717.724 1091.95 719.224 1091.95 720.787C1091.95 721.662 1092.26 722.506 1092.88 723.318C1093.57 724.068 1094.45 724.756 1095.51 725.381C1096.63 725.944 1097.95 726.413 1099.45 726.788C1100.95 727.163 1102.54 727.35 1104.23 727.35Z" fill="#F5DFBE"/>
<path d="M581.522 789.288C581.522 789.875 581.662 790.601 581.942 791.468C582.222 792.334 582.401 792.908 582.477 793.188C582.757 794.029 583.05 794.909 583.355 795.826L588.663 811.924L593.665 796.247C592.265 792.169 591.285 789.773 590.725 789.059C590.496 788.804 590.178 788.562 589.77 788.332C589.388 788.077 589.019 787.937 588.663 787.912C588.307 787.861 587.81 787.835 587.174 787.835L587.097 787.376H597.369L597.293 787.835C596.3 787.835 595.613 787.937 595.231 788.141C594.849 788.32 594.658 788.791 594.658 789.556C594.658 790.295 595.243 792.385 596.414 795.826L601.798 811.924L606.839 795.826C607.832 792.615 608.328 790.435 608.328 789.288C608.328 788.702 608.086 788.32 607.603 788.141C607.144 787.937 606.419 787.835 605.426 787.835L605.35 787.376H614.629L614.59 787.835C613.318 787.835 612.376 788.001 611.765 788.332C611.154 788.638 610.568 789.326 610.008 790.397C609.448 791.468 608.761 793.277 607.946 795.826L602.104 814.332H599.66L594.123 797.815L589.007 814.332H586.601L580.415 795.826C579.728 793.762 579.206 792.283 578.849 791.391C578.519 790.474 578.098 789.709 577.589 789.097C577.106 788.46 576.635 788.09 576.177 787.988C575.718 787.886 575.018 787.835 574.076 787.835L574 787.376H584.272L584.195 787.835C583.203 787.835 582.502 787.925 582.095 788.103C581.713 788.281 581.522 788.676 581.522 789.288ZM629.768 804.468H617.243V805.118C617.243 807.82 617.816 809.884 618.961 811.312C620.107 812.714 621.532 813.415 623.238 813.415C625.784 813.415 627.616 812.395 628.737 810.356L629.309 810.662C627.986 813.236 625.771 814.524 622.665 814.524C620.374 814.524 618.414 813.695 616.785 812.038C615.155 810.381 614.341 808.151 614.341 805.347C614.341 802.518 615.054 800.198 616.479 798.388C617.93 796.578 619.852 795.674 622.245 795.674C624.663 795.674 626.522 796.502 627.82 798.159C629.118 799.79 629.768 801.893 629.768 804.468ZM622.36 796.438C620.883 796.438 619.712 797.075 618.847 798.35C618.007 799.599 617.497 801.269 617.319 803.359H626.827C626.649 798.745 625.16 796.438 622.36 796.438ZM646.154 795.674C647.809 795.674 649.196 796.171 650.316 797.165C652.302 798.924 653.295 801.587 653.295 805.156C653.295 807.883 652.429 810.126 650.698 811.885C648.993 813.644 646.676 814.524 643.749 814.524C642.552 814.524 641.445 814.434 640.427 814.256C639.408 814.077 638.683 813.912 638.25 813.759L637.639 813.491V792.806C637.639 790.027 637.486 788.345 637.181 787.759C637.079 787.58 636.888 787.415 636.608 787.262C636.328 787.083 636.035 786.981 635.73 786.956C635.424 786.93 634.992 786.918 634.432 786.918L634.355 786.497C636.188 786.191 638.174 786.038 640.312 786.038V800.682C641.381 797.343 643.329 795.674 646.154 795.674ZM640.312 812.268C641.279 813.032 642.438 813.415 643.787 813.415C645.161 813.415 646.282 813.147 647.147 812.612C648.013 812.076 648.662 811.388 649.095 810.547C649.553 809.68 649.884 808.801 650.087 807.909C650.291 806.991 650.393 806.074 650.393 805.156C650.393 804.238 650.316 803.346 650.164 802.479C650.036 801.613 649.807 800.733 649.476 799.841C649.171 798.949 648.674 798.235 647.987 797.7C647.3 797.139 646.422 796.859 645.352 796.859C644.283 796.859 643.329 797.42 642.489 798.541C641.648 799.663 641.076 800.835 640.77 802.059C640.465 803.257 640.312 804.315 640.312 805.232V812.268ZM677.796 787.376C682.175 787.376 685.459 787.759 687.648 788.524C688.641 788.88 689.697 789.39 690.817 790.053C691.938 790.716 692.841 791.506 693.529 792.424C694.241 793.341 694.827 794.514 695.285 795.941C695.769 797.369 696.011 798.975 696.011 800.759C696.011 802.518 695.769 804.111 695.285 805.538C694.827 806.94 694.241 808.1 693.529 809.018C692.841 809.935 691.976 810.738 690.932 811.426C689.914 812.089 688.946 812.586 688.03 812.918C687.114 813.249 686.095 813.517 684.975 813.721C683.473 814.001 681.933 814.141 680.355 814.141H670.083L670.16 813.682C671.432 813.682 672.362 813.44 672.947 812.956C673.583 812.421 673.902 809.935 673.902 805.5V796.018C673.902 793.29 673.813 791.429 673.634 790.435C673.482 789.416 673.252 788.778 672.947 788.524C672.362 788.039 671.432 787.797 670.16 787.797L670.083 787.376H677.796ZM677.987 813.224C678.293 813.249 678.917 813.262 679.858 813.262C680.826 813.262 681.87 813.16 682.99 812.956C684.135 812.752 685.306 812.37 686.503 811.809C687.724 811.223 688.768 810.483 689.634 809.591C690.525 808.699 691.25 807.501 691.81 805.997C692.396 804.468 692.689 802.734 692.689 800.797C692.689 798.834 692.408 797.101 691.848 795.597C691.288 794.093 690.563 792.895 689.672 792.003C688.781 791.085 687.737 790.333 686.541 789.747C684.428 788.753 682.099 788.256 679.553 788.256C678.407 788.256 677.415 788.332 676.575 788.485V805.959C676.575 808.712 676.651 810.534 676.804 811.426C676.956 812.319 677.351 812.918 677.987 813.224ZM716.198 804.468H703.673V805.118C703.673 807.82 704.246 809.884 705.392 811.312C706.537 812.714 707.963 813.415 709.668 813.415C712.214 813.415 714.047 812.395 715.167 810.356L715.74 810.662C714.416 813.236 712.201 814.524 709.095 814.524C706.804 814.524 704.844 813.695 703.215 812.038C701.586 810.381 700.771 808.151 700.771 805.347C700.771 802.518 701.484 800.198 702.91 798.388C704.361 796.578 706.282 795.674 708.675 795.674C711.094 795.674 712.952 796.502 714.25 798.159C715.549 799.79 716.198 801.893 716.198 804.468ZM708.79 796.438C707.313 796.438 706.142 797.075 705.277 798.35C704.437 799.599 703.928 801.269 703.75 803.359H713.258C713.079 798.745 711.59 796.438 708.79 796.438ZM726.093 798.235C726.093 799.408 726.691 801.498 727.888 804.506L730.828 811.924L733.806 802.747C734.392 800.912 734.684 799.523 734.684 798.579C734.684 797.203 733.794 796.515 732.012 796.515L731.935 796.056H739.115L739.039 796.515C737.994 796.515 737.256 796.859 736.823 797.547C736.416 798.21 735.639 800.287 734.494 803.779L731.057 814.256H728.804L723.84 801.562C723 799.421 722.236 798.044 721.549 797.432C720.887 796.821 720.085 796.515 719.143 796.515L719.067 796.056H728.537L728.46 796.515C727.569 796.515 726.946 796.655 726.589 796.935C726.258 797.216 726.093 797.649 726.093 798.235ZM757.605 804.468H745.08V805.118C745.08 807.82 745.653 809.884 746.799 811.312C747.944 812.714 749.37 813.415 751.075 813.415C753.621 813.415 755.454 812.395 756.574 810.356L757.147 810.662C755.823 813.236 753.608 814.524 750.503 814.524C748.211 814.524 746.251 813.695 744.622 812.038C742.993 810.381 742.178 808.151 742.178 805.347C742.178 802.518 742.891 800.198 744.317 798.388C745.768 796.578 747.69 795.674 750.082 795.674C752.501 795.674 754.359 796.502 755.657 798.159C756.956 799.79 757.605 801.893 757.605 804.468ZM750.197 796.438C748.721 796.438 747.55 797.075 746.684 798.35C745.844 799.599 745.335 801.269 745.157 803.359H754.665C754.486 798.745 752.997 796.438 750.197 796.438ZM768.415 786V807.488C768.415 810.318 768.581 812.064 768.912 812.726C769.243 813.364 770.159 813.682 771.661 813.682L771.737 814.141H762.382L762.459 813.682C763.986 813.682 764.915 813.364 765.246 812.726C765.577 812.089 765.742 810.343 765.742 807.488V792.882C765.742 790.053 765.59 788.345 765.284 787.759C765.182 787.58 764.991 787.402 764.711 787.224C764.431 787.045 764.126 786.943 763.795 786.918C763.49 786.892 763.044 786.879 762.459 786.879L762.382 786.459C764.291 786.153 766.303 786 768.415 786ZM776.313 805.118C776.313 802.441 777.077 800.198 778.604 798.388C780.132 796.578 782.206 795.674 784.828 795.674C787.45 795.674 789.563 796.578 791.167 798.388C792.771 800.198 793.573 802.441 793.573 805.118C793.573 807.794 792.796 810.037 791.243 811.847C789.716 813.631 787.641 814.524 785.019 814.524C782.397 814.524 780.284 813.619 778.681 811.809C777.102 809.999 776.313 807.769 776.313 805.118ZM780.705 811.312C781.723 812.943 783.161 813.759 785.019 813.759C786.878 813.759 788.278 812.956 789.22 811.35C790.187 809.744 790.671 807.679 790.671 805.156C790.671 802.607 790.162 800.517 789.143 798.885C788.125 797.254 786.687 796.438 784.828 796.438C782.996 796.438 781.595 797.254 780.628 798.885C779.686 800.491 779.215 802.556 779.215 805.079C779.215 807.603 779.712 809.68 780.705 811.312ZM803.891 800.682C804.324 799.28 805.011 798.095 805.953 797.126C806.92 796.158 808.206 795.674 809.81 795.674C811.439 795.674 812.801 796.171 813.896 797.165C815.881 798.924 816.874 801.587 816.874 805.156C816.874 807.832 816.059 810.063 814.43 811.847C812.801 813.631 810.739 814.524 808.244 814.524C806.437 814.524 804.986 814.179 803.891 813.491V818.003C803.891 819.532 803.904 820.641 803.929 821.329C803.98 822.018 804.12 822.604 804.349 823.088C804.604 823.598 804.922 823.904 805.304 824.006C805.711 824.108 806.322 824.159 807.137 824.159L807.213 824.618H797.973L798.049 824.159C799.525 824.159 800.416 823.827 800.722 823.165C801.053 822.527 801.218 820.807 801.218 818.003V801.868C801.218 800.491 801.193 799.51 801.142 798.924C801.116 798.337 800.976 797.827 800.722 797.394C800.493 796.961 800.187 796.719 799.805 796.668C799.449 796.591 798.863 796.553 798.049 796.553L797.973 796.132C799.78 795.826 801.753 795.674 803.891 795.674V800.682ZM807.748 813.415C810.09 813.415 811.732 812.535 812.674 810.776C813.539 809.171 813.972 807.297 813.972 805.156C813.972 803.244 813.692 801.473 813.132 799.841C812.801 798.949 812.292 798.235 811.604 797.7C810.917 797.139 810.09 796.859 809.122 796.859C808.181 796.859 807.34 797.203 806.602 797.891C805.864 798.554 805.317 799.382 804.96 800.376C804.248 802.365 803.891 804.047 803.891 805.424V811.388C804.68 812.739 805.966 813.415 807.748 813.415ZM837.248 804.468H824.723V805.118C824.723 807.82 825.296 809.884 826.441 811.312C827.587 812.714 829.012 813.415 830.718 813.415C833.264 813.415 835.097 812.395 836.217 810.356L836.789 810.662C835.466 813.236 833.251 814.524 830.145 814.524C827.854 814.524 825.894 813.695 824.265 812.038C822.636 810.381 821.821 808.151 821.821 805.347C821.821 802.518 822.534 800.198 823.959 798.388C825.41 796.578 827.332 795.674 829.725 795.674C832.144 795.674 834.002 796.502 835.3 798.159C836.598 799.79 837.248 801.893 837.248 804.468ZM829.84 796.438C828.363 796.438 827.192 797.075 826.327 798.35C825.487 799.599 824.978 801.269 824.799 803.359H834.307C834.129 798.745 832.64 796.438 829.84 796.438ZM854.361 795.482C854.997 795.482 855.557 795.623 856.041 795.903C856.524 796.183 856.766 796.566 856.766 797.05C856.766 797.534 856.614 797.917 856.308 798.197C856.003 798.477 855.659 798.618 855.277 798.618C854.895 798.618 854.412 798.452 853.826 798.121C853.266 797.789 852.668 797.624 852.031 797.624C851.039 797.624 850.224 798.541 849.588 800.376C848.977 802.212 848.671 804.34 848.671 806.762C848.671 810.025 848.837 812 849.168 812.688C849.269 812.918 849.46 813.134 849.74 813.338C850.02 813.517 850.313 813.619 850.619 813.644C850.924 813.67 851.357 813.682 851.917 813.682L851.993 814.141H842.714L842.791 813.682C843.605 813.682 844.191 813.644 844.547 813.568C844.929 813.466 845.247 813.147 845.502 812.612C845.756 812.076 845.896 811.414 845.922 810.624C845.973 809.808 845.998 808.521 845.998 806.762V804.544C845.998 801.001 845.896 798.987 845.693 798.503C845.515 798.019 845.349 797.636 845.196 797.356C845.044 797.076 844.815 796.884 844.509 796.782C843.949 796.629 843.211 796.553 842.294 796.553L842.218 796.132C844.382 795.826 846.533 795.674 848.671 795.674V801.294C848.951 799.484 849.575 798.07 850.542 797.05C851.535 796.005 852.808 795.482 854.361 795.482ZM859.253 817.391L867.348 788.524H869.677L861.582 817.391H859.253ZM882.779 787.376C887.157 787.376 890.441 787.759 892.63 788.524C893.623 788.88 894.68 789.39 895.8 790.053C896.92 790.716 897.823 791.506 898.511 792.424C899.224 793.341 899.809 794.514 900.267 795.941C900.751 797.369 900.993 798.975 900.993 800.759C900.993 802.518 900.751 804.111 900.267 805.538C899.809 806.94 899.224 808.1 898.511 809.018C897.823 809.935 896.958 810.738 895.914 811.426C894.896 812.089 893.929 812.586 893.012 812.918C892.096 813.249 891.077 813.517 889.957 813.721C888.455 814.001 886.915 814.141 885.337 814.141H875.065L875.142 813.682C876.414 813.682 877.344 813.44 877.929 812.956C878.566 812.421 878.884 809.935 878.884 805.5V796.018C878.884 793.29 878.795 791.429 878.616 790.435C878.464 789.416 878.235 788.778 877.929 788.524C877.344 788.039 876.414 787.797 875.142 787.797L875.065 787.376H882.779ZM882.97 813.224C883.275 813.249 883.899 813.262 884.841 813.262C885.808 813.262 886.852 813.16 887.972 812.956C889.117 812.752 890.288 812.37 891.485 811.809C892.707 811.223 893.75 810.483 894.616 809.591C895.507 808.699 896.232 807.501 896.792 805.997C897.378 804.468 897.671 802.734 897.671 800.797C897.671 798.834 897.391 797.101 896.831 795.597C896.271 794.093 895.545 792.895 894.654 792.003C893.763 791.085 892.719 790.333 891.523 789.747C889.41 788.753 887.081 788.256 884.535 788.256C883.39 788.256 882.397 788.332 881.557 788.485V805.959C881.557 808.712 881.633 810.534 881.786 811.426C881.939 812.319 882.333 812.918 882.97 813.224ZM921.18 804.468H908.655V805.118C908.655 807.82 909.228 809.884 910.373 811.312C911.519 812.714 912.945 813.415 914.65 813.415C917.196 813.415 919.029 812.395 920.149 810.356L920.722 810.662C919.398 813.236 917.183 814.524 914.077 814.524C911.786 814.524 909.826 813.695 908.197 812.038C906.568 810.381 905.753 808.151 905.753 805.347C905.753 802.518 906.466 800.198 907.891 798.388C909.342 796.578 911.264 795.674 913.657 795.674C916.076 795.674 917.934 796.502 919.232 798.159C920.531 799.79 921.18 801.893 921.18 804.468ZM913.772 796.438C912.295 796.438 911.124 797.075 910.259 798.35C909.419 799.599 908.91 801.269 908.732 803.359H918.24C918.061 798.745 916.572 796.438 913.772 796.438ZM927.752 808.444C927.752 810.101 928.197 811.35 929.088 812.191C929.979 813.007 931.036 813.415 932.258 813.415C933.505 813.415 934.51 813.134 935.274 812.574C936.038 812.013 936.42 811.261 936.42 810.318C936.42 809.349 936.089 808.559 935.427 807.947C934.79 807.335 934.014 806.838 933.098 806.456C932.181 806.074 931.252 805.678 930.31 805.271C929.394 804.863 928.605 804.264 927.943 803.474C927.306 802.683 926.988 801.625 926.988 800.3C926.988 798.974 927.574 797.878 928.745 797.012C929.941 796.12 931.316 795.674 932.869 795.674C935.083 795.674 936.814 796.03 938.062 796.744C938.062 797.917 937.909 799.548 937.603 801.638L937.145 801.524C937.145 799.841 936.763 798.618 936 797.853C935.236 797.088 934.307 796.706 933.212 796.706C932.143 796.706 931.277 796.986 930.616 797.547C929.979 798.108 929.661 798.873 929.661 799.841C929.661 800.784 929.979 801.549 930.616 802.135C931.277 802.696 932.067 803.168 932.983 803.55C933.899 803.932 934.816 804.34 935.732 804.774C936.674 805.181 937.463 805.78 938.1 806.571C938.762 807.335 939.093 808.278 939.093 809.4C939.093 811.031 938.456 812.293 937.183 813.185C935.911 814.077 934.23 814.524 932.143 814.524C930.081 814.524 928.337 813.976 926.912 812.879C926.912 811.605 927.039 810.101 927.294 808.368L927.752 808.444ZM947.309 791.085C946.876 790.652 946.66 790.142 946.66 789.556C946.66 788.97 946.876 788.46 947.309 788.026C947.741 787.593 948.251 787.376 948.836 787.376C949.422 787.376 949.931 787.593 950.363 788.026C950.796 788.46 951.013 788.97 951.013 789.556C951.013 790.142 950.796 790.652 950.363 791.085C949.931 791.519 949.422 791.735 948.836 791.735C948.251 791.735 947.741 791.519 947.309 791.085ZM950.287 795.674V807.832C950.287 810.509 950.44 812.153 950.745 812.765C951.076 813.376 951.993 813.682 953.495 813.682L953.571 814.141H944.254L944.33 813.682C945.858 813.682 946.787 813.376 947.118 812.765C947.449 812.127 947.614 810.458 947.614 807.756V805.079C947.614 802.123 947.525 800.173 947.347 799.229C947.194 798.261 946.965 797.636 946.66 797.356C946.049 796.795 945.107 796.515 943.834 796.515L943.758 796.094C945.972 795.814 948.149 795.674 950.287 795.674ZM971.685 795.253L971.456 793.303C971.456 792.819 971.596 792.436 971.876 792.156C972.182 791.875 972.525 791.735 972.907 791.735C973.289 791.735 973.62 791.875 973.9 792.156C974.206 792.436 974.358 792.819 974.358 793.303C974.358 794.73 973.302 796.273 971.189 797.929C972.309 799.178 972.869 800.682 972.869 802.441C972.869 804.175 972.182 805.704 970.807 807.029C969.432 808.355 967.752 809.018 965.767 809.018C964.367 809.018 963.119 808.686 962.025 808.024C960.955 808.992 960.421 810.025 960.421 811.121C960.421 811.86 960.688 812.459 961.223 812.918C961.783 813.351 962.623 813.568 963.743 813.568C964.888 813.568 965.843 813.58 966.607 813.606C967.371 813.631 968.274 813.682 969.318 813.759C970.362 813.835 971.164 813.976 971.724 814.179C972.309 814.383 972.895 814.651 973.48 814.982C974.549 815.594 975.084 816.652 975.084 818.156C975.084 819.991 974.129 821.584 972.22 822.935C970.336 824.312 967.892 825 964.889 825C962.597 825 960.739 824.567 959.314 823.7C957.888 822.859 957.175 821.737 957.175 820.335C957.175 819.341 957.506 818.385 958.168 817.468C958.83 816.575 959.683 815.964 960.726 815.632C959.25 815.046 958.512 813.899 958.512 812.191C958.512 811.375 958.779 810.547 959.314 809.706C959.848 808.839 960.535 808.138 961.376 807.603C959.568 806.226 958.664 804.519 958.664 802.479C958.664 800.415 959.352 798.771 960.726 797.547C962.101 796.298 963.768 795.674 965.729 795.674C967.714 795.674 969.382 796.273 970.731 797.471C971.367 796.833 971.685 796.094 971.685 795.253ZM959.848 819.953C959.848 821.227 960.345 822.247 961.337 823.012C962.356 823.776 963.743 824.159 965.499 824.159C967.281 824.159 968.872 823.662 970.273 822.668C971.698 821.674 972.411 820.488 972.411 819.112C972.411 817.761 971.698 816.881 970.273 816.474C968.872 816.066 966.06 815.862 961.834 815.862C961.35 816.142 960.892 816.665 960.459 817.429C960.052 818.22 959.848 819.061 959.848 819.953ZM962.559 806.418C963.297 807.488 964.367 808.024 965.767 808.024C967.167 808.024 968.236 807.488 968.974 806.418C969.713 805.322 970.082 803.932 970.082 802.25C970.082 800.542 969.713 799.178 968.974 798.159C968.236 797.139 967.167 796.629 965.767 796.629C964.367 796.629 963.297 797.139 962.559 798.159C961.821 799.178 961.452 800.542 961.452 802.25C961.452 803.932 961.821 805.322 962.559 806.418ZM985.243 795.674V802.518C985.472 800.682 986.109 799.089 987.152 797.738C988.196 796.362 989.583 795.674 991.314 795.674C995.209 795.674 997.157 797.713 997.157 801.791V807.832C997.157 810.483 997.322 812.127 997.653 812.765C998.009 813.376 998.926 813.682 1000.4 813.682L1000.48 814.141H991.2L991.276 813.682C992.804 813.682 993.72 813.364 994.026 812.726C994.331 812.089 994.484 810.343 994.484 807.488V802.174C994.484 800.415 994.204 799.089 993.644 798.197C993.109 797.305 992.244 796.859 991.047 796.859C989.876 796.859 988.896 797.267 988.107 798.082C987.318 798.873 986.732 799.879 986.35 801.103C985.612 803.474 985.243 805.857 985.243 808.253C985.243 810.649 985.396 812.153 985.701 812.765C986.032 813.376 986.949 813.682 988.451 813.682L988.527 814.141H979.21L979.286 813.682C980.814 813.682 981.743 813.376 982.074 812.765C982.405 812.127 982.57 810.458 982.57 807.756V804.697C982.57 800.874 982.379 798.567 981.997 797.776C981.87 797.496 981.641 797.241 981.31 797.012C981.005 796.782 980.661 796.642 980.279 796.591C979.923 796.54 979.426 796.515 978.79 796.515L978.713 796.094C980.928 795.814 983.105 795.674 985.243 795.674ZM1020.48 804.468H1007.96V805.118C1007.96 807.82 1008.53 809.884 1009.68 811.312C1010.82 812.714 1012.25 813.415 1013.95 813.415C1016.5 813.415 1018.33 812.395 1019.45 810.356L1020.03 810.662C1018.7 813.236 1016.49 814.524 1013.38 814.524C1011.09 814.524 1009.13 813.695 1007.5 812.038C1005.87 810.381 1005.06 808.151 1005.06 805.347C1005.06 802.518 1005.77 800.198 1007.2 798.388C1008.65 796.578 1010.57 795.674 1012.96 795.674C1015.38 795.674 1017.24 796.502 1018.54 798.159C1019.83 799.79 1020.48 801.893 1020.48 804.468ZM1013.08 796.438C1011.6 796.438 1010.43 797.075 1009.56 798.35C1008.72 799.599 1008.21 801.269 1008.04 803.359H1017.54C1017.36 798.745 1015.88 796.438 1013.08 796.438ZM1037.59 795.482C1038.23 795.482 1038.79 795.623 1039.27 795.903C1039.76 796.183 1040 796.566 1040 797.05C1040 797.534 1039.85 797.917 1039.54 798.197C1039.24 798.477 1038.89 798.618 1038.51 798.618C1038.13 798.618 1037.65 798.452 1037.06 798.121C1036.5 797.789 1035.9 797.624 1035.27 797.624C1034.27 797.624 1033.46 798.541 1032.82 800.376C1032.21 802.212 1031.9 804.34 1031.9 806.762C1031.9 810.025 1032.07 812 1032.4 812.688C1032.5 812.918 1032.69 813.134 1032.97 813.338C1033.25 813.517 1033.55 813.619 1033.85 813.644C1034.16 813.67 1034.59 813.682 1035.15 813.682L1035.23 814.141H1025.95L1026.02 813.682C1026.84 813.682 1027.42 813.644 1027.78 813.568C1028.16 813.466 1028.48 813.147 1028.74 812.612C1028.99 812.076 1029.13 811.414 1029.16 810.624C1029.21 809.808 1029.23 808.521 1029.23 806.762V804.544C1029.23 801.001 1029.13 798.987 1028.93 798.503C1028.75 798.019 1028.58 797.636 1028.43 797.356C1028.28 797.076 1028.05 796.884 1027.74 796.782C1027.18 796.629 1026.44 796.553 1025.53 796.553L1025.45 796.132C1027.62 795.826 1029.77 795.674 1031.9 795.674V801.294C1032.18 799.484 1032.81 798.07 1033.78 797.05C1034.77 796.005 1036.04 795.482 1037.59 795.482Z" fill="#F5DFBE"/>
<path d="M811.011 592.619C811.011 592.619 827.12 552.696 828.91 529.684C831.101 501.039 807.602 484.993 782.446 474.97C743.373 459.422 715.074 442.863 705.769 399.97C699.558 371.254 701.406 341.392 694.38 312.833C685.36 275.882 665.767 242.363 638 216.376C686.483 236.744 740 273.205 781.846 318.124C780.3 326.807 777.949 335.327 774.819 343.572C769.139 358.461 760.981 372.689 758.914 388.497C757.677 399.729 759.424 411.088 763.972 421.43C768.524 431.773 775.722 440.731 784.837 447.403C816.047 470.113 848.04 486.431 837.36 529.629C831.17 554.603 811.018 592.6 811.011 592.619Z" fill="#F5DFBE"/>
<path d="M811.011 592.619C811.011 592.619 827.12 552.696 828.91 529.684C831.101 501.039 807.602 484.993 782.446 474.97C743.373 459.422 715.074 442.863 705.769 399.97C699.558 371.254 701.406 341.392 694.38 312.833C685.36 275.882 665.767 242.363 638 216.376C686.483 236.744 740 273.205 781.846 318.124C780.3 326.807 777.949 335.327 774.819 343.572C769.139 358.461 760.981 372.689 758.914 388.497C757.677 399.729 759.424 411.088 763.972 421.43C768.524 431.773 775.722 440.731 784.837 447.403C816.047 470.113 848.04 486.431 837.36 529.629C831.17 554.603 811.018 592.6 811.011 592.619Z" fill="#F5DFBE"/>
<path opacity="0.3" d="M811.011 592.619C811.011 592.619 827.12 552.696 828.91 529.684C831.101 501.039 807.602 484.993 782.446 474.97C743.373 459.422 715.074 442.863 705.769 399.97C699.558 371.254 701.406 341.392 694.38 312.833C685.36 275.882 665.767 242.363 638 216.376C686.483 236.744 740 273.205 781.846 318.124C780.3 326.807 777.949 335.327 774.819 343.572C769.139 358.461 760.981 372.689 758.914 388.497C757.677 399.729 759.424 411.088 763.972 421.43C768.524 431.773 775.722 440.731 784.837 447.403C816.047 470.113 848.04 486.431 837.36 529.629C831.17 554.603 811.018 592.6 811.011 592.619Z" fill="url(#paint0_linear)"/>
<path d="M970.479 409.098C964.602 400.368 959.529 391.124 955.319 381.477C950.614 369.174 947.834 356.218 947.081 343.067C946.71 339.049 946.71 335.005 947.081 330.986C947.416 327.871 947.685 321.754 949.639 318.925C935.968 335.05 924.797 360.317 928.658 381.037C924.327 378.341 919.597 376.342 914.645 375.115C903.408 372.477 892.397 375.015 881.986 379.798C863.708 314.864 815.64 255.304 761.72 212.239C781.202 244.058 788.374 281.907 781.89 318.651C826.574 366.567 857.963 424.125 855.736 482.043C854.175 522.353 835.7 561.573 811.069 593.139C831.942 572.748 851.366 552.779 865.324 526.841C876.175 506.64 883.162 484.931 892.863 464.281C898.51 452.244 909.612 424.062 928.148 428.262C935.662 429.957 940.633 437.486 941.616 444.894C942.594 452.302 940.407 459.668 938.257 466.774C946.255 460.803 952.113 452.408 954.955 442.837C961.862 440.923 969.223 438.691 973.885 433.491C980.594 425.989 975.053 416.157 970.479 409.098ZM940.91 420.999C939.556 418.978 938.65 416.694 938.242 414.296C937.838 411.899 937.948 409.442 938.563 407.09C942.201 409.642 945.003 413.216 946.612 417.361C948.224 421.504 948.569 426.033 947.605 430.373C947.652 427.617 944.308 425.009 942.685 423.182C942.052 422.464 941.452 421.74 940.91 420.999Z" fill="#F5DFBE"/>
<path d="M813.977 588.888C812.809 589.98 811.812 591.236 811.011 592.619C811.011 592.597 831.17 554.603 837.363 529.63C848.043 486.433 816.051 470.116 784.841 447.406C775.725 440.734 768.528 431.775 763.976 421.433C759.424 411.091 757.681 399.731 758.918 388.5C760.985 372.691 769.143 358.463 774.823 343.575C777.952 335.329 780.303 326.81 781.85 318.127C826.534 366.043 857.919 423.602 855.696 481.519C854.12 521.829 838.615 557.319 813.977 588.888Z" fill="#F5DFBE"/>
<path opacity="0.3" d="M813.977 588.888C812.663 590.795 811.812 591.236 811.011 592.619C811.011 592.597 831.17 554.603 837.363 529.63C848.043 486.433 816.051 470.116 784.841 447.406C775.725 440.734 768.528 431.775 763.976 421.433C759.424 411.091 757.681 399.731 758.918 388.5C760.985 372.691 769.143 358.463 774.823 343.575C777.952 335.329 780.303 326.81 781.85 318.127C826.534 366.043 857.919 423.602 855.696 481.519C854.12 521.829 838.615 557.319 813.977 588.888Z" fill="url(#paint1_linear)"/>
<path d="M721.107 225.069C721.001 223.143 716.664 219.995 715.379 218.768C708.411 212.176 700.559 206.665 693.156 200.605C683.958 193.351 676.305 184.33 670.646 174.072C670.403 173.607 670.164 173.139 669.929 172.667C667.06 166.763 665.058 160.476 663.985 154C683.553 162.753 719.579 196.914 721.107 225.069Z" fill="#F5DFBE"/>
<path d="M788.134 619.915C788.065 618.666 785.244 616.617 784.4 615.82C779.881 611.536 774.757 607.95 769.958 604.016C763.979 599.302 759.005 593.442 755.326 586.777C755.166 586.475 755.024 586.173 754.86 585.874C752.994 582.034 751.691 577.946 750.996 573.735C763.724 579.41 787.14 601.613 788.134 619.915Z" fill="#F5DFBE"/>
<path opacity="0.3" d="M788.134 619.915C788.065 618.666 785.244 616.617 784.4 615.82C779.881 611.536 774.757 607.95 769.958 604.016C763.979 599.302 759.005 593.442 755.326 586.777C755.166 586.475 755.024 586.173 754.86 585.874C752.994 582.034 751.691 577.946 750.996 573.735C763.724 579.41 787.14 601.613 788.134 619.915Z" fill="url(#paint2_linear)"/>
<path d="M798.021 604.787C806.681 558.596 795.699 524.217 788.745 514.497C771.297 490.111 742.958 496.681 715.671 497.094C690.986 497.465 672.805 488.031 661.26 476.591C665.276 480.571 667.12 486.36 670.279 490.973C675.644 498.706 682.721 505.095 690.958 509.645C699.195 514.194 708.371 516.781 717.77 517.205C738.679 518.68 756.651 518.971 770.751 536.64C786.027 555.786 792.588 581.379 798.021 604.787Z" fill="#F5DFBE"/>
<path opacity="0.3" d="M798.021 604.787C806.681 558.596 795.699 524.217 788.745 514.497C771.297 490.111 742.958 496.681 715.671 497.094C690.986 497.465 672.805 488.031 661.26 476.591C665.276 480.571 667.12 486.36 670.279 490.973C675.644 498.706 682.721 505.095 690.958 509.645C699.195 514.194 708.371 516.781 717.77 517.205C738.679 518.68 756.651 518.971 770.751 536.64C786.027 555.786 792.588 581.379 798.021 604.787Z" fill="url(#paint3_linear)"/>
<defs>
<linearGradient id="paint0_linear" x1="653.109" y1="222.773" x2="829.458" y2="304.754" gradientUnits="userSpaceOnUse">
<stop stop-color="white"/>
<stop offset="0.236" stop-color="#FCFCFC"/>
<stop offset="0.373" stop-color="#F4F4F4"/>
<stop offset="0.484" stop-color="#E6E6E6"/>
<stop offset="0.582" stop-color="#D2D2D2"/>
<stop offset="0.67" stop-color="#B8B8B8"/>
<stop offset="0.753" stop-color="#989898"/>
<stop offset="0.83" stop-color="#727272"/>
<stop offset="0.904" stop-color="#464646"/>
<stop offset="0.972" stop-color="#161616"/>
<stop offset="1"/>
</linearGradient>
<linearGradient id="paint1_linear" x1="764.66" y1="363.693" x2="878.673" y2="395.364" gradientUnits="userSpaceOnUse">
<stop stop-color="white"/>
<stop offset="0.11" stop-color="#D5D5D5"/>
<stop offset="0.295" stop-color="#959595"/>
<stop offset="0.472" stop-color="#606060"/>
<stop offset="0.636" stop-color="#363636"/>
<stop offset="0.783" stop-color="#181818"/>
<stop offset="0.91" stop-color="#060606"/>
<stop offset="1"/>
</linearGradient>
<linearGradient id="paint2_linear" x1="750.996" y1="596.827" x2="788.134" y2="596.827" gradientUnits="userSpaceOnUse">
<stop stop-color="white"/>
<stop offset="0.11" stop-color="#D5D5D5"/>
<stop offset="0.295" stop-color="#959595"/>
<stop offset="0.472" stop-color="#606060"/>
<stop offset="0.636" stop-color="#363636"/>
<stop offset="0.783" stop-color="#181818"/>
<stop offset="0.91" stop-color="#060606"/>
<stop offset="1"/>
</linearGradient>
<linearGradient id="paint3_linear" x1="661.26" y1="540.691" x2="801.208" y2="540.691" gradientUnits="userSpaceOnUse">
<stop stop-color="white"/>
<stop offset="0.11" stop-color="#D5D5D5"/>
<stop offset="0.295" stop-color="#959595"/>
<stop offset="0.472" stop-color="#606060"/>
<stop offset="0.636" stop-color="#363636"/>
<stop offset="0.783" stop-color="#181818"/>
<stop offset="0.91" stop-color="#060606"/>
<stop offset="1"/>
</linearGradient>
</defs>
</svg>
