<svg width="84" height="72" viewBox="0 0 84 72" fill="none" xmlns="http://www.w3.org/2000/svg">
<path d="M23.3969 10.8837L29.1611 28.4648H37.2128L45.4213 1.24548H37.4807L33.0562 17.4049L27.8802 1.24548H19.2926L14.0642 17.3462L9.63976 1.24548H1.21558L9.53519 28.4648H17.7437L23.3969 10.8837Z" fill="#003D4C"/>
<path d="M82.7908 52.3517C82.7908 47.35 81.438 43.4439 78.7389 40.6332C76.0397 37.8226 72.3341 36.4141 67.6286 36.4141C63.5309 36.4141 59.9887 37.9335 57.0085 40.9789C54.0218 44.0242 52.5317 47.963 52.5317 52.7952C52.5317 57.836 54.061 61.8596 57.1327 64.8593C60.1978 67.859 63.9165 69.3589 68.3018 69.3589C71.9551 69.3589 74.9941 68.4329 77.4318 66.5744C79.863 64.7224 81.4707 62.3552 82.2419 59.4794L74.5104 57.2296C73.5759 59.9358 71.5499 61.2922 68.4194 61.2922C66.596 61.2922 65.0079 60.7184 63.6681 59.5772C62.3284 58.4295 61.616 57.0078 61.5376 55.2928H82.6079C82.7255 54.908 82.7908 53.9299 82.7908 52.3517ZM61.7271 49.1629C61.8513 47.8326 62.4395 46.6197 63.4917 45.5371C64.5439 44.4481 65.9686 43.9134 67.7528 43.9134C69.7396 43.9134 71.2362 44.4351 72.2296 45.4785C73.2229 46.5218 73.7589 47.7478 73.8438 49.1694H61.7271V49.1629Z" fill="#003D4C"/>
<path d="M52.6168 27.154C52.4731 27.0888 52.375 27.0497 52.3424 27.0366C52.4273 26.7888 52.4861 26.5867 52.5515 26.3845C52.5319 26.378 52.5123 26.3649 52.4927 26.3584C52.545 26.2997 52.5972 26.241 52.6495 26.1889C52.6038 26.1302 52.5646 26.078 52.5253 26.0258C52.5515 26.0324 52.5776 26.0324 52.6038 26.0389C52.741 25.7259 52.8783 25.4194 53.0155 25.1129C52.9567 25.0346 52.9175 24.989 52.9044 24.9759C52.9371 24.689 52.9894 24.4412 52.9828 24.1869C52.9763 23.8869 52.8913 23.5804 53.1527 23.313C53.0482 23.3 52.9698 23.2935 52.8652 23.287C52.8783 23.1826 52.8848 23.0978 52.8913 23.0131C52.9894 22.9805 53.0613 22.9544 53.1462 22.9283V22.6088C53.0874 22.5762 53.022 22.5305 52.8913 22.4523C52.9828 22.0414 53.0678 21.6241 53.1724 21.1285C53.1658 21.1024 53.1266 21.0046 53.0874 20.9067C53.1135 20.9002 53.1397 20.8937 53.1724 20.8872C53.1135 20.5546 53.0482 20.222 52.9828 19.8242C52.9894 19.8047 53.0286 19.7199 53.0613 19.6416L53.022 19.6351C53.0155 19.4851 53.0024 19.3286 52.9894 19.1134C52.7933 19.3417 52.7541 19.6025 52.7868 19.8112C52.8521 20.1959 52.7802 20.3264 52.2966 20.535C52.3881 20.0851 52.1202 19.6286 52.4731 19.2373C52.362 18.8787 52.3554 18.5526 52.7541 18.3505C52.6299 18.2657 52.5319 18.207 52.4469 18.1548C52.5842 17.7505 52.741 17.3853 52.8325 17.0071C52.9175 16.681 53.1985 16.3876 53.0482 16.0094C53.0416 15.9963 53.0613 15.9768 53.0743 15.9507C53.1266 15.9181 53.1854 15.8789 53.2377 15.8529C53.2704 15.2659 53.8063 14.8225 53.6298 14.1965C53.9827 13.9226 54.1657 13.5574 54.2115 13.127C54.2376 12.8923 54.3095 12.7683 54.5317 12.7488C54.5252 12.3771 54.8258 12.2271 55.0023 12.0119C54.9435 11.8423 54.8846 11.6858 54.8062 11.4706C54.9565 11.3989 55.1068 11.3207 55.2768 11.2359C55.3487 11.4641 55.4075 11.6467 55.4663 11.8228C55.3748 11.9402 55.2964 12.0445 55.2245 12.1358C55.2506 12.2401 55.2637 12.338 55.2898 12.4358C55.1983 12.514 55.1264 12.5727 55.035 12.651C55.0807 12.8336 55.133 13.0227 55.1787 13.2053C55.1591 13.2053 55.1461 13.2053 55.1264 13.2053V13.8052C55.0088 14.0726 54.9173 14.2813 54.8258 14.4899C54.8585 14.4965 54.8977 14.503 54.9369 14.503C54.95 14.6204 55.0023 14.7508 54.9827 14.8682C54.9369 15.1616 54.865 15.4485 54.7931 15.7355C54.767 15.8398 54.7474 15.9507 54.682 16.0354C54.4141 16.3876 54.4206 16.8245 54.2703 17.294C54.2507 17.3592 54.1984 17.4831 54.1919 17.6201C54.1723 18.0244 54.3422 18.4352 54.1461 18.833C54.1396 18.8461 54.1657 18.8721 54.1853 18.9243C54.2246 18.833 54.2572 18.7678 54.2965 18.6896C54.4402 18.7613 54.5709 18.8265 54.6494 18.8656C54.7278 18.5917 54.7866 18.3635 54.8389 18.1939C54.7082 18.0179 54.6102 17.894 54.5056 17.757C54.6951 17.1049 54.8846 16.4658 55.0872 15.7811C55.2376 15.8268 55.3813 15.8724 55.5186 15.9115C55.5316 15.8855 55.5382 15.8529 55.5513 15.8268C55.3813 15.742 55.2114 15.6572 55.0023 15.5529C55.1722 15.3246 55.3356 15.1094 55.4859 14.9073C55.6754 15.0703 55.8257 15.2073 56.0022 15.3572C55.9434 15.4877 55.8715 15.6246 55.8061 15.7616L55.9107 15.8268C56.0872 15.6246 56.2571 15.4159 56.4793 15.1551C56.1852 15.129 55.9891 15.116 55.7669 15.0964C55.7735 15.0181 55.7473 14.8877 55.7931 14.8551C55.9434 14.7377 56.1133 14.653 56.2113 14.5943C56.2113 14.3269 56.1721 14.0791 56.2244 13.8574C56.329 13.427 56.3028 13.0227 56.1002 12.6184C56.1721 12.5075 56.244 12.3901 56.3224 12.2727C56.2702 12.2075 56.2179 12.1423 56.159 12.0706C56.2048 11.9532 56.244 11.8489 56.3028 11.6989C56.4335 11.7119 56.5708 11.725 56.695 11.738C56.7211 12.0054 56.7407 12.2467 56.7603 12.514C56.7211 12.5532 56.6492 12.6184 56.5839 12.6836C56.8387 12.9705 56.8322 12.9966 56.5969 13.3226C56.5381 13.4074 56.5316 13.5248 56.4989 13.6161C56.5969 13.7139 56.6819 13.7922 56.8257 13.9356C56.9237 13.5509 57.0087 13.2118 57.0936 12.8923C57.0413 12.801 56.9956 12.7227 56.9433 12.6444C57.0217 12.4814 57.1002 12.3314 57.1786 12.1684C56.9956 11.8097 57.3224 11.5554 57.4269 11.2359C57.1002 11.2554 56.8126 11.275 56.512 11.2946C56.4009 11.125 56.4924 11.0076 56.5839 10.8772C56.7146 10.6946 56.9564 10.4794 56.9237 10.3099C56.8779 10.0164 57.0152 9.84687 57.1328 9.64472C57.2243 9.48821 57.342 9.35127 57.4335 9.22737C57.3812 9.16215 57.342 9.11651 57.2701 9.02521C57.3942 9.01217 57.4727 9.00565 57.5903 8.9926C57.6034 9.2078 57.6165 9.38387 57.6295 9.57951H57.8975C57.7602 9.81427 57.6426 10.0229 57.525 10.2251C57.538 10.2381 57.5511 10.2447 57.5642 10.2577C57.6818 10.1534 57.7994 10.0556 57.9302 9.93817C58.0151 10.0034 58.087 10.0556 58.1654 10.1142C57.9824 10.2903 57.8256 10.4403 57.708 10.5642C57.7733 10.7403 57.806 10.8446 57.8517 10.962C57.9171 10.9229 57.9824 10.8837 58.0413 10.8511C58.0674 10.7077 58.087 10.5838 58.1066 10.4533C58.2961 10.3164 58.4857 10.186 58.7144 10.0229C58.7209 9.87948 58.734 9.6708 58.7471 9.44908C58.453 9.38387 58.2046 9.3317 57.9236 9.27301C58.0478 9.13607 58.1328 9.04477 58.2112 8.96C58.172 8.86218 58.1393 8.79045 58.087 8.66655C58.27 8.58829 58.4465 8.51004 58.5968 8.44483C58.8974 8.62742 59.4072 8.46439 59.3353 9.07738C59.368 9.07086 59.4006 9.07086 59.4333 9.07086C59.466 8.90783 59.5052 8.7448 59.5379 8.56873C59.9039 8.60786 60.198 8.80349 60.5182 8.92087C61.3743 9.23389 61.9102 9.95773 62.5899 10.499C62.7925 10.662 62.9167 10.9229 63.0735 11.1381C63.348 11.5032 63.6225 11.8684 63.897 12.2401C63.9297 12.2793 63.9689 12.3249 63.9885 12.3706C64.1584 12.7423 64.3153 13.114 64.4852 13.4987C64.6747 13.577 64.8773 13.6552 65.1257 13.7465C64.9884 13.8574 64.9231 13.9161 64.8447 13.9748C64.8643 14.0595 64.8839 14.1443 64.91 14.216C65.2172 14.1443 65.2433 13.903 65.2695 13.6422C65.4394 13.7335 65.5047 13.8378 65.4524 14.04C65.4132 14.19 65.4459 14.3595 65.4459 14.516C65.5962 14.3986 65.7008 14.3139 65.8184 14.2291C66.0406 14.666 66.2367 15.0247 66.4132 15.3964C66.6354 15.8855 66.8576 16.3811 67.0406 16.8897C67.3412 17.6918 67.6222 18.5004 67.8967 19.3091C67.9555 19.4786 67.9686 19.6416 68.1908 19.6742C68.2627 19.6873 68.3607 19.8308 68.3672 19.922C68.3738 20.1046 68.3346 20.3003 68.3084 20.509C68.7921 21.4284 69.2887 22.3805 69.7854 23.3326C69.7854 23.3326 69.792 23.3261 69.792 23.3196C69.8704 23.45 69.9423 23.5739 70.0207 23.6978C70.0273 23.7826 70.073 23.8282 70.1188 23.8869C70.4978 24.4347 70.805 25.0281 71.3017 25.4911C71.4781 25.6607 71.5696 25.9345 71.7003 26.1563C71.6742 26.1758 71.6546 26.1954 71.6284 26.215C71.7395 26.2802 71.8572 26.3454 71.9944 26.4236C72.001 26.541 72.0075 26.678 72.014 26.8149C72.099 26.9323 72.1578 27.1214 72.2624 27.1605C72.5369 27.2649 72.465 27.4018 72.3473 27.5844C72.7068 27.8387 73.0597 28.093 73.4322 28.3539C73.3407 28.4648 73.2884 28.5365 73.2492 28.5887C73.4191 28.6865 73.5891 28.7778 73.7525 28.8691C73.942 29.143 73.857 29.3581 73.6021 29.5342C73.6479 29.632 73.6871 29.7103 73.7394 29.8277C73.8636 29.619 73.9681 29.4494 74.0662 29.2799L74.1119 29.3516C74.223 29.3712 74.3406 29.3973 74.4583 29.4168C74.4779 29.4755 74.4975 29.5407 74.5171 29.632C74.5825 29.606 74.6347 29.5929 74.7589 29.5473C74.5171 29.3516 74.321 29.1951 74.1511 29.0582C74.3472 28.843 74.5106 28.6669 74.687 28.4778C74.7654 28.5039 74.8504 28.53 74.9484 28.5691C75.1772 28.4713 75.419 28.3865 75.4974 28.8169C75.8438 28.556 76.334 28.7908 76.615 28.3604C76.5366 28.1974 76.4647 28.0409 76.3862 27.8778C76.3993 27.8778 76.4058 27.8778 76.4189 27.8713C76.3862 27.5974 76.347 27.3236 76.3143 27.0366C76.4451 27.0171 76.5104 27.0105 76.5562 27.004C76.6411 26.7432 76.7261 26.5019 76.811 26.2541C76.8241 26.2606 76.8372 26.2671 76.8503 26.2736C76.8633 26.1497 76.8699 26.0258 76.8829 25.8954H77.5038C77.5038 25.915 77.5038 25.928 77.4973 25.9411C77.6803 25.9541 77.8567 25.9737 78.0397 25.9867C78.0462 25.9606 78.0462 25.928 78.0462 25.8954C77.9417 25.8889 77.8371 25.8824 77.726 25.8759C77.7456 25.8563 77.7652 25.8367 77.7783 25.8106C77.5953 25.6737 77.4123 25.5302 77.1966 25.3672C77.3535 25.2563 77.4515 25.1911 77.5561 25.1194C77.6476 25.1977 77.7129 25.2498 77.7718 25.302C77.8567 25.2629 77.9286 25.2303 77.9874 25.2042C78.0854 25.302 78.1704 25.3802 78.288 25.5042C78.3338 25.302 78.3599 25.1716 78.3926 25.0477C78.824 25.0672 78.9743 25.3411 78.8174 25.8237C78.9285 25.8106 79.0331 25.8041 79.1507 25.7911C79.1769 25.8628 79.1965 25.928 79.2422 26.078C79.288 25.7846 79.3207 25.5694 79.3599 25.3085C79.3403 25.2629 79.2945 25.1585 79.2357 25.0151C79.3272 24.9629 79.3991 24.9107 79.484 24.8586C79.1834 24.6955 79.3795 24.5651 79.4514 24.4216C79.4056 24.3825 79.3599 24.3434 79.301 24.2912C79.4187 24.0369 79.5363 23.7956 79.654 23.5478C79.5951 23.4109 79.5167 23.2478 79.4318 23.0587C79.3991 23.0392 79.3403 23.0065 79.2814 22.9739C79.2945 22.8957 79.301 22.837 79.3076 22.7783C79.2488 22.7392 79.1965 22.7001 79.1377 22.6675C79.1703 22.5762 79.203 22.5044 79.2292 22.4392C79.1573 22.3088 79.0854 22.1914 79.02 22.074C79.0658 21.9371 79.0854 21.7936 79.0266 21.7023C78.9089 21.5263 78.739 21.3958 78.6017 21.2328C78.4841 21.0893 78.3926 20.9328 78.3403 20.8546C78.1835 20.5872 78.0789 20.4111 77.9743 20.2285C77.8829 20.0655 77.7979 19.896 77.7129 19.7329C77.6868 19.746 77.6672 19.7525 77.6476 19.7655C77.6606 19.6742 77.6803 19.5829 77.6933 19.459C77.5626 19.3417 77.4319 19.2178 77.3273 19.1199C77.3208 18.5004 76.9025 18.0831 76.7914 17.6331C76.6477 17.4636 76.53 17.3788 76.4712 17.2549C76.3339 16.9745 76.2359 16.668 76.1052 16.3876C75.981 16.1072 75.8242 15.8398 75.6543 15.5072C75.5693 15.4616 75.4255 15.3833 75.2687 15.292C75.3079 15.1812 75.3471 15.0899 75.4059 14.9464C75.2099 14.6595 75.0073 14.3465 74.7916 14.04C74.674 13.8704 74.5628 13.6617 74.3995 13.5705C73.8766 13.264 73.7002 12.7749 73.6087 12.1749C73.5368 12.1097 73.4191 12.0119 73.3407 11.9467C73.1708 11.4706 72.7721 11.1968 72.6284 10.7403C72.5369 10.4533 72.2428 10.2381 72.001 9.93817V8.9926C71.9748 8.99912 71.9552 9.00565 71.9291 9.01217C71.8441 8.71219 71.7591 8.41222 71.6807 8.11877C71.6023 8.00139 71.4454 7.86445 71.465 7.76011C71.4912 7.62316 71.648 7.5123 71.7853 7.36232C71.6154 7.08843 71.4389 6.8015 71.2625 6.51457C71.2102 6.42979 71.1187 6.36458 71.0991 6.27328C70.9945 5.82985 70.6481 5.59509 70.3475 5.33424C70.1188 5.13861 69.8377 5.02122 69.5371 4.84515C69.6547 4.73429 69.7462 4.643 69.8769 4.51257C69.7397 4.29738 69.5306 4.0887 69.4587 3.83438C69.341 3.37137 68.8901 3.27356 68.6417 2.96054C68.5241 2.81056 68.3673 2.6997 68.2235 2.56927C68.2431 2.54319 68.2627 2.5171 68.2823 2.4845C68.1516 2.43233 68.0209 2.37364 67.8902 2.33451C67.7464 2.28886 67.5961 2.2693 67.4523 2.23017C67.1713 2.1454 66.8968 2.04758 66.6092 1.95628C66.5373 2.23669 66.4066 2.30191 66.2106 2.27582C65.9557 2.23669 65.6877 2.23017 65.4394 2.17148C65.2302 2.12583 65.0211 2.0541 64.8381 1.94324C64.6551 1.8389 64.4983 1.67588 64.3218 1.54545C64.0408 1.3433 63.7467 1.14766 63.3872 0.899859C63.2108 0.867253 62.8775 1.10201 62.6945 0.769436C62.5115 0.710746 62.3546 0.665098 62.1586 0.599886C62.0279 0.645534 61.8449 0.769436 61.675 0.762915C61.322 0.743351 60.9691 0.652055 60.6097 0.606407C60.3352 0.573802 60.0542 0.56728 59.7797 0.547717C59.7797 0.541196 59.7797 0.534675 59.7797 0.528154C59.5379 0.502069 59.3026 0.482505 59.0412 0.456421C58.9301 0.952028 58.6033 0.997676 58.2243 0.997676C57.9759 0.997676 57.721 1.06941 57.4661 1.11506C57.2243 1.1607 56.9891 1.25852 56.7472 1.252C56.3878 1.24548 56.1721 1.46068 55.9368 1.65631C56.0283 1.77369 56.1002 1.85847 56.1656 1.93672C56.1198 2.07367 56.0741 2.18453 56.0545 2.26278C55.5317 2.4845 54.9631 2.4845 54.5644 2.91489C54.6232 3.01923 54.669 3.10401 54.7082 3.17574C54.6624 3.31268 54.6298 3.43006 54.584 3.56701C54.7016 3.61918 54.7997 3.6583 54.8977 3.70395C54.9042 3.77569 54.9042 3.84742 54.9173 3.99088C55.3094 3.27356 55.8388 2.96706 56.6035 3.10401C56.6296 3.49528 56.2375 3.39746 56.061 3.56701C56.1656 3.95176 55.7342 3.88654 55.6166 4.10174C55.6689 4.2126 55.7212 4.32346 55.7931 4.48649C55.2898 4.80603 54.7997 5.106 54.3161 5.41249C54.3487 5.94723 53.7344 5.95375 53.5579 6.31893C53.5318 6.36458 53.4468 6.37762 53.388 6.40371C53.3684 6.37762 53.3553 6.35806 53.3357 6.33198C53.4142 6.23416 53.4991 6.13634 53.5972 6.01896C53.5841 5.96679 53.5776 5.88854 53.5579 5.79072C53.656 5.73203 53.7409 5.67986 53.7998 5.64073C53.8259 5.47771 53.8455 5.34728 53.8782 5.14513C53.4861 5.54944 53.0482 5.81028 52.7541 6.25372C52.4665 6.69064 52.1136 7.08843 51.7868 7.49926C51.911 7.59708 52.0352 7.6949 52.192 7.8188C52.1005 8.06008 52.009 8.29484 51.8979 8.57525C51.8979 8.58177 51.911 8.6535 51.9306 8.71872C51.8457 8.81653 51.7607 8.90131 51.7084 9.00565C51.6496 9.10346 51.5712 9.23389 51.5973 9.32518C51.6823 9.61863 51.532 9.80775 51.3816 10.0229C51.1921 10.2968 51.0418 10.5968 50.8457 10.8577C50.702 11.0402 50.6235 11.3272 50.2902 11.3467C50.3817 11.9271 50.0353 12.3445 49.8066 12.7423C49.14 13.9813 48.5061 15.1747 47.8656 16.3615C47.5257 17.0462 47.5061 17.8809 47.0225 18.4287C46.8591 18.4157 46.7742 18.4091 46.6827 18.4026C46.8853 18.533 46.9245 18.6961 46.8657 18.8852C46.7742 19.1526 46.6696 19.4134 46.5585 19.6742C46.1664 20.6394 45.7742 21.6045 45.3821 22.5696C45.356 22.6218 45.3102 22.6675 45.2645 22.7261C45.1991 22.6609 45.1534 22.6218 45.0815 22.5501C45.3429 22.3479 45.4083 22.0936 45.2971 21.8197C45.4017 21.7023 45.4867 21.6045 45.5455 21.5393C45.539 21.3828 45.5324 21.2524 45.5259 21.1415C45.4083 21.0241 45.2972 20.9133 45.1861 20.8089C45.1599 20.822 45.1338 20.8285 45.1076 20.8415C45.1468 20.972 45.186 21.0959 45.2318 21.2393C45.1272 21.2263 45.0227 21.2132 44.99 21.2067C44.8854 21.4936 44.807 21.7284 44.7155 21.9827C44.7416 22.0349 44.7743 22.1066 44.8201 22.1914C44.7547 22.2957 44.6959 22.4066 44.6109 22.5501C44.6501 22.7066 44.6959 22.8892 44.7547 23.1174C44.709 23.2413 44.6371 23.4239 44.5652 23.613C44.7351 23.6587 44.8593 23.6978 45.0227 23.7434C44.9835 23.8543 44.9508 23.926 44.9181 24.0108C44.8723 24.1412 44.7416 24.3173 44.7874 24.4021C45.0096 24.839 44.6501 25.0868 44.5129 25.4781C44.6763 25.8106 44.4018 26.065 44.1861 26.3323C44.2253 26.4106 44.2515 26.4758 44.2842 26.5475C44.0685 26.8084 44.1731 27.2518 43.7875 27.4018C44.0554 27.9235 43.8005 28.6995 43.428 29.0582C43.4019 29.1756 43.3823 29.2864 43.3561 29.3908C43.33 29.3973 43.3038 29.3973 43.2777 29.3973C43.2385 29.319 43.1993 29.2408 43.1666 29.1625C43.2516 29.0908 43.3038 29.0451 43.33 29.0191C43.2973 28.8039 43.2777 28.6278 43.245 28.3995C42.9117 28.6539 42.781 28.3017 42.5849 28.1452C42.5653 28.1648 42.5392 28.1843 42.5196 28.2039C42.6111 28.3865 42.7026 28.5756 42.8137 28.7973C42.7941 28.8495 42.7614 28.9408 42.7353 29.006C42.5392 28.9734 42.3693 28.9408 42.1863 28.9082C42.0882 29.3777 42.2647 29.6973 42.5784 29.9646C42.6634 29.9842 42.7418 30.0103 42.8333 30.0298C42.9313 29.7951 43.0359 29.5864 43.3757 29.6451C43.2973 29.8864 43.232 30.1081 43.1601 30.3298C43.0228 30.7732 42.9117 31.2297 42.7287 31.6536C42.5849 31.9927 42.4542 32.3253 42.4412 32.697C42.4346 32.8339 42.4281 32.9643 42.3954 33.0948C42.3105 33.4991 42.0752 33.8773 42.2386 34.3207C42.2059 34.3142 42.1797 34.3077 42.1536 34.3012C42.1013 34.4903 42.049 34.6859 42.0033 34.875C41.9118 35.0511 41.866 35.2272 41.8203 35.4098C41.7876 35.5467 41.768 35.6902 41.7288 35.8271C41.6634 36.0945 41.5785 36.3553 41.5197 36.6227C41.4347 36.9814 41.3694 37.3466 41.2975 37.6987C40.9511 37.803 40.8727 38.0508 40.8008 38.3378C40.7223 38.6638 40.6047 38.9768 40.474 39.2833C40.4348 39.3681 40.3237 39.4268 40.2453 39.492C40.2583 39.3942 40.2714 39.2899 40.291 39.1594C40.5001 38.9768 40.4609 38.7356 40.3302 38.4943C40.2322 38.4617 40.1342 38.4291 40.0296 38.3899C40.0557 38.2726 40.0753 38.1813 40.0949 38.0965C40.1668 38.0769 40.2322 38.0639 40.3041 38.0443C40.206 37.9139 40.1276 37.803 40.0557 37.6987C40.0688 37.6987 40.0884 37.6987 40.1015 37.6922V37.0661C40.2191 36.9618 40.3041 36.8836 40.389 36.8053C40.376 36.7857 40.3629 36.7727 40.3498 36.7531C40.2714 36.7597 40.1995 36.7597 40.0884 36.7662C39.8858 37.3335 39.6832 37.9009 39.4806 38.4682C39.5068 38.4747 39.5329 38.4812 39.559 38.4878C39.4871 38.8399 39.4218 39.192 39.3434 39.5442C39.2649 39.9094 39.18 40.2746 39.095 40.6593C39.1734 40.6137 39.2453 40.568 39.363 40.4897C39.4153 40.6006 39.4545 40.7049 39.5068 40.7962C39.559 40.8745 39.6179 40.9593 39.6897 41.0114C39.7355 41.044 39.8205 41.031 39.9512 41.044C39.8401 41.6701 39.5786 42.2179 39.4022 42.7852H39.0166C38.9578 42.557 38.8924 42.3287 38.8271 42.0809C38.7944 42.0679 38.7225 42.0548 38.6506 42.0353C38.6245 42.12 38.6049 42.1918 38.5591 42.3287C38.4415 42.2113 38.3434 42.12 38.2519 42.0287C38.2258 42.0353 38.2062 42.0418 38.1866 42.0483C38.2912 42.4526 38.3957 42.8569 38.5068 43.2873C38.5591 43.3004 38.6571 43.3199 38.7486 43.3395L38.8859 43.6134C38.7748 43.9199 38.6637 44.2003 38.5591 44.4872C38.3827 44.4024 38.2977 44.0373 38.3827 43.8286C38.4611 43.646 38.3434 43.3917 38.1866 43.3525C38.1735 43.5677 38.167 43.7829 38.1539 44.0112C38.0886 44.0633 38.0232 44.1155 37.9448 44.1807C38.0559 44.5198 38.069 44.8459 37.9317 45.1915C37.801 45.5176 37.8598 45.9414 37.4677 46.1371C37.4481 46.1501 37.4416 46.1827 37.435 46.2088C37.3501 46.3914 37.2586 46.574 37.1932 46.7631C37.0429 47.2065 36.9122 47.6434 36.7749 48.0934C36.6573 48.4847 36.5593 48.8825 36.4351 49.2737C36.3044 49.7041 36.1541 50.1345 36.0038 50.5649C35.9645 50.6823 35.8927 50.7932 35.8338 50.904C35.7619 51.0344 35.677 51.1518 35.6247 51.2888C35.5267 51.5366 35.4548 51.7909 35.3306 52.1691C35.4025 52.5213 34.8404 53.6429 34.4156 53.8451C34.1477 54.5428 33.8863 55.2145 33.6249 55.8731C33.4745 55.834 33.4027 55.8079 33.2915 55.7753C33.2785 55.9123 33.2915 56.0492 33.2458 56.147C33.1935 56.2579 33.0889 56.3427 32.9909 56.46C33.0236 56.6883 31.5139 59.9619 31.2982 60.0336C31.527 59.6098 31.2198 59.362 31.0172 59.0685C31.063 59.0033 31.1022 58.9381 31.1741 58.8272C31.076 58.6577 30.9192 58.5012 30.88 58.3055C30.8146 58.0056 30.5075 57.7773 30.6447 57.4252C30.6643 57.373 30.5989 57.2817 30.5597 57.21C30.5205 57.1382 30.4421 57.073 30.4356 57.0013C30.4029 56.7209 30.3833 56.434 30.3637 56.1731C30.2526 56.0427 30.148 55.9318 30.0369 55.8079C30.233 55.4949 29.6448 55.2536 29.9912 54.9602C29.8931 54.8558 29.8147 54.7645 29.7428 54.6863C29.9389 54.4124 29.8866 54.0146 29.5467 53.7668C29.7428 53.4277 29.4356 52.8669 28.9782 52.6452V52.28C28.8082 52.1104 28.6383 51.9474 28.4619 51.7779C28.4619 51.7518 28.4749 51.7192 28.4684 51.6931C28.4292 51.4388 28.6252 51.204 28.4619 50.9171C28.3377 50.7019 28.3312 50.4215 28.2658 50.1671C28.2789 50.1606 28.2854 50.1606 28.2919 50.1606C28.2266 49.9389 28.1612 49.7172 28.0959 49.4955C27.9456 49.2085 27.6319 48.9738 27.56 48.6673C27.4685 48.276 26.9849 48.2564 26.9652 47.8456C27.0371 47.8195 27.1025 47.8065 27.1156 47.8C27.0437 47.7217 26.9522 47.6369 26.8541 47.5391C26.9718 47.4413 27.0306 47.3956 27.1025 47.3435C26.8803 46.9457 26.5862 46.5609 26.8607 46.0523C26.7365 45.9675 26.6254 45.9023 26.5274 45.8175C26.4359 45.7393 26.3248 45.648 26.2921 45.5371C26.2137 45.2698 26.1745 44.9959 26.1352 44.722C26.1156 44.6046 26.1287 44.4807 26.1287 44.3568L26.096 44.3764C26.0307 44.2133 25.9588 44.0568 25.8934 43.8938C25.9065 43.8873 25.9196 43.8807 25.9326 43.8807C25.7758 43.5612 25.6189 43.2417 25.4294 42.8439C25.436 42.6809 25.3248 42.4787 25.1222 42.3092C25.0438 42.2439 24.9981 42.1331 24.9589 42.0418C24.8347 41.7418 24.7171 41.4353 24.6125 41.1288C24.5406 40.9267 24.4883 40.718 24.4295 40.5158C24.4556 40.5093 24.4818 40.4963 24.5079 40.4897C24.3707 40.1376 24.2269 39.7855 24.0897 39.4268C23.9589 39.0812 23.7694 38.7486 23.7041 38.3965C23.6256 37.9595 23.3511 37.7052 23.0701 37.4379C22.9394 37.3139 22.8218 37.177 22.6976 37.0531C22.5342 36.9096 22.3578 36.7727 22.1617 36.6684C22.0375 36.5966 21.8807 36.5249 21.75 36.5445C21.3317 36.5966 20.8873 36.3162 20.8415 35.8858C20.8089 35.6511 20.7108 35.5728 20.5148 35.5793C20.2599 35.5924 20.005 35.6185 19.7632 35.6315C19.6978 36.0489 19.5998 36.1206 19.2404 36.0293C19.1946 35.9706 19.1489 35.9054 19.1358 35.8858C18.9528 35.8402 18.8156 35.801 18.6914 35.775V35.3772C16.9726 35.2989 15.306 35.5402 13.6199 35.8923C13.5872 35.9315 13.5218 36.0032 13.463 36.0684C13.0121 36.0228 12.3781 36.3423 12.3389 36.6227C12.3716 36.6749 12.3978 36.727 12.4239 36.7792C12.2736 37.0988 12.2801 37.3205 12.5677 37.5357C13.1624 37.9791 13.2604 38.6443 13.4107 39.2964C13.5088 39.7007 13.5415 40.1115 13.6395 40.5158C13.7114 40.7962 13.8421 41.0636 13.9401 41.3179C13.829 41.4744 13.7506 41.5918 13.6722 41.7092C13.829 41.794 13.9532 41.8592 14.1296 41.957C13.9859 42.0679 13.8813 42.1461 13.7833 42.2244C14.0774 42.407 14.11 42.5113 13.9663 42.8308C14.0643 42.8895 14.1558 42.9547 14.2865 43.033C14.3845 43.2417 14.5479 43.4895 14.1558 43.6851C14.561 43.7895 14.6917 44.0112 14.5479 44.272C14.4172 44.5068 14.28 44.735 14.1362 44.9698C14.2473 45.035 14.3911 45.1132 14.561 45.2111V45.8241C14.6329 45.7719 14.6982 45.7197 14.8093 45.6284C14.8224 45.7523 14.8616 45.8501 14.8289 45.8958C14.757 46.0001 14.6459 46.0718 14.5675 46.1436C14.7701 46.2479 15.0054 46.3653 15.2864 46.5088C15.1296 46.6392 15.0446 46.7174 15.0054 46.7501C15.0381 47.0305 15.0577 47.2587 15.0773 47.4152C15.2537 47.4935 15.4302 47.513 15.4825 47.6108C15.5936 47.826 15.6459 48.0673 15.7374 48.3608C16.0772 48.6542 15.7178 49.1107 15.8942 49.5085C15.9661 49.5998 16.0641 49.7237 16.2014 49.8998C16.0837 49.9911 15.9661 50.0758 15.8419 50.1737C15.8615 50.2584 15.8877 50.3823 15.9138 50.4932C16.0184 50.4345 16.123 50.3758 16.2733 50.291C16.3909 50.6823 16.4955 51.0279 16.6 51.3735H16.5804C16.6589 51.667 16.7373 51.967 16.8288 52.293C16.8026 52.3517 16.7634 52.4561 16.7177 52.58C16.7896 52.6778 16.868 52.7691 16.953 52.8799C16.9333 52.9517 16.9137 53.0234 16.8941 53.1212C17.3974 53.3495 16.9399 53.7277 17.0248 54.0342H17.2667C17.3124 54.1776 17.3516 54.3211 17.3974 54.4711C17.3778 54.5298 17.3516 54.6015 17.3451 54.608C17.4366 54.7971 17.5019 54.9341 17.5673 55.0645C17.7699 55.4884 17.7176 56.0362 18.1489 56.3557C18.1685 56.3687 18.162 56.4209 18.162 56.4209C18.0574 56.6166 17.9725 56.7731 17.881 56.9296C17.9071 57.0339 17.9267 57.1382 17.9398 57.1904C18.0509 57.2035 18.1424 57.21 18.2208 57.2165C18.2862 57.5491 18.345 57.8295 18.3973 58.1164C18.4496 58.1816 18.5215 58.2664 18.5999 58.3642C18.4757 58.436 18.4169 58.4686 18.3319 58.5207C18.3973 58.599 18.443 58.6577 18.4626 58.6838V59.0229C18.5933 59.0424 18.6848 59.0489 18.7502 59.0555V59.6554C18.809 59.7076 18.8744 59.7597 18.9463 59.8184C18.907 59.8967 18.8744 59.9619 18.8417 60.0271C19.0639 60.1967 19.2077 60.3923 19.0966 60.6597C19.1619 60.7705 19.2142 60.8553 19.2665 60.9401C19.3057 61.0183 19.3319 61.1227 19.3972 61.1683C19.6259 61.3313 19.6259 61.5074 19.4887 61.7291C19.4626 61.7748 19.4691 61.84 19.4626 61.9052C19.5671 61.8856 19.6521 61.8661 19.7174 61.853C19.92 62.3356 20.1161 62.7986 20.3122 63.2616C20.2468 63.3007 20.1945 63.3333 20.1292 63.3725C20.1488 63.5485 20.1619 63.7181 20.1815 63.9463C20.286 63.8094 20.3448 63.7311 20.4298 63.6203C20.5605 63.8615 20.6782 64.0637 20.835 64.3441C20.9265 64.1159 20.9919 63.9528 21.0507 63.7963C21.0833 63.8029 21.116 63.8029 21.1487 63.8094C21.2533 63.9594 21.3644 64.0963 21.4493 64.2593C21.5474 64.4419 21.5343 64.6115 21.2925 64.7028C21.384 64.7223 21.4624 64.7354 21.5147 64.7484C21.6127 65.2701 21.1683 65.3679 20.9134 65.5962C20.9592 65.7136 20.9984 65.8048 21.0376 65.9027C21.1356 65.7918 21.2141 65.7005 21.3317 65.5766C21.4885 65.7788 21.6193 65.9483 21.7565 66.1113C21.7761 66.1048 21.7892 66.0983 21.8088 66.0853C21.7826 65.9614 21.763 65.844 21.7304 65.7136C21.8284 65.6353 21.9199 65.5701 22.0179 65.4984C22.0963 65.5114 22.1748 65.5244 22.312 65.5505C22.2597 65.7331 22.214 65.8896 22.1617 66.1048C22.4493 66.1896 22.7368 66.2809 23.0767 66.3852C22.9329 66.5809 22.8218 66.7243 22.7041 66.8874C22.5538 66.6852 22.4493 66.5417 22.3382 66.3917C22.227 66.4439 22.1356 66.483 21.9852 66.5483C22.2401 66.783 22.4754 66.9982 22.776 67.2721C22.6845 67.3569 22.6257 67.4156 22.593 67.4482C22.3512 67.2851 22.1813 67.1678 22.0114 67.0504C21.9983 67.0699 21.9787 67.0895 21.9656 67.1026C21.9003 66.9656 21.8349 66.8222 21.7696 66.6722C21.7042 66.6917 21.6389 66.7048 21.5604 66.7243C21.6585 66.933 21.7434 67.1417 21.8349 67.3504C21.8545 67.4221 21.8872 67.4808 21.933 67.5395C22.0179 67.6569 22.0898 67.8525 22.1878 67.8655C22.4362 67.9047 22.5211 68.0546 22.5473 68.2894C22.6649 68.2829 22.7695 68.2764 22.8871 68.2698V68.5894C23.0178 68.6676 23.1616 68.7524 23.3054 68.8372C23.2989 68.8372 23.2989 68.8437 23.2923 68.8437C23.5864 69.098 23.8805 69.3523 24.1746 69.6132C24.5014 69.8088 24.9197 69.9458 25.1615 70.2327C25.5209 70.6631 26.0634 70.6957 26.462 71.0218C26.645 71.1718 26.9195 71.2044 27.1548 71.2761C27.6188 71.4196 28.0828 71.5565 28.5795 71.4522C28.6906 71.4261 28.8278 71.413 28.9259 71.4587C29.1677 71.5826 29.3834 71.563 29.5925 71.4261C29.6971 71.4652 29.782 71.5109 29.8801 71.5304C29.9715 71.55 30.0761 71.5369 30.1676 71.5369C30.3506 71.237 30.5663 71.1783 30.9519 71.3217C31.0303 71.1522 31.1087 70.9826 31.1937 70.787C31.4355 70.7218 31.6838 70.6566 31.8734 70.6044C32.0367 70.7087 32.1478 70.774 32.2524 70.8392C32.357 70.7609 32.4289 70.7087 32.4615 70.6892C32.8275 70.5979 33.0563 71.0348 33.3896 70.8261C33.6575 70.6631 33.919 70.487 34.2392 70.2784C34.0497 70.2523 33.919 70.2327 33.8078 70.2131C33.8667 69.9523 33.9124 69.7567 33.9712 69.4828C34.0301 69.4176 34.1477 69.2937 34.2719 69.1698C34.3045 69.1893 34.3307 69.2089 34.3634 69.2219C34.3438 69.3393 34.3241 69.4632 34.2915 69.6393C34.4418 69.5415 34.5594 69.4697 34.6771 69.3915C34.6248 69.2741 34.5856 69.1958 34.5333 69.0785C34.6771 69.0328 34.8078 68.9872 34.9515 68.9415V69.1698C35.1149 69.3002 35.2653 69.4176 35.409 69.5284C35.5528 69.4828 35.6901 69.4306 35.8077 69.3915C35.9384 69.1893 36.056 69.0067 36.1737 68.8241C36.1279 68.7133 36.0691 68.5763 35.9841 68.3937C35.9188 68.3025 35.8142 68.159 35.6966 68.0025C35.8338 67.9047 35.9319 67.8394 36.0691 67.7482C36.1279 67.8786 36.1737 67.9764 36.2456 68.1329C36.2848 67.9829 36.3109 67.8851 36.324 67.8264C36.1802 67.7481 36.0756 67.696 35.9253 67.6177C36.2194 67.409 36.3175 67.0439 36.6573 67.1352C36.8599 66.9134 37.0298 66.7243 37.1736 66.5678V66.1766C37.1213 66.1505 37.056 66.1244 36.9906 66.0983C37.0625 65.8309 37.9905 65.2375 38.2519 65.2701V65.6418C38.1474 65.6483 38.0363 65.6614 37.9317 65.6679C37.984 65.7722 38.0363 65.8766 38.0886 65.9744C37.5134 66.4961 37.6245 66.4178 37.8664 67.3112C37.984 67.2982 38.1082 67.2786 38.2323 67.2656V67.2721C38.3304 67.2525 38.4284 67.233 38.5264 67.2199C38.5264 67.1873 38.5199 67.1547 38.5199 67.1286C38.4545 67.096 38.3892 67.0569 38.3238 67.0178C38.35 66.933 38.3696 66.8613 38.3892 66.8026C38.2846 66.7113 38.1997 66.633 38.1408 66.5874C38.1931 66.4113 38.2323 66.2939 38.2716 66.157C38.533 65.994 38.6702 66.0135 38.8205 66.2613C38.912 66.0005 38.997 65.7462 39.0885 65.4984C39.0558 65.4918 39.0297 65.4918 39.0035 65.4918C38.9578 65.3614 38.912 65.2375 38.8532 65.0875C38.6441 65.094 38.3827 65.2766 38.167 64.9701C38.2389 64.9049 38.3108 64.8397 38.3892 64.768L38.2846 64.5593C38.3892 64.5137 38.4807 64.4745 38.5656 64.4354C38.8663 63.7702 39.1146 63.5355 39.4153 63.6855C39.3303 63.8289 39.2519 63.9659 39.1473 64.1485V64.5332C39.0493 64.618 38.9774 64.6832 38.8597 64.781C38.997 64.8071 39.0754 64.8136 39.1669 64.8267C39.18 64.9701 39.1865 65.1006 39.1996 65.2571C39.2519 65.2636 39.3042 65.2701 39.3564 65.2766C39.363 65.1853 39.3434 65.1071 39.3826 65.0549C39.5721 64.7941 39.7682 64.5332 39.9708 64.2854C40.0949 64.1354 40.2453 64.005 40.3629 63.855C40.4282 63.7702 40.4479 63.6529 40.5067 63.5159C40.5524 63.3333 40.6047 63.1181 40.6505 62.9029C40.755 62.8442 40.8465 62.7856 40.9053 62.7529C40.9445 62.6225 40.9772 62.5182 41.0164 62.3747C41.0099 62.3617 40.9903 62.2965 40.9642 62.2247C41.036 62.1791 41.1145 62.1595 41.1406 62.1074C41.3171 61.7878 41.4543 61.4357 41.6569 61.1357C41.8987 60.7705 41.8726 60.4379 41.5916 59.988C41.7027 59.8771 41.8268 59.7532 41.951 59.6293C42.0948 59.7532 42.1471 59.8054 42.134 59.7989C42.3366 59.7402 42.4934 59.7011 42.6568 59.6554C42.4738 59.3228 42.5392 58.9772 42.7026 58.6316C42.7745 58.4751 42.8006 58.2925 42.8529 58.1229C42.8268 58.0903 42.8006 58.0642 42.7745 58.0382C42.9248 57.9729 43.0816 57.9143 43.232 57.8425C43.3365 57.7904 43.4934 57.7447 43.5391 57.6534C43.7025 57.3274 43.8397 56.9817 43.9705 56.6361C44.0227 56.4926 44.0358 56.3361 44.062 56.1796C44.0097 56.1405 43.9509 56.0949 43.8659 56.0427C44.4149 55.6319 44.5129 54.9602 44.8593 54.4646V54.1842C44.9508 54.0603 45.0423 53.9364 45.0946 53.8711C45.173 53.5386 45.2318 53.2777 45.2971 52.9973C45.2579 52.9517 45.2057 52.8865 45.1338 52.7952C45.1991 52.6908 45.2645 52.58 45.3298 52.4821C45.3102 52.4756 45.2972 52.4691 45.2841 52.4626C45.5978 51.5627 45.9049 50.6627 46.2186 49.7563C46.1794 49.6715 46.1337 49.5737 46.0945 49.4824C46.1598 49.3846 46.2056 49.3129 46.2317 49.2803C46.2579 48.9607 46.2775 48.6934 46.3036 48.3869C46.2905 48.3608 46.2579 48.3021 46.2186 48.2434C46.2383 48.2434 46.2579 48.2434 46.284 48.2499C46.4082 47.7869 46.5323 47.3174 46.6631 46.8544C46.931 46.8022 46.9964 46.6001 46.9964 46.3653C46.9245 46.3197 46.8591 46.2805 46.7872 46.2414C46.8264 46.2284 46.8722 46.2153 46.9114 46.1958C47.0029 45.9023 47.1401 45.6154 47.1663 45.3219C47.212 44.898 47.1794 44.4742 47.1794 44.0242C47.1467 43.9786 47.0879 43.9068 47.016 43.8155C47.0813 43.7568 47.1271 43.7112 47.2316 43.6134C47.2839 43.8025 47.3166 43.9394 47.3689 44.0699C47.4081 44.1677 47.4734 44.259 47.5323 44.3503C47.5584 44.3372 47.5846 44.3177 47.6172 44.3046C47.5257 43.9851 47.4408 43.6721 47.3493 43.346C47.6042 42.9482 47.5257 42.5178 47.4016 42.1135C47.2774 42.0418 47.1663 41.9831 47.0813 41.9374C47.2251 41.7483 47.3362 41.5918 47.4408 41.4614C47.4277 41.2592 47.4146 41.0897 47.4081 40.9201C47.1532 40.7571 47.1401 40.6854 47.3297 40.555C47.5649 40.6723 47.7937 40.7962 48.0355 40.9136C47.9832 40.9919 47.9309 41.0636 47.8852 41.1353C47.9636 41.194 48.0224 41.2397 48.1139 41.2984C48.029 41.3701 47.9701 41.4223 47.9048 41.481C47.8198 41.4353 47.761 41.4027 47.6564 41.344C47.5976 41.4679 47.5453 41.5853 47.4865 41.7092C47.5127 41.7222 47.5323 41.7353 47.5584 41.7418C47.6042 41.6896 47.6564 41.631 47.7414 41.5266C47.8264 41.631 47.8983 41.7092 47.9571 41.794C48.0094 41.8722 48.0355 41.9635 48.0747 42.0418C48.1074 42.0287 48.1335 42.0157 48.1727 42.0027C48.1531 41.8983 48.1335 41.8005 48.1139 41.7288C48.2838 41.5136 48.4472 41.3114 48.5583 41.181C48.6433 40.7702 48.689 40.4376 48.774 40.105C48.8394 39.8572 48.9309 39.6159 49.0354 39.3812C49.1335 39.1529 49.055 38.7421 49.4275 38.8464C49.5517 38.5464 49.6824 38.2986 49.7609 38.0378C49.8393 37.7639 49.8654 37.477 49.9112 37.1966C49.8916 37.1901 49.872 37.19 49.8524 37.1835C49.8916 37.1053 49.9373 37.027 49.9765 36.9553C49.9242 36.9031 49.885 36.8575 49.8458 36.8118C49.9046 36.7466 49.9569 36.6944 49.9896 36.6553C50.0027 36.4532 50.0157 36.264 50.0288 35.9902C50.1007 35.7554 50.1922 35.4293 50.2641 35.1815C50.2902 34.9403 50.3033 34.7707 50.3229 34.5946H50.3425C50.3752 34.4055 50.4079 34.2164 50.4405 34.0273C50.4471 34.0273 50.4536 34.0273 50.4536 34.0273C50.4863 33.8512 50.5059 33.6686 50.5386 33.4795C50.5059 33.4665 50.434 33.4404 50.349 33.4078C50.3883 33.1535 50.4275 32.9252 50.4732 32.6318C50.6889 32.8339 50.8457 32.9709 51.0026 33.1143C51.0876 33.0165 51.1398 32.9513 51.2052 32.8796C51.1594 32.8144 51.1202 32.7557 51.0745 32.6839H51.2771C51.2575 32.56 51.2379 32.4492 51.2117 32.3122C51.3163 32.3579 51.3816 32.3905 51.4731 32.4361C51.5385 32.3383 51.5908 32.2535 51.6104 32.2144C51.5908 31.921 51.5777 31.6992 51.5581 31.4319C51.6169 31.3667 51.7607 31.2754 51.7868 31.158C51.8653 30.7667 51.8979 30.3624 51.9633 29.9646C51.9894 29.7885 52.0287 29.6125 52.0679 29.4364L52.094 29.4429C52.1136 29.2212 52.1267 28.9995 52.1463 28.7386C51.9633 28.4648 52.009 27.9822 52.2705 27.8126C52.2443 27.7474 52.2182 27.6822 52.1855 27.6105C52.2313 27.5257 52.277 27.454 52.2901 27.4279C52.3685 27.3236 52.4796 27.2453 52.6168 27.154ZM61.3613 1.88455C61.0214 1.96281 60.7339 2.0215 60.394 2.09975C60.6489 1.54545 60.8842 1.4998 61.3613 1.88455ZM59.4464 1.23896C59.6098 1.26504 59.7601 1.29113 59.9104 1.31721C59.8058 1.70196 59.4202 1.92368 59.1784 1.74761C59.2568 1.59762 59.3418 1.44111 59.4464 1.23896ZM56.0545 2.70622C56.0414 2.66709 56.0218 2.63448 56.0087 2.59536C56.1394 2.53667 56.2702 2.47798 56.4009 2.41929C56.3813 2.73882 56.1721 2.62144 56.0545 2.70622ZM57.1328 2.17148C57.2962 2.12583 57.4792 2.16496 57.6557 2.16496C57.6557 2.12583 57.6557 2.08671 57.6557 2.0541H57.0936C57.0217 1.72804 57.4465 1.40851 57.9302 1.42807C58.1785 1.27809 58.4203 1.02376 58.7471 1.31721C58.8909 1.85847 58.3027 1.72152 58.0805 1.98889C58.3092 2.04106 58.4661 2.07367 58.6425 2.11279C58.6229 2.23017 58.6098 2.32147 58.5902 2.45841C58.3811 2.44537 58.1785 2.46493 57.989 2.42581C57.7668 2.38016 57.5968 2.39972 57.3877 2.49754C57.1786 2.59536 56.9106 2.54319 56.6688 2.56275C56.6623 2.52362 56.6557 2.49102 56.6492 2.45189C56.7995 2.34755 56.9564 2.21713 57.1328 2.17148ZM23.2531 68.2372H22.959C22.8479 67.9633 22.7303 67.6829 22.6126 67.396C22.6388 67.3764 22.6649 67.3634 22.6911 67.3438C22.8152 67.4351 22.9394 67.5264 23.0636 67.6242C23.0571 67.7221 23.0505 67.8068 23.044 67.8786C23.142 67.9764 23.227 68.0612 23.3185 68.1459C23.2923 68.1851 23.2727 68.2112 23.2531 68.2372ZM26.9848 49.7889C26.8803 49.8346 26.7953 49.8802 26.7038 49.9193C26.6254 49.8085 26.5666 49.7237 26.5078 49.6389C26.7038 49.4433 26.7888 49.4563 26.9848 49.7889ZM26.3836 50.4867C26.5078 50.4084 26.6385 50.3236 26.8019 50.2258C26.8215 50.7606 26.9326 51.2236 26.7953 51.68C26.7626 51.6931 26.73 51.6996 26.6973 51.7126C26.6319 51.5953 26.5274 51.4844 26.5012 51.354C26.4424 51.0736 26.4228 50.7866 26.3836 50.4867ZM26.547 52.3191H26.8999C26.9326 52.58 26.9587 52.8212 26.9914 53.0951C26.4751 53.0038 26.73 52.593 26.547 52.3191ZM27.9063 52.7691C27.8475 52.4691 28.2331 52.117 28.6056 52.1691C28.5599 52.2865 28.5403 52.4104 28.4684 52.5017C28.1808 52.8865 28.1743 52.9517 28.4945 53.3364C28.4096 53.7212 27.9521 53.7016 27.7756 54.0277C27.6907 53.9233 27.6253 53.8451 27.5469 53.7538C27.6123 53.6625 27.6449 53.5842 27.7037 53.532C27.9456 53.3234 27.9586 53.0625 27.9063 52.7691ZM27.3639 49.1498C27.4554 49.202 27.5404 49.2281 27.5404 49.2607C27.5469 49.3455 27.5142 49.4302 27.5011 49.5085C27.4685 49.502 27.4423 49.502 27.4162 49.4955C27.4031 49.4042 27.39 49.3129 27.3639 49.1498ZM27.7234 54.5102C27.7495 54.5298 27.7822 54.5493 27.8083 54.5689L27.6841 55.1623C27.6449 55.1623 27.6057 55.1623 27.573 55.1623C27.5404 54.9863 27.5012 54.7971 27.4619 54.595C27.573 54.5624 27.6515 54.5363 27.7234 54.5102ZM28.7494 58.1555C28.671 58.2403 28.5141 58.2403 28.3965 58.2729C28.207 57.8556 28.0436 57.4904 27.8802 57.1317C27.8606 57.1382 27.8475 57.1448 27.8279 57.1578C27.8148 57.0796 27.8018 56.9948 27.7887 56.9165C27.4358 56.9165 27.3835 56.7013 27.6188 56.2514C27.4619 55.8862 27.5861 55.5797 27.8606 55.2993C27.8867 55.1428 27.9063 54.9928 27.939 54.7906C28.1155 54.9993 28.2527 55.1623 28.4161 55.3514C28.4161 55.4036 28.4226 55.5014 28.4292 55.5992C28.4945 55.6449 28.5599 55.684 28.5795 55.6971C28.5795 56.0623 28.573 56.3883 28.586 56.7078C28.5926 56.9622 28.6122 57.2165 28.6383 57.4643C28.6514 57.5817 28.6906 57.6925 28.7102 57.8099C28.7363 57.9273 28.7952 58.0968 28.7494 58.1555ZM29.2396 60.8423C29.1285 60.8031 29.0304 60.7184 28.9193 60.6466C28.9978 60.5227 29.037 60.4575 29.0827 60.3858C29.0435 60.2619 28.9978 60.138 28.9586 60.001C29.1023 59.8902 29.1219 59.6293 29.3834 59.8119C29.3638 60.0858 29.3441 60.3792 29.3245 60.6662C29.3572 60.6857 29.3899 60.6988 29.4291 60.7118C29.3572 60.7575 29.2788 60.8553 29.2396 60.8423ZM29.7036 62.779C29.6709 62.7921 29.599 62.7008 29.4945 62.6095C29.6905 62.5508 29.8147 62.5117 29.9454 62.4791L29.9977 62.5899C29.8931 62.6551 29.8082 62.7334 29.7036 62.779ZM40.1342 40.0724C40.1211 39.955 40.1145 39.8963 40.108 39.8246C40.0557 39.792 39.9904 39.7594 39.8531 39.6746C40.0034 39.6029 40.108 39.5572 40.2126 39.5116C40.3237 39.6616 40.3237 39.6681 40.1342 40.0724ZM41.1014 60.6597C40.938 60.6075 40.8204 60.5618 40.7093 60.5292C40.8073 60.2945 40.8727 60.1249 40.9576 59.9162C41.219 60.1184 41.0883 60.3662 41.1014 60.6597ZM42.6895 54.7319C42.5719 54.8102 42.4608 54.8884 42.3431 54.9667C42.3823 55.0645 42.415 55.1428 42.4738 55.2862C42.3235 55.3645 42.1732 55.4362 41.9902 55.5275C42.0098 55.5862 42.0294 55.684 42.0556 55.7623C41.9771 56.0101 41.9118 56.2383 41.8334 56.4731C41.9118 56.5187 41.9771 56.5644 42.0556 56.6166C42.134 56.8709 42.219 57.1382 42.2647 57.2882C42.1667 57.7447 41.9445 57.9012 41.6242 58.0056C41.3955 58.0838 41.4478 58.3316 41.7288 58.4946C41.6961 58.5664 41.6634 58.6381 41.6308 58.7164C41.5458 58.7229 41.4674 58.7229 41.3824 58.7294C41.3563 58.5664 41.3367 58.4164 41.3105 58.2729H40.9053C41.0491 58.1555 41.1341 58.0838 41.2909 57.9534C41.1864 57.9012 41.1145 57.8621 41.0099 57.8099C41.1145 57.7121 41.1864 57.6469 41.2452 57.5947C41.2844 57.4382 41.3105 57.2948 41.3497 57.1187C41.3105 57.073 41.2517 56.9948 41.1798 56.8904C41.2713 56.8122 41.3563 56.7339 41.4543 56.6426C41.4282 56.5253 41.402 56.4079 41.3563 56.2188C41.389 56.1992 41.4543 56.1601 41.5327 56.1144C41.4935 56.0231 41.4543 55.9449 41.389 55.8014C41.5916 55.5601 41.8007 55.3123 42.0948 54.9667C42.1471 54.7059 42.1667 54.2755 42.5392 53.9168V54.3341C42.6046 54.3668 42.6764 54.4059 42.7157 54.432C42.7091 54.5754 42.7026 54.6602 42.6895 54.7319ZM42.8464 53.6625C42.7091 53.682 42.5849 53.6886 42.4608 53.7081C42.4412 53.682 42.4216 53.6625 42.3954 53.6364C42.5457 53.3821 42.6895 53.1343 42.8398 52.8865C42.866 52.906 42.8856 52.9256 42.9117 52.9451C42.8921 53.1799 42.866 53.4147 42.8464 53.6625ZM47.4735 33.1013C47.4996 33.0556 47.5192 33.01 47.5453 32.9643C47.7675 33.0361 47.9832 33.1078 48.2577 33.2056C48.0486 33.4404 47.8983 33.6165 47.7218 33.8186C47.6172 33.7273 47.5323 33.6621 47.395 33.5512C47.5584 33.4665 47.6564 33.4208 47.7675 33.3621C47.6695 33.2774 47.5715 33.1926 47.4735 33.1013ZM45.2253 42.12C45.1926 42.107 45.1599 42.094 45.1207 42.0809C45.1076 41.9961 45.0946 41.9114 45.0684 41.7549C45.1795 41.807 45.3037 41.8396 45.3037 41.8722C45.3037 41.9505 45.2514 42.0353 45.2253 42.12ZM45.356 40.6854C45.271 40.4963 45.2122 40.3658 45.1534 40.2419C45.173 40.2354 45.186 40.2289 45.1991 40.2159C45.1468 40.1702 45.0946 40.118 45.0031 40.0398C45.0488 39.8963 45.0946 39.7398 45.1468 39.5833C45.1599 39.5898 45.1664 39.5964 45.1795 39.5964C45.1926 39.4464 45.2122 39.2964 45.2253 39.1399C45.3233 39.1268 45.3952 39.1138 45.552 39.0942V40.3398L45.6435 40.3593C45.5586 40.4441 45.4801 40.5354 45.356 40.6854ZM46.2644 42.733C46.1664 42.6939 46.101 42.6678 45.9703 42.6091C46.0945 42.5243 46.1729 42.4722 46.3232 42.3678C46.2971 42.5374 46.284 42.6222 46.2644 42.733ZM46.369 28.3865C46.1141 28.23 46.1141 28.1191 46.369 27.9365V28.3865ZM49.4145 28.3148C49.3622 28.4256 49.323 28.5039 49.2707 28.6017C49.3099 28.6539 49.3557 28.7126 49.3753 28.7386C49.3099 28.8886 49.2642 29.0191 49.2053 29.1495L49.2903 29.1951C49.3557 29.0973 49.421 29.006 49.5387 28.843C49.604 29.0256 49.6498 29.1495 49.702 29.2734C49.6759 29.2734 49.6498 29.2734 49.6236 29.2734C49.5844 29.5864 49.5452 29.8994 49.4994 30.3102L49.1792 30.8645C49.14 30.8645 49.1073 30.858 49.0746 30.8515C49.14 31.3406 49.1988 31.8231 49.2707 32.3318C49.2315 32.3644 49.1727 32.41 49.1008 32.4687C49.4798 33.2382 49.1531 33.9816 49.0616 34.7968C49.2576 35.2859 49.0289 36.4401 48.6237 36.8053C48.4603 36.7857 48.2969 36.7727 48.0943 36.7466C48.1074 36.551 48.1139 36.3684 48.1205 36.1728C47.9636 36.1271 47.8329 36.088 47.6564 36.0423C47.6957 36.1597 47.7218 36.2445 47.7479 36.3162C47.7153 36.3619 47.6826 36.401 47.6434 36.4532C47.6957 36.5249 47.7479 36.5966 47.8264 36.701C47.7545 36.8249 47.7153 37.0075 47.5976 37.0922C47.4931 37.164 47.3166 37.1314 47.1597 37.1444C47.2839 37.2813 47.4081 37.4118 47.5127 37.5226C47.6368 37.3074 47.7545 37.1053 47.8917 36.877C47.9701 36.8836 48.0486 36.8901 48.1466 36.8966C48.1205 37.327 48.1074 37.7313 48.0616 38.1356C48.029 38.3965 48.0682 38.5791 48.3296 38.6769C48.3884 38.703 48.4342 38.7812 48.4668 38.8269C48.2642 39.2703 48.0812 39.6811 47.9048 40.0789C47.7414 40.0528 47.6564 40.0333 47.5519 40.0202C47.5192 40.1441 47.4865 40.2485 47.4473 40.3854C47.3231 40.3724 47.212 40.3528 47.0879 40.3463C47.0683 40.1963 47.0617 40.0789 47.0486 39.9615C46.9637 39.7007 46.5258 39.7529 46.5258 39.3616C46.6369 39.3812 46.7153 39.3942 46.833 39.4138C46.8003 39.3094 46.7742 39.2312 46.7611 39.2051C46.8461 38.9573 46.9245 38.7421 46.9898 38.5399C46.8526 38.3639 46.748 38.2334 46.6304 38.09C46.6892 38.0248 46.7415 37.953 46.8134 37.8682C46.7611 37.803 46.7023 37.7378 46.6369 37.6661C46.6761 37.6139 46.7219 37.5552 46.7676 37.4965C46.7349 37.4313 46.7023 37.3726 46.6631 37.3009C46.7284 37.1444 46.7938 36.9814 46.8722 36.7857C46.8591 36.7727 46.8134 36.7075 46.7546 36.6357C46.8526 36.4206 47.0879 36.2054 46.8134 35.9967C46.8722 35.4228 46.9245 34.875 46.9898 34.2621C46.9898 34.2621 47.0356 34.2164 47.0617 34.1773C47.0421 34.0469 47.029 33.936 47.016 33.8251C47.2447 33.773 47.3362 33.9034 47.3427 34.0469C47.3558 34.3012 47.3231 34.562 47.3101 34.8229C47.297 34.9794 47.2839 35.1294 47.2251 35.2794C47.2512 35.3837 47.2774 35.488 47.3035 35.5989C47.4081 35.4424 47.4996 35.2924 47.6107 35.1228C47.5976 35.0902 47.578 35.025 47.5519 34.9598C47.6107 34.8881 47.6564 34.8294 47.7087 34.7642C47.6695 34.5816 47.6368 34.3925 47.5976 34.1708H48.0682C48.1139 33.9882 48.1727 33.773 48.2446 33.4991C48.3623 33.6686 48.4538 33.786 48.5583 33.9295C48.4407 34.2686 48.3165 34.6142 48.1924 34.9598C48.2054 34.9663 48.2185 34.9729 48.2316 34.9794C48.3361 34.849 48.4407 34.712 48.4995 34.6468C48.5518 34.3925 48.5845 34.2099 48.6237 34.0273C48.6302 34.0273 48.6368 34.0338 48.6433 34.0338C48.6629 33.8969 48.676 33.7599 48.6956 33.5904C48.6106 33.5317 48.493 33.4469 48.3296 33.3361C48.4211 33.2839 48.493 33.2513 48.5518 33.2187C48.6106 33.1795 48.6694 33.1339 48.7283 33.0882C48.7217 33.0622 48.7086 33.0361 48.6956 33.01C48.5387 32.9904 48.3753 32.9774 48.1727 32.9578C48.0682 32.8991 47.9244 32.8144 47.7414 32.7165C47.7872 32.6448 47.846 32.56 47.8917 32.4883C48.0159 32.4753 48.1205 32.4687 48.2185 32.4557C48.2316 32.2992 48.2446 32.1557 48.2512 31.9992C48.1727 31.9797 48.1009 31.9666 48.0682 31.9601C47.8983 32.1166 47.761 32.2405 47.6238 32.3709C47.5846 32.3579 47.5519 32.3448 47.5192 32.3318C47.5192 32.2209 47.5192 32.1036 47.5192 31.9927C47.5192 31.7123 47.5649 31.4254 47.5127 31.158C47.4408 30.8124 47.5649 30.5515 47.761 30.2907C47.7283 30.2842 47.7022 30.2776 47.6695 30.2711C47.6957 30.1146 47.6891 29.9516 47.7414 29.8081C47.8721 29.4625 48.029 29.1299 48.1662 28.8104C48.0812 28.693 48.0355 28.6147 47.9571 28.5104C48.225 27.9757 48.4995 27.4279 48.7936 26.8475C48.7936 26.8475 48.7152 26.7562 48.7348 26.7106C48.774 26.6127 48.8655 26.5345 48.9831 26.391C49.0093 26.241 49.055 26.0063 49.1008 25.7389C49.3426 25.5563 49.4079 25.289 49.3295 24.9629C49.2772 24.7477 49.3361 24.5586 49.5844 24.4999C49.9046 24.6368 49.9635 24.7738 49.8916 25.0933C49.8524 25.2694 49.885 25.4585 49.9308 25.6476C49.8981 25.7193 49.8589 25.7911 49.8458 25.8106C49.885 25.9867 49.9112 26.1237 49.9504 26.2997C49.4537 26.2606 49.6367 26.7953 49.3622 26.9127C49.2642 27.4018 49.0812 27.8713 49.4145 28.3148ZM49.872 27.617C49.8523 27.4279 49.8327 27.2518 49.8131 27.0823C50.1334 27.2192 50.1399 27.4605 49.872 27.617ZM50.5909 32.3905C50.5451 32.4035 50.4994 32.41 50.4536 32.4231C50.4275 32.3448 50.3948 32.2666 50.3883 32.1818C50.3621 31.8231 50.349 31.4645 50.3294 31.0471C50.4275 30.9689 50.2902 30.6493 50.5909 30.5776V32.3905ZM50.8 28.0539C50.9111 28.4452 50.4928 28.9082 50.8719 29.4103C50.7216 29.5081 50.6039 29.5864 50.4928 29.6581C50.4471 29.619 50.4209 29.606 50.4209 29.5929C50.4275 29.2082 50.4013 28.8234 50.4601 28.4517C50.5124 28.1191 50.6627 27.7931 50.7804 27.4735C50.8131 27.3822 50.8849 27.2975 50.9634 27.167C51.1072 27.3757 51.1856 27.4866 51.3032 27.6561C51.1398 27.7735 50.9895 27.8974 50.8 28.0539ZM51.6561 25.5498C51.5516 25.4976 51.4797 25.4585 51.4078 25.4194C51.447 25.1259 51.4601 24.839 51.5385 24.5716C51.6169 24.3108 51.7607 24.076 51.8718 23.8282C51.8979 23.8413 51.9306 23.8478 51.9568 23.8543C51.9894 24.2847 52.0156 24.7151 52.0483 25.1977C51.9502 25.289 51.8064 25.4194 51.6561 25.5498Z" fill="#003D4C"/>
<path d="M75.9092 11.738C75.7915 11.875 75.8373 11.9989 76.1052 12.1684C76.066 12.2532 76.0268 12.338 75.9876 12.4358C76.0529 12.5075 76.1118 12.5727 76.1641 12.6314C76.1183 12.801 76.0725 12.9575 76.0137 13.1531C76.1575 13.2118 76.3078 13.277 76.3928 13.3096V14.3465C76.4124 14.3465 76.4255 14.34 76.4385 14.3335C76.4908 14.4443 76.5431 14.5487 76.5954 14.6595H76.6019C76.6738 14.816 76.7457 14.9725 76.8241 15.129C76.7915 15.1356 76.7588 15.1421 76.7326 15.1486C76.9026 15.6116 76.6477 16.1202 77.0006 16.5702V16.1724C77.0725 16.1072 77.1509 16.0355 77.2293 15.9703C77.2032 15.9703 77.1836 15.9637 77.164 15.9637C77.1313 15.5399 77.0986 15.1095 77.0594 14.6334C77.0856 14.5943 77.1378 14.5095 77.1705 14.4508C77.1378 14.2748 77.1313 14.1117 77.0725 13.9683C76.9352 13.59 76.798 13.2118 76.6085 12.8597C76.4189 12.501 76.3078 12.0771 75.9222 11.8554C75.9092 11.8424 75.9157 11.7837 75.9092 11.738Z" fill="#003D4C"/>
<path d="M75.9092 11.725C75.9092 11.7315 75.9092 11.7315 75.9092 11.738C75.9157 11.7315 75.9092 11.7315 75.9092 11.725Z" fill="#003D4C"/>
<path d="M42.147 31.3015C42.147 31.295 42.1405 31.2819 42.1405 31.2754C41.9313 31.2884 41.7157 31.295 41.5196 31.308C41.4477 31.7319 41.3824 32.1492 41.317 32.5666C41.3039 32.5601 41.2843 32.5535 41.2778 32.547C41.219 32.697 41.1602 32.847 41.0948 33.0035C41.2255 33.0622 41.2974 33.0948 41.402 33.1405C41.3628 33.2317 41.3431 33.297 41.3039 33.3948C41.2059 33.3296 41.1209 33.2774 41.0425 33.2252C41.0229 33.3491 41.0098 33.473 40.9902 33.623C41.0817 33.6035 41.1536 33.5839 41.2124 33.5708C41.3039 33.6752 41.3824 33.76 41.4542 33.8513V34.1121H41.7483C41.7876 34.0469 41.8202 33.9882 41.8594 33.923C41.8398 33.923 41.8268 33.923 41.8072 33.9165V33.3361C41.8398 33.3361 41.8725 33.3361 41.8987 33.3296C41.8398 32.8926 41.781 32.4557 41.7157 32.0058C41.8072 31.9862 41.9183 31.9666 42.0228 31.9471C42.0228 31.9275 42.0163 31.9145 42.0163 31.8949H41.8072C41.6046 31.6471 41.8202 31.5102 41.9183 31.3471C41.9967 31.3406 42.0751 31.321 42.147 31.3015Z" fill="#003D4C"/>
<path d="M43.9117 26.4106C44.0228 26.0193 44.1143 25.6867 44.2123 25.3542C44.0816 25.1194 43.9378 24.8651 43.794 24.6107C43.8071 24.4738 43.8202 24.3303 43.8333 24.1803C43.8071 24.1803 43.7875 24.1738 43.7679 24.1738C43.7287 24.3955 43.6895 24.6173 43.6503 24.8585C43.8333 25.2563 43.4738 25.5694 43.415 25.9541C43.3823 26.1954 43.1928 26.4041 43.1209 26.6388C43.0425 26.8931 43.0947 27.141 43.2908 27.3105C43.4215 27.2844 43.5196 27.2714 43.6633 27.2388C43.5261 27.0301 43.3954 26.8475 43.2647 26.6519C43.4085 26.4823 43.513 26.3649 43.5784 26.2867C43.7418 26.3519 43.8463 26.391 43.9117 26.4106Z" fill="#003D4C"/>
<path d="M48.4603 12.7162C48.4276 12.8336 48.4015 12.9575 48.3623 13.0945C48.4538 13.1271 48.5257 13.1532 48.6106 13.1792C48.6694 12.9184 48.7217 12.6771 48.7675 12.4945C48.6172 12.3641 48.5126 12.2728 48.395 12.1685C48.3623 12.2728 48.3231 12.4032 48.3035 12.475C48.4015 12.5532 48.4603 12.6054 48.5191 12.651C48.493 12.6771 48.4734 12.6967 48.4603 12.7162Z" fill="#003D4C"/>
<path d="M40.9248 36.3684C40.8726 36.3032 40.8203 36.238 40.8137 36.225H40.1079C40.3955 36.5836 40.683 36.6163 40.9248 36.3684Z" fill="#003D4C"/>
<path d="M20.946 64.9572V64.442C20.8349 64.6376 20.763 64.7616 20.6912 64.8855C20.7042 64.9963 20.7173 65.1202 20.7304 65.2767C20.8741 65.2376 21.0114 65.1985 21.2074 65.1463C21.0767 65.055 21.0114 65.0028 20.946 64.9572Z" fill="#003D4C"/>
<path d="M50.2968 10.2968C50.3294 10.2968 50.3556 10.2968 50.3883 10.3033V9.14258C50.3621 9.1491 50.2837 9.16214 50.2053 9.18171C50.2902 9.54689 50.0615 9.94467 50.2968 10.2968Z" fill="#003D4C"/>
<path d="M54.1266 19.7591C54.2508 19.5634 54.3292 19.4526 54.4011 19.3417C54.473 19.3808 54.5122 19.4069 54.571 19.4395C54.5907 19.3352 54.6037 19.2504 54.6103 19.1721C54.4142 19.1461 54.2377 19.1265 54.0613 19.1069C54.0809 19.3091 54.1005 19.4982 54.1266 19.7591Z" fill="#003D4C"/>
<path d="M40.7942 35.9054C40.5786 35.762 40.4021 35.6446 40.1995 35.5142C40.1668 35.9706 40.3498 36.0945 40.7942 35.9054Z" fill="#003D4C"/>
<path d="M77.5757 28.7126C77.6933 28.7256 77.7979 28.7387 77.8829 28.7517C77.824 28.6082 77.7587 28.4452 77.6803 28.2561C77.628 28.2626 77.5561 28.2691 77.4646 28.2757C77.5103 28.4517 77.543 28.5887 77.5757 28.7126Z" fill="#003D4C"/>
<path d="M55.1264 16.9223C55.0545 17.0397 54.9892 17.1506 54.9238 17.2614C55.1068 17.1962 55.2898 17.1245 55.4859 17.0462C55.5185 16.831 55.4663 16.8049 55.1264 16.9223Z" fill="#003D4C"/>
<path d="M78.1443 26.3649C78.1639 26.4497 78.177 26.541 78.1835 26.5605C78.3338 26.7496 78.4384 26.8866 78.5495 27.0235L78.6083 26.9583C78.556 26.8475 78.5103 26.7236 78.4449 26.6192C78.3796 26.5084 78.2946 26.404 78.2162 26.2997C78.1966 26.3258 78.1704 26.3453 78.1443 26.3649Z" fill="#003D4C"/>
<path d="M45.9115 18.7743C45.8004 18.6504 45.6958 18.533 45.5847 18.4156V18.7287C45.6435 18.7808 45.6958 18.833 45.7612 18.8917C45.82 18.846 45.8788 18.8004 45.9115 18.7743Z" fill="#003D4C"/>
<path d="M37.9316 67.5199C37.9774 67.6438 38.0166 67.722 38.0624 67.8329C38.1604 67.7546 38.2323 67.696 38.3042 67.6438C38.3042 67.6177 38.2976 67.5851 38.2976 67.559C38.18 67.546 38.0689 67.5395 37.9316 67.5199Z" fill="#003D4C"/>
<path d="M75.9155 11.7315C75.9155 11.7249 75.909 11.7249 75.9155 11.7315C75.909 11.7249 75.9155 11.7315 75.9155 11.7315Z" fill="#003D4C"/>
<path d="M75.8765 11.2684C75.8373 11.3662 75.7981 11.4445 75.772 11.5097C75.8242 11.5945 75.87 11.6597 75.9092 11.7249C75.968 11.5814 76.1771 11.4315 75.8765 11.2684Z" fill="#003D4C"/>
<path d="M75.1641 29.2668C75.1771 29.2994 75.1902 29.332 75.1967 29.3646C75.3209 29.3581 75.4451 29.345 75.5693 29.3385C75.5693 29.3124 75.5693 29.2863 75.5758 29.2537C75.5039 29.2146 75.432 29.169 75.3209 29.1038C75.2621 29.169 75.2163 29.2211 75.1641 29.2668Z" fill="#003D4C"/>
<path d="M37.1802 67.8264C37.1998 67.9699 37.2194 68.1003 37.239 68.2699C37.422 68.0155 37.4154 67.9568 37.1802 67.8264Z" fill="#003D4C"/>
<path d="M38.7551 41.8201C38.8662 41.7418 38.925 41.7027 38.9904 41.657C38.9512 41.5592 38.9185 41.481 38.8858 41.4027C38.8597 41.4092 38.8336 41.4092 38.8009 41.4157C38.7813 41.5331 38.7747 41.644 38.7551 41.8201Z" fill="#003D4C"/>
<path d="M53.6297 17.5157H53.3879C53.4075 17.6396 53.4272 17.744 53.4533 17.894C53.5252 17.7309 53.5709 17.6266 53.6297 17.5157Z" fill="#003D4C"/>
<path d="M37.7749 42.27C37.8076 42.2635 37.8403 42.2635 37.8795 42.257C37.8599 42.1266 37.8403 41.9961 37.8207 41.8657C37.788 41.8722 37.7553 41.8788 37.7227 41.8788C37.7423 42.0092 37.7619 42.1396 37.7749 42.27Z" fill="#003D4C"/>
<path d="M76.9483 29.032C77.0006 29.032 77.0528 29.0255 77.1313 29.019C77.0594 28.8755 77.0006 28.7647 76.9483 28.6538C76.9287 28.6669 76.9091 28.6734 76.896 28.6864C76.9091 28.7973 76.9287 28.9081 76.9483 29.032Z" fill="#003D4C"/>
<path d="M15.4041 49.0064L15.4694 49.0325C15.5217 48.9738 15.574 48.9086 15.6459 48.8303C15.5805 48.7912 15.5413 48.7586 15.4629 48.7064C15.4367 48.8303 15.4237 48.9151 15.4041 49.0064Z" fill="#003D4C"/>
<path d="M58.5706 9.0383C58.6686 8.99265 58.7601 8.95353 58.8647 8.90136C58.6098 8.79702 58.5902 8.81006 58.5706 9.0383Z" fill="#003D4C"/>
<path d="M65.4983 15.2725C65.5375 15.2007 65.5767 15.1225 65.6159 15.0442C65.5833 15.0247 65.544 15.0116 65.5114 14.9921C65.4787 15.0703 65.446 15.1551 65.4133 15.2333C65.446 15.2464 65.4722 15.2594 65.4983 15.2725Z" fill="#003D4C"/>
</svg>
