<svg width="44" height="44" viewBox="0 0 44 44" fill="none" xmlns="http://www.w3.org/2000/svg">
<path d="M21.9891 39.2325C31.491 39.2325 39.2209 31.5019 39.2209 22C39.2203 12.4977 31.49 4.76747 21.9884 4.76747C12.4872 4.76747 4.7576 12.4977 4.7576 22C4.7576 31.5019 12.4875 39.2325 21.9891 39.2325ZM21.9884 6.14247C30.7314 6.14247 37.8453 13.2557 37.8459 22C37.8459 30.744 30.7327 37.8575 21.9891 37.8575C13.2458 37.8575 6.1326 30.744 6.1326 22C6.1326 13.2557 13.2455 6.14247 21.9884 6.14247ZM17.0023 20.3094L21.3009 16.6052L21.3009 28.8949C21.3009 29.2744 21.6089 29.5824 21.9884 29.5824C22.3679 29.5824 22.6759 29.2744 22.6759 28.8949L22.6759 16.6052L26.9752 20.3094C27.2629 20.5573 27.6974 20.525 27.9449 20.2373C28.1924 19.9495 28.1604 19.515 27.8727 19.2675L21.9884 14.1979L16.1048 19.2675C15.8171 19.5157 15.7848 19.9495 16.0329 20.2373C16.2804 20.525 16.7146 20.5573 17.0023 20.3094Z" fill="#F8F1C7"/>
</svg>
