<svg width="44" height="44" viewBox="0 0 44 44" fill="none" xmlns="http://www.w3.org/2000/svg">
<path d="M21.989 39.2325C31.4909 39.2325 39.2208 31.5019 39.2208 22C39.2201 12.4977 31.4899 4.76747 21.9883 4.76747C12.487 4.76747 4.75748 12.4977 4.75748 22C4.75748 31.5019 12.4874 39.2325 21.989 39.2325ZM21.9883 6.14247C30.7312 6.14247 37.8451 13.2557 37.8458 22C37.8458 30.744 30.7326 37.8575 21.989 37.8575C13.2457 37.8575 6.13248 30.744 6.13248 22C6.13248 13.2557 13.2454 6.14247 21.9883 6.14247ZM17.0022 20.3094L21.3008 16.6052L21.3008 28.8949C21.3008 29.2744 21.6088 29.5824 21.9883 29.5824C22.3678 29.5824 22.6758 29.2744 22.6758 28.8949L22.6758 16.6052L26.9751 20.3094C27.2628 20.5573 27.6973 20.525 27.9448 20.2373C28.1923 19.9495 28.1603 19.515 27.8726 19.2675L21.9883 14.1979L16.1047 19.2675C15.8169 19.5157 15.7846 19.9495 16.0328 20.2373C16.2803 20.525 16.7145 20.5573 17.0022 20.3094Z" fill="black"/>
</svg>
