<svg width="44" height="44" viewBox="0 0 44 44" fill="none" xmlns="http://www.w3.org/2000/svg">
<path d="M22.011 4.76747C12.5091 4.76747 4.77917 12.4981 4.77917 22C4.77986 31.5023 12.5101 39.2325 22.0117 39.2325C31.513 39.2325 39.2425 31.5023 39.2425 22C39.2425 12.4981 31.5126 4.76747 22.011 4.76747ZM22.0117 37.8575C13.2688 37.8575 6.15486 30.7443 6.15417 22C6.15417 13.256 13.2674 6.14247 22.011 6.14247C30.7543 6.14247 37.8675 13.256 37.8675 22C37.8675 30.7443 30.7546 37.8575 22.0117 37.8575ZM26.9978 23.6906L22.6992 27.3948V15.1051C22.6992 14.7256 22.3912 14.4176 22.0117 14.4176C21.6322 14.4176 21.3242 14.7256 21.3242 15.1051V27.3948L17.0249 23.6906C16.7372 23.4427 16.3027 23.475 16.0552 23.7627C15.8077 24.0505 15.8397 24.485 16.1274 24.7325L22.0117 29.8021L27.8953 24.7325C28.1831 24.4843 28.2154 24.0505 27.9672 23.7627C27.7197 23.475 27.2855 23.4427 26.9978 23.6906Z" fill="black"/>
</svg>
