<svg width="20" height="20" viewBox="0 0 20 20" fill="none" xmlns="http://www.w3.org/2000/svg">
<path fill-rule="evenodd" clip-rule="evenodd" d="M18.4961 8.52024C18.3818 7.96003 18.21 7.40829 17.9877 6.88124C17.7694 6.36371 17.4984 5.86559 17.1838 5.39993C16.8716 4.93814 16.5135 4.50422 16.1191 4.11017C15.725 3.71541 15.2908 3.35699 14.8293 3.04549C14.3637 2.72975 13.8648 2.45988 13.348 2.24081C12.821 2.01891 12.2696 1.84675 11.709 1.73316C11.135 1.61533 10.5438 1.55536 9.95325 1.55536C9.36199 1.55536 8.77144 1.61533 8.19677 1.73316C7.63656 1.84675 7.08481 2.01926 6.55812 2.24081C6.0413 2.45988 5.54247 2.73011 5.0761 3.04549C4.61431 3.35699 4.1804 3.71506 3.78635 4.11017C3.39194 4.50422 3.03422 4.93849 2.72237 5.39993C2.40734 5.86559 2.13676 6.36371 1.91839 6.88124C1.69508 7.40829 1.52399 7.96003 1.40933 8.52024C1.29186 9.0935 1.23224 9.68476 1.23224 10.2757C1.23224 10.8676 1.29186 11.4589 1.40933 12.0325C1.52399 12.5927 1.69544 13.1444 1.91804 13.6711C2.13641 14.188 2.40734 14.6875 2.72202 15.1532C3.03387 15.6149 3.39159 16.0482 3.78599 16.4429C4.18005 16.837 4.61431 17.1947 5.07575 17.5069C5.54212 17.8219 6.04095 18.0925 6.55776 18.3109C7.08411 18.5342 7.6362 18.7042 8.19641 18.8192C8.77109 18.9377 9.36164 18.997 9.95289 18.997C10.5434 18.997 11.1347 18.9377 11.7087 18.8192C12.2696 18.7042 12.8206 18.5338 13.3477 18.3109C13.8645 18.0925 14.3633 17.8216 14.829 17.5069C15.2908 17.1947 15.7247 16.8373 16.1187 16.4429C16.5128 16.0482 16.8712 15.6146 17.1834 15.1532C17.4984 14.6875 17.769 14.188 17.9874 13.6711C18.21 13.1448 18.3814 12.5927 18.4957 12.0325C18.6136 11.4585 18.6728 10.8673 18.6728 10.2757C18.6732 9.68476 18.6139 9.0935 18.4961 8.52024ZM17.3976 10.2019C17.29 10.1786 14.7697 9.63607 12.2107 9.95781C12.1585 9.83045 12.1052 9.70204 12.0502 9.57328C11.8953 9.20886 11.7284 8.84762 11.5549 8.49308C14.4963 7.29293 15.6905 5.56608 15.7042 5.54562C16.7488 6.8135 17.3806 8.43416 17.3976 10.2019ZM14.8717 4.68661C14.853 4.71554 13.7925 6.32985 10.9816 7.38359C9.70842 5.04433 8.30966 3.18625 8.19783 3.03879C8.76086 2.90226 9.34788 2.82853 9.95289 2.82853C11.8388 2.82853 13.5593 3.53126 14.8717 4.68661ZM8.1689 3.04478C8.1689 3.04549 8.16749 3.0462 8.16749 3.0462C8.16749 3.0462 8.15937 3.04831 8.14561 3.05113C8.15302 3.04902 8.16149 3.04761 8.1689 3.04478ZM6.77507 3.54008C6.87421 3.67308 8.2518 5.54033 9.54085 7.83126C5.96475 8.78129 2.86136 8.74425 2.66451 8.74073C3.14852 6.43392 4.69828 4.52116 6.77507 3.54008ZM2.50541 10.2757C2.50541 10.1963 2.50894 10.1187 2.51176 10.0404C2.64299 10.0432 6.32317 10.1268 10.1575 8.9792C10.3709 9.39689 10.5752 9.82128 10.7618 10.2453C10.6634 10.2728 10.5653 10.3025 10.4683 10.3342C6.44911 11.6331 4.41041 15.2498 4.41041 15.2498C4.41041 15.2498 4.41323 15.2519 4.41323 15.2533C3.22755 13.9336 2.50541 12.1891 2.50541 10.2757ZM9.95289 17.7238C8.15055 17.7238 6.49744 17.0832 5.2091 16.0171C5.30682 16.0965 5.37596 16.1473 5.37596 16.1473C5.37596 16.1473 6.80365 13.0337 11.2201 11.4949C11.2366 11.4885 11.2532 11.4839 11.2698 11.479C12.3179 14.2021 12.7504 16.4828 12.8608 17.1336C11.9669 17.5139 10.9844 17.7238 9.95289 17.7238ZM14.1146 16.4535C14.0388 16.0037 13.6419 13.8179 12.665 11.1336C15.0689 10.7491 17.1527 11.4084 17.3062 11.4589C16.9746 13.5339 15.7868 15.3239 14.1146 16.4535Z" fill="black"/>
</svg>
