<svg width="31" height="31" viewBox="0 0 31 31" fill="none" xmlns="http://www.w3.org/2000/svg">
<path d="M28.4167 25.8333H2.58333C1.15862 25.8333 0 24.6747 0 23.25V7.74999C0 6.32528 1.15862 5.16666 2.58333 5.16666H28.4167C29.8414 5.16666 31 6.32528 31 7.74999V23.25C31 24.6747 29.8414 25.8333 28.4167 25.8333ZM2.58333 6.45832C1.87098 6.45832 1.29167 7.03764 1.29167 7.74999V23.25C1.29167 23.9623 1.87098 24.5417 2.58333 24.5417H28.4167C29.129 24.5417 29.7083 23.9623 29.7083 23.25V7.74999C29.7083 7.03764 29.129 6.45832 28.4167 6.45832H2.58333Z" fill="black"/>
<path d="M15.5 18.8525L4.17017 11.5217C3.8705 11.3273 3.78461 10.9281 3.97836 10.6285C4.17211 10.3288 4.57188 10.2436 4.87154 10.4367L15.5 17.3141L26.1285 10.4367C26.4282 10.2436 26.8279 10.3288 27.0217 10.6285C27.2154 10.9281 27.1295 11.3273 26.8299 11.5217L15.5 18.8525Z" fill="black"/>
<path d="M3.87567 21.9583C3.66707 21.9583 3.46169 21.8576 3.33769 21.6709C3.13942 21.3738 3.2195 20.9734 3.51659 20.7752L9.32909 16.9002C9.62617 16.7019 10.0272 16.782 10.2249 17.0791C10.4231 17.3761 10.343 17.7766 10.046 17.9748L4.23346 21.8498C4.12302 21.9228 3.99838 21.9583 3.87567 21.9583Z" fill="black"/>
<path d="M27.1244 21.9583C27.0017 21.9583 26.877 21.9228 26.7666 21.8498L20.9541 17.9748C20.657 17.7766 20.5769 17.3761 20.7752 17.0791C20.9728 16.782 21.3732 16.7019 21.671 16.9002L27.4835 20.7752C27.7805 20.9734 27.8606 21.3738 27.6624 21.6709C27.5384 21.8576 27.333 21.9583 27.1244 21.9583Z" fill="black"/>
</svg>
