<svg width="113" height="113" viewBox="0 0 113 113" fill="none" xmlns="http://www.w3.org/2000/svg">
<path d="M24.8906 11.875C25.9175 11.875 26.75 11.0425 26.75 10.0156C26.75 8.98872 25.9175 8.15625 24.8906 8.15625C23.8637 8.15625 23.0312 8.98872 23.0312 10.0156C23.0312 11.0425 23.8637 11.875 24.8906 11.875Z" fill="#263238"/>
<path d="M17.4531 11.875C18.48 11.875 19.3125 11.0425 19.3125 10.0156C19.3125 8.98872 18.48 8.15625 17.4531 8.15625C16.4262 8.15625 15.5938 8.98872 15.5938 10.0156C15.5938 11.0425 16.4262 11.875 17.4531 11.875Z" fill="#263238"/>
<path d="M10.0156 11.875C11.0425 11.875 11.875 11.0425 11.875 10.0156C11.875 8.98872 11.0425 8.15625 10.0156 8.15625C8.98872 8.15625 8.15625 8.98872 8.15625 10.0156C8.15625 11.0425 8.98872 11.875 10.0156 11.875Z" fill="#263238"/>
<path d="M95.5469 19.3125H2.57812C1.55175 19.3125 0.71875 18.4795 0.71875 17.4531C0.71875 16.4268 1.55175 15.5938 2.57812 15.5938H95.5469C96.5732 15.5938 97.4062 16.4268 97.4062 17.4531C97.4062 18.4795 96.5732 19.3125 95.5469 19.3125Z" fill="#263238"/>
<path d="M91.8281 112.281H6.29688C3.22147 112.281 0.71875 109.779 0.71875 106.703V6.29688C0.71875 3.22147 3.22147 0.71875 6.29688 0.71875H91.8281C94.9035 0.71875 97.4062 3.22147 97.4062 6.29688V36.0469C97.4062 37.0732 96.5732 37.9062 95.5469 37.9062C94.5205 37.9062 93.6875 37.0732 93.6875 36.0469V6.29688C93.6875 5.27422 92.8508 4.4375 91.8281 4.4375H6.29688C5.27422 4.4375 4.4375 5.27422 4.4375 6.29688V106.703C4.4375 107.726 5.27422 108.562 6.29688 108.562H91.8281C92.8508 108.562 93.6875 107.726 93.6875 106.703C93.6875 105.677 94.5205 104.844 95.5469 104.844C96.5732 104.844 97.4062 105.677 97.4062 106.703C97.4062 109.779 94.9035 112.281 91.8281 112.281Z" fill="#263238"/>
<path d="M17.4531 75.0938H13.7344C12.708 75.0938 11.875 74.2608 11.875 73.2344C11.875 72.208 12.708 71.375 13.7344 71.375H17.4531C18.4795 71.375 19.3125 72.208 19.3125 73.2344C19.3125 74.2608 18.4795 75.0938 17.4531 75.0938Z" fill="#263238"/>
<path d="M17.4531 97.4062H13.7344C12.708 97.4062 11.875 96.5733 11.875 95.5469C11.875 94.5205 12.708 93.6875 13.7344 93.6875H17.4531C18.4795 93.6875 19.3125 94.5205 19.3125 95.5469C19.3125 96.5733 18.4795 97.4062 17.4531 97.4062Z" fill="#263238"/>
<path d="M17.4531 89.9688H13.7344C12.708 89.9688 11.875 89.1358 11.875 88.1094C11.875 87.083 12.708 86.25 13.7344 86.25H17.4531C18.4795 86.25 19.3125 87.083 19.3125 88.1094C19.3125 89.1358 18.4795 89.9688 17.4531 89.9688Z" fill="#263238"/>
<path d="M17.4531 82.5312H13.7344C12.708 82.5312 11.875 81.6983 11.875 80.6719C11.875 79.6455 12.708 78.8125 13.7344 78.8125H17.4531C18.4795 78.8125 19.3125 79.6455 19.3125 80.6719C19.3125 81.6983 18.4795 82.5312 17.4531 82.5312Z" fill="#263238"/>
<path d="M50.9219 89.9688H24.8906C23.8643 89.9688 23.0312 89.1358 23.0312 88.1094C23.0312 87.083 23.8643 86.25 24.8906 86.25H50.9219C51.9482 86.25 52.7812 87.083 52.7812 88.1094C52.7812 89.1358 51.9482 89.9688 50.9219 89.9688Z" fill="#263238"/>
<path d="M32.3281 97.4062H24.8906C23.8643 97.4062 23.0312 96.5733 23.0312 95.5469C23.0312 94.5205 23.8643 93.6875 24.8906 93.6875H32.3281C33.3545 93.6875 34.1875 94.5205 34.1875 95.5469C34.1875 96.5733 33.3545 97.4062 32.3281 97.4062Z" fill="#263238"/>
<path d="M58.3594 97.4062H50.9219C49.8955 97.4062 49.0625 96.5733 49.0625 95.5469C49.0625 94.5205 49.8955 93.6875 50.9219 93.6875H58.3594C59.3857 93.6875 60.2188 94.5205 60.2188 95.5469C60.2188 96.5733 59.3857 97.4062 58.3594 97.4062Z" fill="#263238"/>
<path d="M47.2031 82.5312H24.8906C23.8643 82.5312 23.0312 81.6983 23.0312 80.6719C23.0312 79.6455 23.8643 78.8125 24.8906 78.8125H47.2031C48.2295 78.8125 49.0625 79.6455 49.0625 80.6719C49.0625 81.6983 48.2295 82.5312 47.2031 82.5312Z" fill="#263238"/>
<path d="M43.4844 97.4062H39.7656C38.7393 97.4062 37.9062 96.5733 37.9062 95.5469C37.9062 94.5205 38.7393 93.6875 39.7656 93.6875H43.4844C44.5107 93.6875 45.3438 94.5205 45.3438 95.5469C45.3438 96.5733 44.5107 97.4062 43.4844 97.4062Z" fill="#263238"/>
<path d="M17.4531 67.6562H13.7344C12.708 67.6562 11.875 66.8233 11.875 65.7969C11.875 64.7705 12.708 63.9375 13.7344 63.9375H17.4531C18.4795 63.9375 19.3125 64.7705 19.3125 65.7969C19.3125 66.8233 18.4795 67.6562 17.4531 67.6562Z" fill="#263238"/>
<path d="M17.4531 60.2188H13.7344C12.708 60.2188 11.875 59.3858 11.875 58.3594C11.875 57.333 12.708 56.5 13.7344 56.5H17.4531C18.4795 56.5 19.3125 57.333 19.3125 58.3594C19.3125 59.3858 18.4795 60.2188 17.4531 60.2188Z" fill="#263238"/>
<path d="M17.4531 52.7812H13.7344C12.708 52.7812 11.875 51.9483 11.875 50.9219C11.875 49.8955 12.708 49.0625 13.7344 49.0625H17.4531C18.4795 49.0625 19.3125 49.8955 19.3125 50.9219C19.3125 51.9483 18.4795 52.7812 17.4531 52.7812Z" fill="#263238"/>
<path d="M32.3281 45.3438H24.8906C23.8643 45.3438 23.0312 44.5108 23.0312 43.4844C23.0312 42.458 23.8643 41.625 24.8906 41.625H32.3281C33.3545 41.625 34.1875 42.458 34.1875 43.4844C34.1875 44.5108 33.3545 45.3438 32.3281 45.3438Z" fill="#263238"/>
<path d="M62.0781 45.3438H50.9219C49.8955 45.3438 49.0625 44.5108 49.0625 43.4844C49.0625 42.458 49.8955 41.625 50.9219 41.625H62.0781C63.1045 41.625 63.9375 42.458 63.9375 43.4844C63.9375 44.5108 63.1045 45.3438 62.0781 45.3438Z" fill="#263238"/>
<path d="M84.3906 37.9062H65.7969C64.7705 37.9062 63.9375 37.0733 63.9375 36.0469C63.9375 35.0205 64.7705 34.1875 65.7969 34.1875H84.3906C85.417 34.1875 86.25 35.0205 86.25 36.0469C86.25 37.0733 85.417 37.9062 84.3906 37.9062Z" fill="#263238"/>
<path d="M49.0625 60.2188H24.8906C23.8643 60.2188 23.0312 59.3858 23.0312 58.3594C23.0312 57.333 23.8643 56.5 24.8906 56.5H49.0625C50.0889 56.5 50.9219 57.333 50.9219 58.3594C50.9219 59.3858 50.0889 60.2188 49.0625 60.2188Z" fill="#263238"/>
<path d="M39.7656 75.0938H24.8906C23.8643 75.0938 23.0312 74.2608 23.0312 73.2344C23.0312 72.208 23.8643 71.375 24.8906 71.375H39.7656C40.792 71.375 41.625 72.208 41.625 73.2344C41.625 74.2608 40.792 75.0938 39.7656 75.0938Z" fill="#263238"/>
<path d="M58.3594 37.9062H47.2031C46.1768 37.9062 45.3438 37.0733 45.3438 36.0469C45.3438 35.0205 46.1768 34.1875 47.2031 34.1875H58.3594C59.3857 34.1875 60.2188 35.0205 60.2188 36.0469C60.2188 37.0733 59.3857 37.9062 58.3594 37.9062Z" fill="#263238"/>
<path d="M32.3281 67.6562H24.8906C23.8643 67.6562 23.0312 66.8233 23.0312 65.7969C23.0312 64.7705 23.8643 63.9375 24.8906 63.9375H32.3281C33.3545 63.9375 34.1875 64.7705 34.1875 65.7969C34.1875 66.8233 33.3545 67.6562 32.3281 67.6562Z" fill="#263238"/>
<path d="M47.2031 75.0938C46.1768 75.0938 45.3438 74.2608 45.3438 73.2344C45.3438 72.208 46.1768 71.375 47.2031 71.375C48.2295 71.375 49.0625 72.208 49.0625 73.2344C49.0625 74.2608 48.2295 75.0938 47.2031 75.0938Z" fill="#263238"/>
<path d="M39.7656 37.9062H24.8906C23.8643 37.9062 23.0312 37.0733 23.0312 36.0469C23.0312 35.0205 23.8643 34.1875 24.8906 34.1875H39.7656C40.792 34.1875 41.625 35.0205 41.625 36.0469C41.625 37.0733 40.792 37.9062 39.7656 37.9062Z" fill="#263238"/>
<path d="M17.4531 45.3438H13.7344C12.708 45.3438 11.875 44.5108 11.875 43.4844C11.875 42.458 12.708 41.625 13.7344 41.625H17.4531C18.4795 41.625 19.3125 42.458 19.3125 43.4844C19.3125 44.5108 18.4795 45.3438 17.4531 45.3438Z" fill="#263238"/>
<path d="M17.4531 37.9062H13.7344C12.708 37.9062 11.875 37.0733 11.875 36.0469C11.875 35.0205 12.708 34.1875 13.7344 34.1875H17.4531C18.4795 34.1875 19.3125 35.0205 19.3125 36.0469C19.3125 37.0733 18.4795 37.9062 17.4531 37.9062Z" fill="#263238"/>
<path d="M17.4531 30.4688H13.7344C12.708 30.4688 11.875 29.6358 11.875 28.6094C11.875 27.583 12.708 26.75 13.7344 26.75H17.4531C18.4795 26.75 19.3125 27.583 19.3125 28.6094C19.3125 29.6358 18.4795 30.4688 17.4531 30.4688Z" fill="#263238"/>
<path d="M52.7812 52.7812H24.8906C23.8643 52.7812 23.0312 51.9483 23.0312 50.9219C23.0312 49.8955 23.8643 49.0625 24.8906 49.0625H52.7812C53.8076 49.0625 54.6406 49.8955 54.6406 50.9219C54.6406 51.9483 53.8076 52.7812 52.7812 52.7812Z" fill="#263238"/>
<path d="M47.2031 67.6562H39.7656C38.7393 67.6562 37.9062 66.8233 37.9062 65.7969C37.9062 64.7705 38.7393 63.9375 39.7656 63.9375H47.2031C48.2295 63.9375 49.0625 64.7705 49.0625 65.7969C49.0625 66.8233 48.2295 67.6562 47.2031 67.6562Z" fill="#263238"/>
<path d="M28.6094 30.4688H24.8906C23.8643 30.4688 23.0312 29.6358 23.0312 28.6094C23.0312 27.583 23.8643 26.75 24.8906 26.75H28.6094C29.6357 26.75 30.4688 27.583 30.4688 28.6094C30.4688 29.6358 29.6357 30.4688 28.6094 30.4688Z" fill="#263238"/>
<path d="M43.4844 45.3438H39.7656C38.7393 45.3438 37.9062 44.5108 37.9062 43.4844C37.9062 42.458 38.7393 41.625 39.7656 41.625H43.4844C44.5107 41.625 45.3438 42.458 45.3438 43.4844C45.3438 44.5108 44.5107 45.3438 43.4844 45.3438Z" fill="#263238"/>
<path d="M82.5312 101.125C66.1278 101.125 52.7812 87.7784 52.7812 71.375C52.7812 54.9716 66.1278 41.625 82.5312 41.625C98.9347 41.625 112.281 54.9716 112.281 71.375C112.281 87.7784 98.9347 101.125 82.5312 101.125ZM82.5312 45.3438C68.1806 45.3438 56.5 57.0243 56.5 71.375C56.5 85.7257 68.1806 97.4062 82.5312 97.4062C96.8819 97.4062 108.562 85.7257 108.562 71.375C108.562 57.0243 96.8819 45.3438 82.5312 45.3438Z" fill="#263238"/>
<path d="M80.6757 82.5313C80.5529 82.5313 80.4302 82.5201 80.3075 82.4941C79.2997 82.2933 78.6452 81.3152 78.846 80.3074L82.5648 61.7137C82.7693 60.7022 83.792 60.044 84.7514 60.2522C85.7592 60.453 86.4137 61.4311 86.2129 62.4388L82.4941 81.0326C82.3156 81.9214 81.5421 82.5313 80.6757 82.5313Z" fill="#263238"/>
<path d="M91.8281 82.5311C91.3521 82.5311 90.8761 82.3489 90.5116 81.9882C89.7865 81.2631 89.7865 80.0842 90.5116 79.3591L98.4958 71.3749L90.5154 63.3945C89.7902 62.6693 89.7902 61.4905 90.5154 60.7653C91.2405 60.0401 92.4194 60.0401 93.1445 60.7653L102.441 70.0622C103.167 70.7873 103.167 71.9662 102.441 72.6913L93.1445 81.9882C92.7801 82.3489 92.3041 82.5311 91.8281 82.5311Z" fill="#263238"/>
<path d="M73.2343 82.5311C72.7583 82.5311 72.2823 82.3489 71.9179 81.9882L62.621 72.6913C61.8959 71.9662 61.8959 70.7873 62.621 70.0622L71.9179 60.7653C72.643 60.0401 73.8219 60.0401 74.5471 60.7653C75.2722 61.4905 75.2722 62.6693 74.5471 63.3945L66.5666 71.3749L74.5471 79.3553C75.2722 80.0805 75.2722 81.2593 74.5471 81.9845C74.1863 82.3489 73.7103 82.5311 73.2343 82.5311Z" fill="#263238"/>
</svg>
