<svg width="36" height="36" viewBox="0 0 36 36" fill="none" xmlns="http://www.w3.org/2000/svg">
<path d="M30 1.5H6C3.51375 1.5 1.5 3.51375 1.5 6V30C1.5 32.4862 3.51375 34.5 6 34.5H30C32.4862 34.5 34.5 32.4862 34.5 30V6C34.5 3.51375 32.4862 1.5 30 1.5ZM31.5 30C31.5 30.8288 30.8288 31.5 30 31.5H6C5.17125 31.5 4.5 30.8288 4.5 30V6C4.5 5.17125 5.17125 4.5 6 4.5H30C30.8288 4.5 31.5 5.17125 31.5 6V30Z" fill="black"/>
<path d="M20.1214 18L23.3033 14.8185C23.889 14.2328 23.889 13.2825 23.3033 12.6968C22.7175 12.111 21.7673 12.111 21.1815 12.6968L18 15.8786L14.8181 12.6968C14.2324 12.111 13.2825 12.111 12.6968 12.6968C12.111 13.2825 12.111 14.2331 12.6968 14.8185L15.8786 18L12.6968 21.1815C12.111 21.7673 12.111 22.7175 12.6968 23.3033C13.2825 23.889 14.2324 23.889 14.8181 23.3033L18 20.1214L21.1815 23.3033C21.7673 23.889 22.7175 23.889 23.3033 23.3033C23.889 22.7175 23.889 21.7669 23.3033 21.1815L20.1214 18Z" fill="black"/>
</svg>
