<svg width="110" height="110" viewBox="0 0 110 110" fill="none" xmlns="http://www.w3.org/2000/svg">
<path d="M62 98.75H48V102.25H62V98.75Z" fill="black"/>
<path d="M100.5 18.25H90V9.5C90 4.67525 86.0748 0.75 81.25 0.75H28.75C23.9253 0.75 20 4.67525 20 9.5V53.25H9.5C4.67525 53.25 0.75 57.1753 0.75 62V98.4088L17.0022 88.25H20V100.5C20 105.325 23.9253 109.25 28.75 109.25H81.25C86.0748 109.25 90 105.325 90 100.5V53.25H92.9977L109.25 63.4088V27C109.25 22.1753 105.325 18.25 100.5 18.25ZM28.75 4.25H81.25C84.1445 4.25 86.5 6.6055 86.5 9.5V11.25H23.5V9.5C23.5 6.6055 25.8555 4.25 28.75 4.25ZM15.9978 84.75L4.25 92.0912V62C4.25 59.1055 6.6055 56.75 9.5 56.75H48C50.8945 56.75 53.25 59.1055 53.25 62V79.5C53.25 82.3945 50.8945 84.75 48 84.75H15.9978ZM81.25 105.75H28.75C25.8555 105.75 23.5 103.395 23.5 100.5V95.25H86.5V100.5C86.5 103.395 84.1445 105.75 81.25 105.75ZM86.5 91.75H23.5V88.25H48C52.8247 88.25 56.75 84.3248 56.75 79.5V62C56.75 57.1753 52.8247 53.25 48 53.25H23.5V14.75H86.5V18.25H62C57.1753 18.25 53.25 22.1753 53.25 27V44.5C53.25 49.3247 57.1753 53.25 62 53.25H86.5V91.75ZM105.75 57.0912L94.0023 49.75H90H86.5H62C59.1055 49.75 56.75 47.3945 56.75 44.5V27C56.75 24.1055 59.1055 21.75 62 21.75H100.5C103.395 21.75 105.75 24.1055 105.75 27V57.0912Z" fill="black"/>
<path d="M81.25 30.5C78.3555 30.5 76 32.8555 76 35.75C76 38.6445 78.3555 41 81.25 41C84.1445 41 86.5 38.6445 86.5 35.75C86.5 32.8555 84.1445 30.5 81.25 30.5ZM81.25 37.5C80.2857 37.5 79.5 36.7143 79.5 35.75C79.5 34.7857 80.2857 34 81.25 34C82.2143 34 83 34.7857 83 35.75C83 36.7143 82.2143 37.5 81.25 37.5Z" fill="black"/>
<path d="M95.25 30.5C92.3555 30.5 90 32.8555 90 35.75C90 38.6445 92.3555 41 95.25 41C98.1445 41 100.5 38.6445 100.5 35.75C100.5 32.8555 98.1445 30.5 95.25 30.5ZM95.25 37.5C94.2857 37.5 93.5 36.7143 93.5 35.75C93.5 34.7857 94.2857 34 95.25 34C96.2143 34 97 34.7857 97 35.75C97 36.7143 96.2143 37.5 95.25 37.5Z" fill="black"/>
<path d="M67.25 30.5C64.3555 30.5 62 32.8555 62 35.75C62 38.6445 64.3555 41 67.25 41C70.1445 41 72.5 38.6445 72.5 35.75C72.5 32.8555 70.1445 30.5 67.25 30.5ZM67.25 37.5C66.2857 37.5 65.5 36.7143 65.5 35.75C65.5 34.7857 66.2857 34 67.25 34C68.2143 34 69 34.7857 69 35.75C69 36.7143 68.2143 37.5 67.25 37.5Z" fill="black"/>
<path d="M39.25 71.072V70.75C39.25 64.9592 34.5408 60.25 28.75 60.25C22.9592 60.25 18.25 64.9592 18.25 70.75V71.072C16.2183 71.7965 14.75 73.7215 14.75 76C14.75 78.8945 17.1055 81.25 20 81.25H25.25V70.75H21.75C21.75 66.8895 24.8895 63.75 28.75 63.75C32.6105 63.75 35.75 66.8895 35.75 70.75H32.25V81.25H37.5C40.3945 81.25 42.75 78.8945 42.75 76C42.75 73.7215 41.2817 71.7965 39.25 71.072ZM21.75 77.75H20C19.0357 77.75 18.25 76.966 18.25 76C18.25 75.034 19.0357 74.25 20 74.25H21.75V77.75ZM37.5 77.75H35.75V74.25H37.5C38.4643 74.25 39.25 75.034 39.25 76C39.25 76.966 38.4643 77.75 37.5 77.75Z" fill="black"/>
<path d="M63.75 69H60.25V72.5H63.75V69Z" fill="black"/>
<path d="M70.75 69H67.25V72.5H70.75V69Z" fill="black"/>
<path d="M77.75 69H74.25V72.5H77.75V69Z" fill="black"/>
<path d="M35.75 34H32.25V37.5H35.75V34Z" fill="black"/>
<path d="M42.75 34H39.25V37.5H42.75V34Z" fill="black"/>
<path d="M49.75 34H46.25V37.5H49.75V34Z" fill="black"/>
</svg>
