<svg width="64" height="64" viewBox="0 0 64 64" fill="none" xmlns="http://www.w3.org/2000/svg">
<path d="M51.2 8C52.2667 8 53.3334 8.8 53.8667 9.86667C53.8667 10.1333 53.8667 10.1333 53.8667 10.4L53.8667 17.0667C53.8667 17.3333 53.8667 17.3333 53.8667 17.6C53.8667 18.1333 53.8667 19.2 53.3334 20C52.8 20.5333 52.2667 20.8 51.7334 21.0667L51.2 21.0667C50.1334 21.3333 49.3334 21.6 48.5334 21.8667C47.2 22.6667 46.1334 24 45.6 25.6C49.6 25.6 53.8667 25.6 57.8667 25.6C58.4 25.6 58.9334 25.6 59.4667 25.8667C61.3334 26.4 62.4 28 62.4 29.8667C62.4 34.9333 62.4 40.2667 62.4 45.3333L62.4 51.2C62.4 52.2667 62.4 53.8667 61.0667 55.2C60.5334 55.7333 59.4667 56 58.6667 56L38.1334 56C35.2 56 33.8667 54.4 33.8667 50.9333L33.8667 50.1333C33.8667 46.6667 33.8667 33.6 33.8667 26.6667C33.8667 21.3333 36 16.5333 40 12.8L40.5334 12.2667C42.9334 10.4 45.0667 9.33333 47.4667 8.53333C48.5334 8.26667 49.8667 8.26667 50.6667 8C50.9334 8 51.2 8 51.2 8ZM51.2 10.6667L51.2 9.33333L51.2 10.6667C50.1334 10.9333 49.0667 10.9333 48.2667 11.2C46.1334 11.7333 44.2667 12.8 42.4 14.4L41.8667 14.9333C38.4 18.1333 36.5334 22.1333 36.5334 26.9333C36.5334 33.6 36.5334 46.9333 36.5334 50.4L36.5334 51.2C36.5334 53.3333 37.0667 53.3333 37.8667 53.3333L58.6667 53.3333C58.9334 53.3333 59.2 53.3333 59.4667 52.8C60 52.5333 60 52.2667 60 50.9333L60 45.0667C60 40 60 34.6667 60 29.6C60 29.0667 59.4667 28.5333 58.9334 28.2667C58.6667 28.2667 58.4 28.2667 58.1334 28.2667C53.6 28.2667 48.8 28.2667 44.2667 28.2667C43.7334 28.2667 43.4667 28 43.2 27.7333C42.6667 27.4667 42.6667 26.9333 42.6667 26.6667L42.9334 25.6C43.4667 22.9333 45.0667 21.0667 47.2 19.7333C48.2667 18.9333 49.6 18.6667 50.6667 18.4L51.2 18.4C51.2 18.4 51.4667 18.4 51.4667 18.1333L51.4667 17.8667C51.4667 17.6 51.4667 17.3333 51.4667 17.0667L51.4667 15.4667L51.2 10.6667Z" fill="black"/>
<path d="M41.0668 25.6002C45.8668 25.6002 50.4001 25.6002 55.2001 25.6002C56.0001 25.6002 56.5334 26.1335 56.5334 26.9335C56.5334 27.7335 56.0001 28.2668 55.2001 28.2668C50.4001 28.2668 45.8668 28.2668 41.0668 28.2668C40.2668 28.2668 39.7334 27.7335 39.7334 26.9335C39.7334 26.1335 40.2668 25.6002 41.0668 25.6002Z" fill="black"/>
<path d="M18.6668 8.00017C19.7335 8.00017 20.8002 8.80018 21.3335 9.86684C21.3335 10.1335 21.3335 10.1335 21.3335 10.4002L21.3335 17.0668C21.3335 17.3335 21.3335 17.3335 21.3335 17.6002C21.3335 18.1335 21.3335 19.2002 20.8002 20.0002C20.2668 20.5335 19.7335 20.8002 19.2002 21.0668L18.6668 21.0668C17.6002 21.3335 16.8002 21.6002 16.0002 21.8668C14.6668 22.6668 13.6002 24.0002 13.0668 25.6002C17.0668 25.6002 21.3335 25.6002 25.3335 25.6002C25.8668 25.6002 26.4002 25.6002 26.9335 25.8668C28.8002 26.4002 29.8668 28.0002 29.8668 29.8668C29.8668 34.9335 29.8668 40.0002 29.8668 45.0668L29.8668 51.2002C29.8668 52.2668 29.8668 53.8668 28.5335 55.2002C27.7335 56.0002 26.9335 56.2668 25.8668 56.2668L5.33348 56.2668C2.40015 56.2668 1.06682 54.6668 1.06682 51.2002L1.06682 50.4002C1.06682 46.9335 1.06682 33.8668 1.06682 26.9335C1.06682 21.6002 3.20016 16.8002 7.20016 13.0668L8.00016 12.5335L8.26682 12.2668C10.4002 10.4002 12.8002 9.33351 15.2002 8.80017C16.2668 8.53351 17.3335 8.26684 18.4002 8.26684C18.4002 8.00018 18.6668 8.00017 18.6668 8.00017ZM18.6668 10.6668L18.6668 9.33351L18.6668 10.6668C17.6002 10.9335 16.5335 10.9335 15.7335 11.2002C13.6002 11.7335 11.7335 12.8002 9.86682 14.4002L9.33349 14.9335C5.86682 18.1335 4.00016 22.1335 4.00016 26.9335C4.00015 33.6002 4.00015 46.9335 4.00015 50.4002L4.00015 51.2002C4.00015 53.3335 4.53349 53.3335 5.60015 53.3335L26.1335 53.3335C26.4002 53.3335 26.6668 53.3335 26.9335 53.0668C27.2002 52.8002 27.4668 52.2668 27.4668 51.2002L27.4668 45.0668C27.4668 40.0002 27.4668 34.9335 27.4668 29.8668C27.4668 29.3335 26.9335 28.8002 26.4002 28.5335C26.1335 28.5335 25.8668 28.5335 25.6002 28.5335C21.0668 28.5335 16.2668 28.5335 11.7335 28.5335C11.2002 28.5335 10.9335 28.2668 10.6668 28.0002C10.4002 27.7335 10.4002 27.2002 10.4002 26.9335L10.6668 25.8668C11.2002 23.2002 12.8002 21.3335 14.9335 20.0002C16.0002 19.4668 17.0668 18.9335 18.4002 18.6668L18.9335 18.6668C18.9335 18.6668 19.2002 18.6668 19.2002 18.4002L19.2002 18.1335C19.2002 17.8668 19.2002 17.6002 19.2002 17.3335L18.6668 10.6668Z" fill="black"/>
<path d="M8.53358 25.6002C13.3336 25.6002 17.8669 25.6002 22.6669 25.6002C23.4669 25.6002 24.0002 26.1335 24.0002 26.9335C24.0002 27.7335 23.4669 28.2668 22.6669 28.2668C17.8669 28.2668 13.3336 28.2668 8.53358 28.2668C7.73358 28.2668 7.20025 27.7335 7.20025 26.9335C7.20025 26.1335 7.73358 25.6002 8.53358 25.6002Z" fill="black"/>
</svg>
