<svg width="20" height="20" viewBox="0 0 20 20" fill="none" xmlns="http://www.w3.org/2000/svg">
<path d="M18.6397 5.31457C18.0008 5.59856 17.3132 5.79012 16.5918 5.87584C17.3284 5.43487 17.8932 4.73637 18.1595 3.90311C17.4706 4.31198 16.7079 4.60866 15.8954 4.76883C15.2452 4.07597 14.3185 3.64276 13.293 3.64276C11.3241 3.64276 9.72781 5.23908 9.72781 7.20828C9.72781 7.48733 9.75921 7.75932 9.82024 8.02073C6.85691 7.87185 4.22942 6.45263 2.47083 4.2954C2.16391 4.82174 1.98823 5.43416 1.98823 6.08821C1.98823 7.32505 2.61758 8.41654 3.57432 9.05577C2.99012 9.03708 2.44014 8.87656 1.9593 8.60951C1.95895 8.62433 1.95895 8.6395 1.95895 8.65467C1.95895 10.3819 3.18803 11.8226 4.81927 12.1507C4.52011 12.2318 4.20508 12.2756 3.87982 12.2756C3.64981 12.2756 3.4265 12.2533 3.20884 12.2114C3.66286 13.6278 4.97943 14.6589 6.53941 14.6875C5.31915 15.6439 3.7821 16.214 2.11135 16.214C1.82384 16.214 1.53985 16.197 1.2608 16.1639C2.83913 17.176 4.71308 17.7658 6.72638 17.7658C13.2849 17.7658 16.8708 12.3331 16.8708 7.62138C16.8708 7.46687 16.8677 7.3127 16.861 7.1596C17.5573 6.65795 18.162 6.02965 18.6397 5.31457Z" fill="black"/>
</svg>
