<svg width="109" height="109" viewBox="0 0 109 109" fill="none" xmlns="http://www.w3.org/2000/svg">
<g clip-path="url(#clip0)">
<path d="M103.891 20.4375H91.9688V19.9436C91.9688 19.4919 91.7893 19.0587 91.4699 18.7393C91.1505 18.4199 90.7173 18.2405 90.2656 18.2405C89.8139 18.2405 89.3807 18.4199 89.0613 18.7393C88.7419 19.0587 88.5625 19.4919 88.5625 19.9436V20.4375H76.6406C75.2855 20.4375 73.9859 20.9758 73.0278 21.934C72.0696 22.8922 71.5312 24.1918 71.5312 25.5469V30.6563C71.0796 30.6563 70.6464 30.8357 70.327 31.1551C70.0076 31.4745 69.8281 31.9077 69.8281 32.3594V35.7656C69.8281 36.2173 70.0076 36.6505 70.327 36.9699C70.6464 37.2893 71.0796 37.4688 71.5312 37.4688V40.875C71.0796 40.875 70.6464 41.0544 70.327 41.3738C70.0076 41.6932 69.8281 42.1264 69.8281 42.5781V45.9844C69.8281 46.4361 70.0076 46.8693 70.327 47.1887C70.6464 47.5081 71.0796 47.6875 71.5312 47.6875V83.4531C71.5312 84.8082 72.0696 86.1078 73.0278 87.066C73.9859 88.0242 75.2855 88.5625 76.6406 88.5625H88.5625V95.375C88.5625 95.8267 88.7419 96.2599 89.0613 96.5793C89.3807 96.8987 89.8139 97.0781 90.2656 97.0781C90.7173 97.0781 91.1505 96.8987 91.4699 96.5793C91.7893 96.2599 91.9688 95.8267 91.9688 95.375V88.5625H103.891C105.246 88.5625 106.545 88.0242 107.503 87.066C108.462 86.1078 109 84.8082 109 83.4531V25.5469C109 24.1918 108.462 22.8922 107.503 21.934C106.545 20.9758 105.246 20.4375 103.891 20.4375ZM76.6406 23.8438H103.891C104.185 23.8485 104.473 23.9294 104.727 24.0787C104.98 24.2279 105.191 24.4404 105.338 24.6953H103.039C102.295 24.7123 101.564 24.8991 100.903 25.2415C100.242 25.5839 99.6675 26.0728 99.2241 26.6709C98.937 27.0938 98.5549 27.4435 98.1082 27.6919C97.6616 27.9404 97.163 28.0807 96.6523 28.1016H83.8789C83.3683 28.0807 82.8696 27.9404 82.423 27.6919C81.9764 27.4435 81.5942 27.0938 81.3072 26.6709C80.8638 26.0728 80.2895 25.5839 79.6284 25.2415C78.9672 24.8991 78.2366 24.7123 77.4922 24.6953H75.193C75.3401 24.4404 75.5508 24.2279 75.8045 24.0787C76.0582 23.9294 76.3463 23.8485 76.6406 23.8438ZM105.594 83.4531C105.594 83.9048 105.414 84.338 105.095 84.6574C104.776 84.9768 104.342 85.1563 103.891 85.1563H76.6406C76.1889 85.1563 75.7557 84.9768 75.4363 84.6574C75.1169 84.338 74.9375 83.9048 74.9375 83.4531V74.086H105.594V83.4531ZM74.9375 72.3828V26.3984H77.4922C78.0028 26.4194 78.5015 26.5597 78.9481 26.8081C79.3947 27.0566 79.7769 27.4062 80.0639 27.8291C80.5073 28.4272 81.0815 28.9161 81.7427 29.2585C82.4039 29.6009 83.1345 29.7877 83.8789 29.8047H96.6523C97.3996 29.7903 98.1336 29.6047 98.7979 29.2622C99.4623 28.9197 100.039 28.4294 100.484 27.8291C100.771 27.4062 101.154 27.0566 101.6 26.8081C102.047 26.5597 102.545 26.4194 103.056 26.3984H105.594V72.3828H74.9375Z" fill="#190933"/>
<path d="M90.2656 27.25C90.7359 27.25 91.1172 26.8687 91.1172 26.3984C91.1172 25.9281 90.7359 25.5469 90.2656 25.5469C89.7953 25.5469 89.4141 25.9281 89.4141 26.3984C89.4141 26.8687 89.7953 27.25 90.2656 27.25Z" fill="#190933"/>
<path d="M28.9531 28.1016C29.179 28.1016 29.3956 28.0118 29.5553 27.8521C29.715 27.6924 29.8047 27.4758 29.8047 27.25C29.8047 27.0242 29.715 26.8076 29.5553 26.6479C29.3956 26.4882 29.179 26.3984 28.9531 26.3984C25.1151 26.4029 21.4355 27.9296 18.7216 30.6435C16.0077 33.3574 14.4811 37.037 14.4766 40.875C14.4766 41.1008 14.5663 41.3174 14.726 41.4771C14.8857 41.6368 15.1023 41.7266 15.3281 41.7266C15.554 41.7266 15.7706 41.6368 15.9303 41.4771C16.09 41.3174 16.1797 41.1008 16.1797 40.875C16.1797 37.4873 17.5255 34.2383 19.9209 31.8428C22.3164 29.4473 25.5654 28.1016 28.9531 28.1016Z" fill="#190933"/>
<path d="M28.1016 13.625V17.0312C28.1016 17.2571 28.1913 17.4737 28.351 17.6334C28.5107 17.7931 28.7273 17.8828 28.9531 17.8828C29.179 17.8828 29.3956 17.7931 29.5553 17.6334C29.715 17.4737 29.8047 17.2571 29.8047 17.0312V13.625C29.8047 13.3992 29.715 13.1826 29.5553 13.0229C29.3956 12.8632 29.179 12.7734 28.9531 12.7734C28.7273 12.7734 28.5107 12.8632 28.351 13.0229C28.1913 13.1826 28.1016 13.3992 28.1016 13.625Z" fill="#190933"/>
<path d="M17.0312 21.0847C17.1806 21.0795 17.3266 21.0386 17.457 20.9654C17.6503 20.8517 17.791 20.6662 17.8484 20.4494C17.9058 20.2326 17.8753 20.0018 17.7635 19.8073L16.0604 16.8439C16.0113 16.7353 15.94 16.6382 15.8511 16.5589C15.7622 16.4796 15.6576 16.4199 15.5441 16.3836C15.4306 16.3472 15.3108 16.3351 15.1923 16.348C15.0739 16.3609 14.9594 16.3985 14.8564 16.4584C14.7534 16.5183 14.6641 16.5991 14.5943 16.6957C14.5245 16.7923 14.4757 16.9024 14.4512 17.019C14.4266 17.1356 14.4268 17.256 14.4517 17.3726C14.4766 17.4891 14.5256 17.5991 14.5957 17.6954L16.2989 20.6589C16.3732 20.7876 16.4798 20.8946 16.6083 20.9693C16.7368 21.044 16.8826 21.0838 17.0312 21.0847Z" fill="#190933"/>
<path d="M7.88544 29.6854C8.01169 29.7681 8.1604 29.8097 8.31122 29.8046C8.45983 29.8037 8.60562 29.764 8.73409 29.6893C8.86257 29.6146 8.96926 29.5076 9.04356 29.3789C9.1553 29.1843 9.18578 28.9536 9.12838 28.7368C9.07098 28.5199 8.93033 28.3345 8.737 28.2207L5.77356 26.5176C5.6772 26.4475 5.5672 26.3984 5.45068 26.3735C5.33416 26.3486 5.2137 26.3485 5.09711 26.373C4.98052 26.3976 4.87038 26.4464 4.77382 26.5162C4.67725 26.586 4.59641 26.6753 4.53652 26.7783C4.47663 26.8813 4.43903 26.9957 4.42614 27.1142C4.41325 27.2326 4.42536 27.3525 4.46169 27.466C4.49803 27.5794 4.55777 27.684 4.63706 27.773C4.71635 27.8619 4.81342 27.9332 4.922 27.9823L7.88544 29.6854Z" fill="#190933"/>
<path d="M0.851562 40.875C0.851563 41.1008 0.94128 41.3174 1.10098 41.4771C1.26068 41.6368 1.47728 41.7266 1.70312 41.7266H5.10938C5.33522 41.7266 5.55182 41.6368 5.71152 41.4771C5.87122 41.3174 5.96094 41.1008 5.96094 40.875C5.96094 40.6492 5.87122 40.4326 5.71152 40.2729C5.55182 40.1132 5.33522 40.0234 5.10938 40.0234H1.70312C1.47728 40.0234 1.26068 40.1132 1.10098 40.2729C0.94128 40.4326 0.851563 40.6492 0.851562 40.875Z" fill="#190933"/>
<path d="M5.34788 55.3515C5.49843 55.3544 5.64653 55.313 5.77366 55.2323L8.73709 53.5291C8.93043 53.4154 9.07107 53.23 9.12847 53.0131C9.18587 52.7963 9.15539 52.5655 9.04366 52.371C8.9299 52.1777 8.74446 52.037 8.52762 51.9796C8.31077 51.9222 8.08004 51.9527 7.88553 52.0645L4.9221 53.7676C4.76225 53.8624 4.63782 54.0069 4.56778 54.1791C4.49775 54.3512 4.48595 54.5416 4.5342 54.721C4.58245 54.9005 4.68809 55.0593 4.835 55.1731C4.98191 55.287 5.16203 55.3496 5.34788 55.3515Z" fill="#190933"/>
<path d="M41.8457 16.8439L40.1426 19.8073C40.0308 20.0018 40.0004 20.2326 40.0578 20.4494C40.1152 20.6662 40.2558 20.8517 40.4491 20.9654C40.5795 21.0386 40.7255 21.0795 40.8749 21.0847C41.0235 21.0838 41.1693 21.044 41.2978 20.9693C41.4263 20.8946 41.533 20.7876 41.6073 20.6589L43.3104 17.6954C43.3805 17.5991 43.4296 17.4891 43.4545 17.3726C43.4794 17.256 43.4795 17.1356 43.455 17.019C43.4304 16.9024 43.3816 16.7923 43.3118 16.6957C43.242 16.5991 43.1527 16.5183 43.0497 16.4584C42.9467 16.3985 42.8323 16.3609 42.7138 16.348C42.5954 16.3351 42.4755 16.3472 42.362 16.3836C42.2486 16.4199 42.144 16.4796 42.055 16.5589C41.9661 16.6382 41.8948 16.7353 41.8457 16.8439Z" fill="#190933"/>
<path d="M48.8627 29.3789C48.937 29.5076 49.0437 29.6146 49.1722 29.6893C49.3006 29.764 49.4464 29.8037 49.595 29.8046C49.7458 29.8097 49.8946 29.7681 50.0208 29.6854L52.9842 27.9823C53.0928 27.9332 53.1899 27.8619 53.2692 27.773C53.3485 27.684 53.4082 27.5794 53.4445 27.466C53.4809 27.3525 53.493 27.2326 53.4801 27.1142C53.4672 26.9957 53.4296 26.8813 53.3697 26.7783C53.3098 26.6753 53.229 26.586 53.1324 26.5162C53.0359 26.4464 52.9257 26.3976 52.8091 26.373C52.6925 26.3485 52.5721 26.3486 52.4556 26.3735C52.339 26.3984 52.229 26.4475 52.1327 26.5176L49.1692 28.2207C48.9759 28.3345 48.8353 28.5199 48.7779 28.7368C48.7205 28.9536 48.7509 29.1843 48.8627 29.3789Z" fill="#190933"/>
<path d="M57.0547 40.875C57.0547 40.6492 56.965 40.4326 56.8053 40.2729C56.6456 40.1132 56.429 40.0234 56.2031 40.0234H52.7969C52.571 40.0234 52.3544 40.1132 52.1947 40.2729C52.035 40.4326 51.9453 40.6492 51.9453 40.875C51.9453 41.1008 52.035 41.3174 52.1947 41.4771C52.3544 41.6368 52.571 41.7266 52.7969 41.7266H56.2031C56.429 41.7266 56.6456 41.6368 56.8053 41.4771C56.965 41.3174 57.0547 41.1008 57.0547 40.875Z" fill="#190933"/>
<path d="M52.1327 55.2323C52.2598 55.313 52.4079 55.3545 52.5585 55.3515C52.7443 55.3496 52.9244 55.287 53.0713 55.1731C53.2183 55.0593 53.3239 54.9005 53.3721 54.7211C53.4204 54.5416 53.4086 54.3512 53.3386 54.1791C53.2685 54.0069 53.1441 53.8624 52.9842 53.7676L50.0208 52.0645C49.9251 52.0069 49.8188 51.9691 49.7081 51.9533C49.5975 51.9375 49.4849 51.9441 49.3769 51.9727C49.2689 52.0013 49.1677 52.0513 49.0794 52.1197C48.9911 52.1881 48.9174 52.2736 48.8627 52.371C48.7509 52.5655 48.7205 52.7963 48.7779 53.0131C48.8353 53.23 48.9759 53.4154 49.1692 53.5292L52.1327 55.2323Z" fill="#190933"/>
<path d="M25.5468 88.5625H27.2499V89.0564C27.2499 89.5081 27.4294 89.9413 27.7488 90.2607C28.0682 90.5801 28.5014 90.7595 28.9531 90.7595C29.4048 90.7595 29.838 90.5801 30.1574 90.2607C30.4768 89.9413 30.6562 89.5081 30.6562 89.0564V88.5625H32.3593C33.7144 88.5625 35.014 88.0242 35.9722 87.066C36.9304 86.1078 37.4687 84.8082 37.4687 83.4531V81.4434C38.4625 81.0921 39.3234 80.4419 39.9332 79.582C40.543 78.7222 40.872 77.6948 40.8749 76.6406V66.4219C40.865 63.9058 41.145 61.3971 41.7095 58.9452C45.5492 56.2331 48.426 52.3693 49.9234 47.9132C51.4208 43.4572 51.461 38.6402 50.0383 34.1597C48.6155 29.6793 45.8036 25.768 42.0097 22.9921C38.2159 20.2163 33.637 18.7201 28.936 18.7201C24.2351 18.7201 19.6562 20.2163 15.8623 22.9921C12.0685 25.768 9.25657 29.6793 7.83381 34.1597C6.41105 38.6402 6.45128 43.4572 7.94867 47.9132C9.44606 52.3693 12.3229 56.2331 16.1626 58.9452C16.7385 61.3957 17.03 63.9045 17.0312 66.4219V76.6406C17.0342 77.6948 17.3631 78.7222 17.9729 79.582C18.5827 80.4419 19.4436 81.0921 20.4374 81.4434V83.4531C20.4374 84.8082 20.9757 86.1078 21.9339 87.066C22.8921 88.0242 24.1917 88.5625 25.5468 88.5625ZM37.4687 75.7209C31.4392 74.9811 25.6348 72.9728 20.4374 69.8281V66.4219C20.4374 65.945 20.4374 65.4851 20.4374 65.0083C25.659 68.0491 31.4616 69.9581 37.4687 70.6116V75.7209ZM20.4374 71.8378C25.5979 74.8476 31.3284 76.75 37.2643 77.4241C37.1218 77.6992 36.9069 77.9302 36.6428 78.0923C36.3787 78.2543 36.0754 78.3413 35.7656 78.3437H22.1406C21.6889 78.3437 21.2557 78.1643 20.9363 77.8449C20.6169 77.5255 20.4374 77.0923 20.4374 76.6406V71.8378ZM34.0624 83.4531C34.0624 83.9048 33.883 84.338 33.5636 84.6574C33.2442 84.9768 32.811 85.1562 32.3593 85.1562H25.5468C25.0951 85.1562 24.6619 84.9768 24.3425 84.6574C24.0231 84.338 23.8437 83.9048 23.8437 83.4531V81.75H34.0624V83.4531ZM10.2187 40.875C10.2218 37.6295 11.0679 34.4405 12.6742 31.6204C14.2805 28.8004 16.5919 26.4459 19.3819 24.7879C22.1718 23.1298 25.3447 22.2249 28.5895 22.162C31.8344 22.099 35.04 22.88 37.8921 24.4286C40.7443 25.9772 43.1453 28.2401 44.8598 30.9958C46.5744 33.7514 47.5436 36.9052 47.6726 40.1481C47.8016 43.391 47.086 46.6118 45.5958 49.4949C44.1056 52.378 41.892 54.8246 39.1718 56.5948C38.4872 57.0452 37.7699 57.4437 37.0259 57.787H36.8556C34.391 58.8901 31.7213 59.4603 29.0212 59.4603C26.3211 59.4603 23.6514 58.8901 21.1868 57.787H21.0165C20.2725 57.4437 19.5552 57.0452 18.8706 56.5948C16.2284 54.9077 14.0518 52.5845 12.5402 49.8381C11.0286 47.0917 10.2304 44.0099 10.2187 40.875ZM22.1406 61.9256H22.2428C26.6171 63.3338 31.3231 63.3338 35.6974 61.9256H35.7996C36.4638 61.7042 37.111 61.4658 37.7412 61.1933H37.8434C37.5966 62.9253 37.4714 64.6724 37.4687 66.4219V68.9084C31.3808 68.1906 25.5163 66.1816 20.2671 63.0156C20.2671 62.4025 20.1649 61.8064 20.0798 61.2103H20.182C20.8121 61.4658 21.4593 61.7042 22.1406 61.9256Z" fill="#190933"/>
<path d="M28.9531 94.1658C28.5014 94.1658 28.0682 94.3452 27.7488 94.6646C27.4294 94.984 27.25 95.4172 27.25 95.8689V102.681C27.25 103.133 27.4294 103.566 27.7488 103.886C28.0682 104.205 28.5014 104.385 28.9531 104.385C29.4048 104.385 29.838 104.205 30.1574 103.886C30.4768 103.566 30.6562 103.133 30.6562 102.681V95.8689C30.6562 95.4172 30.4768 94.984 30.1574 94.6646C29.838 94.3452 29.4048 94.1658 28.9531 94.1658Z" fill="#190933"/>
<path d="M66.6603 105.594H59.8478C59.3961 105.594 58.9629 105.773 58.6435 106.093C58.3241 106.412 58.1447 106.845 58.1447 107.297C58.1447 107.749 58.3241 108.182 58.6435 108.501C58.9629 108.821 59.3961 109 59.8478 109H66.6603C67.112 109 67.5452 108.821 67.8646 108.501C68.184 108.182 68.3634 107.749 68.3634 107.297C68.3634 106.845 68.184 106.412 67.8646 106.093C67.5452 105.773 67.112 105.594 66.6603 105.594Z" fill="#190933"/>
<path d="M44.5197 107.297C44.5197 107.749 44.6991 108.182 45.0185 108.501C45.3379 108.821 45.7711 109 46.2228 109H53.0353C53.487 109 53.9202 108.821 54.2396 108.501C54.559 108.182 54.7384 107.749 54.7384 107.297C54.7384 106.845 54.559 106.412 54.2396 106.093C53.9202 105.773 53.487 105.594 53.0353 105.594H46.2228C45.7711 105.594 45.3379 105.773 45.0185 106.093C44.6991 106.412 44.5197 106.845 44.5197 107.297Z" fill="#190933"/>
<path d="M90.2656 100.484C89.8139 100.484 89.3807 100.664 89.0613 100.983C88.7419 101.303 88.5624 101.736 88.5624 102.187V103.891C88.5635 104.322 88.4005 104.738 88.1065 105.055C87.8124 105.371 87.4093 105.564 86.9785 105.594C86.5268 105.61 86.0999 105.804 85.7917 106.135C85.4835 106.465 85.3192 106.905 85.335 107.356C85.3508 107.808 85.5454 108.235 85.876 108.543C86.2066 108.852 86.6461 109.016 87.0978 109H87.217C88.5091 108.909 89.7186 108.331 90.6008 107.383C91.4829 106.434 91.9719 105.186 91.9687 103.891V102.187C91.9687 101.736 91.7893 101.303 91.4699 100.983C91.1505 100.664 90.7173 100.484 90.2656 100.484Z" fill="#190933"/>
<path d="M39.4103 105.594H32.5978C32.1461 105.594 31.7129 105.773 31.3935 106.093C31.0741 106.412 30.8947 106.845 30.8947 107.297C30.8947 107.749 31.0741 108.182 31.3935 108.501C31.7129 108.821 32.1461 109 32.5978 109H39.4103C39.862 109 40.2952 108.821 40.6146 108.501C40.934 108.182 41.1134 107.749 41.1134 107.297C41.1134 106.845 40.934 106.412 40.6146 106.093C40.2952 105.773 39.862 105.594 39.4103 105.594Z" fill="#190933"/>
<path d="M80.2853 109C80.737 109 81.1702 108.821 81.4896 108.501C81.809 108.182 81.9884 107.749 81.9884 107.297C81.9884 106.845 81.809 106.412 81.4896 106.093C81.1702 105.773 80.737 105.594 80.2853 105.594H73.4728C73.0211 105.594 72.5879 105.773 72.2685 106.093C71.9491 106.412 71.7697 106.845 71.7697 107.297C71.7697 107.749 71.9491 108.182 72.2685 108.501C72.5879 108.821 73.0211 109 73.4728 109H80.2853Z" fill="#190933"/>
<path d="M47.4491 1.70312C47.4491 1.25143 47.2697 0.818232 46.9503 0.498834C46.6309 0.179436 46.1977 0 45.746 0L38.9335 0C38.4818 0 38.0486 0.179436 37.7292 0.498834C37.4098 0.818232 37.2303 1.25143 37.2303 1.70312C37.2303 2.15482 37.4098 2.58802 37.7292 2.90742C38.0486 3.22681 38.4818 3.40625 38.9335 3.40625H45.746C46.1977 3.40625 46.6309 3.22681 46.9503 2.90742C47.2697 2.58802 47.4491 2.15482 47.4491 1.70312Z" fill="#190933"/>
<path d="M74.6991 1.70312C74.6991 1.25143 74.5197 0.818232 74.2003 0.498834C73.8809 0.179436 73.4477 0 72.996 0L66.1835 0C65.7318 0 65.2986 0.179436 64.9792 0.498834C64.6598 0.818232 64.4803 1.25143 64.4803 1.70312C64.4803 2.15482 64.6598 2.58802 64.9792 2.90742C65.2986 3.22681 65.7318 3.40625 66.1835 3.40625H72.996C73.4477 3.40625 73.8809 3.22681 74.2003 2.90742C74.5197 2.58802 74.6991 2.15482 74.6991 1.70312Z" fill="#190933"/>
<path d="M61.0741 1.70312C61.0741 1.25143 60.8947 0.818232 60.5753 0.498834C60.2559 0.179436 59.8227 0 59.371 0L52.5585 0C52.1068 0 51.6736 0.179436 51.3542 0.498834C51.0348 0.818232 50.8553 1.25143 50.8553 1.70312C50.8553 2.15482 51.0348 2.58802 51.3542 2.90742C51.6736 3.22681 52.1068 3.40625 52.5585 3.40625H59.371C59.8227 3.40625 60.2559 3.22681 60.5753 2.90742C60.8947 2.58802 61.0741 2.15482 61.0741 1.70312Z" fill="#190933"/>
<path d="M88.5625 6.3186V13.1311C88.5625 13.5828 88.7419 14.016 89.0613 14.3354C89.3807 14.6548 89.8139 14.8342 90.2656 14.8342C90.7173 14.8342 91.1505 14.6548 91.4699 14.3354C91.7893 14.016 91.9688 13.5828 91.9688 13.1311V6.3186C91.9688 5.86691 91.7893 5.43371 91.4699 5.11431C91.1505 4.79491 90.7173 4.61548 90.2656 4.61548C89.8139 4.61548 89.3807 4.79491 89.0613 5.11431C88.7419 5.43371 88.5625 5.86691 88.5625 6.3186Z" fill="#190933"/>
<path d="M79.8085 0C79.3568 0 78.9236 0.179436 78.6042 0.498834C78.2848 0.818232 78.1053 1.25143 78.1053 1.70312C78.1053 2.15482 78.2848 2.58802 78.6042 2.90742C78.9236 3.22681 79.3568 3.40625 79.8085 3.40625H86.621C87.0727 3.40625 87.5059 3.22681 87.8253 2.90742C88.1447 2.58802 88.3241 2.15482 88.3241 1.70312C88.3241 1.25143 88.1447 0.818232 87.8253 0.498834C87.5059 0.179436 87.0727 0 86.621 0L79.8085 0Z" fill="#190933"/>
<path d="M30.6563 6.81245V5.10932C30.6552 4.67754 30.8182 4.26148 31.1122 3.9453C31.4063 3.62911 31.8095 3.43642 32.2402 3.4062C32.6861 3.37131 33.1004 3.1624 33.3935 2.82462C33.6867 2.48683 33.8352 2.04727 33.807 1.60089C33.794 1.37709 33.7369 1.15807 33.6391 0.956381C33.5412 0.754693 33.4045 0.574308 33.2368 0.425572C33.0691 0.276836 32.8736 0.162675 32.6617 0.0896362C32.4498 0.0165977 32.2255 -0.0138811 32.0017 -5.20621e-05C30.7096 0.0906182 29.5001 0.668697 28.6179 1.61724C27.7358 2.56579 27.2468 3.81398 27.25 5.10932V6.81245C27.25 7.26414 27.4295 7.69734 27.7488 8.01674C28.0682 8.33614 28.5014 8.51557 28.9531 8.51557C29.4048 8.51557 29.838 8.33614 30.1574 8.01674C30.4768 7.69734 30.6563 7.26414 30.6563 6.81245Z" fill="#190933"/>
<path d="M80.0469 82.6016C80.5521 82.6016 81.0461 82.4517 81.4662 82.171C81.8863 81.8903 82.2137 81.4913 82.4071 81.0245C82.6005 80.5577 82.651 80.044 82.5525 79.5485C82.4539 79.0529 82.2106 78.5977 81.8533 78.2404C81.496 77.8832 81.0408 77.6398 80.5453 77.5413C80.0497 77.4427 79.536 77.4933 79.0692 77.6867C78.6024 77.88 78.2034 78.2074 77.9227 78.6276C77.642 79.0477 77.4922 79.5416 77.4922 80.0469C77.4922 80.7244 77.7613 81.3742 78.2404 81.8533C78.7195 82.3324 79.3693 82.6016 80.0469 82.6016ZM80.0469 79.1953C80.2153 79.1953 80.3799 79.2453 80.52 79.3388C80.66 79.4324 80.7692 79.5654 80.8336 79.721C80.8981 79.8766 80.9149 80.0478 80.8821 80.213C80.8492 80.3782 80.7681 80.5299 80.649 80.649C80.5299 80.7681 80.3782 80.8492 80.213 80.8821C80.0478 80.9149 79.8766 80.8981 79.721 80.8336C79.5654 80.7692 79.4324 80.66 79.3388 80.52C79.2453 80.3799 79.1953 80.2153 79.1953 80.0469C79.1953 79.821 79.285 79.6044 79.4447 79.4447C79.6044 79.285 79.821 79.1953 80.0469 79.1953Z" fill="#190933"/>
<path d="M88.5625 82.6016H100.484C101.162 82.6016 101.812 82.3324 102.291 81.8533C102.77 81.3742 103.039 80.7244 103.039 80.0469C103.039 79.3693 102.77 78.7195 102.291 78.2404C101.812 77.7613 101.162 77.4922 100.484 77.4922H88.5625C87.885 77.4922 87.2352 77.7613 86.7561 78.2404C86.277 78.7195 86.0078 79.3693 86.0078 80.0469C86.0078 80.7244 86.277 81.3742 86.7561 81.8533C87.2352 82.3324 87.885 82.6016 88.5625 82.6016ZM88.5625 79.1953H100.484C100.71 79.1953 100.927 79.285 101.087 79.4447C101.246 79.6044 101.336 79.821 101.336 80.0469C101.336 80.2727 101.246 80.4893 101.087 80.649C100.927 80.8087 100.71 80.8984 100.484 80.8984H88.5625C88.3367 80.8984 88.1201 80.8087 87.9604 80.649C87.8007 80.4893 87.7109 80.2727 87.7109 80.0469C87.7109 79.821 87.8007 79.6044 87.9604 79.4447C88.1201 79.285 88.3367 79.1953 88.5625 79.1953Z" fill="#190933"/>
<path d="M99.2581 53.6484H91.4919C90.4905 53.6529 89.5314 54.0527 88.8233 54.7608C88.1152 55.4689 87.7154 56.428 87.7109 57.4294V58.3831C87.7154 59.3845 88.1152 60.3436 88.8233 61.0517C89.5314 61.7598 90.4905 62.1596 91.4919 62.1641H96.1925C96.606 62.1623 97.0101 62.2871 97.3506 62.5217L101.711 65.4341C101.855 65.52 102.019 65.567 102.188 65.5703C102.33 65.569 102.47 65.534 102.596 65.4681C102.729 65.3932 102.841 65.2845 102.918 65.1529C102.996 65.0213 103.038 64.8716 103.039 64.7188V57.4294C103.035 56.428 102.635 55.4689 101.927 54.7608C101.219 54.0527 100.26 53.6529 99.2581 53.6484ZM101.336 63.1348L98.2873 61.0911C97.6664 60.6792 96.9376 60.46 96.1925 60.4609H91.4919C90.9408 60.4609 90.4123 60.242 90.0226 59.8524C89.633 59.4627 89.4141 58.9342 89.4141 58.3831V57.4294C89.4141 56.8783 89.633 56.3498 90.0226 55.9601C90.4123 55.5705 90.9408 55.3516 91.4919 55.3516H99.2581C99.8092 55.3516 100.338 55.5705 100.727 55.9601C101.117 56.3498 101.336 56.8783 101.336 57.4294V63.1348Z" fill="#190933"/>
<path d="M92.8203 43.055V42.1012C92.8158 41.0999 92.416 40.1408 91.708 39.4327C90.9999 38.7246 90.0408 38.3248 89.0394 38.3203H81.2731C80.2717 38.3248 79.3126 38.7246 78.6045 39.4327C77.8965 40.1408 77.4967 41.0999 77.4922 42.1012V49.3906C77.4935 49.5434 77.5352 49.6932 77.613 49.8248C77.6907 49.9564 77.8018 50.0651 77.935 50.14C78.0613 50.2058 78.2013 50.2408 78.3438 50.2422C78.5118 50.2388 78.6761 50.1919 78.8206 50.1059L83.1806 47.1936C83.5211 46.959 83.9253 46.8342 84.3388 46.8359H89.0394C90.0408 46.8315 90.9999 46.4317 91.708 45.7236C92.416 45.0155 92.8158 44.0564 92.8203 43.055ZM82.2439 45.763L79.1953 47.8067V42.1012C79.1953 41.5502 79.4142 41.0217 79.8039 40.632C80.1936 40.2424 80.7221 40.0234 81.2731 40.0234H89.0394C89.5904 40.0234 90.1189 40.2424 90.5086 40.632C90.8983 41.0217 91.1172 41.5502 91.1172 42.1012V43.055C91.1172 43.6061 90.8983 44.1346 90.5086 44.5242C90.1189 44.9139 89.5904 45.1328 89.0394 45.1328H84.3388C83.5936 45.1319 82.8648 45.3511 82.2439 45.763Z" fill="#190933"/>
</g>
<defs>
<clipPath id="clip0">
<rect width="109" height="109" fill="white"/>
</clipPath>
</defs>
</svg>
