<svg width="117" height="113" viewBox="0 0 117 113" fill="none" xmlns="http://www.w3.org/2000/svg">
<path d="M109.295 6.60624H104.333L105.019 6.19381C105.249 6.05502 105.438 5.85765 105.567 5.62184C105.696 5.38602 105.76 5.12023 105.752 4.8516C105.745 4.58298 105.666 4.32115 105.524 4.09285C105.383 3.86456 105.183 3.67799 104.945 3.55219L99.5861 0.710689C99.3671 0.594483 99.123 0.533672 98.8751 0.533569H16.1805C14.9725 0.533569 13.8141 1.01342 12.96 1.86755C12.1058 2.72169 11.626 3.88014 11.626 5.08807C11.6239 5.6048 11.7094 6.11813 11.879 6.60624H8.08358C6.07036 6.60624 4.1396 7.40599 2.71604 8.82955C1.29248 10.2531 0.492737 12.1839 0.492737 14.1971V22.2788C0.492737 22.6814 0.652686 23.0676 0.937398 23.3523C1.22211 23.637 1.60826 23.797 2.0109 23.797C2.41355 23.797 2.7997 23.637 3.08441 23.3523C3.36912 23.0676 3.52907 22.6814 3.52907 22.2788V14.1971C3.52907 12.9892 4.00892 11.8307 4.86306 10.9766C5.71719 10.1224 6.87565 9.64258 8.08358 9.64258H109.295C110.503 9.64258 111.661 10.1224 112.515 10.9766C113.369 11.8307 113.849 12.9892 113.849 14.1971V105.287C113.849 106.495 113.369 107.654 112.515 108.508C111.661 109.362 110.503 109.842 109.295 109.842H8.08358C6.87565 109.842 5.71719 109.362 4.86306 108.508C4.00892 107.654 3.52907 106.495 3.52907 105.287C3.52907 98.382 3.52907 87.1805 3.52907 74.8049C3.52907 59.5271 3.54425 42.4578 3.54425 29.4724C3.54425 29.0697 3.3843 28.6836 3.09959 28.3989C2.81488 28.1142 2.42873 27.9542 2.02609 27.9542C1.62344 27.9542 1.23729 28.1142 0.95258 28.3989C0.667868 28.6836 0.507918 29.0697 0.507918 29.4724C0.507918 42.4578 0.507918 59.5245 0.492737 74.8024C0.492737 87.1805 0.492737 98.382 0.492737 105.287C0.492737 107.3 1.29248 109.231 2.71604 110.655C4.1396 112.078 6.07036 112.878 8.08358 112.878H109.295C110.292 112.878 111.279 112.682 112.2 112.3C113.121 111.919 113.957 111.36 114.662 110.655C115.367 109.95 115.926 109.113 116.308 108.192C116.689 107.271 116.886 106.284 116.886 105.287V14.1971C116.886 12.1839 116.086 10.2531 114.662 8.82955C113.239 7.40599 111.308 6.60624 109.295 6.60624ZM15.1051 6.15838C14.8938 5.94579 14.7501 5.67538 14.6922 5.38126C14.6343 5.08713 14.6648 4.78245 14.7798 4.50562C14.8948 4.22879 15.0892 3.99221 15.3385 3.82569C15.5877 3.65917 15.8807 3.57017 16.1805 3.56991H77.4132V6.60624H16.1805C15.9806 6.60607 15.7827 6.56641 15.5981 6.48956C15.4136 6.4127 15.246 6.30016 15.1051 6.15838ZM80.4496 6.60624V3.56991H98.5006L101.155 4.97674L98.455 6.60624H80.4496Z" fill="black"/>
<path d="M102.352 27.8606C104.059 27.8606 105.696 27.1824 106.903 25.9752C108.111 24.7681 108.789 23.1308 108.789 21.4236V21.039C108.789 19.3318 108.111 17.6945 106.903 16.4873C105.696 15.2801 104.059 14.6019 102.352 14.6019H15.0267C13.3195 14.6019 11.6822 15.2801 10.475 16.4873C9.26785 17.6945 8.58966 19.3318 8.58966 21.039V21.4236C8.58966 23.1308 9.26785 24.7681 10.475 25.9752C11.6822 27.1824 13.3195 27.8606 15.0267 27.8606H102.352ZM35.9167 24.8243V17.6383H81.4617V24.8243H35.9167ZM104.755 18.6352C105.073 18.9499 105.324 19.3244 105.495 19.7371C105.666 20.1497 105.754 20.5922 105.752 21.039V21.4236C105.753 21.8702 105.665 22.3126 105.494 22.7253C105.323 23.1381 105.073 23.5131 104.757 23.829C104.441 24.1448 104.066 24.3953 103.653 24.5661C103.241 24.7369 102.798 24.8246 102.352 24.8243H84.4981V17.6383H102.352C102.798 17.6371 103.241 17.7246 103.654 17.8958C104.066 18.0669 104.441 18.3182 104.755 18.6352ZM11.626 21.4185V21.0339C11.6263 20.5876 11.7146 20.1458 11.8856 19.7337C12.0567 19.3215 12.3073 18.9471 12.6231 18.6318C12.9389 18.3165 13.3137 18.0664 13.7261 17.896C14.1385 17.7255 14.5804 17.6379 15.0267 17.6383H32.8803V24.8243H15.0267C14.125 24.8236 13.2604 24.4651 12.6228 23.8275C11.9852 23.1899 11.6267 22.3253 11.626 21.4236V21.4185Z" fill="black"/>
<path d="M8.58966 99.2145C8.58966 101.228 9.38941 103.159 10.813 104.582C12.2365 106.006 14.1673 106.805 16.1805 106.805H101.198C103.211 106.805 105.142 106.006 106.565 104.582C107.989 103.159 108.789 101.228 108.789 99.2145V97.1093C108.789 96.7067 108.629 96.3205 108.344 96.0358C108.059 95.7511 107.673 95.5912 107.271 95.5912C106.868 95.5912 106.482 95.7511 106.197 96.0358C105.912 96.3205 105.752 96.7067 105.752 97.1093V99.2145C105.752 100.422 105.273 101.581 104.418 102.435C103.564 103.289 102.406 103.769 101.198 103.769H16.1805C14.9726 103.769 13.8141 103.289 12.96 102.435C12.1058 101.581 11.626 100.422 11.626 99.2145V38.4878C11.626 37.2799 12.1058 36.1214 12.96 35.2673C13.8141 34.4132 14.9726 33.9333 16.1805 33.9333H101.198C102.406 33.9333 103.564 34.4132 104.418 35.2673C105.273 36.1214 105.752 37.2799 105.752 38.4878V86.9553C105.752 87.4361 105.778 88.1952 105.78 88.2205C105.787 88.4198 105.833 88.6159 105.916 88.7974C105.999 88.9789 106.117 89.1424 106.262 89.2784C106.408 89.4145 106.58 89.5204 106.767 89.5903C106.953 89.6601 107.152 89.6925 107.352 89.6855C107.551 89.6785 107.747 89.6323 107.928 89.5496C108.11 89.4669 108.273 89.3492 108.409 89.2033C108.546 89.0574 108.651 88.8861 108.721 88.6992C108.791 88.5124 108.824 88.3136 108.817 88.1142C108.817 88.1142 108.791 87.3754 108.791 86.9477V38.4878C108.791 36.4746 107.992 34.5438 106.568 33.1203C105.144 31.6967 103.214 30.897 101.2 30.897H16.183C14.1698 30.897 12.2391 31.6967 10.8155 33.1203C9.39194 34.5438 8.59219 36.4746 8.59219 38.4878L8.58966 99.2145Z" fill="black"/>
<path d="M24.2774 47.5967C25.9543 47.5967 27.3137 46.2373 27.3137 44.5604C27.3137 42.8835 25.9543 41.524 24.2774 41.524C22.6004 41.524 21.241 42.8835 21.241 44.5604C21.241 46.2373 22.6004 47.5967 24.2774 47.5967Z" fill="black"/>
<path d="M97.1494 47.5967C98.8263 47.5967 100.186 46.2373 100.186 44.5604C100.186 42.8835 98.8263 41.524 97.1494 41.524C95.4725 41.524 94.113 42.8835 94.113 44.5604C94.113 46.2373 95.4725 47.5967 97.1494 47.5967Z" fill="black"/>
<path d="M24.2774 98.2024C25.9543 98.2024 27.3137 96.843 27.3137 95.1661C27.3137 93.4892 25.9543 92.1298 24.2774 92.1298C22.6004 92.1298 21.241 93.4892 21.241 95.1661C21.241 96.843 22.6004 98.2024 24.2774 98.2024Z" fill="black"/>
<path d="M97.1494 98.2024C98.8263 98.2024 100.186 96.843 100.186 95.1661C100.186 93.4892 98.8263 92.1298 97.1494 92.1298C95.4725 92.1298 94.113 93.4892 94.113 95.1661C94.113 96.843 95.4725 98.2024 97.1494 98.2024Z" fill="black"/>
</svg>
